<?xml version="1.0" encoding="UTF-8" standalone="no"?>
<svg version="1.1" xmlns="http://www.w3.org/2000/svg" xmlns:xlink="http://www.w3.org/1999/xlink" xmlns:i="http://ns.adobe.com/AdobeIllustrator/10.0/" width="216.407" height="153.763">
	<defs>
		<clipPath id="clip_dp_001" clipPathUnits="userSpaceOnUse" clip-rule="nonzero">
			<path d="M 1068.66,1203.36 L 1142.84,1227.62 L 1117.55,1302.86 L 1043.37,1278.59 Z " clip-rule="nonzero"/>
		</clipPath>
	</defs>
	<g id="dp_dp001" transform="matrix(1,0,0,1,-983.223,-1203.36)">
		<polygon id="dp_polygon002" fill="black" fill-rule="evenodd" fill-opacity="0.376471" stroke="none" stroke-width="0" points="1193.13,1345.31 1192.69,1344.59 1192.25,1343.89 1191.81,1343.18 1191.37,1342.48 1190.93,1341.78 1190.48,1341.09 1190.03,1340.4 1189.58,1339.71 1189.13,1339.03 1188.68,1338.35 1188.22,1337.67 1187.77,1336.99 1187.31,1336.31 1186.85,1335.64 1186.39,1334.96 1185.93,1334.29 1185.47,1333.62 1185.01,1332.95 1184.55,1332.28 1184.09,1331.61 1183.63,1330.94 1183.17,1330.27 1182.71,1329.6 1180.87,1329.12 1179.03,1328.64 1177.21,1328.16 1175.4,1327.68 1173.59,1327.2 1171.8,1326.72 1170.01,1326.24 1168.24,1325.75 1166.47,1325.27 1164.72,1324.78 1162.98,1324.3 1161.24,1323.81 1159.52,1323.32 1157.81,1322.83 1156.11,1322.34 1154.41,1321.85 1152.73,1321.35 1151.07,1320.86 1149.41,1320.36 1147.76,1319.86 1146.12,1319.36 1144.5,1318.86 1142.88,1318.36 1141.28,1317.85 1139.69,1317.34 1138.11,1316.84 1139.32,1316.33 1140.52,1315.81 1141.72,1315.3 1142.91,1314.79 1144.09,1314.27 1145.27,1313.75 1146.45,1313.23 1147.62,1312.71 1148.78,1312.18 1149.94,1311.65 1151.1,1311.12 1152.25,1310.59 1153.39,1310.05 1154.54,1309.51 1155.68,1308.97 1156.81,1308.43 1157.94,1307.88 1159.07,1307.33 1160.2,1306.78 1160.17,1306.72 1160.14,1306.65 1159.2,1306.78 1158.81,1306.87 1158.41,1306.95 1158.01,1307.03 1157.61,1307.1 1157.21,1307.18 1156.8,1307.25 1156.39,1307.32 1155.98,1307.39 1154.28,1307.67 1152.58,1307.95 1150.88,1308.23 1149.17,1308.51 1147.47,1308.79 1145.77,1309.08 1144.06,1309.36 1142.35,1309.64 1140.64,1309.92 1138.93,1310.2 1137.21,1310.48 1136.81,1310.54 1136.41,1310.61 1135.6,1310.75 1134.8,1310.88 1134.39,1310.95 1133.98,1311.02 1133.58,1311.08 1133.17,1311.15 1132.75,1311.21 1132.55,1311.24 1132.34,1311.27 1132.13,1311.29 1131.92,1311.32 1131.71,1311.35 1131.5,1311.38 1131.29,1311.4 1131.08,1311.43 1130.86,1311.45 1130.65,1311.47 1128.56,1311.86 1128.9,1312.95 1129.25,1314.03 1129.51,1314.85 1129.78,1315.66 1130.05,1316.46 1130.32,1317.25 1130.6,1318.05 1130.88,1318.83 1131.15,1319.61 1131.41,1320.32 1131.67,1321.03 1131.93,1321.73 1132.19,1322.43 1132.45,1323.12 1132.71,1323.82 1132.98,1324.51 1133.24,1325.2 1133.51,1325.88 1133.77,1326.57 1134.04,1327.25 1134.31,1327.93 1134.58,1328.61 1134.84,1329.3 1135.11,1329.98 1136.84,1330.46 1138.58,1330.94 1140.33,1331.43 1142.09,1331.92 1143.86,1332.4 1145.64,1332.89 1147.43,1333.37 1149.23,1333.86 1151.04,1334.35 1152.86,1334.83 1154.69,1335.32 1156.53,1335.81 1158.38,1336.3 1160.24,1336.79 1162.11,1337.28 1163.98,1337.78 1165.87,1338.27 1167.76,1338.76 1169.67,1339.26 1171.58,1339.75 1173.5,1340.25 1175.43,1340.75 1177.36,1341.25 1179.31,1341.75 1181.26,1342.25 1183.22,1342.76 1185.18,1343.27 1187.16,1343.77 1189.14,1344.28 1191.13,1344.79 1193.13,1345.31"/>
		<polygon id="dp_polygon003" fill="black" fill-rule="evenodd" fill-opacity="0.376471" stroke="none" stroke-width="0" points="1091.26,1336.63 1089.61,1336.13 1087.98,1335.64 1086.35,1335.15 1085.89,1334.91 1084.12,1334.37 1082.35,1333.83 1080.6,1333.29 1078.86,1332.75 1077.14,1332.21 1075.43,1331.68 1073.72,1331.14 1072.03,1330.61 1070.36,1330.07 1068.7,1329.53 1067.04,1328.99 1065.4,1328.46 1063.78,1327.92 1062.16,1327.38 1060.6,1327.86 1059.03,1328.34 1057.45,1328.81 1055.86,1329.29 1054.26,1329.77 1052.65,1330.25 1051.02,1330.72 1049.39,1331.2 1047.74,1331.68 1046.09,1332.15 1045.93,1332.86 1045.78,1333.57 1045.62,1334.28 1045.46,1334.99 1045.31,1335.7 1045.15,1336.42 1045,1337.13 1044.84,1337.85 1046.41,1338.36 1047.98,1338.86 1049.56,1339.37 1051.16,1339.88 1052.76,1340.39 1054.37,1340.91 1056,1341.42 1057.63,1341.94 1059.28,1342.45 1060.93,1342.98 1061.38,1343.23 1063.08,1343.76 1064.79,1344.3 1066.51,1344.84 1068.24,1345.39 1069.98,1345.93 1071.73,1346.48 1073.49,1347.03 1075.27,1347.59 1077.05,1348.15 1078.84,1348.71 1080.65,1349.27 1082.46,1349.84 1084.28,1350.41 1086.12,1350.99 1087.78,1350.73 1087.96,1350.7 1088.14,1350.67 1088.34,1350.65 1088.54,1350.62 1088.95,1350.56 1089.37,1350.51 1089.79,1350.46 1089.99,1350.43 1090.19,1350.41 1090.37,1350.39 1090.55,1350.37 1090.72,1350.35 1090.87,1350.34 1090.92,1350.33 1090.98,1350.33 1091.05,1350.32 1091.13,1350.31 1091.32,1350.29 1091.52,1350.27 1091.73,1350.25 1091.84,1350.23 1091.94,1350.22 1092.04,1350.22 1092.13,1350.21 1092.22,1350.21 1092.26,1350.21 1092.3,1350.2 1092.25,1349.45 1092.2,1348.69 1092.15,1347.95 1092.09,1347.21 1092.04,1346.47 1091.99,1345.74 1091.93,1345.02 1091.88,1344.3 1091.82,1343.58 1091.77,1342.87 1091.71,1342.16 1091.66,1341.46 1091.6,1340.76 1091.54,1340.07 1091.49,1339.37 1091.43,1338.68 1091.37,1338 1091.32,1337.31 1091.26,1336.63"/>
		<polygon id="dp_polygon004" fill="black" fill-rule="evenodd" fill-opacity="0.376471" stroke="none" stroke-width="0" points="1087.05,1335.02 1088.87,1334.51 1090.67,1334.01 1091.38,1333.67 1091.34,1333.64 1091.31,1333.6 1091.27,1333.57 1091.26,1333.55 1091.24,1333.53 1091.23,1333.5 1091.21,1333.47 1091.2,1333.44 1091.18,1333.41 1091.16,1333.33 1091.13,1333.24 1091.1,1333.12 1091.07,1332.98 1091.04,1332.81 1091.01,1332.62 1090.98,1332.39 1090.94,1332.13 1090.91,1331.84 1090.87,1331.5 1090.83,1331.12 1090.79,1330.69 1090.69,1329.7 1090.58,1328.48 1090.51,1327.75 1090.45,1327.02 1090.37,1326.16 1090.3,1325.29 1090.24,1324.62 1090.19,1323.94 1090.13,1323.26 1090.07,1322.54 1090.01,1321.81 1089.95,1321.09 1089.89,1320.35 1089.83,1319.62 1089.78,1318.88 1089.72,1318.13 1088.39,1318.63 1087.04,1319.12 1085.69,1319.61 1084.33,1320.1 1082.96,1320.59 1081.58,1321.08 1080.19,1321.56 1078.79,1322.04 1077.37,1322.53 1075.95,1323 1074.52,1323.48 1073.08,1323.96 1071.63,1324.44 1070.17,1324.91 1068.7,1325.38 1067.22,1325.86 1065.73,1326.33 1064.22,1326.8 1062.71,1327.27 1064.16,1327.75 1065.61,1328.24 1067.08,1328.72 1068.56,1329.21 1070.04,1329.69 1071.54,1330.18 1073.04,1330.66 1074.56,1331.14 1076.08,1331.63 1077.62,1332.11 1079.17,1332.59 1080.72,1333.08 1082.29,1333.57 1083.87,1334.05 1085.45,1334.54 1087.05,1335.02"/>
		<polygon id="dp_polygon005" fill="black" fill-rule="evenodd" fill-opacity="0.376471" stroke="none" stroke-width="0" points="1089.51,1315.33 1089.45,1314.56 1089.4,1313.78 1089.34,1313 1089.29,1312.21 1089.23,1311.41 1089.18,1310.61 1089.13,1309.79 1089.08,1308.97 1089.02,1308.15 1088.97,1307.31 1088.92,1306.46 1088.87,1305.61 1088.82,1304.75 1088.69,1304.76 1088.55,1304.78 1088.42,1304.8 1088.27,1304.81 1088.13,1304.83 1087.98,1304.85 1087.84,1304.88 1087.69,1304.9 1087.55,1304.92 1087.41,1304.94 1087.28,1304.97 1087.15,1304.99 1087.03,1305.01 1086.91,1305.04 1086.81,1305.06 1086.71,1305.08 1086.55,1305.11 1086.38,1305.15 1086.22,1305.18 1086.05,1305.22 1085.88,1305.25 1085.71,1305.28 1085.55,1305.31 1085.38,1305.34 1085.21,1305.37 1085.03,1305.39 1084.69,1305.45 1084.35,1305.5 1083.99,1305.56 1081.87,1305.96 1079.74,1306.37 1077.59,1306.77 1077.17,1306.85 1076.74,1306.92 1076.32,1307 1075.9,1307.08 1075.47,1307.17 1075.05,1307.25 1074.63,1307.34 1074.21,1307.42 1073.85,1307.5 1073.49,1307.57 1073.13,1307.64 1072.77,1307.71 1072.4,1307.78 1072.03,1307.85 1071.67,1307.91 1071.3,1307.98 1072.76,1308.62 1074.23,1309.25 1075.71,1309.88 1077.2,1310.51 1078.7,1311.12 1080.21,1311.74 1080.42,1311.83 1080.64,1311.93 1080.87,1312.03 1081.12,1312.13 1081.38,1312.24 1081.65,1312.35 1081.93,1312.47 1082.22,1312.58 1082.83,1312.82 1083.46,1313.07 1084.11,1313.32 1084.77,1313.57 1085.43,1313.82 1086.09,1314.07 1087.37,1314.54 1087.97,1314.76 1088.53,1314.97 1089.05,1315.16 1089.51,1315.33"/>
		<polygon id="dp_polygon006" fill="black" fill-rule="evenodd" fill-opacity="0.376471" stroke="none" stroke-width="0" points="1043.24,1348.11 1045.16,1347.54 1047.07,1346.97 1048.97,1346.41 1050.87,1345.85 1052.75,1345.29 1054.62,1344.74 1056.49,1344.19 1058.34,1343.65 1060.18,1343.11 1058.6,1342.6 1057.03,1342.09 1055.46,1341.58 1053.91,1341.08 1052.37,1340.57 1050.83,1340.07 1049.31,1339.57 1047.79,1339.07 1046.29,1338.58 1044.79,1338.08 1044.65,1338.77 1044.5,1339.47 1044.36,1340.16 1044.21,1340.86 1044.07,1341.57 1043.93,1342.27 1043.79,1342.98 1043.65,1343.7 1043.51,1344.42 1043.37,1345.15 1043.24,1345.88 1043.1,1346.61 1042.97,1347.36 1042.83,1348.1 1043.03,1348.1 1043.24,1348.11"/>
		<polygon id="dp_polygon007" fill="black" fill-rule="evenodd" fill-opacity="0.376471" stroke="none" stroke-width="0" points="1047.19,1327.2 1047.04,1327.87 1046.89,1328.53 1046.74,1329.2 1046.6,1329.87 1046.45,1330.53 1046.3,1331.2 1046.15,1331.87 1046.52,1331.87 1048.27,1331.36 1050,1330.85 1051.73,1330.33 1053.44,1329.82 1055.14,1329.31 1056.83,1328.8 1058.51,1328.29 1060.17,1327.78 1061.83,1327.26 1060.43,1326.79 1059.03,1326.31 1057.65,1325.83 1056.28,1325.36 1054.91,1324.88 1053.55,1324.39 1052.2,1323.91 1050.86,1323.43 1049.53,1322.95 1048.21,1322.46 1048.06,1323.14 1047.92,1323.82 1047.77,1324.5 1047.63,1325.18 1047.48,1325.85 1047.33,1326.53 1047.19,1327.2"/>
		<polygon id="dp_polygon008" fill="black" fill-rule="evenodd" fill-opacity="0.376471" stroke="none" stroke-width="0" points="1143.71,1354.33 1143.79,1354.66 1143.88,1354.96 1143.97,1355.25 1144.05,1355.51 1144.13,1355.76 1144.21,1355.99 1144.29,1356.21 1144.36,1356.4 1144.44,1356.57 1144.51,1356.72 1144.54,1356.79 1144.57,1356.85 1144.61,1356.9 1144.64,1356.95 1144.67,1357 1144.7,1357.03 1144.73,1357.07 1144.76,1357.09 1144.79,1357.12 1144.8,1357.12 1144.81,1357.13 1144.83,1357.14 1144.84,1357.14 1144.85,1357.14 1144.86,1357.14 1144.96,1357.14 1145.06,1357.14 1145.16,1357.13 1145.25,1357.13 1145.34,1357.12 1145.43,1357.11 1145.52,1357.11 1145.61,1357.1 1145.69,1357.09 1145.78,1357.07 1145.95,1357.05 1146.13,1357.02 1146.31,1357 1146.57,1356.96 1146.83,1356.92 1147.1,1356.88 1147.36,1356.84 1147.88,1356.76 1148.39,1356.68 1148.9,1356.59 1149.41,1356.51 1150.43,1356.34 1150.82,1356.3 1151.2,1356.26 1151.58,1356.22 1151.95,1356.18 1152.32,1356.14 1152.69,1356.09 1153.06,1356.04 1153.42,1356 1153.78,1355.95 1154.14,1355.9 1154.5,1355.85 1154.86,1355.79 1155.22,1355.74 1155.57,1355.69 1156.29,1355.58 1156.41,1355.51 1154.47,1354.95 1152.53,1354.38 1150.59,1353.82 1148.67,1353.27 1146.75,1352.71 1144.84,1352.16 1142.93,1351.62 1143.19,1352.51 1143.45,1353.42 1143.71,1354.33"/>
		<polygon id="dp_polygon009" fill="black" fill-rule="evenodd" fill-opacity="0.376471" stroke="none" stroke-width="0" points="1008.96,1305.34 1010.14,1305.95 1011.33,1306.56 1012.52,1307.16 1013.72,1307.76 1014.92,1308.35 1016.12,1308.94 1017.33,1309.52 1018.54,1310.1 1019.76,1310.67 1020.98,1311.24 1022.2,1311.81 1023.43,1312.37 1024.66,1312.92 1025.9,1313.47 1027.14,1314.02 1028.39,1314.56 1029.65,1315.1 1030.91,1315.64 1032.17,1316.17 1033.45,1316.7 1034.72,1317.23 1036.01,1317.75 1037.3,1318.27 1038.6,1318.79 1039.9,1319.3 1041.22,1319.81 1042.53,1320.32 1043.86,1320.83 1045.2,1321.33 1046.54,1321.84 1047.89,1322.34 1047.74,1323.04 1047.59,1323.75 1047.44,1324.45 1047.29,1325.14 1047.13,1325.84 1046.98,1326.53 1046.83,1327.22 1046.67,1327.91 1046.52,1328.6 1046.37,1329.29 1046.21,1329.98 1046.06,1330.67 1045.9,1331.35 1045.75,1332.04 1044.11,1332.51 1042.47,1332.97 1040.81,1333.44 1039.15,1333.9 1037.48,1334.37 1035.79,1334.84 1034.28,1334.33 1032.77,1333.82 1031.27,1333.31 1029.79,1332.8 1028.31,1332.29 1026.84,1331.78 1025.38,1331.27 1023.93,1330.76 1022.49,1330.25 1021.05,1329.74 1019.63,1329.23 1018.21,1328.71 1017.36,1328.41 1016.43,1328.07 1015.42,1327.7 1014.36,1327.31 1012.12,1326.48 1009.81,1325.6 1007.52,1324.72 1005.36,1323.87 1003.56,1323.16 1001.77,1322.44 1002.11,1321.75 1002.44,1321.06 1002.77,1320.37 1003.1,1319.67 1003.43,1318.97 1003.75,1318.26 1004.08,1317.55 1004.4,1316.83 1004.72,1316.11 1005.04,1315.38 1005.35,1314.65 1005.67,1313.91 1005.98,1313.17 1006.29,1312.41 1006.6,1311.66 1006.9,1310.89 1007.2,1310.12 1007.5,1309.34 1007.8,1308.56 1008.09,1307.77 1008.38,1306.96 1008.67,1306.15 1008.96,1305.34"/>
		<polygon id="dp_polygon010" fill="black" fill-rule="evenodd" fill-opacity="0.376471" stroke="none" stroke-width="0" points="1022.88,1354.23 1024.82,1353.63 1026.76,1353.04 1028.68,1352.46 1030.61,1351.88 1032.52,1351.3 1034.42,1350.73 1036.32,1350.16 1038.21,1349.6 1040.09,1349.04 1041.96,1348.48 1042.17,1348.42 1042.18,1348.41 1042.19,1348.41 1042.2,1348.38 1042.22,1348.35 1042.24,1348.29 1042.26,1348.23 1042.28,1348.15 1042.33,1347.96 1042.39,1347.73 1042.46,1347.45 1042.53,1347.13 1042.61,1346.78 1042.7,1346.4 1042.79,1345.98 1042.88,1345.54 1042.97,1345.08 1043.07,1344.59 1043.18,1344.09 1043.28,1343.57 1043.39,1343.04 1043.53,1342.3 1043.68,1341.57 1043.83,1340.84 1043.98,1340.11 1044.14,1339.39 1044.29,1338.68 1044.44,1337.96 1042.97,1337.48 1041.5,1336.99 1040.04,1336.51 1038.6,1336.03 1037.16,1335.55 1035.73,1335.07 1033.99,1335.55 1032.24,1336.03 1030.48,1336.52 1028.71,1337 1026.94,1337.49 1025.15,1337.97 1023.35,1338.46 1021.55,1338.95 1019.73,1339.44 1017.91,1339.93 1016.07,1340.43 1014.23,1340.93 1012.38,1341.43 1010.52,1341.93 1008.66,1342.43 1006.78,1342.94 1004.9,1343.45 1003.01,1343.96 1001.11,1344.47 999.203,1344.99 997.289,1345.51 995.368,1346.03 993.44,1346.56 991.505,1347.09 989.563,1347.63 989.035,1348.9 989.717,1349.02 990.115,1349.09 990.524,1349.15 990.927,1349.22 991.117,1349.25 991.3,1349.28 991.471,1349.3 991.627,1349.33 991.765,1349.34 991.885,1349.36 994.111,1349.71 996.344,1350.07 998.584,1350.43 1000.83,1350.79 1003.09,1351.15 1005.35,1351.51 1007.62,1351.87 1009.9,1352.24 1012.18,1352.6 1013.52,1352.8 1014.85,1353 1016.19,1353.2 1017.52,1353.4 1018.86,1353.61 1020.2,1353.81 1021.54,1354.02 1022.88,1354.23"/>
		<polygon id="dp_polygon011" fill="black" fill-rule="evenodd" fill-opacity="0.376471" stroke="none" stroke-width="0" points="1118.06,1324.95 1118.3,1325.05 1119.89,1325.53 1121.5,1326.01 1123.11,1326.48 1124.73,1326.96 1126.36,1327.43 1128.01,1327.91 1129.66,1328.38 1131.33,1328.86 1133,1329.33 1134.69,1329.8 1134.41,1329.1 1134.14,1328.4 1133.86,1327.7 1133.59,1327 1133.32,1326.29 1133.05,1325.59 1132.77,1324.88 1132.5,1324.17 1132.23,1323.46 1131.97,1322.74 1131.7,1322.02 1131.43,1321.3 1131.17,1320.58 1130.91,1319.85 1130.64,1319.11 1130.38,1318.36 1130.12,1317.61 1129.86,1316.85 1129.6,1316.09 1129.35,1315.33 1129.1,1314.56 1128.85,1313.78 1128.54,1312.81 1128.24,1311.83 1126.47,1311.53 1124.72,1311.24 1124.48,1311.19 1124.24,1311.15 1124,1311.11 1123.76,1311.07 1123.28,1310.98 1122.8,1310.89 1122.33,1310.8 1121.86,1310.71 1120.92,1310.52 1120.39,1310.45 1119.87,1310.38 1119.67,1310.41 1119.64,1310.41 1119.61,1310.41 1119.59,1310.41 1119.57,1310.42 1119.54,1310.42 1119.52,1310.42 1119.5,1310.42 1119.48,1310.42 1119.45,1310.42 1119.43,1310.41 1119.4,1310.41 1119.36,1310.4 1119.32,1310.39 1119.28,1310.38 1119.25,1310.37 1119.21,1310.35 1119.17,1310.34 1119.09,1310.31 1119.05,1310.29 1119,1310.27 1118.91,1310.24 1118.81,1310.21 1118.71,1310.18 1118.61,1310.15 1118.51,1310.12 1118.4,1310.09 1118.29,1310.07 1118.18,1310.05 1118.07,1310.02 1117.95,1310 1117.84,1309.97 1117.72,1309.95 1117.61,1309.93 1117.49,1309.91 1117.37,1309.89 1117.25,1309.87 1117.01,1309.83 1116.77,1309.8 1116.52,1309.76 1116.28,1309.73 1116.04,1309.69 1115.81,1309.66 1115.58,1309.62 1115.35,1309.59 1115.11,1309.56 1114.87,1309.54 1114.64,1309.51 1114.41,1309.48 1114.17,1309.45 1113.95,1309.41 1113.72,1309.38 1113.49,1309.34 1113.27,1309.3 1113.05,1309.26 1112.82,1309.22 1112.6,1309.18 1112.38,1309.13 1112.16,1309.09 1111.94,1309.04 1111.71,1308.99 1110.44,1309.57 1109.17,1310.14 1107.88,1310.7 1106.59,1311.27 1105.29,1311.83 1103.98,1312.39 1102.67,1312.94 1101.34,1313.49 1100,1314.04 1098.66,1314.59 1097.31,1315.13 1095.95,1315.68 1094.57,1316.21 1093.19,1316.75 1094.65,1317.27 1096.12,1317.79 1097.6,1318.31 1099.09,1318.82 1100.59,1319.33 1102.11,1319.84 1103.63,1320.35 1105.16,1320.86 1106.71,1321.36 1108.26,1321.86 1109.83,1322.36 1111.41,1322.86 1112.99,1323.36 1114.59,1323.86 1116.2,1324.36 1117.83,1324.85 1118.06,1324.95"/>
		<polygon id="dp_polygon012" fill="black" fill-rule="evenodd" fill-opacity="0.376471" stroke="none" stroke-width="0" points="1092.3,1350.2 1095.12,1350.58 1095.61,1350.63 1096.11,1350.69 1096.59,1350.75 1097.08,1350.8 1097.57,1350.86 1098.06,1350.92 1098.55,1350.98 1099.03,1351.04 1099.52,1351.1 1100.01,1351.17 1100.49,1351.23 1100.98,1351.29 1101.95,1351.42 1102.92,1351.55 1103.89,1351.68 1104.85,1351.82 1106.79,1352.09 1108.73,1352.36 1109.71,1352.49 1110.68,1352.62 1113.31,1352.98 1115.96,1353.34 1118.61,1353.7 1121.26,1354.06 1123.93,1354.42 1126.4,1354.76 1128.88,1355.1 1131.37,1355.43 1133.86,1355.77 1136.36,1356.11 1138.86,1356.46 1139.2,1356.49 1139.53,1356.53 1139.86,1356.57 1140.19,1356.61 1140.51,1356.65 1140.84,1356.7 1141.16,1356.74 1141.48,1356.78 1141.81,1356.83 1142.13,1356.88 1142.45,1356.92 1142.77,1356.97 1143.08,1357.02 1143.4,1357.07 1143.72,1357.13 1144.04,1357.18 1143.83,1356.34 1143.61,1355.51 1143.39,1354.69 1143.17,1353.88 1142.94,1353.07 1142.71,1352.27 1142.48,1351.48 1140.53,1350.92 1138.59,1350.35 1136.65,1349.8 1134.72,1349.24 1132.8,1348.69 1130.89,1348.14 1128.99,1347.59 1127.09,1347.05 1125.21,1346.51 1123.33,1345.97 1121.47,1345.43 1119.61,1344.9 1117.76,1344.37 1115.92,1343.84 1114.64,1343.47 1113.23,1343.07 1111.72,1342.63 1110.12,1342.17 1106.74,1341.19 1105,1340.69 1103.26,1340.18 1101.54,1339.68 1099.83,1339.18 1096.6,1338.22 1094.81,1337.69 1093.03,1337.16 1091.26,1336.63 1091.32,1337.31 1091.37,1338 1091.43,1338.68 1091.49,1339.37 1091.54,1340.07 1091.6,1340.76 1091.66,1341.46 1091.71,1342.16 1091.77,1342.87 1091.82,1343.58 1091.88,1344.3 1091.93,1345.02 1091.99,1345.74 1092.04,1346.47 1092.09,1347.21 1092.15,1347.95 1092.2,1348.69 1092.25,1349.45 1092.3,1350.2"/>
		<polygon id="dp_polygon013" fill="black" fill-rule="evenodd" fill-opacity="0.376471" stroke="none" stroke-width="0" points="1091.38,1333.67 1092.9,1333.19 1094.41,1332.7 1095.91,1332.22 1097.4,1331.74 1098.88,1331.26 1100.35,1330.78 1101.81,1330.3 1103.26,1329.81 1104.7,1329.33 1106.13,1328.85 1107.55,1328.37 1108.96,1327.89 1110.36,1327.4 1111.75,1326.92 1113.12,1326.43 1114.49,1325.95 1115.86,1325.46 1117.21,1324.98 1115.61,1324.49 1114.02,1323.99 1112.44,1323.5 1110.87,1323 1109.31,1322.51 1107.77,1322.01 1106.23,1321.51 1104.71,1321.01 1103.19,1320.5 1101.69,1320 1100.2,1319.49 1098.72,1318.99 1097.24,1318.47 1095.78,1317.96 1094.33,1317.45 1092.89,1316.93 1091.31,1317.53 1089.72,1318.13 1089.78,1318.88 1089.83,1319.62 1089.89,1320.35 1089.95,1321.09 1090.01,1321.81 1090.07,1322.54 1090.13,1323.26 1090.19,1323.94 1090.24,1324.62 1090.3,1325.29 1090.37,1326.16 1090.45,1327.02 1090.51,1327.75 1090.58,1328.48 1090.69,1329.7 1090.79,1330.69 1090.83,1331.12 1090.87,1331.5 1090.91,1331.84 1090.94,1332.13 1090.98,1332.39 1091.01,1332.62 1091.04,1332.81 1091.07,1332.98 1091.1,1333.12 1091.13,1333.24 1091.16,1333.33 1091.18,1333.41 1091.2,1333.44 1091.21,1333.47 1091.23,1333.5 1091.24,1333.53 1091.26,1333.55 1091.27,1333.57 1091.31,1333.6 1091.34,1333.64 1091.38,1333.67"/>
		<polygon id="dp_polygon014" fill="black" fill-rule="evenodd" fill-opacity="0.376471" stroke="none" stroke-width="0" points="1089.51,1315.33 1091.18,1315.98 1092.87,1316.62 1094.24,1316.09 1095.6,1315.55 1096.95,1315.01 1098.3,1314.48 1099.63,1313.93 1100.95,1313.39 1102.27,1312.84 1103.57,1312.29 1104.87,1311.73 1106.16,1311.18 1107.45,1310.62 1108.72,1310.05 1109.99,1309.49 1111.25,1308.92 1110.06,1308.71 1108.93,1308.5 1107.8,1308.3 1105.56,1307.89 1103.33,1307.48 1101.11,1307.07 1098.91,1306.65 1096.71,1306.23 1094.53,1305.81 1092.36,1305.39 1091.84,1305.28 1091.33,1305.18 1091.07,1305.13 1090.81,1305.07 1090.56,1305.02 1090.31,1304.96 1090.11,1304.92 1089.91,1304.88 1089.72,1304.84 1089.55,1304.81 1089.39,1304.79 1089.32,1304.77 1089.26,1304.76 1089.2,1304.76 1089.15,1304.75 1089.11,1304.75 1089.08,1304.75 1088.82,1304.75 1088.87,1305.61 1088.92,1306.46 1088.97,1307.31 1089.02,1308.15 1089.08,1308.97 1089.13,1309.79 1089.18,1310.61 1089.23,1311.41 1089.29,1312.21 1089.34,1313 1089.4,1313.78 1089.45,1314.56 1089.51,1315.33"/>
		<polygon id="dp_polygon015" fill="black" fill-rule="evenodd" fill-opacity="0.376471" stroke="none" stroke-width="0" points="1040.95,1333.61 1038.55,1334.28 1036.13,1334.96 1037.78,1335.5 1039.44,1336.04 1041.12,1336.59 1042.8,1337.13 1044.5,1337.67 1044.65,1336.99 1044.8,1336.31 1044.95,1335.63 1045.1,1334.96 1045.25,1334.28 1045.4,1333.61 1045.55,1332.94 1045.7,1332.27 1043.33,1332.94 1040.95,1333.61"/>
		<polygon id="dp_polygon016" fill="black" fill-rule="evenodd" fill-opacity="0.376471" stroke="none" stroke-width="0" points="1196.04,1350.34 1195.56,1350.37 1195.33,1350.38 1195.1,1350.4 1194.87,1350.41 1194.65,1350.43 1194.43,1350.44 1194.21,1350.46 1194,1350.48 1193.78,1350.5 1193.57,1350.52 1193.36,1350.55 1193.15,1350.57 1192.94,1350.6 1192.73,1350.63 1192.63,1350.65 1192.52,1350.67 1191.52,1350.83 1190.51,1351 1188.48,1351.33 1188.08,1351.37 1187.69,1351.4 1187.3,1351.44 1186.91,1351.48 1186.52,1351.52 1186.13,1351.56 1185.75,1351.61 1185.36,1351.65 1184.98,1351.7 1184.6,1351.74 1184.21,1351.79 1183.83,1351.84 1183.45,1351.89 1183.07,1351.94 1182.31,1352.04 1181.56,1352.14 1180.8,1352.25 1179.3,1352.46 1178.55,1352.57 1177.79,1352.67 1177.04,1352.77 1176.29,1352.88 1172.4,1353.4 1170.25,1353.68 1168.1,1353.97 1165.95,1354.26 1163.78,1354.55 1161.61,1354.84 1161.07,1354.92 1160.52,1354.99 1159.98,1355.07 1159.45,1355.15 1158.91,1355.24 1158.38,1355.32 1157.85,1355.41 1157.32,1355.5 1156.99,1355.49 1154.61,1354.79 1152.23,1354.09 1149.87,1353.4 1147.52,1352.71 1145.18,1352.03 1142.85,1351.35 1142.62,1350.58 1142.39,1349.83 1142.15,1349.07 1141.91,1348.33 1141.67,1347.58 1141.43,1346.85 1141.19,1346.12 1140.94,1345.39 1140.69,1344.67 1140.44,1343.95 1140.19,1343.24 1139.94,1342.53 1139.68,1341.83 1139.43,1341.13 1139.17,1340.43 1138.91,1339.73 1138.65,1339.04 1138.39,1338.35 1138.13,1337.67 1137.86,1336.98 1137.6,1336.3 1137.33,1335.62 1137.07,1334.94 1136.8,1334.26 1136.54,1333.58 1136.27,1332.9 1136,1332.23 1135.74,1331.55 1135.47,1330.88 1135.2,1330.2 1136.99,1330.7 1138.79,1331.21 1140.6,1331.71 1142.43,1332.21 1144.26,1332.71 1146.1,1333.21 1147.96,1333.71 1149.82,1334.22 1151.7,1334.72 1153.58,1335.23 1155.48,1335.73 1157.39,1336.24 1159.3,1336.74 1161.23,1337.25 1163.17,1337.76 1163.85,1337.95 1164.59,1338.14 1165.36,1338.35 1166.17,1338.57 1167.88,1339.03 1169.72,1339.52 1171.66,1340.03 1173.67,1340.55 1175.75,1341.09 1177.86,1341.64 1179.98,1342.19 1182.09,1342.73 1184.17,1343.26 1186.19,1343.78 1187.18,1344.03 1188.14,1344.27 1189.08,1344.5 1189.99,1344.73 1190.86,1344.95 1191.7,1345.16 1192.51,1345.36 1193.27,1345.55 1193.74,1346.33 1194.21,1347.12 1194.67,1347.92 1195.13,1348.72 1195.59,1349.53 1196.04,1350.34"/>
		<polygon id="dp_polygon017" fill="black" fill-rule="evenodd" fill-opacity="0.376471" stroke="none" stroke-width="0" points="1182.71,1329.6 1182.26,1328.94 1181.8,1328.28 1181.35,1327.61 1180.9,1326.95 1180.44,1326.28 1179.99,1325.62 1179.54,1324.95 1179.09,1324.27 1178.65,1323.6 1178.2,1322.93 1177.76,1322.25 1177.31,1321.57 1176.87,1320.88 1176.43,1320.19 1176,1319.5 1175.56,1318.81 1175.13,1318.11 1174.7,1317.4 1174.27,1316.7 1173.85,1315.98 1173.43,1315.27 1173.01,1314.55 1172.59,1313.82 1172.18,1313.09 1171.77,1312.35 1171.36,1311.61 1170.96,1310.86 1170.56,1310.1 1170.17,1309.34 1169.78,1308.57 1169.39,1307.8 1169.01,1307.01 1168.63,1306.23 1168.26,1305.43 1167.99,1305.42 1167.73,1305.42 1167.58,1305.45 1167.42,1305.48 1167.27,1305.51 1167.11,1305.53 1166.96,1305.56 1166.8,1305.58 1166.65,1305.61 1166.49,1305.63 1166.33,1305.66 1166.17,1305.68 1166.01,1305.7 1165.85,1305.72 1165.68,1305.74 1165.52,1305.76 1165.35,1305.78 1165.18,1305.8 1164.38,1305.96 1163.99,1306.05 1163.79,1306.09 1163.59,1306.13 1163.39,1306.16 1163.19,1306.2 1162.98,1306.24 1162.77,1306.27 1162.57,1306.31 1162.36,1306.34 1162.15,1306.37 1161.93,1306.41 1161.81,1306.42 1161.68,1306.44 1161.57,1306.46 1161.45,1306.48 1161.34,1306.5 1161.23,1306.52 1161.12,1306.54 1161.02,1306.56 1160.91,1306.59 1160.81,1306.61 1160.71,1306.64 1160.61,1306.66 1160.5,1306.69 1160.4,1306.72 1160.3,1306.75 1160.2,1306.78 1159.07,1307.33 1157.94,1307.88 1156.81,1308.43 1155.68,1308.97 1154.54,1309.51 1153.39,1310.05 1152.25,1310.59 1151.1,1311.12 1149.94,1311.65 1148.78,1312.18 1147.62,1312.71 1146.45,1313.23 1145.27,1313.75 1144.09,1314.27 1142.91,1314.79 1141.72,1315.3 1140.52,1315.81 1139.32,1316.33 1138.11,1316.84 1139.69,1317.34 1141.28,1317.85 1142.88,1318.36 1144.5,1318.86 1146.12,1319.36 1147.76,1319.86 1149.41,1320.36 1151.07,1320.86 1152.73,1321.35 1154.41,1321.85 1156.11,1322.34 1157.81,1322.83 1159.52,1323.32 1161.24,1323.81 1162.98,1324.3 1164.72,1324.78 1166.47,1325.27 1168.24,1325.75 1170.01,1326.24 1171.8,1326.72 1173.59,1327.2 1175.4,1327.68 1177.21,1328.16 1179.03,1328.64 1180.87,1329.12 1182.71,1329.6"/>
		<polygon id="dp_polygon018" fill="black" fill-rule="evenodd" fill-opacity="0.376471" stroke="none" stroke-width="0" points="1043.24,1348.11 1043.21,1348.16 1043.17,1348.23 1043.14,1348.3 1043.11,1348.39 1043.07,1348.48 1043.03,1348.58 1042.96,1348.8 1042.88,1349.05 1042.8,1349.33 1042.72,1349.63 1042.63,1349.96 1042.55,1350.3 1042.47,1350.66 1042.39,1351.03 1042.31,1351.42 1042.23,1351.82 1042.16,1352.23 1042.09,1352.64 1042.02,1353.05 1041.9,1353.86 1041.78,1354.67 1041.67,1355.5 1041.55,1356.33 1041.44,1357.17 1044.37,1356.74 1044.73,1356.69 1045.1,1356.65 1045.46,1356.61 1045.82,1356.56 1046.55,1356.47 1047.27,1356.38 1047.99,1356.29 1048.7,1356.19 1049.41,1356.1 1050.13,1356 1050.84,1355.9 1051.55,1355.8 1052.96,1355.6 1054.37,1355.4 1055.78,1355.2 1058.13,1354.87 1060.46,1354.55 1062.8,1354.23 1065.12,1353.9 1067.44,1353.58 1069.75,1353.27 1072.06,1352.95 1074.36,1352.63 1076.66,1352.32 1078.95,1352 1079.36,1351.95 1079.78,1351.89 1080.19,1351.83 1080.6,1351.77 1081.42,1351.65 1082.24,1351.53 1083.05,1351.41 1083.86,1351.29 1084.66,1351.16 1085.47,1351.04 1083.59,1350.45 1081.73,1349.87 1079.87,1349.29 1078.03,1348.71 1076.2,1348.13 1074.37,1347.56 1072.56,1347 1071.93,1346.8 1071.24,1346.59 1070.49,1346.36 1069.7,1346.11 1068.03,1345.59 1066.3,1345.05 1064.57,1344.5 1062.93,1343.98 1060.18,1343.11 1058.34,1343.65 1056.49,1344.19 1054.62,1344.74 1052.75,1345.29 1050.87,1345.85 1048.97,1346.41 1047.07,1346.97 1045.16,1347.54 1043.24,1348.11"/>
		<polygon id="dp_polygon019" fill="black" fill-rule="evenodd" fill-opacity="0.376471" stroke="none" stroke-width="0" points="1090.85,1336.17 1090.91,1335.98 1090.96,1335.8 1090.99,1335.7 1091.01,1335.61 1091.03,1335.52 1091.05,1335.43 1091.07,1335.33 1091.08,1335.24 1091.09,1335.15 1091.1,1335.06 1091.1,1334.96 1091.11,1334.87 1091.1,1334.78 1091.1,1334.68 1091.09,1334.63 1091.08,1334.57 1091.07,1334.51 1091.06,1334.46 1091.05,1334.41 1091.04,1334.36 1091.02,1334.31 1091.01,1334.27 1090.99,1334.23 1090.97,1334.19 1090.95,1334.16 1090.94,1334.13 1090.92,1334.11 1090.9,1334.09 1090.89,1334.08 1090.88,1334.07 1090.87,1334.07 1090.86,1334.06 1090.67,1334.01 1088.87,1334.51 1087.05,1335.02 1088.94,1335.6 1090.85,1336.17"/>
		<polygon id="dp_polygon020" fill="black" fill-rule="evenodd" fill-opacity="0.376471" stroke="none" stroke-width="0" points="1089.54,1315.7 1088.15,1315.18 1086.76,1314.65 1085.39,1314.12 1084.02,1313.59 1082.67,1313.05 1081.32,1312.51 1079.98,1311.96 1078.65,1311.42 1077.33,1310.87 1076.02,1310.31 1074.71,1309.75 1073.41,1309.19 1072.12,1308.62 1070.84,1308.05 1069.73,1308.26 1069.47,1308.31 1069.22,1308.35 1068.96,1308.4 1068.71,1308.44 1068.45,1308.49 1068.19,1308.53 1067.92,1308.57 1067.66,1308.6 1067.28,1308.66 1066.9,1308.71 1066.52,1308.77 1066.14,1308.83 1065.76,1308.89 1065.38,1308.95 1065,1309.01 1064.62,1309.07 1064.24,1309.14 1063.86,1309.2 1063.49,1309.27 1063.11,1309.33 1062.35,1309.46 1061.59,1309.6 1060.83,1309.73 1060.07,1309.87 1058.56,1310.14 1057.79,1310.27 1057.03,1310.4 1056.27,1310.54 1055.5,1310.67 1055.19,1310.72 1054.87,1310.77 1054.55,1310.83 1054.23,1310.88 1053.6,1310.99 1052.97,1311.11 1052.34,1311.22 1051.71,1311.34 1051.08,1311.45 1050.44,1311.57 1050.44,1311.57 1050.43,1311.58 1050.42,1311.6 1050.41,1311.64 1050.39,1311.69 1050.37,1311.75 1050.35,1311.83 1050.3,1312.02 1050.24,1312.26 1050.18,1312.55 1050.11,1312.87 1050.04,1313.23 1049.96,1313.62 1049.87,1314.04 1049.78,1314.49 1049.69,1314.97 1049.59,1315.47 1049.49,1315.98 1049.39,1316.51 1049.29,1317.05 1049.15,1317.8 1049,1318.55 1048.85,1319.3 1048.7,1320.04 1048.56,1320.77 1048.41,1321.5 1048.25,1322.23 1049.61,1322.73 1050.97,1323.22 1052.35,1323.72 1053.73,1324.21 1055.12,1324.71 1056.52,1325.2 1057.93,1325.69 1059.34,1326.18 1060.77,1326.66 1062.21,1327.15 1063.83,1326.64 1065.45,1326.13 1067.05,1325.62 1068.64,1325.11 1070.22,1324.6 1071.79,1324.08 1073.34,1323.57 1074.89,1323.05 1076.42,1322.53 1077.11,1322.29 1077.87,1322.03 1078.68,1321.75 1079.53,1321.45 1081.34,1320.81 1083.2,1320.15 1085.04,1319.49 1086.78,1318.85 1088.24,1318.31 1089.69,1317.77 1089.61,1316.74 1089.54,1315.7"/>
		<polygon id="dp_polygon021" fill="black" fill-rule="evenodd" fill-opacity="0.376471" stroke="none" stroke-width="0" points="1090.85,1336.17 1092.49,1336.67 1094.14,1337.16 1095.81,1337.66 1097.48,1338.15 1099.16,1338.65 1100.85,1339.15 1102.56,1339.66 1104.27,1340.16 1106,1340.67 1107.73,1341.17 1109.47,1341.68 1111.22,1342.19 1112.99,1342.71 1114.76,1343.22 1116.54,1343.74 1118.33,1344.25 1120.13,1344.78 1121.94,1345.3 1123.76,1345.83 1125.59,1346.35 1127.42,1346.88 1129.27,1347.42 1131.12,1347.95 1132.98,1348.49 1134.85,1349.03 1136.73,1349.58 1138.61,1350.12 1140.51,1350.67 1142.41,1351.22 1142.18,1350.46 1141.95,1349.7 1141.71,1348.95 1141.48,1348.2 1141.24,1347.46 1141,1346.73 1140.75,1346 1140.51,1345.27 1140.26,1344.55 1140.01,1343.83 1139.76,1343.12 1139.51,1342.41 1139.25,1341.71 1139,1341.01 1138.74,1340.31 1138.49,1339.61 1138.23,1338.92 1137.97,1338.23 1137.71,1337.55 1137.44,1336.86 1137.18,1336.18 1136.92,1335.5 1136.65,1334.82 1136.39,1334.14 1136.13,1333.46 1135.86,1332.79 1135.59,1332.11 1135.33,1331.43 1135.06,1330.76 1134.8,1330.08 1132.98,1329.57 1131.18,1329.07 1129.39,1328.56 1127.62,1328.05 1125.85,1327.54 1125.42,1327.42 1124.95,1327.28 1124.45,1327.14 1123.91,1326.98 1122.76,1326.65 1121.57,1326.29 1120.37,1325.93 1119.21,1325.59 1117.21,1324.98 1115.86,1325.46 1114.49,1325.95 1113.12,1326.43 1111.75,1326.92 1110.36,1327.4 1108.96,1327.89 1107.55,1328.37 1106.13,1328.85 1104.7,1329.33 1103.26,1329.81 1101.81,1330.3 1100.35,1330.78 1098.88,1331.26 1097.4,1331.74 1095.91,1332.22 1094.41,1332.7 1092.9,1333.19 1091.38,1333.67 1090.67,1334.01 1090.86,1334.06 1090.87,1334.07 1090.88,1334.07 1090.89,1334.08 1090.9,1334.09 1090.92,1334.11 1090.94,1334.13 1090.95,1334.16 1090.97,1334.19 1090.99,1334.23 1091.01,1334.27 1091.02,1334.31 1091.04,1334.36 1091.05,1334.41 1091.06,1334.46 1091.07,1334.51 1091.08,1334.57 1091.09,1334.63 1091.1,1334.68 1091.1,1334.78 1091.11,1334.87 1091.1,1334.96 1091.1,1335.06 1091.09,1335.15 1091.08,1335.24 1091.07,1335.33 1091.05,1335.43 1091.03,1335.52 1091.01,1335.61 1090.99,1335.7 1090.96,1335.8 1090.91,1335.98 1090.85,1336.17"/>
		<polygon id="dp_polygon022" fill="black" fill-rule="evenodd" fill-opacity="0.376471" stroke="none" stroke-width="0" points="1041.96,1348.48 1041.97,1348.49 1041.98,1348.5 1042,1348.53 1042.01,1348.57 1042.03,1348.62 1042.04,1348.67 1042.04,1348.74 1042.05,1348.81 1042.05,1348.89 1042.06,1348.98 1042.06,1349.08 1042.05,1349.29 1042.04,1349.53 1042.03,1349.81 1042,1350.11 1041.97,1350.43 1041.93,1350.78 1041.88,1351.16 1041.83,1351.55 1041.77,1351.97 1041.71,1352.41 1041.64,1352.87 1041.51,1353.72 1041.39,1354.57 1041.26,1355.43 1041.14,1356.3 1041.02,1357.19 1038.84,1356.83 1036.66,1356.47 1034.49,1356.12 1032.32,1355.77 1030.16,1355.42 1028,1355.07 1025.85,1354.73 1023.71,1354.38 1023.29,1354.31 1023.29,1354.3 1023.29,1354.29 1023.28,1354.29 1023.27,1354.28 1023.27,1354.28 1023.25,1354.27 1023.23,1354.26 1023.19,1354.25 1023.16,1354.25 1023.12,1354.24 1023.08,1354.24 1023.04,1354.24 1023.01,1354.23 1022.94,1354.23 1022.89,1354.23 1022.88,1354.23 1024.82,1353.63 1026.76,1353.04 1028.68,1352.46 1030.61,1351.88 1032.52,1351.3 1034.42,1350.73 1036.32,1350.16 1038.21,1349.6 1040.09,1349.04 1041.96,1348.48"/>
		<polygon id="dp_polygon023" fill="black" fill-rule="evenodd" fill-opacity="0.376471" stroke="none" stroke-width="0" points="1001.66,1322.68 1002.93,1323.19 1004.2,1323.69 1005.48,1324.2 1006.77,1324.7 1008.06,1325.2 1009.36,1325.7 1010.66,1326.2 1011.97,1326.7 1013.29,1327.19 1014.61,1327.68 1015.94,1328.18 1017.28,1328.67 1018.63,1329.16 1019.98,1329.65 1021.34,1330.14 1022.7,1330.62 1024.08,1331.11 1025.46,1331.6 1026.85,1332.09 1028.25,1332.57 1029.66,1333.06 1031.08,1333.55 1032.5,1334.03 1033.94,1334.52 1035.38,1335.01 1033.66,1335.49 1031.92,1335.96 1030.18,1336.44 1028.43,1336.91 1026.67,1337.39 1024.9,1337.87 1023.12,1338.35 1021.33,1338.83 1019.53,1339.32 1017.73,1339.8 1015.91,1340.29 1014.09,1340.78 1012.25,1341.27 1010.42,1341.77 1008.57,1342.26 1006.71,1342.76 1004.85,1343.26 1002.97,1343.77 1001.1,1344.27 999.211,1344.78 997.316,1345.29 995.415,1345.81 993.508,1346.33 991.591,1346.85 989.669,1347.37 989.984,1346.64 990.3,1345.9 990.617,1345.18 990.937,1344.46 991.26,1343.74 991.583,1343.03 991.908,1342.32 992.236,1341.62 992.564,1340.92 992.893,1340.23 993.225,1339.54 993.557,1338.85 993.891,1338.16 994.225,1337.48 994.561,1336.8 994.897,1336.13 995.235,1335.45 995.572,1334.78 995.911,1334.11 996.249,1333.43 996.588,1332.76 996.928,1332.1 997.268,1331.43 997.608,1330.76 997.948,1330.09 998.287,1329.42 998.627,1328.76 998.967,1328.09 999.305,1327.42 999.644,1326.75 999.981,1326.07 1000.32,1325.4 1000.66,1324.72 1000.99,1324.04 1001.33,1323.36 1001.66,1322.68"/>
		<polygon id="dp_polygon024" fill="black" fill-rule="evenodd" fill-opacity="0.376471" stroke="none" stroke-width="0" points="1009.39,1304.06 1009.57,1304.09 1009.76,1304.11 1009.94,1304.14 1010.12,1304.17 1010.3,1304.19 1010.48,1304.22 1010.66,1304.25 1010.83,1304.28 1011.01,1304.31 1011.18,1304.34 1011.35,1304.37 1011.53,1304.4 1011.7,1304.43 1011.87,1304.46 1012.21,1304.53 1012.54,1304.6 1012.87,1304.67 1013.21,1304.74 1013.54,1304.82 1013.87,1304.89 1014.2,1304.97 1014.53,1305.05 1014.86,1305.13 1015.03,1305.15 1015.19,1305.18 1015.36,1305.2 1015.52,1305.23 1015.85,1305.28 1016.17,1305.33 1016.49,1305.39 1016.81,1305.44 1017.13,1305.5 1017.45,1305.56 1017.76,1305.62 1018.07,1305.68 1018.7,1305.81 1019.33,1305.93 1019.95,1306.05 1021.67,1306.39 1023.39,1306.72 1025.11,1307.05 1026.83,1307.38 1028.55,1307.7 1030.27,1308.03 1032,1308.35 1033.73,1308.67 1035.65,1309.02 1037.57,1309.37 1039.49,1309.71 1041.42,1310.06 1043.36,1310.4 1045.29,1310.74 1045.6,1310.79 1045.91,1310.85 1046.22,1310.91 1046.53,1310.96 1046.84,1311.02 1047.14,1311.08 1047.45,1311.14 1047.75,1311.2 1048.13,1311.28 1048.32,1311.32 1048.52,1311.36 1048.71,1311.4 1048.91,1311.43 1049.1,1311.47 1049.3,1311.5 1049.36,1311.51 1049.41,1311.52 1049.44,1311.53 1049.46,1311.54 1049.48,1311.54 1049.51,1311.55 1049.53,1311.56 1049.55,1311.57 1049.57,1311.58 1049.59,1311.59 1049.6,1311.61 1049.62,1311.62 1049.64,1311.64 1049.65,1311.66 1049.66,1311.68 1049.68,1311.71 1049.69,1311.73 1049.7,1311.76 1049.71,1311.79 1049.71,1311.82 1049.72,1311.86 1049.73,1311.89 1049.74,1311.98 1049.74,1312.08 1049.74,1312.19 1049.73,1312.31 1049.73,1312.45 1049.71,1312.61 1049.69,1312.79 1049.67,1312.98 1049.64,1313.19 1049.61,1313.42 1049.57,1313.67 1049.52,1313.95 1049.42,1314.56 1049.29,1315.27 1049.14,1316.08 1048.97,1316.99 1048.83,1317.73 1048.68,1318.47 1048.53,1319.21 1048.39,1319.94 1048.24,1320.66 1048.09,1321.39 1047.94,1322.1 1046.55,1321.59 1045.16,1321.07 1043.78,1320.54 1042.42,1320.02 1041.06,1319.49 1039.7,1318.96 1038.36,1318.43 1037.02,1317.89 1035.69,1317.35 1034.37,1316.81 1033.05,1316.26 1031.74,1315.71 1030.43,1315.16 1029.14,1314.6 1027.85,1314.04 1026.86,1313.61 1025.78,1313.14 1024.63,1312.62 1023.41,1312.08 1022.13,1311.49 1020.85,1310.9 1019.53,1310.28 1018.21,1309.65 1016.91,1309.02 1015.61,1308.39 1014.38,1307.78 1013.15,1307.16 1011.78,1306.47 1010.41,1305.76 1009.05,1305.05 1009.39,1304.06"/>
		<polygon id="dp_polygon025" fill="black" fill-rule="evenodd" fill-opacity="0.376471" stroke="none" stroke-width="0" points="1089.69,1317.77 1091.12,1317.23 1092.54,1316.69 1091.03,1316.19 1089.54,1315.7 1089.61,1316.74 1089.69,1317.77"/>
		<polygon id="dp_polygon026" fill="#d0af43" fill-rule="evenodd" stroke="black" stroke-width="0.933333" points="1190.38,1340.64 1189.95,1339.93 1189.51,1339.22 1189.07,1338.51 1188.63,1337.81 1188.18,1337.11 1187.74,1336.42 1187.29,1335.73 1186.84,1335.04 1186.39,1334.36 1185.93,1333.68 1185.48,1333 1185.03,1332.32 1184.57,1331.64 1184.11,1330.97 1183.65,1330.29 1183.19,1329.62 1182.73,1328.95 1182.27,1328.28 1181.81,1327.61 1181.35,1326.94 1180.89,1326.27 1180.43,1325.6 1179.97,1324.93 1178.13,1324.46 1176.29,1323.98 1174.47,1323.49 1172.66,1323.01 1170.85,1322.53 1169.06,1322.05 1167.27,1321.57 1165.5,1321.09 1163.73,1320.6 1161.98,1320.11 1160.23,1319.63 1158.5,1319.14 1156.78,1318.65 1155.07,1318.16 1153.36,1317.67 1151.67,1317.18 1149.99,1316.69 1148.32,1316.19 1146.67,1315.69 1145.02,1315.19 1143.38,1314.69 1141.76,1314.19 1140.14,1313.69 1138.54,1313.18 1136.95,1312.68 1135.37,1312.17 1136.57,1311.66 1137.78,1311.15 1138.97,1310.63 1140.17,1310.12 1141.35,1309.6 1142.53,1309.08 1143.71,1308.56 1144.87,1308.03 1146.04,1307.51 1147.2,1306.98 1148.35,1306.45 1149.51,1305.92 1150.65,1305.38 1151.8,1304.85 1152.94,1304.3 1154.07,1303.76 1155.2,1303.21 1156.33,1302.67 1157.46,1302.11 1157.43,1302.05 1157.4,1301.98 1156.46,1302.12 1156.07,1302.2 1155.67,1302.28 1155.27,1302.36 1154.87,1302.43 1154.47,1302.51 1154.06,1302.58 1153.65,1302.65 1153.24,1302.73 1151.54,1303 1149.84,1303.29 1148.14,1303.57 1146.43,1303.85 1144.73,1304.13 1143.03,1304.41 1141.32,1304.69 1139.61,1304.97 1137.9,1305.25 1136.19,1305.53 1134.47,1305.81 1134.07,1305.87 1133.67,1305.94 1132.86,1306.08 1132.05,1306.21 1131.65,1306.28 1131.24,1306.35 1130.83,1306.41 1130.42,1306.48 1130.01,1306.54 1129.81,1306.57 1129.6,1306.6 1129.39,1306.63 1129.18,1306.65 1128.97,1306.68 1128.76,1306.71 1128.55,1306.73 1128.33,1306.76 1128.12,1306.78 1127.91,1306.8 1125.82,1307.19 1126.16,1308.28 1126.51,1309.36 1126.77,1310.18 1127.04,1310.99 1127.31,1311.79 1127.58,1312.59 1127.86,1313.38 1128.13,1314.16 1128.41,1314.94 1128.67,1315.65 1128.93,1316.36 1129.19,1317.06 1129.45,1317.76 1129.71,1318.45 1129.97,1319.15 1130.24,1319.84 1130.5,1320.53 1130.77,1321.21 1131.03,1321.9 1131.3,1322.58 1131.57,1323.26 1131.83,1323.95 1132.1,1324.63 1132.37,1325.31 1134.1,1325.79 1135.84,1326.28 1137.59,1326.76 1139.35,1327.25 1141.12,1327.73 1142.9,1328.22 1144.69,1328.71 1146.49,1329.19 1148.3,1329.68 1150.12,1330.17 1151.95,1330.65 1153.79,1331.14 1155.64,1331.63 1157.5,1332.12 1159.36,1332.61 1161.24,1333.11 1163.13,1333.6 1165.02,1334.09 1166.92,1334.59 1168.84,1335.09 1170.75,1335.58 1172.68,1336.08 1174.62,1336.58 1176.56,1337.08 1178.52,1337.59 1180.48,1338.09 1182.44,1338.6 1184.42,1339.11 1186.4,1339.61 1188.39,1340.13 1190.38,1340.64"/>
		<polygon id="dp_polygon027" fill="#d0af43" fill-rule="evenodd" stroke="black" stroke-width="0.933333" points="1088.52,1331.96 1086.87,1331.47 1085.24,1330.97 1083.61,1330.48 1083.15,1330.24 1081.37,1329.7 1079.61,1329.16 1077.86,1328.62 1076.12,1328.08 1074.39,1327.55 1072.68,1327.01 1070.98,1326.47 1069.29,1325.94 1067.62,1325.4 1065.95,1324.86 1064.3,1324.33 1062.66,1323.79 1061.03,1323.25 1059.42,1322.71 1057.86,1323.19 1056.29,1323.67 1054.71,1324.15 1053.12,1324.62 1051.52,1325.1 1049.9,1325.58 1048.28,1326.05 1046.65,1326.53 1045,1327.01 1043.35,1327.48 1043.19,1328.19 1043.03,1328.9 1042.88,1329.61 1042.72,1330.32 1042.57,1331.03 1042.41,1331.75 1042.26,1332.46 1042.1,1333.18 1043.66,1333.69 1045.24,1334.2 1046.82,1334.7 1048.41,1335.21 1050.02,1335.73 1051.63,1336.24 1053.26,1336.75 1054.89,1337.27 1056.54,1337.79 1058.19,1338.31 1058.64,1338.56 1060.34,1339.1 1062.05,1339.63 1063.77,1340.18 1065.5,1340.72 1067.24,1341.27 1068.99,1341.81 1070.75,1342.37 1072.53,1342.92 1074.31,1343.48 1076.1,1344.04 1077.91,1344.61 1079.72,1345.17 1081.54,1345.74 1083.37,1346.32 1085.04,1346.06 1085.21,1346.03 1085.4,1346.01 1085.6,1345.98 1085.8,1345.95 1086.21,1345.89 1086.63,1345.84 1087.05,1345.79 1087.25,1345.76 1087.44,1345.74 1087.63,1345.72 1087.81,1345.7 1087.98,1345.68 1088.13,1345.67 1088.18,1345.67 1088.24,1345.66 1088.31,1345.65 1088.39,1345.65 1088.57,1345.62 1088.78,1345.6 1088.99,1345.58 1089.09,1345.57 1089.2,1345.56 1089.3,1345.55 1089.39,1345.54 1089.48,1345.54 1089.52,1345.54 1089.56,1345.54 1089.51,1344.78 1089.46,1344.03 1089.4,1343.28 1089.35,1342.54 1089.3,1341.8 1089.24,1341.07 1089.19,1340.35 1089.13,1339.63 1089.08,1338.91 1089.03,1338.2 1088.97,1337.49 1088.91,1336.79 1088.86,1336.09 1088.8,1335.4 1088.75,1334.7 1088.69,1334.01 1088.63,1333.33 1088.57,1332.64 1088.52,1331.96"/>
		<polygon id="dp_polygon028" fill="#d0af43" fill-rule="evenodd" stroke="black" stroke-width="0.933333" points="1084.31,1330.35 1086.13,1329.85 1087.93,1329.34 1088.63,1329 1088.6,1328.97 1088.57,1328.93 1088.53,1328.9 1088.52,1328.88 1088.5,1328.86 1088.49,1328.83 1088.47,1328.81 1088.46,1328.77 1088.44,1328.74 1088.41,1328.66 1088.39,1328.57 1088.36,1328.45 1088.33,1328.31 1088.3,1328.15 1088.27,1327.95 1088.23,1327.73 1088.2,1327.47 1088.17,1327.17 1088.13,1326.83 1088.09,1326.45 1088.04,1326.03 1087.95,1325.03 1087.83,1323.81 1087.77,1323.08 1087.71,1322.35 1087.63,1321.49 1087.56,1320.62 1087.5,1319.95 1087.44,1319.27 1087.39,1318.59 1087.33,1317.87 1087.27,1317.15 1087.21,1316.42 1087.15,1315.68 1087.09,1314.95 1087.03,1314.21 1086.98,1313.46 1085.65,1313.96 1084.3,1314.45 1082.95,1314.94 1081.59,1315.43 1080.22,1315.92 1078.83,1316.41 1077.44,1316.89 1076.04,1317.37 1074.63,1317.86 1073.21,1318.34 1071.78,1318.81 1070.34,1319.29 1068.89,1319.77 1067.43,1320.24 1065.96,1320.71 1064.48,1321.19 1062.98,1321.66 1061.48,1322.13 1059.97,1322.6 1061.42,1323.08 1062.87,1323.57 1064.34,1324.05 1065.81,1324.54 1067.3,1325.02 1068.79,1325.51 1070.3,1325.99 1071.82,1326.47 1073.34,1326.96 1074.88,1327.44 1076.42,1327.93 1077.98,1328.41 1079.55,1328.9 1081.12,1329.38 1082.71,1329.87 1084.31,1330.35"/>
		<polygon id="dp_polygon029" fill="#d0af43" fill-rule="evenodd" stroke="black" stroke-width="0.933333" points="1086.77,1310.66 1086.71,1309.89 1086.66,1309.11 1086.6,1308.33 1086.55,1307.54 1086.49,1306.74 1086.44,1305.94 1086.39,1305.12 1086.33,1304.3 1086.28,1303.48 1086.23,1302.64 1086.18,1301.79 1086.13,1300.94 1086.08,1300.08 1085.95,1300.09 1085.81,1300.11 1085.67,1300.13 1085.53,1300.15 1085.39,1300.17 1085.24,1300.19 1085.1,1300.21 1084.95,1300.23 1084.81,1300.25 1084.67,1300.28 1084.54,1300.3 1084.41,1300.32 1084.29,1300.35 1084.17,1300.37 1084.07,1300.39 1083.97,1300.41 1083.81,1300.45 1083.64,1300.48 1083.48,1300.51 1083.31,1300.55 1083.14,1300.58 1082.97,1300.61 1082.8,1300.64 1082.63,1300.67 1082.46,1300.7 1082.29,1300.73 1081.95,1300.78 1081.6,1300.84 1081.25,1300.89 1079.13,1301.29 1076.99,1301.7 1074.85,1302.1 1074.43,1302.18 1074,1302.26 1073.58,1302.33 1073.15,1302.42 1072.73,1302.5 1072.31,1302.58 1071.89,1302.67 1071.47,1302.75 1071.11,1302.83 1070.75,1302.9 1070.39,1302.97 1070.03,1303.04 1069.66,1303.11 1069.29,1303.18 1068.92,1303.25 1068.55,1303.31 1070.01,1303.95 1071.49,1304.58 1072.97,1305.21 1074.46,1305.84 1075.96,1306.46 1077.47,1307.07 1077.67,1307.16 1077.9,1307.26 1078.13,1307.36 1078.38,1307.46 1078.64,1307.57 1078.91,1307.68 1079.19,1307.8 1079.48,1307.91 1080.09,1308.16 1080.72,1308.4 1081.37,1308.65 1082.03,1308.9 1082.69,1309.15 1083.35,1309.4 1084.63,1309.87 1085.22,1310.09 1085.79,1310.3 1086.3,1310.49 1086.77,1310.66"/>
		<polygon id="dp_polygon030" fill="#d0af43" fill-rule="evenodd" stroke="black" stroke-width="0.933333" points="1040.49,1343.44 1042.42,1342.87 1044.33,1342.3 1046.23,1341.74 1048.13,1341.18 1050.01,1340.63 1051.88,1340.07 1053.74,1339.53 1055.6,1338.98 1057.44,1338.44 1055.86,1337.93 1054.28,1337.42 1052.72,1336.91 1051.17,1336.41 1049.63,1335.9 1048.09,1335.4 1046.57,1334.9 1045.05,1334.41 1043.55,1333.91 1042.05,1333.41 1041.91,1334.1 1041.76,1334.8 1041.62,1335.49 1041.47,1336.19 1041.33,1336.9 1041.19,1337.6 1041.05,1338.31 1040.91,1339.03 1040.77,1339.75 1040.63,1340.48 1040.49,1341.21 1040.36,1341.95 1040.22,1342.69 1040.09,1343.44 1040.29,1343.44 1040.49,1343.44"/>
		<polygon id="dp_polygon031" fill="#d0af43" fill-rule="evenodd" stroke="black" stroke-width="0.933333" points="1044.45,1322.53 1044.3,1323.2 1044.15,1323.86 1044,1324.53 1043.85,1325.2 1043.71,1325.86 1043.56,1326.53 1043.41,1327.2 1043.78,1327.2 1045.53,1326.69 1047.26,1326.18 1048.99,1325.67 1050.7,1325.15 1052.4,1324.64 1054.09,1324.13 1055.77,1323.62 1057.43,1323.11 1059.09,1322.59 1057.68,1322.12 1056.29,1321.64 1054.91,1321.16 1053.53,1320.69 1052.17,1320.21 1050.81,1319.73 1049.46,1319.24 1048.12,1318.76 1046.79,1318.28 1045.46,1317.79 1045.32,1318.47 1045.18,1319.15 1045.03,1319.83 1044.88,1320.51 1044.74,1321.18 1044.59,1321.86 1044.45,1322.53"/>
		<polygon id="dp_polygon032" fill="#d0af43" fill-rule="evenodd" stroke="black" stroke-width="0.933333" points="1140.96,1349.67 1141.05,1349.99 1141.14,1350.29 1141.23,1350.58 1141.31,1350.85 1141.39,1351.1 1141.47,1351.33 1141.55,1351.54 1141.62,1351.73 1141.69,1351.9 1141.77,1352.05 1141.8,1352.12 1141.83,1352.18 1141.86,1352.23 1141.9,1352.28 1141.93,1352.33 1141.96,1352.37 1141.99,1352.4 1142.02,1352.43 1142.04,1352.45 1142.06,1352.46 1142.07,1352.46 1142.08,1352.47 1142.1,1352.47 1142.11,1352.47 1142.12,1352.47 1142.22,1352.47 1142.32,1352.47 1142.41,1352.47 1142.51,1352.46 1142.6,1352.45 1142.69,1352.45 1142.78,1352.44 1142.87,1352.43 1142.95,1352.42 1143.04,1352.41 1143.21,1352.38 1143.39,1352.36 1143.57,1352.33 1143.83,1352.29 1144.09,1352.25 1144.35,1352.21 1144.62,1352.17 1145.13,1352.09 1145.65,1352.01 1146.16,1351.92 1146.67,1351.84 1147.69,1351.67 1148.08,1351.63 1148.46,1351.59 1148.84,1351.55 1149.21,1351.51 1149.58,1351.47 1149.95,1351.42 1150.32,1351.38 1150.68,1351.33 1151.04,1351.28 1151.4,1351.23 1151.76,1351.18 1152.12,1351.13 1152.47,1351.07 1152.83,1351.02 1153.55,1350.91 1153.67,1350.84 1151.72,1350.28 1149.79,1349.71 1147.85,1349.15 1145.93,1348.6 1144.01,1348.05 1142.09,1347.5 1140.19,1346.95 1140.45,1347.85 1140.71,1348.75 1140.96,1349.67"/>
		<polygon id="dp_polygon033" fill="#efce4a" fill-rule="evenodd" stroke="black" stroke-width="0.933333" points="1006.22,1300.67 1007.4,1301.28 1008.59,1301.89 1009.78,1302.49 1010.98,1303.09 1012.18,1303.68 1013.38,1304.27 1014.59,1304.85 1015.8,1305.43 1017.02,1306 1018.24,1306.57 1019.46,1307.14 1020.69,1307.7 1021.92,1308.25 1023.16,1308.8 1024.4,1309.35 1025.65,1309.89 1026.91,1310.43 1028.17,1310.97 1029.43,1311.5 1030.71,1312.03 1031.98,1312.56 1033.27,1313.08 1034.56,1313.6 1035.86,1314.12 1037.16,1314.63 1038.47,1315.15 1039.79,1315.65 1041.12,1316.16 1042.45,1316.67 1043.8,1317.17 1045.15,1317.67 1045,1318.37 1044.85,1319.08 1044.69,1319.78 1044.54,1320.48 1044.39,1321.17 1044.24,1321.86 1044.09,1322.56 1043.93,1323.25 1043.78,1323.93 1043.62,1324.62 1043.47,1325.31 1043.31,1326 1043.16,1326.69 1043.01,1327.37 1041.37,1327.84 1039.73,1328.3 1038.07,1328.77 1036.41,1329.23 1034.73,1329.7 1033.05,1330.17 1031.53,1329.66 1030.03,1329.15 1028.53,1328.64 1027.04,1328.13 1025.57,1327.62 1024.1,1327.11 1022.64,1326.6 1021.19,1326.09 1019.74,1325.58 1018.31,1325.07 1016.89,1324.56 1015.47,1324.05 1014.62,1323.74 1013.69,1323.4 1012.68,1323.03 1011.62,1322.64 1009.38,1321.81 1007.07,1320.93 1004.78,1320.05 1002.62,1319.21 1000.82,1318.49 999.033,1317.78 999.365,1317.09 999.697,1316.39 1000.03,1315.7 1000.36,1315 1000.68,1314.3 1001.01,1313.59 1001.33,1312.88 1001.66,1312.16 1001.98,1311.44 1002.3,1310.71 1002.61,1309.98 1002.93,1309.24 1003.24,1308.5 1003.55,1307.75 1003.86,1306.99 1004.16,1306.23 1004.46,1305.45 1004.76,1304.68 1005.06,1303.89 1005.35,1303.1 1005.64,1302.29 1005.93,1301.49 1006.22,1300.67"/>
		<polygon id="dp_polygon034" fill="#efce4a" fill-rule="evenodd" stroke="black" stroke-width="0.933333" points="1020.13,1349.56 1022.08,1348.97 1024.01,1348.38 1025.94,1347.79 1027.87,1347.21 1029.78,1346.63 1031.68,1346.06 1033.58,1345.49 1035.47,1344.93 1037.35,1344.37 1039.22,1343.81 1039.43,1343.75 1039.44,1343.75 1039.45,1343.74 1039.46,1343.72 1039.48,1343.68 1039.5,1343.63 1039.52,1343.56 1039.54,1343.49 1039.59,1343.3 1039.65,1343.06 1039.72,1342.78 1039.79,1342.47 1039.87,1342.11 1039.95,1341.73 1040.04,1341.31 1040.14,1340.87 1040.23,1340.41 1040.33,1339.92 1040.43,1339.42 1040.54,1338.9 1040.64,1338.37 1040.79,1337.63 1040.94,1336.9 1041.09,1336.17 1041.24,1335.45 1041.39,1334.73 1041.55,1334.01 1041.7,1333.29 1040.22,1332.81 1038.76,1332.33 1037.3,1331.84 1035.86,1331.36 1034.42,1330.88 1032.99,1330.4 1031.25,1330.88 1029.5,1331.37 1027.74,1331.85 1025.97,1332.33 1024.19,1332.82 1022.41,1333.3 1020.61,1333.79 1018.8,1334.28 1016.99,1334.77 1015.16,1335.27 1013.33,1335.76 1011.49,1336.26 1009.64,1336.76 1007.78,1337.26 1005.91,1337.76 1004.04,1338.27 1002.16,1338.78 1000.27,1339.29 998.367,1339.81 996.461,1340.32 994.548,1340.84 992.627,1341.37 990.699,1341.89 988.764,1342.42 986.821,1342.96 986.292,1344.23 986.975,1344.35 987.373,1344.42 987.783,1344.49 988.185,1344.55 988.376,1344.58 988.557,1344.61 988.729,1344.63 988.884,1344.66 989.024,1344.68 989.143,1344.69 991.369,1345.05 993.603,1345.4 995.843,1345.76 998.089,1346.12 1000.34,1346.48 1002.61,1346.84 1004.88,1347.21 1007.15,1347.57 1009.44,1347.94 1010.77,1348.13 1012.11,1348.33 1013.45,1348.53 1014.78,1348.74 1016.12,1348.94 1017.46,1349.15 1018.8,1349.35 1020.13,1349.56"/>
		<polygon id="dp_polygon035" fill="#efce4a" fill-rule="evenodd" stroke="black" stroke-width="0.933333" points="1115.32,1320.28 1115.56,1320.38 1117.15,1320.86 1118.75,1321.34 1120.37,1321.81 1121.99,1322.29 1123.62,1322.76 1125.27,1323.24 1126.92,1323.71 1128.58,1324.19 1130.26,1324.66 1131.95,1325.13 1131.67,1324.43 1131.4,1323.73 1131.12,1323.03 1130.85,1322.33 1130.58,1321.63 1130.3,1320.92 1130.03,1320.21 1129.76,1319.5 1129.49,1318.79 1129.22,1318.07 1128.96,1317.35 1128.69,1316.63 1128.43,1315.91 1128.16,1315.18 1127.9,1314.44 1127.64,1313.69 1127.38,1312.94 1127.12,1312.19 1126.86,1311.43 1126.61,1310.66 1126.35,1309.89 1126.1,1309.11 1125.8,1308.14 1125.49,1307.16 1123.73,1306.86 1121.98,1306.57 1121.73,1306.53 1121.49,1306.48 1121.25,1306.44 1121.01,1306.4 1120.54,1306.31 1120.06,1306.22 1119.59,1306.13 1119.12,1306.04 1118.18,1305.85 1117.65,1305.78 1117.13,1305.71 1116.93,1305.74 1116.9,1305.74 1116.87,1305.74 1116.85,1305.75 1116.82,1305.75 1116.8,1305.75 1116.78,1305.75 1116.76,1305.75 1116.73,1305.75 1116.71,1305.75 1116.69,1305.75 1116.65,1305.74 1116.61,1305.73 1116.58,1305.72 1116.54,1305.71 1116.51,1305.7 1116.47,1305.69 1116.43,1305.67 1116.35,1305.64 1116.31,1305.62 1116.26,1305.61 1116.17,1305.57 1116.07,1305.54 1115.97,1305.51 1115.87,1305.48 1115.77,1305.45 1115.66,1305.43 1115.55,1305.4 1115.44,1305.38 1115.33,1305.35 1115.21,1305.33 1115.1,1305.31 1114.98,1305.28 1114.87,1305.26 1114.75,1305.24 1114.63,1305.22 1114.51,1305.2 1114.27,1305.16 1114.02,1305.13 1113.78,1305.09 1113.54,1305.06 1113.3,1305.02 1113.07,1304.99 1112.84,1304.96 1112.61,1304.92 1112.37,1304.89 1112.13,1304.87 1111.9,1304.84 1111.66,1304.81 1111.43,1304.78 1111.2,1304.74 1110.98,1304.71 1110.75,1304.67 1110.53,1304.63 1110.31,1304.59 1110.08,1304.55 1109.86,1304.51 1109.64,1304.46 1109.42,1304.42 1109.19,1304.37 1108.97,1304.32 1107.7,1304.9 1106.43,1305.47 1105.14,1306.03 1103.85,1306.6 1102.55,1307.16 1101.24,1307.72 1099.92,1308.27 1098.6,1308.83 1097.26,1309.37 1095.92,1309.92 1094.57,1310.47 1093.21,1311.01 1091.83,1311.54 1090.45,1312.08 1091.91,1312.6 1093.38,1313.12 1094.86,1313.64 1096.35,1314.15 1097.85,1314.66 1099.36,1315.17 1100.89,1315.68 1102.42,1316.19 1103.97,1316.69 1105.52,1317.19 1107.09,1317.7 1108.66,1318.19 1110.25,1318.69 1111.85,1319.19 1113.46,1319.69 1115.08,1320.18 1115.32,1320.28"/>
		<polygon id="dp_polygon036" fill="#efce4a" fill-rule="evenodd" stroke="black" stroke-width="0.933333" points="1089.56,1345.54 1092.38,1345.91 1092.87,1345.97 1093.36,1346.02 1093.85,1346.08 1094.34,1346.13 1094.83,1346.19 1095.32,1346.25 1095.81,1346.31 1096.29,1346.37 1096.78,1346.43 1097.27,1346.5 1097.75,1346.56 1098.24,1346.62 1099.21,1346.75 1100.17,1346.88 1101.14,1347.02 1102.11,1347.15 1104.05,1347.42 1105.99,1347.69 1106.96,1347.82 1107.94,1347.95 1110.57,1348.31 1113.22,1348.67 1115.87,1349.03 1118.52,1349.39 1121.19,1349.75 1123.66,1350.09 1126.14,1350.43 1128.63,1350.77 1131.12,1351.11 1133.62,1351.45 1136.12,1351.79 1136.46,1351.83 1136.79,1351.86 1137.12,1351.9 1137.45,1351.94 1137.77,1351.99 1138.1,1352.03 1138.42,1352.07 1138.74,1352.12 1139.06,1352.16 1139.38,1352.21 1139.7,1352.26 1140.02,1352.31 1140.34,1352.35 1140.66,1352.41 1140.98,1352.46 1141.3,1352.51 1141.09,1351.67 1140.87,1350.84 1140.65,1350.02 1140.43,1349.21 1140.2,1348.4 1139.97,1347.61 1139.74,1346.81 1137.79,1346.25 1135.85,1345.69 1133.91,1345.13 1131.98,1344.57 1130.06,1344.02 1128.15,1343.47 1126.25,1342.92 1124.35,1342.38 1122.47,1341.84 1120.59,1341.3 1118.72,1340.76 1116.87,1340.23 1115.02,1339.7 1113.18,1339.17 1111.9,1338.8 1110.49,1338.4 1108.97,1337.96 1107.37,1337.5 1104,1336.53 1102.25,1336.02 1100.52,1335.51 1098.8,1335.01 1097.09,1334.51 1093.86,1333.55 1092.07,1333.02 1090.29,1332.49 1088.52,1331.96 1088.57,1332.64 1088.63,1333.33 1088.69,1334.01 1088.75,1334.7 1088.8,1335.4 1088.86,1336.09 1088.91,1336.79 1088.97,1337.49 1089.03,1338.2 1089.08,1338.91 1089.13,1339.63 1089.19,1340.35 1089.24,1341.07 1089.3,1341.8 1089.35,1342.54 1089.4,1343.28 1089.46,1344.03 1089.51,1344.78 1089.56,1345.54"/>
		<polygon id="dp_polygon037" fill="#efce4a" fill-rule="evenodd" stroke="black" stroke-width="0.933333" points="1088.63,1329 1090.16,1328.52 1091.67,1328.03 1093.17,1327.55 1094.66,1327.07 1096.14,1326.59 1097.61,1326.11 1099.07,1325.63 1100.52,1325.15 1101.96,1324.66 1103.39,1324.18 1104.81,1323.7 1106.22,1323.22 1107.61,1322.73 1109,1322.25 1110.38,1321.77 1111.75,1321.28 1113.11,1320.79 1114.46,1320.31 1112.86,1319.82 1111.27,1319.32 1109.69,1318.83 1108.13,1318.33 1106.57,1317.84 1105.03,1317.34 1103.49,1316.84 1101.97,1316.34 1100.45,1315.84 1098.95,1315.33 1097.46,1314.82 1095.97,1314.32 1094.5,1313.81 1093.04,1313.29 1091.59,1312.78 1090.15,1312.26 1088.57,1312.86 1086.98,1313.46 1087.03,1314.21 1087.09,1314.95 1087.15,1315.68 1087.21,1316.42 1087.27,1317.15 1087.33,1317.87 1087.39,1318.59 1087.44,1319.27 1087.5,1319.95 1087.56,1320.62 1087.63,1321.49 1087.71,1322.35 1087.77,1323.08 1087.83,1323.81 1087.95,1325.03 1088.04,1326.03 1088.09,1326.45 1088.13,1326.83 1088.17,1327.17 1088.2,1327.47 1088.23,1327.73 1088.27,1327.95 1088.3,1328.15 1088.33,1328.31 1088.36,1328.45 1088.39,1328.57 1088.41,1328.66 1088.44,1328.74 1088.46,1328.77 1088.47,1328.81 1088.49,1328.83 1088.5,1328.86 1088.52,1328.88 1088.53,1328.9 1088.57,1328.93 1088.6,1328.97 1088.63,1329"/>
		<polygon id="dp_polygon038" fill="#efce4a" fill-rule="evenodd" stroke="black" stroke-width="0.933333" points="1086.77,1310.66 1088.44,1311.31 1090.13,1311.95 1091.5,1311.42 1092.86,1310.88 1094.21,1310.35 1095.55,1309.81 1096.89,1309.26 1098.21,1308.72 1099.53,1308.17 1100.83,1307.62 1102.13,1307.07 1103.42,1306.51 1104.7,1305.95 1105.98,1305.38 1107.25,1304.82 1108.51,1304.25 1107.31,1304.04 1106.19,1303.84 1105.06,1303.63 1102.82,1303.23 1100.59,1302.82 1098.37,1302.4 1096.17,1301.98 1093.97,1301.56 1091.79,1301.14 1089.62,1300.72 1089.1,1300.61 1088.59,1300.51 1088.33,1300.46 1088.07,1300.4 1087.82,1300.35 1087.56,1300.29 1087.36,1300.25 1087.17,1300.21 1086.98,1300.17 1086.81,1300.14 1086.65,1300.12 1086.58,1300.11 1086.51,1300.1 1086.46,1300.09 1086.41,1300.08 1086.37,1300.08 1086.34,1300.08 1086.08,1300.08 1086.13,1300.94 1086.18,1301.79 1086.23,1302.64 1086.28,1303.48 1086.33,1304.3 1086.39,1305.12 1086.44,1305.94 1086.49,1306.74 1086.55,1307.54 1086.6,1308.33 1086.66,1309.11 1086.71,1309.89 1086.77,1310.66"/>
		<polygon id="dp_polygon039" fill="#efce4a" fill-rule="evenodd" stroke="black" stroke-width="0.933333" points="1038.21,1328.94 1035.81,1329.62 1033.38,1330.29 1035.03,1330.83 1036.7,1331.37 1038.37,1331.92 1040.06,1332.46 1041.76,1333.01 1041.91,1332.32 1042.06,1331.64 1042.21,1330.97 1042.36,1330.29 1042.51,1329.61 1042.65,1328.94 1042.81,1328.27 1042.96,1327.6 1040.59,1328.27 1038.21,1328.94"/>
		<polygon id="dp_polygon040" fill="#d6c990" fill-rule="evenodd" stroke="black" stroke-width="0.933333" points="1193.3,1345.67 1192.82,1345.7 1192.59,1345.71 1192.36,1345.73 1192.13,1345.74 1191.91,1345.76 1191.69,1345.78 1191.47,1345.79 1191.26,1345.81 1191.04,1345.83 1190.83,1345.85 1190.62,1345.88 1190.41,1345.9 1190.2,1345.93 1189.99,1345.96 1189.89,1345.98 1189.78,1346 1188.78,1346.17 1187.77,1346.33 1185.74,1346.66 1185.34,1346.7 1184.95,1346.73 1184.56,1346.77 1184.17,1346.81 1183.78,1346.85 1183.39,1346.9 1183.01,1346.94 1182.62,1346.98 1182.24,1347.03 1181.85,1347.07 1181.47,1347.12 1181.09,1347.17 1180.71,1347.22 1180.33,1347.27 1179.57,1347.37 1178.82,1347.47 1178.06,1347.58 1176.56,1347.79 1175.81,1347.9 1175.05,1348 1174.3,1348.11 1173.55,1348.21 1169.66,1348.73 1167.51,1349.01 1165.36,1349.3 1163.2,1349.59 1161.04,1349.88 1158.87,1350.17 1158.32,1350.25 1157.78,1350.33 1157.24,1350.41 1156.71,1350.49 1156.17,1350.57 1155.64,1350.65 1155.11,1350.74 1154.58,1350.83 1154.25,1350.82 1151.87,1350.12 1149.49,1349.42 1147.13,1348.73 1144.78,1348.04 1142.44,1347.36 1140.11,1346.68 1139.88,1345.92 1139.65,1345.16 1139.41,1344.4 1139.17,1343.66 1138.93,1342.92 1138.69,1342.18 1138.45,1341.45 1138.2,1340.72 1137.95,1340 1137.7,1339.29 1137.45,1338.57 1137.2,1337.86 1136.94,1337.16 1136.69,1336.46 1136.43,1335.76 1136.17,1335.06 1135.91,1334.37 1135.65,1333.68 1135.39,1333 1135.12,1332.31 1134.86,1331.63 1134.59,1330.95 1134.33,1330.27 1134.06,1329.59 1133.8,1328.91 1133.53,1328.24 1133.26,1327.56 1132.99,1326.88 1132.73,1326.21 1132.46,1325.53 1134.25,1326.03 1136.05,1326.54 1137.86,1327.04 1139.68,1327.54 1141.52,1328.04 1143.36,1328.54 1145.21,1329.05 1147.08,1329.55 1148.95,1330.05 1150.84,1330.56 1152.74,1331.06 1154.65,1331.57 1156.56,1332.07 1158.49,1332.58 1160.43,1333.09 1161.11,1333.28 1161.84,1333.48 1162.61,1333.68 1163.42,1333.9 1165.14,1334.36 1166.98,1334.85 1168.92,1335.36 1170.93,1335.89 1173.01,1336.43 1175.11,1336.97 1177.23,1337.52 1179.35,1338.06 1181.43,1338.59 1183.45,1339.11 1184.44,1339.36 1185.4,1339.6 1186.34,1339.84 1187.24,1340.06 1188.12,1340.28 1188.96,1340.49 1189.77,1340.69 1190.53,1340.88 1191,1341.66 1191.47,1342.45 1191.93,1343.25 1192.39,1344.05 1192.85,1344.86 1193.3,1345.67"/>
		<polygon id="dp_polygon041" fill="#d6c990" fill-rule="evenodd" stroke="black" stroke-width="0.933333" points="1179.97,1324.93 1179.51,1324.27 1179.06,1323.61 1178.61,1322.95 1178.15,1322.28 1177.7,1321.61 1177.25,1320.95 1176.8,1320.28 1176.35,1319.61 1175.91,1318.93 1175.46,1318.26 1175.01,1317.58 1174.57,1316.9 1174.13,1316.21 1173.69,1315.52 1173.26,1314.83 1172.82,1314.14 1172.39,1313.44 1171.96,1312.73 1171.53,1312.03 1171.11,1311.32 1170.69,1310.6 1170.27,1309.88 1169.85,1309.15 1169.44,1308.42 1169.03,1307.68 1168.62,1306.94 1168.22,1306.19 1167.82,1305.43 1167.43,1304.67 1167.04,1303.9 1166.65,1303.13 1166.27,1302.35 1165.89,1301.56 1165.52,1300.76 1165.25,1300.76 1164.99,1300.75 1164.84,1300.78 1164.68,1300.81 1164.53,1300.84 1164.37,1300.86 1164.22,1300.89 1164.06,1300.92 1163.91,1300.94 1163.75,1300.97 1163.59,1300.99 1163.43,1301.01 1163.27,1301.03 1163.11,1301.05 1162.94,1301.07 1162.78,1301.09 1162.61,1301.11 1162.44,1301.13 1161.64,1301.3 1161.25,1301.38 1161.05,1301.42 1160.85,1301.46 1160.65,1301.49 1160.44,1301.53 1160.24,1301.57 1160.03,1301.61 1159.83,1301.64 1159.62,1301.67 1159.41,1301.71 1159.19,1301.74 1159.07,1301.75 1158.94,1301.77 1158.83,1301.79 1158.71,1301.81 1158.6,1301.83 1158.49,1301.85 1158.38,1301.87 1158.28,1301.9 1158.17,1301.92 1158.07,1301.94 1157.97,1301.97 1157.87,1302 1157.76,1302.02 1157.66,1302.05 1157.56,1302.08 1157.46,1302.11 1156.33,1302.67 1155.2,1303.21 1154.07,1303.76 1152.94,1304.3 1151.8,1304.85 1150.65,1305.38 1149.51,1305.92 1148.35,1306.45 1147.2,1306.98 1146.04,1307.51 1144.87,1308.03 1143.71,1308.56 1142.53,1309.08 1141.35,1309.6 1140.17,1310.12 1138.97,1310.63 1137.78,1311.15 1136.57,1311.66 1135.37,1312.17 1136.95,1312.68 1138.54,1313.18 1140.14,1313.69 1141.76,1314.19 1143.38,1314.69 1145.02,1315.19 1146.67,1315.69 1148.32,1316.19 1149.99,1316.69 1151.67,1317.18 1153.36,1317.67 1155.07,1318.16 1156.78,1318.65 1158.5,1319.14 1160.23,1319.63 1161.98,1320.11 1163.73,1320.6 1165.5,1321.09 1167.27,1321.57 1169.06,1322.05 1170.85,1322.53 1172.66,1323.01 1174.47,1323.49 1176.29,1323.98 1178.13,1324.46 1179.97,1324.93"/>
		<polygon id="dp_polygon042" fill="#d6c990" fill-rule="evenodd" stroke="black" stroke-width="0.933333" points="1040.49,1343.44 1040.46,1343.49 1040.43,1343.56 1040.4,1343.64 1040.36,1343.72 1040.33,1343.81 1040.29,1343.91 1040.22,1344.13 1040.14,1344.39 1040.06,1344.66 1039.98,1344.97 1039.89,1345.29 1039.81,1345.63 1039.73,1345.99 1039.65,1346.37 1039.57,1346.75 1039.49,1347.15 1039.42,1347.56 1039.35,1347.97 1039.28,1348.38 1039.16,1349.19 1039.04,1350 1038.93,1350.83 1038.81,1351.66 1038.7,1352.5 1041.63,1352.07 1041.99,1352.03 1042.35,1351.98 1042.72,1351.94 1043.08,1351.9 1043.81,1351.81 1044.53,1351.71 1045.24,1351.62 1045.96,1351.53 1046.67,1351.43 1047.39,1351.33 1048.1,1351.23 1048.8,1351.13 1050.22,1350.93 1051.63,1350.73 1053.04,1350.53 1055.38,1350.21 1057.72,1349.88 1060.05,1349.56 1062.38,1349.24 1064.7,1348.92 1067.01,1348.6 1069.32,1348.28 1071.62,1347.96 1073.92,1347.65 1076.21,1347.34 1076.62,1347.28 1077.04,1347.22 1077.45,1347.16 1077.86,1347.11 1078.68,1346.99 1079.49,1346.87 1080.31,1346.74 1081.12,1346.62 1081.92,1346.5 1082.73,1346.37 1080.85,1345.78 1078.99,1345.2 1077.13,1344.62 1075.29,1344.04 1073.45,1343.47 1071.63,1342.9 1069.82,1342.33 1069.19,1342.14 1068.5,1341.92 1067.75,1341.69 1066.96,1341.45 1065.29,1340.92 1063.55,1340.38 1061.83,1339.83 1060.19,1339.31 1057.44,1338.44 1055.6,1338.98 1053.74,1339.53 1051.88,1340.07 1050.01,1340.63 1048.13,1341.18 1046.23,1341.74 1044.33,1342.3 1042.42,1342.87 1040.49,1343.44"/>
		<polygon id="dp_polygon043" fill="#d6c990" fill-rule="evenodd" stroke="black" stroke-width="0.933333" points="1088.11,1331.5 1088.17,1331.31 1088.22,1331.13 1088.24,1331.04 1088.27,1330.94 1088.29,1330.85 1088.31,1330.76 1088.32,1330.67 1088.34,1330.57 1088.35,1330.48 1088.36,1330.39 1088.36,1330.29 1088.36,1330.2 1088.36,1330.11 1088.35,1330.01 1088.35,1329.96 1088.34,1329.9 1088.33,1329.85 1088.32,1329.79 1088.31,1329.74 1088.29,1329.69 1088.28,1329.64 1088.27,1329.6 1088.25,1329.56 1088.23,1329.52 1088.21,1329.49 1088.19,1329.46 1088.18,1329.44 1088.16,1329.42 1088.15,1329.41 1088.14,1329.4 1088.13,1329.4 1088.12,1329.39 1087.93,1329.34 1086.12,1329.85 1084.31,1330.35 1086.2,1330.93 1088.11,1331.5"/>
		<polygon id="dp_polygon044" fill="#6472a0" fill-rule="evenodd" stroke="black" stroke-width="0.933333" points="1086.79,1311.03 1085.4,1310.51 1084.02,1309.98 1082.65,1309.45 1081.28,1308.92 1079.93,1308.38 1078.58,1307.84 1077.24,1307.3 1075.91,1306.75 1074.59,1306.2 1073.28,1305.64 1071.97,1305.08 1070.67,1304.52 1069.38,1303.95 1068.1,1303.38 1066.99,1303.59 1066.73,1303.64 1066.48,1303.69 1066.22,1303.73 1065.96,1303.77 1065.71,1303.82 1065.44,1303.86 1065.18,1303.9 1064.92,1303.94 1064.54,1303.99 1064.16,1304.05 1063.78,1304.1 1063.4,1304.16 1063.02,1304.22 1062.64,1304.28 1062.26,1304.34 1061.88,1304.41 1061.5,1304.47 1061.12,1304.53 1060.74,1304.6 1060.36,1304.66 1059.61,1304.79 1058.85,1304.93 1058.09,1305.06 1057.33,1305.2 1055.81,1305.47 1055.05,1305.6 1054.29,1305.74 1053.53,1305.87 1052.76,1306 1052.45,1306.05 1052.13,1306.11 1051.81,1306.16 1051.49,1306.21 1050.86,1306.33 1050.23,1306.44 1049.6,1306.55 1048.97,1306.67 1048.34,1306.78 1047.7,1306.9 1047.7,1306.9 1047.69,1306.91 1047.68,1306.93 1047.67,1306.97 1047.65,1307.02 1047.63,1307.09 1047.61,1307.16 1047.56,1307.36 1047.5,1307.59 1047.44,1307.88 1047.37,1308.2 1047.3,1308.56 1047.22,1308.95 1047.13,1309.37 1047.04,1309.83 1046.95,1310.3 1046.85,1310.8 1046.75,1311.31 1046.65,1311.84 1046.55,1312.38 1046.4,1313.13 1046.26,1313.88 1046.11,1314.63 1045.96,1315.37 1045.81,1316.1 1045.66,1316.83 1045.51,1317.56 1046.87,1318.06 1048.23,1318.55 1049.61,1319.05 1050.99,1319.54 1052.38,1320.04 1053.78,1320.53 1055.18,1321.02 1056.6,1321.51 1058.03,1321.99 1059.46,1322.48 1061.09,1321.97 1062.71,1321.46 1064.31,1320.95 1065.9,1320.44 1067.48,1319.93 1069.05,1319.42 1070.6,1318.9 1072.15,1318.38 1073.68,1317.86 1074.37,1317.62 1075.13,1317.36 1075.94,1317.08 1076.79,1316.78 1078.6,1316.14 1080.46,1315.48 1082.29,1314.82 1084.04,1314.18 1085.5,1313.64 1086.95,1313.1 1086.87,1312.07 1086.79,1311.03"/>
		<polygon id="dp_polygon045" fill="#f7e6a1" fill-rule="evenodd" stroke="black" stroke-width="0.933333" points="1088.11,1331.5 1089.75,1332 1091.4,1332.49 1093.06,1332.99 1094.74,1333.49 1096.42,1333.99 1098.11,1334.49 1099.82,1334.99 1101.53,1335.49 1103.25,1336 1104.99,1336.51 1106.73,1337.01 1108.48,1337.52 1110.25,1338.04 1112.02,1338.55 1113.8,1339.07 1115.59,1339.59 1117.39,1340.11 1119.2,1340.63 1121.02,1341.16 1122.85,1341.68 1124.68,1342.22 1126.53,1342.75 1128.38,1343.28 1130.24,1343.82 1132.11,1344.36 1133.99,1344.91 1135.87,1345.45 1137.77,1346 1139.67,1346.56 1139.44,1345.79 1139.21,1345.03 1138.97,1344.28 1138.73,1343.54 1138.49,1342.79 1138.25,1342.06 1138.01,1341.33 1137.77,1340.6 1137.52,1339.88 1137.27,1339.17 1137.02,1338.45 1136.77,1337.75 1136.51,1337.04 1136.26,1336.34 1136,1335.64 1135.74,1334.95 1135.48,1334.25 1135.22,1333.57 1134.96,1332.88 1134.7,1332.19 1134.44,1331.51 1134.18,1330.83 1133.91,1330.15 1133.65,1329.47 1133.38,1328.79 1133.12,1328.12 1132.85,1327.44 1132.59,1326.77 1132.32,1326.09 1132.05,1325.41 1130.24,1324.91 1128.44,1324.4 1126.65,1323.89 1124.87,1323.38 1123.11,1322.87 1122.68,1322.75 1122.21,1322.61 1121.71,1322.47 1121.17,1322.31 1120.02,1321.98 1118.82,1321.62 1117.62,1321.27 1116.47,1320.92 1114.46,1320.31 1113.11,1320.79 1111.75,1321.28 1110.38,1321.77 1109,1322.25 1107.61,1322.73 1106.22,1323.22 1104.81,1323.7 1103.39,1324.18 1101.96,1324.66 1100.52,1325.15 1099.07,1325.63 1097.61,1326.11 1096.14,1326.59 1094.66,1327.07 1093.17,1327.55 1091.67,1328.03 1090.16,1328.52 1088.63,1329 1087.93,1329.34 1088.12,1329.39 1088.13,1329.4 1088.14,1329.4 1088.15,1329.41 1088.16,1329.42 1088.18,1329.44 1088.19,1329.46 1088.21,1329.49 1088.23,1329.52 1088.25,1329.56 1088.27,1329.6 1088.28,1329.64 1088.29,1329.69 1088.31,1329.74 1088.32,1329.79 1088.33,1329.85 1088.34,1329.9 1088.35,1329.96 1088.35,1330.01 1088.36,1330.11 1088.36,1330.2 1088.36,1330.29 1088.36,1330.39 1088.35,1330.48 1088.34,1330.57 1088.32,1330.67 1088.31,1330.76 1088.29,1330.85 1088.27,1330.94 1088.24,1331.04 1088.22,1331.13 1088.17,1331.31 1088.11,1331.5"/>
		<polygon id="dp_polygon046" fill="#f7e6a1" fill-rule="evenodd" stroke="black" stroke-width="0.933333" points="1039.22,1343.81 1039.23,1343.82 1039.24,1343.83 1039.26,1343.86 1039.27,1343.9 1039.28,1343.95 1039.29,1344.01 1039.3,1344.07 1039.31,1344.14 1039.31,1344.22 1039.32,1344.31 1039.32,1344.41 1039.31,1344.62 1039.3,1344.87 1039.28,1345.14 1039.26,1345.44 1039.23,1345.76 1039.19,1346.11 1039.14,1346.49 1039.09,1346.89 1039.03,1347.31 1038.97,1347.75 1038.9,1348.2 1038.77,1349.05 1038.64,1349.9 1038.52,1350.76 1038.4,1351.63 1038.28,1352.52 1036.1,1352.16 1033.92,1351.8 1031.75,1351.45 1029.58,1351.1 1027.42,1350.75 1025.26,1350.4 1023.11,1350.06 1020.97,1349.71 1020.55,1349.64 1020.55,1349.63 1020.55,1349.62 1020.54,1349.62 1020.53,1349.61 1020.52,1349.61 1020.51,1349.6 1020.48,1349.59 1020.45,1349.59 1020.42,1349.58 1020.38,1349.57 1020.34,1349.57 1020.3,1349.57 1020.27,1349.57 1020.2,1349.56 1020.15,1349.56 1020.13,1349.56 1022.08,1348.97 1024.01,1348.38 1025.94,1347.79 1027.87,1347.21 1029.78,1346.63 1031.68,1346.06 1033.58,1345.49 1035.47,1344.93 1037.35,1344.37 1039.22,1343.81"/>
		<polygon id="dp_polygon047" fill="#7383bf" fill-rule="evenodd" stroke="black" stroke-width="0.933333" points="998.919,1318.01 1000.19,1318.52 1001.46,1319.03 1002.74,1319.53 1004.03,1320.03 1005.32,1320.53 1006.62,1321.03 1007.92,1321.53 1009.23,1322.03 1010.55,1322.52 1011.87,1323.02 1013.2,1323.51 1014.54,1324 1015.88,1324.49 1017.24,1324.98 1018.6,1325.47 1019.96,1325.96 1021.34,1326.44 1022.72,1326.93 1024.11,1327.42 1025.51,1327.9 1026.92,1328.39 1028.34,1328.88 1029.76,1329.37 1031.19,1329.85 1032.64,1330.34 1030.91,1330.82 1029.18,1331.29 1027.44,1331.77 1025.69,1332.24 1023.93,1332.72 1022.15,1333.2 1020.37,1333.68 1018.59,1334.16 1016.79,1334.65 1014.98,1335.13 1013.17,1335.62 1011.34,1336.11 1009.51,1336.6 1007.67,1337.1 1005.83,1337.59 1003.97,1338.09 1002.1,1338.59 1000.23,1339.1 998.355,1339.6 996.468,1340.11 994.573,1340.62 992.673,1341.14 990.765,1341.66 988.849,1342.18 986.928,1342.71 987.241,1341.97 987.557,1341.24 987.876,1340.51 988.196,1339.79 988.517,1339.07 988.841,1338.36 989.167,1337.65 989.493,1336.95 989.823,1336.25 990.152,1335.56 990.483,1334.87 990.816,1334.18 991.149,1333.5 991.484,1332.81 991.819,1332.13 992.156,1331.46 992.492,1330.78 992.831,1330.11 993.169,1329.44 993.508,1328.77 993.847,1328.1 994.187,1327.43 994.527,1326.76 994.865,1326.09 995.205,1325.42 995.545,1324.76 995.885,1324.09 996.224,1323.42 996.564,1322.75 996.903,1322.08 997.24,1321.4 997.577,1320.73 997.915,1320.05 998.251,1319.37 998.585,1318.69 998.919,1318.01"/>
		<polygon id="dp_polygon048" fill="#7383bf" fill-rule="evenodd" stroke="black" stroke-width="0.933333" points="1006.65,1299.4 1006.83,1299.42 1007.02,1299.45 1007.2,1299.47 1007.38,1299.5 1007.56,1299.53 1007.74,1299.55 1007.92,1299.58 1008.09,1299.61 1008.27,1299.64 1008.44,1299.67 1008.61,1299.7 1008.79,1299.73 1008.96,1299.76 1009.13,1299.8 1009.47,1299.86 1009.8,1299.93 1010.13,1300 1010.47,1300.07 1010.8,1300.15 1011.13,1300.23 1011.46,1300.3 1011.79,1300.38 1012.12,1300.46 1012.29,1300.48 1012.45,1300.51 1012.62,1300.53 1012.78,1300.56 1013.11,1300.61 1013.43,1300.66 1013.75,1300.72 1014.07,1300.77 1014.39,1300.83 1014.7,1300.89 1015.02,1300.95 1015.33,1301.01 1015.96,1301.14 1016.59,1301.26 1017.21,1301.39 1018.93,1301.72 1020.65,1302.05 1022.37,1302.38 1024.09,1302.71 1025.81,1303.03 1027.53,1303.36 1029.26,1303.68 1030.98,1304 1032.91,1304.35 1034.83,1304.7 1036.75,1305.04 1038.68,1305.39 1040.61,1305.73 1042.55,1306.07 1042.86,1306.13 1043.17,1306.18 1043.48,1306.23 1043.79,1306.29 1044.1,1306.35 1044.4,1306.41 1044.71,1306.47 1045.01,1306.53 1045.39,1306.61 1045.58,1306.65 1045.78,1306.69 1045.97,1306.73 1046.16,1306.77 1046.36,1306.8 1046.56,1306.83 1046.62,1306.84 1046.67,1306.85 1046.69,1306.86 1046.72,1306.87 1046.74,1306.87 1046.77,1306.88 1046.79,1306.89 1046.81,1306.9 1046.83,1306.91 1046.85,1306.93 1046.86,1306.94 1046.88,1306.96 1046.89,1306.97 1046.91,1306.99 1046.92,1307.01 1046.93,1307.04 1046.95,1307.06 1046.96,1307.09 1046.96,1307.12 1046.97,1307.15 1046.98,1307.19 1046.99,1307.23 1046.99,1307.31 1047,1307.41 1047,1307.52 1046.99,1307.64 1046.98,1307.79 1046.97,1307.94 1046.95,1308.12 1046.93,1308.31 1046.9,1308.52 1046.87,1308.75 1046.83,1309 1046.78,1309.28 1046.68,1309.89 1046.55,1310.6 1046.4,1311.41 1046.23,1312.32 1046.08,1313.07 1045.94,1313.81 1045.79,1314.54 1045.65,1315.27 1045.5,1315.99 1045.35,1316.72 1045.2,1317.43 1043.8,1316.92 1042.42,1316.4 1041.04,1315.87 1039.67,1315.35 1038.31,1314.82 1036.96,1314.29 1035.62,1313.76 1034.28,1313.22 1032.95,1312.68 1031.62,1312.14 1030.31,1311.59 1029,1311.04 1027.69,1310.49 1026.39,1309.93 1025.11,1309.37 1024.12,1308.94 1023.04,1308.47 1021.89,1307.96 1020.67,1307.41 1019.39,1306.82 1018.11,1306.23 1016.79,1305.61 1015.47,1304.98 1014.17,1304.35 1012.87,1303.72 1011.64,1303.11 1010.41,1302.49 1009.04,1301.8 1007.67,1301.1 1006.31,1300.39 1006.65,1299.4"/>
		<polygon id="dp_polygon049" fill="#7383bf" fill-rule="evenodd" stroke="black" stroke-width="0.933333" points="1086.95,1313.1 1088.38,1312.56 1089.8,1312.02 1088.29,1311.53 1086.79,1311.03 1086.87,1312.07 1086.95,1313.1"/>
		<path id="dp_path050" fill="black" fill-rule="evenodd" fill-opacity="0.435294" stroke="none" stroke-width="0" d="M 1120.12,1283.06 C 1110.68,1272 1094.22,1270.83 1083.36,1280.45 C 1064.34,1297.29 1066.88,1329.69 1067.18,1329.95 C 1068.57,1331.17 1099.52,1336.48 1117.55,1320.52 C 1128.41,1310.9 1129.56,1294.13 1120.12,1283.06 Z "/>
		<path id="dp_path051" fill="#7f89ff" fill-rule="evenodd" stroke="black" stroke-width="0.8" d="M 1108.14,1208.39 C 1132.49,1216.35 1145.5,1242.83 1137.2,1267.53 C 1122.66,1310.79 1068.3,1329.09 1067.67,1328.77 C 1064.74,1327.32 1035.23,1279.67 1049.01,1238.68 C 1057.31,1213.98 1083.79,1200.42 1108.14,1208.39 Z "/>
		<g id="dp_dp052" clip-path="url(#clip_dp_001)">
			<g id="clip" i:layer="yes">
				<path id="dp_path053" fill="white" stroke="none" stroke-width="0" d="M 1105.44,1216.42 C 1084.96,1209.72 1062.69,1221.13 1055.7,1241.91 C 1050.12,1258.53 1056,1276.1 1069.07,1285.89 C 1070.81,1286.85 1071.88,1285.9 1072.22,1284.91 C 1072.52,1284.02 1073.48,1281.04 1074.51,1277.89 C 1063.43,1276.79 1063.51,1269.37 1063.51,1269.37 C 1063.29,1264.47 1061.25,1262.52 1061.25,1262.52 C 1058.67,1259.08 1062.27,1260.32 1062.27,1260.32 C 1065.91,1261.8 1066.65,1266.05 1066.65,1266.05 C 1068.03,1272.88 1073.96,1272.97 1076.4,1272.7 C 1077.55,1270.39 1079.06,1269.04 1080.44,1268.45 C 1072.52,1264.8 1064.95,1258.74 1069.79,1244.32 C 1071.17,1240.22 1073.75,1237.34 1077.01,1235.48 C 1076.94,1234.41 1076.95,1230.17 1080.71,1225.64 C 1080.71,1225.64 1084.17,1225.65 1089.61,1232.83 C 1092.85,1232.97 1096.17,1233.59 1099.32,1234.61 C 1102.47,1235.65 1105.51,1237.11 1108.19,1238.91 C 1116.9,1236.36 1119.68,1238.39 1119.68,1238.39 C 1119.95,1244.23 1117.4,1247.64 1116.7,1248.46 C 1118.19,1251.88 1118.49,1255.71 1117.12,1259.81 C 1112.26,1274.26 1102.51,1274.6 1093.94,1272.83 C 1094.88,1274.42 1095.3,1277.11 1094.12,1280.61 C 1092.43,1285.65 1091.02,1289.68 1090.61,1290.92 C 1090.27,1291.92 1090.55,1293.31 1092.55,1293.56 C 1108.95,1293.4 1124.3,1282.77 1129.89,1266.16 C 1136.87,1245.39 1125.92,1223.11 1105.45,1216.41 Z "/>
			</g>
		</g>
		<path id="dp_path054" fill="none" fill-rule="evenodd" stroke="black" stroke-width="0.8" d="M 1105.44,1216.42 C 1084.96,1209.72 1062.69,1221.13 1055.7,1241.91 C 1050.12,1258.53 1056,1276.1 1069.07,1285.89 C 1070.81,1286.85 1071.88,1285.9 1072.22,1284.91 C 1072.52,1284.02 1073.48,1281.04 1074.51,1277.89 C 1063.43,1276.79 1063.51,1269.37 1063.51,1269.37 C 1063.29,1264.47 1061.25,1262.52 1061.25,1262.52 C 1058.67,1259.08 1062.27,1260.32 1062.27,1260.32 C 1065.91,1261.8 1066.65,1266.05 1066.65,1266.05 C 1068.03,1272.88 1073.96,1272.97 1076.4,1272.7 C 1077.55,1270.39 1079.06,1269.04 1080.44,1268.45 C 1072.52,1264.8 1064.95,1258.74 1069.79,1244.32 C 1071.17,1240.22 1073.75,1237.34 1077.01,1235.48 C 1076.94,1234.41 1076.95,1230.17 1080.71,1225.64 C 1080.71,1225.64 1084.17,1225.65 1089.61,1232.83 C 1092.85,1232.97 1096.17,1233.59 1099.32,1234.61 C 1102.47,1235.65 1105.51,1237.11 1108.19,1238.91 C 1116.9,1236.36 1119.68,1238.39 1119.68,1238.39 C 1119.95,1244.23 1117.4,1247.64 1116.7,1248.46 C 1118.19,1251.88 1118.49,1255.71 1117.12,1259.81 C 1112.26,1274.26 1102.51,1274.6 1093.94,1272.83 C 1094.88,1274.42 1095.3,1277.11 1094.12,1280.61 C 1092.43,1285.65 1091.02,1289.68 1090.61,1290.92 C 1090.27,1291.92 1090.55,1293.31 1092.55,1293.56 C 1108.77,1293.4 1123.96,1283.01 1129.7,1266.71 L 1130.06,1265.62 C 1136.68,1245 1125.75,1223.05 1105.45,1216.41 Z "/>
	</g>
</svg>