<?xml version="1.0" encoding="UTF-8" standalone="no"?>
<svg version="1.1" xmlns="http://www.w3.org/2000/svg" xmlns:xlink="http://www.w3.org/1999/xlink" width="543.663" height="255.663">
	<defs>
		<radialGradient id="grad_dp_001" gradientUnits="userSpaceOnUse" cx="304.188" cy="3382.18" r="49.2783">
			<stop offset="0" stop-color="#cfcfcf"/>
			<stop offset="1" stop-color="white"/>
		</radialGradient>
		<clipPath id="clip_dp_001" clipPathUnits="userSpaceOnUse" clip-rule="nonzero">
			<path d="M 290.253,128.419 L 298.077,128.696 L 304.051,146.952 L 293.349,159.247 L 284.865,146.271 Z " clip-rule="nonzero"/>
		</clipPath>
		<clipPath id="clip_dp_002" clipPathUnits="userSpaceOnUse" clip-rule="nonzero">
			<path d="M 290.175,125.033 L 290.177,124.957 L 290.185,124.885 L 290.189,124.849 L 290.197,124.813 L 290.197,124.804 L 290.2,124.795 L 290.204,124.779 L 290.208,124.76 L 290.209,124.752 L 290.213,124.744 L 290.231,124.673 L 290.253,124.607 L 290.265,124.572 L 290.279,124.54 L 290.308,124.476 L 290.337,124.412 L 290.372,124.352 L 290.408,124.292 L 290.448,124.236 L 290.489,124.18 L 290.535,124.128 L 290.583,124.077 L 290.633,124.031 L 290.684,123.983 L 290.709,123.96 L 290.737,123.94 L 290.793,123.899 L 290.821,123.879 L 290.852,123.861 L 290.88,123.841 L 290.911,123.825 L 290.911,123.823 L 290.913,123.821 L 290.917,123.82 L 290.925,123.816 L 290.94,123.808 L 290.972,123.793 L 291.036,123.763 L 291.101,123.737 L 291.133,123.724 L 291.149,123.717 L 291.167,123.713 L 291.2,123.701 L 291.235,123.693 L 291.268,123.683 L 291.285,123.679 L 291.293,123.676 L 291.303,123.676 L 291.373,123.663 L 291.444,123.652 L 291.517,123.645 L 291.589,123.643 L 291.665,123.645 L 297.537,123.853 L 297.609,123.856 L 297.683,123.864 L 297.717,123.868 L 297.753,123.876 L 297.761,123.876 L 297.771,123.879 L 297.788,123.883 L 297.824,123.892 L 297.892,123.909 L 297.96,123.932 L 297.993,123.943 L 298.027,123.956 L 298.092,123.985 L 298.153,124.015 L 298.215,124.049 L 298.273,124.085 L 298.331,124.127 L 298.385,124.168 L 298.439,124.213 L 298.489,124.26 L 298.539,124.311 L 298.583,124.361 L 298.627,124.415 L 298.667,124.471 L 298.707,124.529 L 298.741,124.588 L 298.773,124.649 L 298.803,124.713 L 298.831,124.779 L 298.853,124.844 L 298.873,124.912 L 298.889,124.98 L 298.904,125.052 L 298.913,125.123 L 298.92,125.196 L 298.924,125.268 L 298.924,125.344 L 298.789,129.129 L 298.784,129.201 L 298.775,129.275 L 298.763,129.345 L 298.748,129.417 L 298.729,129.484 L 298.708,129.552 L 298.683,129.619 L 298.656,129.684 L 298.624,129.745 L 298.589,129.807 L 298.552,129.865 L 298.513,129.923 L 298.469,129.977 L 298.425,130.031 L 298.379,130.081 L 298.331,130.131 L 298.277,130.175 L 298.224,130.219 L 298.168,130.259 L 298.111,130.299 L 298.051,130.333 L 297.989,130.365 L 297.925,130.395 L 297.863,130.423 L 297.795,130.445 L 297.728,130.465 L 297.659,130.483 L 297.589,130.497 L 297.517,130.507 L 297.445,130.513 L 297.372,130.517 L 297.299,130.517 L 291.428,130.309 L 291.352,130.304 L 291.28,130.295 L 291.208,130.283 L 291.139,130.268 L 291.068,130.248 L 291.033,130.237 L 291.001,130.227 L 290.935,130.203 L 290.871,130.175 L 290.807,130.143 L 290.747,130.109 L 290.687,130.072 L 290.631,130.033 L 290.575,129.989 L 290.523,129.945 L 290.472,129.899 L 290.425,129.851 L 290.377,129.797 L 290.355,129.771 L 290.335,129.744 L 290.293,129.688 L 290.256,129.631 L 290.236,129.6 L 290.22,129.571 L 290.203,129.54 L 290.188,129.509 L 290.157,129.445 L 290.144,129.413 L 290.132,129.383 L 290.119,129.348 L 290.108,129.315 L 290.096,129.281 L 290.088,129.248 L 290.077,129.213 L 290.071,129.179 L 290.057,129.109 L 290.047,129.037 L 290.04,128.965 L 290.037,128.892 L 290.04,128.819 Z " clip-rule="nonzero"/>
		</clipPath>
		<clipPath id="clip_dp_003" clipPathUnits="userSpaceOnUse" clip-rule="nonzero">
			<path d="M 341.007,3263.09 L 359.007,3263.16 L 358.943,3279.16 L 340.943,3279.09 Z " clip-rule="nonzero"/>
		</clipPath>
		<clipPath id="clip_dp_004" clipPathUnits="userSpaceOnUse" clip-rule="nonzero">
			<path d="M 403.653,3287.98 L 419.635,3288.75 L 418.864,3304.74 L 402.883,3303.97 Z " clip-rule="nonzero"/>
		</clipPath>
		<clipPath id="clip_dp_005" clipPathUnits="userSpaceOnUse" clip-rule="nonzero">
			<path d="M 374.267,3259.63 L 390.147,3261.58 L 388.195,3277.46 L 372.313,3275.51 Z " clip-rule="nonzero"/>
		</clipPath>
	</defs>
	<g id="dp_dp001" transform="matrix(1,0,0,1,1.47733,-3243.17)">
		<path id="dp_path002" fill="#d7efc1" fill-rule="evenodd" stroke="none" stroke-width="0" d="M -0.810667,3468.6 L 541.303,3468.6 L 541.303,3498.51 L -0.810667,3498.51 Z "/>
		<path id="dp_path003" fill="#96f593" fill-rule="evenodd" stroke="none" stroke-width="0" d="M 76.972,3295.93 L 219.564,3295.93 L 219.564,3414.75 L 76.972,3414.75 Z "/>
		<path id="dp_path004" fill="#96cfff" fill-rule="evenodd" stroke="none" stroke-width="0" d="M 81.8893,3302.1 L 213.979,3302.1 L 213.979,3411.3 L 81.8893,3411.3 Z "/>
		<path id="dp_path005" fill="#0078db" fill-rule="evenodd" stroke="none" stroke-width="0" d="M 211.831,3364.01 C 211.687,3359.58 211.568,3356.64 211.411,3352.9 C 211.403,3352.72 211.856,3350.14 210.975,3349.72 C 209.169,3348.86 204.461,3350.11 203.324,3349.45 C 202.233,3348.82 203.589,3346.49 201.327,3346.64 C 200.995,3346.66 200.665,3346.7 200.336,3346.73 C 200.133,3346.76 199.477,3346.49 199.143,3347.01 C 198.409,3348.14 199.563,3348.56 198.819,3349.39 C 198.029,3349.99 196.761,3349.44 196.083,3349.9 C 195.781,3350.1 195.705,3352.08 195.635,3352.49 C 195.112,3352.49 194.527,3352.49 194.06,3352.48 C 191.613,3352.42 192.436,3350.24 191.808,3348.82 C 191.357,3347.8 190.776,3346.99 190.652,3346.69 C 190.511,3347.05 190.169,3349.03 189.228,3349.53 C 188.545,3349.89 188.149,3349.48 187.468,3350.13 C 184.952,3352.53 185.151,3354.74 185.151,3357.57 C 185.151,3358.25 184.543,3357.88 184.543,3357.21 C 184.543,3355.99 184.455,3354.78 184.383,3353.57 C 184.159,3349.79 184.079,3345.51 183.937,3341.33 C 183.889,3339.94 183.999,3338.4 183.673,3337.01 C 183.633,3336.84 183.327,3336.95 183.152,3336.94 C 182.676,3336.91 181.963,3336.9 181.452,3336.9 C 179.569,3336.91 178.045,3337.11 174.627,3337.74 C 174.627,3338.75 174.915,3340.23 174.696,3341.16 C 174.625,3341.35 174.319,3341.34 174.116,3341.35 C 174.029,3341.35 173.456,3340.91 173.069,3341.51 C 172.675,3342.39 173.3,3354.53 173.663,3355.86 C 172.679,3355.59 171.281,3355.91 170.209,3354.98 C 169.135,3354.04 169.571,3353.48 168.831,3353.04 C 168.736,3352.98 168.349,3353.16 168.253,3353.2 C 166.92,3353.73 167.321,3356.1 165.719,3355.38 C 164.852,3354.99 165.137,3353.04 164.911,3352.62 C 164.059,3351.05 162.919,3351.8 161.983,3350.93 C 160.959,3349.98 160.805,3348.07 160.111,3347.28 C 159.796,3346.92 158.999,3347.11 158.979,3347.1 C 158.232,3347.06 155.647,3346.59 154.092,3346.87 C 152.975,3347.08 152.245,3351.59 151.353,3352.08 C 150.759,3352.41 149.016,3352.08 148.317,3352.08 C 148.317,3350.53 148.653,3349.02 148.221,3347.62 C 147.929,3346.97 146.4,3347.35 145.913,3347.3 C 145.788,3347.28 144.821,3347.29 144.779,3347.12 C 144.535,3345.3 144.776,3342.39 144.675,3339.51 C 144.533,3335.48 144.451,3331.77 144.472,3327.39 C 139.135,3327.37 133.112,3326.63 126.056,3327.36 C 126.056,3331.02 126.056,3334.67 126.056,3338.32 C 123.031,3338.32 119.944,3338.13 116.927,3338.32 C 114.076,3338.49 111.209,3339.28 108.453,3339.92 C 107.4,3340.16 105.764,3340.33 104.98,3340.76 C 104.821,3340.85 104.913,3341.12 104.899,3341.3 C 104.852,3341.88 104.832,3342.61 104.817,3343.48 C 104.768,3346.35 104.889,3350.06 104.965,3353.12 C 104.995,3354.32 105.001,3355.51 105.008,3356.7 C 104.771,3356.64 104.535,3356.57 104.299,3356.51 C 102.269,3355.92 104.619,3350.78 103.588,3350.37 C 99.7947,3348.88 100.915,3352.56 100.36,3352.89 C 100.06,3353.07 99.0933,3352.89 98.7333,3352.89 C 98.7333,3351.64 98.7333,3350.4 98.7333,3349.15 C 98.18,3349.11 96.612,3348.48 95.5733,3349.12 C 94.7867,3349.6 94.828,3350.02 94.348,3350.26 C 93.18,3350.84 91.46,3349.36 90.2987,3350.42 C 89.84,3351.07 90.6453,3353.23 89.9573,3353.95 C 89.1387,3354.81 85.324,3353.59 84.7893,3354.47 C 84.7213,3354.65 84.772,3354.86 84.7667,3355.05 C 84.7347,3356.42 85.0307,3358.17 83.6067,3357.72 C 83.5893,3357.72 83.572,3357.71 83.5547,3357.71 C 83.5547,3374.19 83.352,3392.06 83.352,3409.17 C 126.407,3409.17 169.461,3409.17 212.515,3409.17 C 212.329,3394.31 212.201,3377.44 211.831,3364.01 Z "/>
		<path id="dp_path006" fill="#1997ff" fill-rule="evenodd" stroke="none" stroke-width="0" d="M 81.9107,3371.45 C 82.7427,3371.45 83.5773,3371.3 84.404,3371.19 C 85.0653,3371.09 85.136,3371.05 85.136,3370.69 C 85.136,3370 85.296,3369.33 85.4093,3368.67 C 85.96,3368.67 86.5107,3368.67 87.0613,3368.67 C 87.092,3369.32 87.1213,3369.97 87.1507,3370.62 C 87.1707,3370.68 87.192,3370.74 87.212,3370.8 C 87.5987,3370.8 87.9867,3370.8 88.3733,3370.8 L 88.668,3370.7 C 88.9773,3370.59 89.0587,3370.86 89.1653,3371.14 C 89.2613,3371.51 89.356,3371.88 89.4507,3372.25 C 90.6173,3372.07 91.7853,3371.9 92.9533,3371.72 L 93.104,3370.13 C 93.2427,3368.69 93.284,3368.54 93.5693,3368.44 C 94.1867,3368.24 94.828,3368.15 95.4587,3368.02 C 96.4,3367.82 97.0227,3367.62 97.004,3367.52 C 96.9867,3367.42 97.0693,3366.9 97.188,3366.37 L 97.404,3365.4 L 98.1093,3365.62 C 98.7573,3365.82 98.832,3365.82 99.0213,3365.54 L 99.228,3365.25 C 99.2373,3365.12 99.2467,3365 99.256,3364.88 C 99.4707,3364.62 99.6853,3364.36 99.9,3364.1 L 100.035,3363.85 C 100.139,3363.66 100.18,3363.47 100.196,3363.25 C 100.411,3362.98 100.625,3362.72 100.84,3362.46 C 100.88,3362.21 100.896,3362.11 101.068,3361.95 C 101.321,3361.7 101.543,3362.31 101.66,3362.53 C 101.825,3362.83 102.005,3363.12 102.184,3363.41 C 102.551,3364.23 103.069,3364.96 103.528,3365.7 C 103.761,3366.04 104.268,3365.88 104.616,3365.88 L 104.616,3368.35 C 104.616,3370.17 104.56,3371.96 104.471,3373.78 C 104.509,3374.04 104.589,3374.19 104.827,3374.27 C 105.059,3374.34 105.157,3374.54 105.272,3375.2 L 105.417,3376.04 C 106.247,3376.04 107.077,3376.04 107.907,3376.04 L 107.956,3376.81 C 107.984,3377.24 108.044,3377.68 108.091,3377.79 C 108.139,3377.91 108.403,3378 108.68,3378 L 109.184,3378 C 109.184,3378.82 109.184,3379.64 109.184,3380.46 C 109.111,3380.86 109.276,3380.91 109.621,3380.93 C 109.911,3380.94 110.199,3380.95 110.488,3380.95 C 110.823,3380.95 110.848,3380.88 111.104,3379.31 C 111.369,3377.69 111.373,3377.67 111.763,3377.67 C 112.335,3377.67 112.9,3377.77 113.469,3377.84 C 113.775,3377.98 113.699,3378.78 113.711,3379.1 L 113.752,3380.28 C 113.819,3380.47 113.888,3380.62 114.087,3380.62 C 114.62,3380.62 115.156,3380.47 115.681,3380.37 C 116.617,3380.19 117.089,3380.03 117.152,3379.87 C 117.299,3379.48 117.353,3379.06 117.433,3378.65 C 117.591,3377.83 117.667,3377.67 117.911,3377.67 C 118.188,3377.67 118.453,3377.72 118.729,3377.77 C 119.089,3377.83 119.26,3377.92 119.26,3378.35 C 119.36,3379 119.46,3379.65 119.559,3380.3 L 120.523,3380.47 C 121.257,3380.59 121.493,3380.59 121.516,3380.44 C 121.556,3380.16 121.544,3379.88 121.544,3379.6 C 121.544,3378.81 121.545,3377.89 121.719,3377.11 C 121.731,3377.06 122.515,3377.02 123.463,3377.02 L 125.185,3377.02 L 125.824,3376.93 C 126.176,3376.87 126.475,3376.75 126.489,3376.65 C 126.58,3376.02 126.515,3375.33 126.515,3374.69 C 126.515,3373.11 126.577,3371.54 126.649,3369.96 C 126.649,3368.54 126.719,3367.12 126.784,3365.7 C 126.784,3364.34 126.852,3363 126.919,3361.64 C 127,3361.13 127.671,3361.3 128.007,3361.3 C 128.813,3361.24 129.619,3361.19 130.425,3361.13 C 131.012,3361.13 131.599,3361.13 132.185,3361.13 C 132.351,3360.54 132.516,3359.94 132.681,3359.35 C 132.727,3359.07 132.784,3358.84 133.072,3358.84 C 133.657,3358.84 134.243,3358.95 134.825,3359.03 C 135.095,3359.12 135.048,3359.75 135.063,3360.02 L 135.113,3360.95 C 135.183,3361.16 135.225,3361.13 135.42,3361.13 C 135.947,3361.13 136.479,3361.35 136.992,3361.49 C 137.091,3362.19 137.191,3362.89 137.289,3363.59 L 138.157,3363.59 C 138.633,3363.59 139.117,3363.53 139.233,3363.46 C 139.359,3363.38 139.491,3362.96 139.561,3362.4 L 139.681,3361.48 C 139.731,3361.19 139.78,3360.91 139.829,3360.63 L 140.084,3360.15 C 140.296,3359.76 140.452,3359.34 140.597,3358.9 L 140.744,3359.36 C 140.9,3359.85 141.089,3360.32 141.28,3360.79 C 141.397,3361.2 141.627,3361.28 141.993,3361.32 C 142.595,3361.38 142.781,3361.75 143.1,3362.27 C 143.2,3362.43 143.296,3362.59 143.376,3362.77 C 143.532,3363.12 143.765,3363.43 143.967,3363.74 C 144.373,3364.42 144.249,3365.49 144.249,3366.29 L 144.249,3368.37 C 144.593,3368.22 144.652,3367.99 144.652,3367.52 C 144.652,3366.31 144.732,3365.11 144.787,3363.9 C 144.787,3362.31 144.848,3360.74 144.921,3359.15 C 144.921,3357.62 144.985,3356.1 145.055,3354.57 C 145.055,3353.42 145.109,3352.31 145.209,3351.17 L 145.229,3351.07 C 145.241,3351.02 145.905,3350.98 146.705,3350.98 C 148.237,3350.98 149.735,3351.33 151.235,3351.66 C 151.235,3352.47 151.235,3353.28 151.235,3354.09 L 151.191,3354.34 C 151.156,3354.53 151.28,3354.58 151.728,3354.58 C 152.305,3354.58 152.311,3354.59 152.311,3355.16 C 152.311,3356.34 152.229,3357.52 152.176,3358.69 C 152.176,3359.84 152.161,3360.98 152.108,3362.13 C 152.056,3363.28 152.041,3364.42 152.041,3365.57 L 151.959,3365.95 L 151.876,3366.32 C 152.312,3366.17 152.757,3366.07 153.201,3365.97 C 154.131,3365.74 154.223,3365.68 154.32,3365.25 C 154.423,3364.8 154.688,3364.55 154.977,3364.29 C 155.013,3364.21 155.048,3364.12 155.083,3364.04 C 155.679,3364.15 156.26,3364.65 156.319,3365.41 C 156.352,3365.83 156.435,3366.05 156.563,3366.05 C 156.905,3366.05 157.416,3365.98 157.416,3365.45 C 157.416,3365.05 157.479,3364.67 157.548,3364.27 C 157.676,3363.52 157.703,3363.48 158.655,3362.91 L 159.629,3362.33 L 160.195,3360.92 C 160.505,3360.15 160.811,3359.45 160.872,3359.37 C 160.933,3359.3 161.544,3359.22 162.229,3359.2 L 163.475,3359.17 C 163.744,3359.17 164.012,3359.17 164.281,3359.17 L 164.641,3359.07 C 164.969,3358.98 165.032,3359.05 165.367,3359.88 C 165.817,3361 166.249,3362.13 166.685,3363.26 C 167.357,3363.26 168.029,3363.26 168.701,3363.26 L 168.701,3361.38 C 168.701,3359.59 168.715,3359.5 168.976,3359.5 C 169.636,3359.5 170.299,3359.38 170.955,3359.31 L 171.037,3359.29 C 171.083,3359.27 171.119,3357.87 171.119,3356.17 L 171.119,3353.09 C 171.268,3349.82 171.253,3346.56 171.253,3343.28 C 172.38,3343.28 173.501,3343.19 174.627,3343.12 C 175.748,3343.12 176.864,3343.03 177.985,3342.95 C 178.253,3342.95 178.523,3342.95 178.791,3342.95 C 179.7,3342.77 180.625,3342.92 181.539,3343.03 L 183.479,3343.27 C 183.479,3346.22 183.479,3349.17 183.479,3352.13 C 185.499,3352.13 187.519,3352.13 189.539,3352.13 C 192.171,3352.48 194.763,3353.34 197.347,3354.03 L 197.467,3354.1 C 197.532,3354.14 197.585,3355.67 197.585,3357.5 L 197.585,3360.82 C 197.492,3362.89 197.452,3364.93 197.452,3367 L 197.921,3366.85 C 198.36,3366.7 198.392,3366.65 198.392,3366.03 C 198.392,3364.77 198.305,3363.51 198.247,3362.24 L 198.28,3362.02 C 198.304,3361.85 198.555,3361.79 199.243,3361.79 L 200.172,3361.79 C 200.293,3362.5 200.415,3363.21 200.536,3363.92 C 200.896,3363.92 201.256,3363.92 201.616,3363.92 C 201.616,3362.91 201.616,3361.9 201.616,3360.89 C 201.979,3360.86 202.343,3360.83 202.705,3360.81 L 203.108,3360.71 C 203.697,3360.56 204.143,3361.34 204.527,3361.79 L 205.893,3361.79 C 207.181,3361.79 207.259,3361.81 207.259,3362.13 C 207.259,3362.98 207.352,3363.84 207.409,3364.7 C 207.48,3365.01 208.099,3364.9 208.304,3364.9 C 209.12,3364.9 209.916,3364.99 210.728,3365.09 C 210.932,3365.15 210.887,3365.25 210.887,3365.52 C 210.887,3366.29 210.977,3367.05 211.039,3367.82 C 211.101,3368.1 211.523,3367.87 211.692,3367.82 C 211.692,3369.19 211.692,3370.57 211.692,3371.94 L 211.76,3371.94 C 211.827,3371.94 211.827,3371.94 211.827,3371.94 L 211.827,3409.45 C 168.521,3409.45 125.216,3409.45 81.9107,3409.45 C 81.9107,3396.78 81.9107,3384.12 81.9107,3371.45 Z "/>
		<path id="dp_path007" fill="white" fill-rule="evenodd" stroke="none" stroke-width="0" d="M 211.735,3409.45 L 150.52,3409.45 L 150.52,3302.1 L 211.735,3302.1 Z M 84.8027,3302.1 L 84.8027,3409.45 L 146.016,3409.45 L 146.016,3302.1 Z M 80.032,3298.65 L 216.504,3298.65 L 216.504,3412.89 L 80.032,3412.89 Z "/>
		<path id="dp_path008" fill="white" fill-rule="evenodd" fill-opacity="0.25098" stroke="none" stroke-width="0" d="M 108.824,3300.78 L 106.401,3298.8 L 81.8893,3328.91 L 84.312,3330.88 Z "/>
		<path id="dp_path009" fill="white" fill-rule="evenodd" fill-opacity="0.25098" stroke="none" stroke-width="0" d="M 118.559,3302.21 L 113.557,3298.14 L 79.344,3340.17 L 84.3453,3344.24 Z "/>
		<path id="dp_path010" fill="white" fill-rule="evenodd" fill-opacity="0.25098" stroke="none" stroke-width="0" d="M 131.165,3300.2 L 126.164,3296.13 L 79.3413,3353.64 L 84.3427,3357.71 Z "/>
		<path id="dp_path011" fill="white" fill-rule="evenodd" fill-opacity="0.25098" stroke="none" stroke-width="0" d="M 174.555,3300.63 L 172.132,3298.65 L 147.62,3328.76 L 150.043,3330.73 Z "/>
		<path id="dp_path012" fill="white" fill-rule="evenodd" fill-opacity="0.25098" stroke="none" stroke-width="0" d="M 184.289,3302.06 L 179.288,3297.99 L 145.075,3340.02 L 150.076,3344.09 Z "/>
		<path id="dp_path013" fill="white" fill-rule="evenodd" fill-opacity="0.25098" stroke="none" stroke-width="0" d="M 196.896,3300.05 L 191.893,3295.98 L 145.072,3353.49 L 150.073,3357.56 Z "/>
		<path id="dp_path014" fill="#e9f38f" fill-rule="evenodd" stroke="none" stroke-width="0" d="M 73.1733,3292.8 L 223.363,3292.8 L 223.363,3302.1 L 73.1733,3302.1 Z "/>
		<path id="dp_path015" fill="#d6a900" fill-rule="evenodd" stroke="none" stroke-width="0" d="M 22.6213,3404.4 L 117.384,3404.4 L 117.384,3476.99 L 22.6213,3476.99 Z "/>
		<path id="dp_path016" fill="#d6a900" fill-rule="evenodd" stroke="none" stroke-width="0" d="M 22.6213,3391.89 L 132.401,3391.89 L 132.401,3401.18 L 22.6213,3401.18 Z "/>
		<path id="dp_path017" fill="#bc9300" fill-rule="evenodd" stroke="none" stroke-width="0" d="M 22.6213,3400.24 L 117.384,3400.24 L 117.384,3404.4 L 22.6213,3404.4 Z "/>
		<path id="dp_path018" fill="#bc9300" fill-rule="evenodd" stroke="none" stroke-width="0" d="M 22.6213,3476.99 L 117.384,3476.99 L 117.384,3481.15 L 22.6213,3481.15 Z "/>
		<path id="dp_path019" fill="#a37f00" fill-rule="evenodd" stroke="none" stroke-width="0" d="M 98.0733,3481.15 L 115.239,3481.15 L 115.239,3485.31 L 98.0733,3485.31 Z "/>
		<path id="dp_path020" fill="#a37f00" fill-rule="evenodd" stroke="none" stroke-width="0" d="M 24.408,3481.15 L 41.5733,3481.15 L 41.5733,3485.31 L 24.408,3485.31 Z "/>
		<path id="dp_path021" fill="#6aff55" fill-rule="evenodd" stroke="none" stroke-width="0" d="M 48.964,3352.99 C 57.7853,3352.99 64.9373,3358.53 64.9373,3365.35 C 64.9373,3372.18 57.7853,3364.99 48.964,3364.99 C 40.1427,3364.99 32.992,3372.18 32.992,3365.35 C 32.992,3358.53 40.1427,3352.99 48.964,3352.99 Z "/>
		<path id="dp_path022" fill="#d1d1d1" fill-rule="evenodd" stroke="none" stroke-width="0" d="M 40.9453,3370.91 L 35.0067,3370.91 L 35.0067,3389.14 L 40.9453,3389.14 Z "/>
		<path id="dp_path023" fill="#d1d1d1" fill-rule="evenodd" stroke="none" stroke-width="0" d="M 52.124,3386.01 L 35.0093,3386.01 L 35.0093,3392.19 L 52.124,3392.19 Z "/>
		<path id="dp_path024" fill="#d1d1d1" fill-rule="evenodd" stroke="none" stroke-width="0" d="M 51.068,3359.56 L 48.6453,3357.58 L 37.1373,3371.72 L 39.56,3373.69 Z "/>
		<path id="dp_path025" fill="#96f593" fill-rule="evenodd" stroke="none" stroke-width="0" d="M 339.191,3295.93 L 481.783,3295.93 L 481.783,3414.75 L 339.191,3414.75 Z "/>
		<path id="dp_path026" fill="#96cfff" fill-rule="evenodd" stroke="none" stroke-width="0" d="M 344.108,3302.1 L 476.197,3302.1 L 476.197,3411.3 L 344.108,3411.3 Z "/>
		<path id="dp_path027" fill="#0078db" fill-rule="evenodd" stroke="none" stroke-width="0" d="M 474.049,3364.01 C 473.905,3359.58 473.787,3356.64 473.629,3352.9 C 473.621,3352.72 474.075,3350.14 473.193,3349.72 C 471.388,3348.86 466.68,3350.11 465.543,3349.45 C 464.452,3348.82 465.808,3346.49 463.545,3346.64 C 463.213,3346.66 462.884,3346.7 462.555,3346.73 C 462.352,3346.76 461.696,3346.49 461.361,3347.01 C 460.628,3348.14 461.781,3348.56 461.037,3349.39 C 460.248,3349.99 458.98,3349.44 458.301,3349.9 C 458,3350.1 457.924,3352.08 457.853,3352.49 C 457.331,3352.49 456.745,3352.49 456.279,3352.48 C 453.832,3352.42 454.655,3350.24 454.027,3348.82 C 453.576,3347.8 452.995,3346.99 452.871,3346.69 C 452.729,3347.05 452.388,3349.03 451.447,3349.53 C 450.764,3349.89 450.368,3349.48 449.687,3350.13 C 447.171,3352.53 447.369,3354.74 447.369,3357.57 C 447.369,3358.25 446.761,3357.88 446.761,3357.21 C 446.761,3355.99 446.673,3354.78 446.601,3353.57 C 446.377,3349.79 446.297,3345.51 446.156,3341.33 C 446.108,3339.94 446.217,3338.4 445.892,3337.01 C 445.852,3336.84 445.545,3336.95 445.371,3336.94 C 444.895,3336.91 444.181,3336.9 443.671,3336.9 C 441.788,3336.91 440.264,3337.11 436.845,3337.74 C 436.845,3338.75 437.133,3340.23 436.915,3341.16 C 436.844,3341.35 436.537,3341.34 436.335,3341.35 C 436.248,3341.35 435.675,3340.91 435.288,3341.51 C 434.893,3342.39 435.519,3354.53 435.881,3355.86 C 434.897,3355.59 433.5,3355.91 432.428,3354.98 C 431.353,3354.04 431.789,3353.48 431.049,3353.04 C 430.955,3352.98 430.568,3353.16 430.472,3353.2 C 429.139,3353.73 429.54,3356.1 427.937,3355.38 C 427.071,3354.99 427.356,3353.04 427.129,3352.62 C 426.277,3351.05 425.137,3351.8 424.201,3350.93 C 423.177,3349.98 423.024,3348.07 422.329,3347.28 C 422.015,3346.92 421.217,3347.11 421.197,3347.1 C 420.451,3347.06 417.865,3346.59 416.311,3346.87 C 415.193,3347.08 414.464,3351.59 413.572,3352.08 C 412.977,3352.41 411.235,3352.08 410.536,3352.08 C 410.536,3350.53 410.872,3349.02 410.44,3347.62 C 410.148,3346.97 408.619,3347.35 408.132,3347.3 C 408.007,3347.28 407.04,3347.29 406.997,3347.12 C 406.753,3345.3 406.995,3342.39 406.893,3339.51 C 406.752,3335.48 406.669,3331.77 406.691,3327.39 C 401.353,3327.37 395.331,3326.63 388.275,3327.36 C 388.275,3331.02 388.275,3334.67 388.275,3338.32 C 385.249,3338.32 382.163,3338.13 379.145,3338.32 C 376.295,3338.49 373.428,3339.28 370.672,3339.92 C 369.619,3340.16 367.983,3340.33 367.199,3340.76 C 367.04,3340.85 367.132,3341.12 367.117,3341.3 C 367.071,3341.88 367.051,3342.61 367.036,3343.48 C 366.987,3346.35 367.108,3350.06 367.184,3353.12 C 367.213,3354.32 367.22,3355.51 367.227,3356.7 C 366.989,3356.64 366.753,3356.57 366.517,3356.51 C 364.488,3355.92 366.837,3350.78 365.807,3350.37 C 362.013,3348.88 363.133,3352.56 362.579,3352.89 C 362.279,3353.07 361.312,3352.89 360.952,3352.89 C 360.952,3351.64 360.952,3350.4 360.952,3349.15 C 360.399,3349.11 358.831,3348.48 357.792,3349.12 C 357.005,3349.6 357.047,3350.02 356.567,3350.26 C 355.399,3350.84 353.679,3349.36 352.517,3350.42 C 352.059,3351.07 352.864,3353.23 352.176,3353.95 C 351.357,3354.81 347.543,3353.59 347.008,3354.47 C 346.94,3354.65 346.991,3354.86 346.985,3355.05 C 346.953,3356.42 347.249,3358.17 345.825,3357.72 C 345.808,3357.72 345.791,3357.71 345.773,3357.71 C 345.773,3374.19 345.571,3392.06 345.571,3409.17 C 388.625,3409.17 431.68,3409.17 474.733,3409.17 C 474.548,3394.31 474.42,3377.44 474.049,3364.01 Z "/>
		<path id="dp_path028" fill="#1997ff" fill-rule="evenodd" stroke="none" stroke-width="0" d="M 344.129,3371.45 C 344.961,3371.45 345.796,3371.3 346.623,3371.19 C 347.284,3371.09 347.355,3371.05 347.355,3370.69 C 347.355,3370 347.515,3369.33 347.628,3368.67 C 348.179,3368.67 348.729,3368.67 349.28,3368.67 C 349.311,3369.32 349.34,3369.97 349.369,3370.62 C 349.389,3370.68 349.411,3370.74 349.431,3370.8 C 349.817,3370.8 350.205,3370.8 350.592,3370.8 L 350.887,3370.7 C 351.196,3370.59 351.277,3370.86 351.384,3371.14 C 351.48,3371.51 351.575,3371.88 351.669,3372.25 C 352.836,3372.07 354.004,3371.9 355.172,3371.72 L 355.323,3370.13 C 355.461,3368.69 355.503,3368.54 355.788,3368.44 C 356.405,3368.24 357.047,3368.15 357.677,3368.02 C 358.619,3367.82 359.241,3367.62 359.223,3367.52 C 359.205,3367.42 359.288,3366.9 359.407,3366.37 L 359.623,3365.4 L 360.328,3365.62 C 360.976,3365.82 361.051,3365.82 361.24,3365.54 L 361.447,3365.25 C 361.456,3365.12 361.465,3365 361.475,3364.88 C 361.689,3364.62 361.904,3364.36 362.119,3364.1 L 362.253,3363.85 C 362.357,3363.66 362.399,3363.47 362.415,3363.25 C 362.629,3362.98 362.844,3362.72 363.059,3362.46 C 363.099,3362.21 363.115,3362.11 363.287,3361.95 C 363.54,3361.7 363.761,3362.31 363.879,3362.53 C 364.044,3362.83 364.224,3363.12 364.403,3363.41 C 364.769,3364.23 365.288,3364.96 365.747,3365.7 C 365.98,3366.04 366.487,3365.88 366.835,3365.88 L 366.835,3368.35 C 366.835,3370.17 366.779,3371.96 366.689,3373.78 C 366.728,3374.04 366.808,3374.19 367.045,3374.27 C 367.277,3374.34 367.376,3374.54 367.491,3375.2 L 367.636,3376.04 C 368.465,3376.04 369.296,3376.04 370.125,3376.04 L 370.175,3376.81 C 370.203,3377.24 370.263,3377.68 370.309,3377.79 C 370.357,3377.91 370.621,3378 370.899,3378 L 371.403,3378 C 371.403,3378.82 371.403,3379.64 371.403,3380.46 C 371.329,3380.86 371.495,3380.91 371.84,3380.93 C 372.129,3380.94 372.417,3380.95 372.707,3380.95 C 373.041,3380.95 373.067,3380.88 373.323,3379.31 C 373.588,3377.69 373.592,3377.67 373.981,3377.67 C 374.553,3377.67 375.119,3377.77 375.688,3377.84 C 375.993,3377.98 375.917,3378.78 375.929,3379.1 L 375.971,3380.28 C 376.037,3380.47 376.107,3380.62 376.305,3380.62 C 376.839,3380.62 377.375,3380.47 377.9,3380.37 C 378.836,3380.19 379.308,3380.03 379.371,3379.87 C 379.517,3379.48 379.572,3379.06 379.652,3378.65 C 379.809,3377.83 379.885,3377.67 380.129,3377.67 C 380.407,3377.67 380.672,3377.72 380.948,3377.77 C 381.308,3377.83 381.479,3377.92 381.479,3378.35 C 381.579,3379 381.679,3379.65 381.777,3380.3 L 382.741,3380.47 C 383.476,3380.59 383.712,3380.59 383.735,3380.44 C 383.775,3380.16 383.763,3379.88 383.763,3379.6 C 383.763,3378.81 383.764,3377.89 383.937,3377.11 C 383.949,3377.06 384.733,3377.02 385.681,3377.02 L 387.404,3377.02 L 388.043,3376.93 C 388.395,3376.87 388.693,3376.75 388.708,3376.65 C 388.799,3376.02 388.733,3375.33 388.733,3374.69 C 388.733,3373.11 388.796,3371.54 388.868,3369.96 C 388.868,3368.54 388.937,3367.12 389.003,3365.7 C 389.003,3364.34 389.071,3363 389.137,3361.64 C 389.219,3361.13 389.889,3361.3 390.225,3361.3 C 391.032,3361.24 391.837,3361.19 392.644,3361.13 C 393.231,3361.13 393.817,3361.13 394.404,3361.13 C 394.569,3360.54 394.735,3359.94 394.9,3359.35 C 394.945,3359.07 395.003,3358.84 395.291,3358.84 C 395.876,3358.84 396.461,3358.95 397.044,3359.03 C 397.313,3359.12 397.267,3359.75 397.281,3360.02 L 397.332,3360.95 C 397.401,3361.16 397.444,3361.13 397.639,3361.13 C 398.165,3361.13 398.697,3361.35 399.211,3361.49 C 399.309,3362.19 399.409,3362.89 399.508,3363.59 L 400.376,3363.59 C 400.852,3363.59 401.336,3363.53 401.452,3363.46 C 401.577,3363.38 401.709,3362.96 401.78,3362.4 L 401.9,3361.48 C 401.949,3361.19 401.999,3360.91 402.048,3360.63 L 402.303,3360.15 C 402.515,3359.76 402.671,3359.34 402.816,3358.9 L 402.963,3359.36 C 403.119,3359.85 403.308,3360.32 403.499,3360.79 C 403.616,3361.2 403.845,3361.28 404.212,3361.32 C 404.813,3361.38 405,3361.75 405.319,3362.27 C 405.419,3362.43 405.515,3362.59 405.595,3362.77 C 405.751,3363.12 405.984,3363.43 406.185,3363.74 C 406.592,3364.42 406.468,3365.49 406.468,3366.29 L 406.468,3368.37 C 406.812,3368.22 406.871,3367.99 406.871,3367.52 C 406.871,3366.31 406.951,3365.11 407.005,3363.9 C 407.005,3362.31 407.067,3360.74 407.14,3359.15 C 407.14,3357.62 407.204,3356.1 407.273,3354.57 C 407.273,3353.42 407.328,3352.31 407.428,3351.17 L 407.448,3351.07 C 407.46,3351.02 408.124,3350.98 408.924,3350.98 C 410.456,3350.98 411.953,3351.33 413.453,3351.66 C 413.453,3352.47 413.453,3353.28 413.453,3354.09 L 413.409,3354.34 C 413.375,3354.53 413.499,3354.58 413.947,3354.58 C 414.524,3354.58 414.529,3354.59 414.529,3355.16 C 414.529,3356.34 414.448,3357.52 414.395,3358.69 C 414.395,3359.84 414.38,3360.98 414.327,3362.13 C 414.275,3363.28 414.26,3364.42 414.26,3365.57 L 414.177,3365.95 L 414.095,3366.32 C 414.531,3366.17 414.976,3366.07 415.42,3365.97 C 416.349,3365.74 416.441,3365.68 416.539,3365.25 C 416.641,3364.8 416.907,3364.55 417.196,3364.29 C 417.232,3364.21 417.267,3364.12 417.301,3364.04 C 417.897,3364.15 418.479,3364.65 418.537,3365.41 C 418.571,3365.83 418.653,3366.05 418.781,3366.05 C 419.124,3366.05 419.635,3365.98 419.635,3365.45 C 419.635,3365.05 419.697,3364.67 419.767,3364.27 C 419.895,3363.52 419.921,3363.48 420.873,3362.91 L 421.848,3362.33 L 422.413,3360.92 C 422.724,3360.15 423.029,3359.45 423.091,3359.37 C 423.152,3359.3 423.763,3359.22 424.448,3359.2 L 425.693,3359.17 C 425.963,3359.17 426.231,3359.17 426.5,3359.17 L 426.86,3359.07 C 427.188,3358.98 427.251,3359.05 427.585,3359.88 C 428.036,3361 428.468,3362.13 428.904,3363.26 C 429.576,3363.26 430.248,3363.26 430.92,3363.26 L 430.92,3361.38 C 430.92,3359.59 430.933,3359.5 431.195,3359.5 C 431.855,3359.5 432.517,3359.38 433.173,3359.31 L 433.256,3359.29 C 433.301,3359.27 433.337,3357.87 433.337,3356.17 L 433.337,3353.09 C 433.487,3349.82 433.472,3346.56 433.472,3343.28 C 434.599,3343.28 435.72,3343.19 436.845,3343.12 C 437.967,3343.12 439.083,3343.03 440.204,3342.95 C 440.472,3342.95 440.741,3342.95 441.009,3342.95 C 441.919,3342.77 442.844,3342.92 443.757,3343.03 L 445.697,3343.27 C 445.697,3346.22 445.697,3349.17 445.697,3352.13 C 447.717,3352.13 449.737,3352.13 451.757,3352.13 C 454.389,3352.48 456.981,3353.34 459.565,3354.03 L 459.685,3354.1 C 459.751,3354.14 459.804,3355.67 459.804,3357.5 L 459.804,3360.82 C 459.711,3362.89 459.671,3364.93 459.671,3367 L 460.14,3366.85 C 460.579,3366.7 460.611,3366.65 460.611,3366.03 C 460.611,3364.77 460.524,3363.51 460.465,3362.24 L 460.499,3362.02 C 460.523,3361.85 460.773,3361.79 461.461,3361.79 L 462.391,3361.79 C 462.512,3362.5 462.633,3363.21 462.755,3363.92 C 463.115,3363.92 463.475,3363.92 463.835,3363.92 C 463.835,3362.91 463.835,3361.9 463.835,3360.89 C 464.197,3360.86 464.561,3360.83 464.924,3360.81 L 465.327,3360.71 C 465.916,3360.56 466.361,3361.34 466.745,3361.79 L 468.112,3361.79 C 469.4,3361.79 469.477,3361.81 469.477,3362.13 C 469.477,3362.98 469.571,3363.84 469.628,3364.7 C 469.699,3365.01 470.317,3364.9 470.523,3364.9 C 471.339,3364.9 472.135,3364.99 472.947,3365.09 C 473.151,3365.15 473.105,3365.25 473.105,3365.52 C 473.105,3366.29 473.196,3367.05 473.257,3367.82 C 473.32,3368.1 473.741,3367.87 473.911,3367.82 C 473.911,3369.19 473.911,3370.57 473.911,3371.94 L 473.979,3371.94 C 474.045,3371.94 474.045,3371.94 474.045,3371.94 L 474.045,3409.45 C 430.74,3409.45 387.435,3409.45 344.129,3409.45 C 344.129,3396.78 344.129,3384.12 344.129,3371.45 Z "/>
		<path id="dp_path029" fill="white" fill-rule="evenodd" stroke="none" stroke-width="0" d="M 473.953,3409.45 L 412.739,3409.45 L 412.739,3302.1 L 473.953,3302.1 Z M 347.021,3302.1 L 347.021,3409.45 L 408.235,3409.45 L 408.235,3302.1 Z M 342.251,3298.65 L 478.723,3298.65 L 478.723,3412.89 L 342.251,3412.89 Z "/>
		<path id="dp_path030" fill="white" fill-rule="evenodd" fill-opacity="0.25098" stroke="none" stroke-width="0" d="M 371.043,3300.78 L 368.62,3298.8 L 344.108,3328.91 L 346.531,3330.88 Z "/>
		<path id="dp_path031" fill="white" fill-rule="evenodd" fill-opacity="0.25098" stroke="none" stroke-width="0" d="M 380.777,3302.21 L 375.776,3298.14 L 341.563,3340.17 L 346.564,3344.24 Z "/>
		<path id="dp_path032" fill="white" fill-rule="evenodd" fill-opacity="0.25098" stroke="none" stroke-width="0" d="M 393.384,3300.2 L 388.383,3296.13 L 341.56,3353.64 L 346.561,3357.71 Z "/>
		<path id="dp_path033" fill="white" fill-rule="evenodd" fill-opacity="0.25098" stroke="none" stroke-width="0" d="M 436.773,3300.63 L 434.351,3298.65 L 409.839,3328.76 L 412.261,3330.73 Z "/>
		<path id="dp_path034" fill="white" fill-rule="evenodd" fill-opacity="0.25098" stroke="none" stroke-width="0" d="M 446.508,3302.06 L 441.507,3297.99 L 407.293,3340.02 L 412.295,3344.09 Z "/>
		<path id="dp_path035" fill="white" fill-rule="evenodd" fill-opacity="0.25098" stroke="none" stroke-width="0" d="M 459.115,3300.05 L 454.112,3295.98 L 407.291,3353.49 L 412.292,3357.56 Z "/>
		<path id="dp_path036" fill="#e9f38f" fill-rule="evenodd" stroke="none" stroke-width="0" d="M 335.392,3292.8 L 485.581,3292.8 L 485.581,3302.1 L 335.392,3302.1 Z "/>
		<path id="dp_path037" fill="#a37f00" fill-rule="evenodd" stroke="none" stroke-width="0" d="M 104.759,3481.32 C 95.9613,3481.32 88.828,3479.55 88.828,3477.36 L 85.3427,3458.59 L 85.3573,3458.59 C 85.348,3458.54 85.3427,3458.49 85.3427,3458.44 C 85.3427,3456.26 94.036,3454.49 104.759,3454.49 C 115.483,3454.49 124.175,3456.26 124.175,3458.44 C 124.175,3458.54 124.156,3458.65 124.12,3458.75 L 120.691,3477.36 C 120.691,3479.55 113.557,3481.32 104.759,3481.32 Z "/>
		<path id="dp_path038" fill="#b78f00" fill-rule="evenodd" stroke="none" stroke-width="0" d="M 106.352,3481.3 L 106.352,3454.5 C 116.331,3454.67 124.175,3456.37 124.175,3458.44 C 124.175,3458.54 124.156,3458.65 124.12,3458.75 L 120.691,3477.36 C 120.691,3479.41 114.403,3481.1 106.352,3481.3 Z "/>
		<path id="dp_path039" fill="black" fill-rule="evenodd" stroke="none" stroke-width="0" d="M 104.76,3455.69 C 114.164,3455.69 121.787,3456.92 121.787,3458.44 C 121.787,3459.97 114.164,3461.2 104.76,3461.2 C 95.356,3461.2 87.7333,3459.97 87.7333,3458.44 C 87.7333,3456.92 95.356,3455.69 104.76,3455.69 Z "/>
		<path id="dp_path040" fill="#002d12" fill-rule="evenodd" stroke="none" stroke-width="0" d="M 105.707,3399.05 C 104.96,3397.03 103.536,3398.51 104.089,3400.16 C 104.268,3400.7 104.323,3402.16 104.215,3403.44 C 104.061,3405.22 104.132,3405.96 104.524,3406.67 C 104.977,3407.5 104.981,3407.77 104.56,3409.19 C 104.46,3409.52 104.355,3410.05 104.261,3410.65 C 102.827,3409.61 100.359,3408.67 99.4053,3408.37 C 98.9387,3408.23 98.9387,3408.23 98.3947,3407.91 C 96.6267,3406.86 94.0067,3408.67 96.8093,3409.44 C 99.0653,3410.06 101.428,3410.93 103.337,3412.29 C 103.509,3412.42 103.755,3412.55 104.016,3412.65 C 103.977,3413.05 103.948,3413.45 103.928,3413.82 C 103.84,3415.5 103.629,3417.53 103.461,3418.32 C 103.184,3419.63 102.653,3420.83 102.075,3422.02 C 101.808,3421.88 101.413,3421.76 100.827,3421.63 C 99.1587,3421.24 99.1587,3421.24 95.8293,3421 C 92.5693,3420.77 92.4947,3420.78 92.288,3421.48 C 92.084,3422.17 92.1733,3422.2 95.1693,3422.44 C 97.3,3422.61 99.3507,3422.93 101.435,3423.32 C 101.353,3423.48 101.272,3423.65 101.192,3423.82 C 100.048,3426.21 99.724,3427.9 99.696,3430.11 C 99.66,3430.16 99.6267,3430.21 99.596,3430.26 C 98.644,3429.64 96.7413,3429.57 96.4827,3430.44 C 96.2573,3431.2 98.5133,3432.05 99.5867,3431.73 C 99.628,3431.73 99.6707,3431.74 99.7173,3431.73 C 99.724,3431.97 99.732,3432.21 99.7427,3432.46 C 99.8133,3434.23 99.9107,3435.42 100.068,3436.28 C 99.2813,3436.09 97.864,3435.98 95.6667,3435.94 C 91.5333,3435.87 91.5333,3435.87 90.108,3436.05 C 89.2453,3436.17 86.7667,3437.48 88.8227,3437.69 C 89.892,3437.8 89.892,3437.8 93.6093,3437.63 C 95.9027,3437.52 98.1413,3437.61 99.448,3437.85 C 99.848,3437.92 100.261,3437.94 100.615,3437.9 C 101.056,3438.78 101.072,3438.79 101.259,3438.84 C 102.08,3439.06 102.648,3442.43 102.892,3443.45 C 101.047,3443.06 97.4987,3442.68 97.116,3443.98 C 96.9027,3444.71 96.968,3444.71 100.512,3444.95 C 101.871,3445.04 102.719,3445.09 103.269,3445.14 C 103.745,3447.68 104.041,3451.23 103.117,3453.07 C 102.297,3454.71 103.88,3459.44 106.091,3458.9 C 107.459,3458.56 105.648,3456.6 105.187,3456.02 C 104.381,3455.01 104.347,3454.83 104.688,3453.61 C 105.355,3451.22 105.42,3448.13 104.992,3445.16 C 105.967,3445.19 107.445,3445.19 109.676,3445.19 C 116.292,3445.19 116.292,3445.19 119.423,3444.97 C 122.485,3444.75 122.549,3444.73 122.371,3444 C 121.977,3442.4 117.065,3443.36 115.856,3443.58 C 114.892,3443.76 111.688,3443.9 108.739,3443.9 C 106.824,3443.9 105.589,3443.91 104.788,3443.95 C 104.424,3442.05 103.859,3440.26 103.124,3438.79 C 101.932,3436.41 101.513,3434.68 101.513,3431.93 C 101.513,3431.61 101.513,3431.31 101.513,3431.04 C 103.857,3429.53 106.625,3428.48 109.332,3427.86 C 111.559,3427.35 112.031,3427.13 112.031,3426.63 C 112.031,3425.49 109.347,3425.94 108.612,3426.05 C 107.037,3426.29 103.729,3427.23 101.505,3428.58 C 101.496,3428.05 101.477,3427.97 101.44,3427.81 C 101.113,3426.44 102.819,3423.92 103.284,3422.85 C 104.713,3419.57 105.497,3416.45 105.781,3412.88 C 105.787,3412.82 105.791,3412.76 105.797,3412.69 C 105.949,3412.72 106.092,3412.73 106.213,3412.73 C 107.921,3412.73 107.921,3412.73 110.208,3412.39 C 112.183,3412.09 112.484,3411.96 112.417,3411.42 C 112.349,3410.87 112.071,3410.8 109.985,3410.8 C 108.564,3410.8 107.287,3410.87 105.961,3411.15 C 106.097,3410.08 106.265,3409.14 106.404,3408.72 C 106.701,3407.84 106.701,3407.32 106.404,3406.44 C 105.872,3404.86 106.021,3403.14 106.021,3401.5 C 106.021,3400.62 105.88,3399.52 105.707,3399.05 Z "/>
		<path id="dp_path041" fill="#00d657" fill-rule="evenodd" stroke="none" stroke-width="0" d="M 124.657,3423.32 C 117.121,3429.92 116.333,3431.84 113.249,3432.81 C 106.065,3435.42 105.465,3421.19 112.843,3423.19 C 115.999,3423.89 116.945,3425.74 124.657,3423.32 Z "/>
		<path id="dp_path042" fill="#1eff78" fill-rule="evenodd" stroke="none" stroke-width="0" d="M 119.873,3426.24 C 117.135,3426.8 111.157,3432.23 108.836,3429.49 C 111.14,3429.25 117.568,3426.49 119.873,3426.24 Z "/>
		<path id="dp_path043" fill="#00d657" fill-rule="evenodd" stroke="none" stroke-width="0" d="M 124.595,3406.77 C 117.057,3413.37 116.271,3415.29 113.185,3416.26 C 106.003,3418.86 105.403,3404.64 112.78,3406.64 C 115.935,3407.34 116.881,3409.19 124.595,3406.77 Z "/>
		<path id="dp_path044" fill="#1eff78" fill-rule="evenodd" stroke="none" stroke-width="0" d="M 119.809,3409.69 C 117.072,3410.25 111.095,3415.68 108.772,3412.94 C 111.077,3412.7 117.504,3409.94 119.809,3409.69 Z "/>
		<path id="dp_path045" fill="#00d657" fill-rule="evenodd" stroke="none" stroke-width="0" d="M 116.307,3389.02 C 112.228,3398.16 112.316,3400.23 109.92,3402.4 C 104.487,3407.77 97.9827,3395.1 105.52,3393.83 C 108.681,3393.15 110.315,3394.43 116.307,3389.02 Z "/>
		<path id="dp_path046" fill="#1eff78" fill-rule="evenodd" stroke="none" stroke-width="0" d="M 113.185,3393.67 C 110.933,3395.32 107.777,3402.75 104.521,3401.23 C 106.512,3400.04 111.195,3394.86 113.185,3393.67 Z "/>
		<path id="dp_path047" fill="#00d657" fill-rule="evenodd" stroke="none" stroke-width="0" d="M 78.22,3417.69 C 85.7573,3424.29 86.5453,3426.21 89.6293,3427.18 C 96.8133,3429.79 97.412,3415.56 90.0347,3417.56 C 86.88,3418.27 85.9333,3420.11 78.22,3417.69 Z "/>
		<path id="dp_path048" fill="#1eff78" fill-rule="evenodd" stroke="none" stroke-width="0" d="M 83.0053,3420.61 C 85.7427,3421.18 91.72,3426.6 94.0427,3423.87 C 91.7373,3423.62 85.3107,3420.86 83.0053,3420.61 Z "/>
		<path id="dp_path049" fill="#00d657" fill-rule="evenodd" stroke="none" stroke-width="0" d="M 81.9267,3404.23 C 89.464,3410.84 90.252,3412.75 93.336,3413.72 C 100.52,3416.33 101.119,3402.11 93.7413,3404.1 C 90.5867,3404.81 89.64,3406.65 81.9267,3404.23 Z "/>
		<path id="dp_path050" fill="#1eff78" fill-rule="evenodd" stroke="none" stroke-width="0" d="M 86.712,3407.15 C 89.4507,3407.72 95.428,3413.14 97.7493,3410.41 C 95.444,3410.16 89.0173,3407.4 86.712,3407.15 Z "/>
		<path id="dp_path051" fill="#00d657" fill-rule="evenodd" stroke="none" stroke-width="0" d="M 84.844,3427.5 C 92.3813,3434.1 93.1693,3436.02 96.2533,3436.99 C 103.437,3439.59 104.036,3425.37 96.6587,3427.37 C 93.504,3428.07 92.5573,3429.92 84.844,3427.5 Z "/>
		<path id="dp_path052" fill="#1eff78" fill-rule="evenodd" stroke="none" stroke-width="0" d="M 89.6293,3430.42 C 92.368,3430.98 98.3453,3436.41 100.667,3433.67 C 98.3613,3433.42 91.9347,3430.67 89.6293,3430.42 Z "/>
		<path id="dp_path053" fill="#00d657" fill-rule="evenodd" stroke="none" stroke-width="0" d="M 74.5413,3435.63 C 82.0787,3442.23 82.8653,3444.15 85.9507,3445.12 C 93.1333,3447.73 93.7333,3433.51 86.356,3435.5 C 83.2013,3436.21 82.2547,3438.05 74.5413,3435.63 Z "/>
		<path id="dp_path054" fill="#1eff78" fill-rule="evenodd" stroke="none" stroke-width="0" d="M 79.3267,3438.55 C 82.064,3439.12 88.0413,3444.54 90.364,3441.81 C 88.0587,3441.56 81.632,3438.8 79.3267,3438.55 Z "/>
		<path id="dp_path055" fill="#00d657" fill-rule="evenodd" stroke="none" stroke-width="0" d="M 88.8533,3440.5 C 96.3893,3447.11 97.1773,3449.03 100.261,3449.99 C 107.445,3452.6 108.045,3438.38 100.668,3440.37 C 97.512,3441.08 96.5653,3442.92 88.8533,3440.5 Z "/>
		<path id="dp_path056" fill="#1eff78" fill-rule="evenodd" stroke="none" stroke-width="0" d="M 93.6373,3443.43 C 96.376,3443.99 102.353,3449.41 104.675,3446.68 C 102.371,3446.43 95.9427,3443.67 93.6373,3443.43 Z "/>
		<path id="dp_path057" fill="#00d657" fill-rule="evenodd" stroke="none" stroke-width="0" d="M 129.919,3440.5 C 122.383,3447.11 121.595,3449.03 118.509,3449.99 C 111.327,3452.6 110.727,3438.38 118.104,3440.37 C 121.26,3441.08 122.207,3442.92 129.919,3440.5 Z "/>
		<path id="dp_path058" fill="#1eff78" fill-rule="evenodd" stroke="none" stroke-width="0" d="M 125.133,3443.43 C 122.396,3443.99 116.419,3449.41 114.096,3446.68 C 116.401,3446.43 122.829,3443.67 125.133,3443.43 Z "/>
		<path id="dp_path059" fill="black" fill-rule="evenodd" fill-opacity="0.227451" stroke="none" stroke-width="0" d="M 285.205,3472.99 C 325.525,3472.99 358.212,3476.66 358.212,3481.19 C 358.212,3485.72 325.525,3489.39 285.205,3489.39 C 244.885,3489.39 212.199,3485.72 212.199,3481.19 C 212.199,3476.66 244.885,3472.99 285.205,3472.99 Z "/>
		<path id="dp_path060" fill="#f8a269" fill-rule="evenodd" stroke="none" stroke-width="0" d="M 291.111,3423.71 C 278.94,3423.28 269.181,3418.81 269.025,3413.66 L 269.016,3413.66 L 268.553,3326.53 C 268.539,3326.24 268.539,3325.95 268.548,3325.66 C 268.875,3316.54 280.795,3309.56 295.172,3310.07 C 309.052,3310.57 320.149,3317.86 320.608,3326.56 L 320.649,3326.57 L 320.621,3326.94 C 320.624,3327.13 320.623,3327.32 320.616,3327.51 C 320.599,3327.99 320.549,3328.47 320.468,3328.94 L 313.879,3414.9 L 313.879,3414.9 C 313.877,3414.93 313.877,3414.95 313.876,3414.98 C 313.688,3420.24 303.496,3424.15 291.111,3423.71 Z "/>
		<path id="dp_path061" fill="url(#grad_dp_001)" fill-rule="evenodd" stroke="none" stroke-width="0" d="M 291.111,3423.71 C 278.94,3423.28 269.165,3419.25 268.989,3414.66 L 268.98,3414.66 L 268.401,3358.3 L 293.024,3370.16 L 318.4,3360.07 L 313.841,3415.94 L 313.841,3415.94 C 313.84,3415.96 313.84,3415.98 313.84,3416.01 C 313.672,3420.7 303.496,3424.15 291.111,3423.71 Z "/>
		<path id="dp_path062" fill="#1000a1" fill-rule="evenodd" stroke="none" stroke-width="0" d="M 288.776,3371.59 L 296.6,3371.87 L 302.573,3390.13 L 291.872,3402.42 L 283.388,3389.45 Z "/>
		<path id="dp_path063" fill="#1000a1" fill-rule="evenodd" stroke="none" stroke-width="0" d="M 288.697,3368.21 C 288.727,3367.41 289.395,3366.79 290.188,3366.82 L 296.06,3367.03 C 296.853,3367.06 297.476,3367.72 297.447,3368.52 L 297.312,3372.3 C 297.284,3373.1 296.616,3373.72 295.821,3373.69 L 289.951,3373.48 C 289.156,3373.45 288.535,3372.79 288.563,3371.99 Z "/>
		<path id="dp_path064" fill="#5e2c10" fill-rule="evenodd" stroke="none" stroke-width="0" d="M 268.535,3329.28 C 272.171,3313.7 278.056,3310.43 285.308,3314.65 C 296.661,3321.26 301.884,3323.88 314.865,3318.17 C 319.221,3320.81 319.488,3325.83 319.273,3331.13 C 322.709,3325.56 323.952,3319 320.292,3311.48 C 323.957,3305.4 324.339,3300.38 319.655,3295.57 C 320.313,3299.36 317.708,3301.7 313.452,3303.3 C 315.004,3296.99 313.231,3292.87 309.751,3289.87 C 312.675,3295.94 311.965,3300.57 301.445,3301.31 C 288.907,3302.19 277.781,3297.87 277.472,3306.64 C 263.057,3302.04 267.379,3317.35 268.535,3329.28 Z "/>
		<path id="dp_path065" fill="white" fill-rule="evenodd" fill-opacity="0.2" stroke="none" stroke-width="0" d="M 301.488,3303.82 C 296.724,3305.83 289.467,3303.3 285.655,3305.03 C 293.055,3303.36 298.188,3307.77 305.195,3306.95 C 288.252,3313.52 285.971,3303.27 278.911,3306.61 C 285.831,3299.71 295.865,3304.96 301.488,3303.82 Z "/>
		<path id="dp_path066" fill="white" fill-rule="evenodd" fill-opacity="0.2" stroke="none" stroke-width="0" d="M 275.012,3308.98 C 272.688,3309.42 271.303,3311 270.153,3312.87 C 269.336,3310.88 269.167,3308.95 270.983,3307.23 C 273.948,3306.07 275.109,3306.85 275.012,3308.98 Z "/>
		<path id="dp_path067" fill="#3d1c0a" fill-rule="evenodd" stroke="none" stroke-width="0" d="M 289.565,3314.05 C 297.532,3318.25 305.232,3318.52 314.115,3316.13 C 319.38,3314.72 326.787,3304.12 320.197,3296.15 C 326.464,3303.36 323.988,3308.45 321.28,3313.8 C 320.369,3315.6 317.32,3316.95 318.139,3318.97 C 320.517,3324.86 321.175,3324.67 319.273,3331.14 C 318.193,3325.22 318.347,3318.65 313.739,3320.37 C 290.892,3328.91 275.671,3299.06 268.544,3329.84 C 268.863,3312.38 277.849,3310.72 289.565,3314.05 Z "/>
		<path id="dp_path068" fill="#f8a269" fill-rule="evenodd" stroke="none" stroke-width="0" d="M 267.519,3409.88 C 267.429,3410.84 267.087,3411.54 266.745,3411.47 L 266.745,3411.47 L 260.992,3410.07 C 260.972,3410.06 260.953,3410.06 260.935,3410.05 C 260.335,3409.88 259.933,3408.82 260.039,3407.69 C 260.14,3406.6 260.677,3405.84 261.255,3405.94 L 261.255,3405.94 L 261.28,3405.95 C 261.292,3405.95 261.304,3405.96 261.317,3405.96 C 261.348,3405.97 261.38,3405.98 261.411,3405.99 L 267.052,3407.94 L 267.052,3407.94 C 267.053,3407.94 267.055,3407.94 267.057,3407.94 C 267.403,3408.04 267.611,3408.91 267.519,3409.88 Z "/>
		<path id="dp_path069" fill="#f8a269" fill-rule="evenodd" stroke="none" stroke-width="0" d="M 264.156,3418.71 C 262.121,3420.19 260.135,3420.94 259.665,3420.41 L 259.663,3420.42 L 252.068,3411.28 C 252.041,3411.25 252.016,3411.22 251.992,3411.19 C 251.977,3411.17 251.963,3411.15 251.949,3411.13 L 260.649,3404.81 C 260.667,3404.83 260.683,3404.85 260.699,3404.87 C 260.737,3404.92 260.769,3404.98 260.797,3405.04 L 267.135,3414.93 C 267.136,3414.93 267.139,3414.94 267.14,3414.94 C 267.563,3415.52 266.228,3417.21 264.156,3418.71 Z "/>
		<path id="dp_path070" fill="#bb672e" fill-rule="evenodd" stroke="none" stroke-width="0" d="M 251.395,3410.37 L 260.1,3404.05 L 260.653,3404.81 L 251.947,3411.13 Z "/>
		<path id="dp_path071" fill="#3d1c0a" fill-rule="evenodd" stroke="none" stroke-width="0" d="M 276.065,3326.31 L 290.657,3326 L 291.091,3329.77 L 276.044,3328.86 Z "/>
		<path id="dp_path072" fill="#3d1c0a" fill-rule="evenodd" stroke="none" stroke-width="0" d="M 312.991,3329.88 L 298.675,3327.05 L 297.589,3330.68 L 312.564,3332.4 Z "/>
		<path id="dp_path073" fill="black" fill-rule="evenodd" stroke="none" stroke-width="0" d="M 286.019,3333.35 C 286.74,3333.38 287.269,3334.93 287.203,3336.83 C 287.135,3338.72 286.495,3340.24 285.773,3340.21 C 285.053,3340.19 284.523,3338.63 284.591,3336.74 C 284.659,3334.84 285.299,3333.33 286.019,3333.35 Z "/>
		<path id="dp_path074" fill="black" fill-rule="evenodd" stroke="none" stroke-width="0" d="M 302.64,3333.94 C 303.361,3333.97 303.891,3335.52 303.824,3337.42 C 303.756,3339.31 303.116,3340.83 302.395,3340.8 C 301.675,3340.78 301.144,3339.22 301.212,3337.33 C 301.28,3335.43 301.92,3333.92 302.64,3333.94 Z "/>
		<path id="dp_path075" fill="#0f0045" fill-rule="evenodd" stroke="#00004b" stroke-width="0.801982" d="M 291.017,3426.31 C 278.847,3425.88 269.108,3420.87 268.976,3415.05 L 268.967,3415.05 L 268.959,3403.11 L 314.659,3404.73 L 313.831,3416.24 L 313.831,3416.24 C 313.829,3416.27 313.829,3416.3 313.828,3416.33 C 313.615,3422.28 303.403,3426.75 291.017,3426.31 Z "/>
		<path id="dp_path076" fill="#0f0045" fill-rule="evenodd" stroke="#00004b" stroke-width="10.8268" d="M 303.815,3419.5 C 307.245,3436.28 307.595,3453.62 304.285,3471.64"/>
		<path id="dp_path077" fill="#0f0045" fill-rule="evenodd" stroke="#00004b" stroke-width="10.8268" d="M 276.528,3419.5 C 272.175,3437.65 270.857,3455.65 275.939,3472.19"/>
		<path id="dp_path078" fill="#f9f9f9" fill-rule="evenodd" stroke="none" stroke-width="0" d="M 310.065,3348.29 C 309.149,3368.17 276.288,3366.63 276.587,3346.76 C 276.659,3353.6 309.6,3356.88 310.065,3348.29 Z "/>
		<path id="dp_path079" fill="black" fill-rule="evenodd" fill-opacity="0.309804" stroke="none" stroke-width="0" d="M 310.065,3348.29 C 310.399,3355.91 287.251,3355.24 278.888,3351.24 C 277.6,3350.62 278.955,3355.35 278.328,3354.19 C 276.992,3351.73 276.651,3349.46 276.587,3346.76 C 276.659,3353.6 309.6,3356.88 310.065,3348.29 Z "/>
		<path id="dp_path080" fill="none" fill-rule="evenodd" stroke="#acacac" stroke-width="0.801982" d="M 281.416,3354.48 C 286.644,3356.96 291.315,3357.75 295.664,3357.56"/>
		<path id="dp_path081" fill="none" fill-rule="evenodd" stroke="#f4f4f4" stroke-width="10.8268" d="M 271.592,3368.36 C 258.463,3367.81 238.557,3383.89 256.024,3407.59"/>
		<path id="dp_path082" fill="black" fill-rule="evenodd" stroke="none" stroke-width="0" d="M 261.564,3476.01 C 265.939,3475.09 269.625,3473.81 272.695,3472.19 L 279.811,3471.84 L 280.325,3481.99 L 250.655,3483.49 C 249.887,3479.18 252.609,3476.51 261.564,3476.01 Z "/>
		<path id="dp_path083" fill="black" fill-rule="evenodd" stroke="none" stroke-width="0" d="M 319.437,3474.9 C 315.023,3474.2 311.275,3473.1 308.128,3471.64 L 301.004,3471.64 L 301.004,3481.81 L 330.711,3481.81 C 331.261,3477.47 328.407,3474.95 319.437,3474.9 Z "/>
		<path id="dp_path084" fill="#f8a269" fill-rule="evenodd" stroke="none" stroke-width="0" d="M 352.781,3361.13 C 353.739,3361.25 354.429,3361.61 354.347,3361.95 L 354.347,3361.95 L 352.763,3367.64 C 352.759,3367.66 352.753,3367.68 352.747,3367.69 C 352.552,3368.29 351.477,3368.65 350.347,3368.51 C 349.255,3368.38 348.511,3367.82 348.636,3367.25 L 348.632,3367.25 L 348.641,3367.23 C 348.645,3367.21 348.648,3367.2 348.653,3367.19 C 348.663,3367.16 348.676,3367.13 348.691,3367.1 L 350.812,3361.54 L 350.812,3361.54 C 350.813,3361.53 350.813,3361.53 350.815,3361.53 C 350.927,3361.19 351.808,3361.01 352.781,3361.13 Z "/>
		<path id="dp_path085" fill="#f8a269" fill-rule="evenodd" stroke="none" stroke-width="0" d="M 361.532,3364.75 C 362.951,3366.83 363.641,3368.83 363.101,3369.28 L 363.103,3369.28 L 353.704,3376.56 C 353.675,3376.59 353.644,3376.61 353.611,3376.64 C 353.589,3376.65 353.568,3376.66 353.545,3376.68 L 347.477,3367.82 C 347.497,3367.8 347.517,3367.79 347.539,3367.77 C 347.593,3367.73 347.651,3367.7 347.712,3367.68 L 357.833,3361.67 C 357.836,3361.67 357.839,3361.67 357.841,3361.67 C 358.435,3361.26 360.087,3362.64 361.532,3364.75 Z "/>
		<path id="dp_path086" fill="#bb672e" fill-rule="evenodd" stroke="none" stroke-width="0" d="M 352.772,3377.21 L 346.7,3368.34 L 347.475,3367.81 L 353.547,3376.68 Z "/>
		<path id="dp_path087" fill="none" fill-rule="evenodd" stroke="#e8e8e8" stroke-width="10.8268" d="M 316.571,3367.68 C 326.364,3369.17 323.907,3390.4 349.7,3373"/>
	</g>
	<g id="clip">
		<g id="dp_dp088" clip-path="url(#clip_dp_001)">
			<g id="dp_dp089" transform="matrix(1.00001,0,0,0.999968,1.47468,-3243.07)">
				<path id="dp_path090" fill="#69006e" fill-rule="evenodd" stroke="none" stroke-width="0" d="M 256.651,3336.69 L 245.08,3348.26 L 245.08,3340.72 L 249.109,3336.69 Z "/>
				<path id="dp_path091" fill="#69006e" fill-rule="evenodd" stroke="none" stroke-width="0" d="M 270.364,3336.69 L 245.08,3361.98 L 245.08,3354.43 L 262.823,3336.69 Z "/>
				<path id="dp_path092" fill="#69006e" fill-rule="evenodd" stroke="none" stroke-width="0" d="M 284.079,3336.69 L 245.08,3375.69 L 245.08,3368.15 L 276.537,3336.69 Z "/>
				<path id="dp_path093" fill="#69006e" fill-rule="evenodd" stroke="none" stroke-width="0" d="M 297.793,3336.69 L 245.08,3389.41 L 245.08,3381.86 L 290.252,3336.69 Z "/>
				<path id="dp_path094" fill="#69006e" fill-rule="evenodd" stroke="none" stroke-width="0" d="M 311.508,3336.69 L 245.08,3403.12 L 245.08,3395.58 L 303.967,3336.69 Z "/>
				<path id="dp_path095" fill="#69006e" fill-rule="evenodd" stroke="none" stroke-width="0" d="M 325.221,3336.69 L 245.08,3416.83 L 245.08,3409.29 L 317.68,3336.69 Z "/>
				<path id="dp_path096" fill="#69006e" fill-rule="evenodd" stroke="none" stroke-width="0" d="M 338.936,3336.69 L 245.08,3430.55 L 245.08,3423.01 L 331.395,3336.69 Z "/>
				<path id="dp_path097" fill="#69006e" fill-rule="evenodd" stroke="none" stroke-width="0" d="M 341.08,3348.26 L 256.651,3432.69 L 249.109,3432.69 L 341.08,3340.72 Z "/>
				<path id="dp_path098" fill="#69006e" fill-rule="evenodd" stroke="none" stroke-width="0" d="M 341.08,3361.98 L 270.364,3432.69 L 262.823,3432.69 L 341.08,3354.43 Z "/>
				<path id="dp_path099" fill="#69006e" fill-rule="evenodd" stroke="none" stroke-width="0" d="M 341.08,3375.69 L 284.079,3432.69 L 276.537,3432.69 L 341.08,3368.15 Z "/>
				<path id="dp_path100" fill="#69006e" fill-rule="evenodd" stroke="none" stroke-width="0" d="M 341.08,3389.41 L 297.793,3432.69 L 290.252,3432.69 L 341.08,3381.86 Z "/>
				<path id="dp_path101" fill="#69006e" fill-rule="evenodd" stroke="none" stroke-width="0" d="M 341.08,3403.12 L 311.508,3432.69 L 303.967,3432.69 L 341.08,3395.58 Z "/>
				<path id="dp_path102" fill="#69006e" fill-rule="evenodd" stroke="none" stroke-width="0" d="M 341.08,3416.83 L 325.221,3432.69 L 317.68,3432.69 L 341.08,3409.29 Z "/>
				<path id="dp_path103" fill="#69006e" fill-rule="evenodd" stroke="none" stroke-width="0" d="M 341.08,3430.55 L 338.936,3432.69 L 331.395,3432.69 L 341.08,3423.01 Z "/>
			</g>
		</g>
	</g>
	<g id="clip">
		<g id="dp_dp104" clip-path="url(#clip_dp_002)">
			<g id="dp_dp105" transform="matrix(1.00002,0,0,0.999852,1.47151,-3242.67)">
				<path id="dp_path106" fill="#69006e" fill-rule="evenodd" stroke="none" stroke-width="0" d="M 257.249,3336.68 L 245.679,3348.25 L 245.679,3340.71 L 249.708,3336.68 Z "/>
				<path id="dp_path107" fill="#69006e" fill-rule="evenodd" stroke="none" stroke-width="0" d="M 270.963,3336.68 L 245.679,3361.97 L 245.679,3354.43 L 263.421,3336.68 Z "/>
				<path id="dp_path108" fill="#69006e" fill-rule="evenodd" stroke="none" stroke-width="0" d="M 284.677,3336.68 L 245.679,3375.68 L 245.679,3368.14 L 277.136,3336.68 Z "/>
				<path id="dp_path109" fill="#69006e" fill-rule="evenodd" stroke="none" stroke-width="0" d="M 298.392,3336.68 L 245.679,3389.4 L 245.679,3381.85 L 290.851,3336.68 Z "/>
				<path id="dp_path110" fill="#69006e" fill-rule="evenodd" stroke="none" stroke-width="0" d="M 312.107,3336.68 L 245.679,3403.11 L 245.679,3395.57 L 304.565,3336.68 Z "/>
				<path id="dp_path111" fill="#69006e" fill-rule="evenodd" stroke="none" stroke-width="0" d="M 325.82,3336.68 L 245.679,3416.82 L 245.679,3409.28 L 318.279,3336.68 Z "/>
				<path id="dp_path112" fill="#69006e" fill-rule="evenodd" stroke="none" stroke-width="0" d="M 339.535,3336.68 L 245.679,3430.54 L 245.679,3423 L 331.993,3336.68 Z "/>
				<path id="dp_path113" fill="#69006e" fill-rule="evenodd" stroke="none" stroke-width="0" d="M 341.679,3348.25 L 257.249,3432.68 L 249.708,3432.68 L 341.679,3340.71 Z "/>
				<path id="dp_path114" fill="#69006e" fill-rule="evenodd" stroke="none" stroke-width="0" d="M 341.679,3361.97 L 270.963,3432.68 L 263.421,3432.68 L 341.679,3354.43 Z "/>
				<path id="dp_path115" fill="#69006e" fill-rule="evenodd" stroke="none" stroke-width="0" d="M 341.679,3375.68 L 284.677,3432.68 L 277.136,3432.68 L 341.679,3368.14 Z "/>
				<path id="dp_path116" fill="#69006e" fill-rule="evenodd" stroke="none" stroke-width="0" d="M 341.679,3389.4 L 298.392,3432.68 L 290.851,3432.68 L 341.679,3381.85 Z "/>
				<path id="dp_path117" fill="#69006e" fill-rule="evenodd" stroke="none" stroke-width="0" d="M 341.679,3403.11 L 312.107,3432.68 L 304.565,3432.68 L 341.679,3395.57 Z "/>
				<path id="dp_path118" fill="#69006e" fill-rule="evenodd" stroke="none" stroke-width="0" d="M 341.679,3416.82 L 325.82,3432.68 L 318.279,3432.68 L 341.679,3409.28 Z "/>
				<path id="dp_path119" fill="#69006e" fill-rule="evenodd" stroke="none" stroke-width="0" d="M 341.679,3430.54 L 339.535,3432.68 L 331.993,3432.68 L 341.679,3423 Z "/>
			</g>
		</g>
	</g>
	<g id="dp_dp120" transform="matrix(1,0,0,1,1.47733,-3243.17)">
		<path id="dp_path121" fill="#faa724" fill-rule="evenodd" stroke="none" stroke-width="0" d="M 284.815,3378.85 C 284.825,3378.55 285.079,3378.31 285.381,3378.33 L 293.877,3378.63 C 294.18,3378.64 294.416,3378.89 294.405,3379.19 L 294.352,3380.67 C 294.341,3380.97 294.088,3381.21 293.785,3381.2 L 285.289,3380.9 C 284.987,3380.89 284.751,3380.63 284.761,3380.33 Z "/>
		<path id="dp_path122" fill="white" fill-rule="evenodd" stroke="none" stroke-width="0" d="M 285.663,3379.04 C 285.665,3378.95 285.739,3378.89 285.825,3378.89 L 288.356,3378.98 C 288.443,3378.98 288.511,3379.06 288.508,3379.14 L 288.492,3379.57 C 288.489,3379.65 288.416,3379.72 288.329,3379.72 L 285.799,3379.63 C 285.712,3379.62 285.644,3379.55 285.648,3379.47 Z "/>
		<path id="dp_path123" fill="#8b4217" fill-rule="evenodd" stroke="none" stroke-width="0" d="M 275.401,3325.72 L 289.995,3325.41 L 290.428,3329.18 L 275.381,3328.27 Z "/>
		<path id="dp_path124" fill="#8b4217" fill-rule="evenodd" stroke="none" stroke-width="0" d="M 312.328,3329.29 L 298.012,3326.46 L 296.927,3330.09 L 311.901,3331.81 Z "/>
		<path id="dp_path125" fill="red" fill-rule="evenodd" stroke="none" stroke-width="0" d="M 301.423,3370.61 C 301.445,3370.28 301.731,3370.03 302.06,3370.05 L 310.432,3370.61 C 310.761,3370.64 311.011,3370.92 310.988,3371.25 L 310.584,3377.23 C 310.563,3377.56 310.277,3377.81 309.948,3377.79 L 301.575,3377.22 C 301.247,3377.2 300.997,3376.92 301.02,3376.59 Z "/>
		<path id="dp_path126" fill="#e0e0e0" fill-rule="evenodd" stroke="none" stroke-width="0" d="M 302.067,3372.75 L 310.251,3373.31 L 309.989,3377.19 L 301.804,3376.64 Z "/>
	</g>
	<text id="dp_text127" transform="matrix(0.997732,0.0673187,-0.0673188,0.997732,305.133,132.81)" xml:space="preserve" fill="black" font-family="Mouse Memoirs" font-size="4" font-weight="400" x="0" y="0">Carl</text>
	<text id="dp_text128" transform="matrix(0.997732,0.0673187,-0.0673188,0.997732,303.771,128.661)" xml:space="preserve" fill="white" font-family="Indy Pimp" font-size="1" font-weight="400" x="0" y="0">Hi! My Name Is..</text>
	<g id="dp_dp129" transform="matrix(1,0,0,1,1.47733,-3243.17)">
		<path id="dp_path130" fill="#89a1ff" fill-rule="evenodd" stroke="none" stroke-width="0" d="M 381.239,3243.84 C 394.161,3244.76 403.761,3257.62 402.679,3272.57 C 401.597,3287.53 390.243,3298.9 377.32,3297.98 C 364.397,3297.07 354.797,3284.2 355.879,3269.25 C 356.961,3254.3 368.315,3242.92 381.239,3243.84 Z "/>
		<path id="dp_path131" fill="white" fill-rule="evenodd" fill-opacity="0.498039" stroke="none" stroke-width="0" d="M 380.967,3247.59 C 382.393,3247.69 383.769,3247.98 385.079,3248.43 C 376.087,3250.24 368.707,3260.2 367.803,3272.69 C 367.385,3278.46 368.413,3283.89 370.493,3288.36 C 364.201,3284.56 360.189,3276.65 360.827,3267.83 C 361.689,3255.93 370.705,3246.86 380.967,3247.59 Z "/>
		<path id="dp_path132" fill="#ff1019" fill-rule="evenodd" stroke="none" stroke-width="0" d="M 362.636,3275.44 C 375.192,3272.24 388.383,3281.41 392.099,3295.93 C 395.815,3310.45 388.649,3324.82 376.095,3328.02 C 363.539,3331.22 350.348,3322.05 346.632,3307.53 C 342.916,3293.01 350.081,3278.64 362.636,3275.44 Z "/>
		<path id="dp_path133" fill="#ff1019" fill-rule="evenodd" stroke="none" stroke-width="0" d="M 374.908,3323.39 L 383.333,3331.11 L 371.225,3334.2 Z "/>
		<path id="dp_path134" fill="white" fill-rule="evenodd" fill-opacity="0.498039" stroke="none" stroke-width="0" d="M 363.568,3279.08 C 364.955,3278.73 366.351,3278.56 367.736,3278.57 C 359.779,3283.13 355.933,3294.9 359.039,3307.03 C 360.473,3312.63 363.171,3317.46 366.564,3321.05 C 359.385,3319.42 353.069,3313.19 350.879,3304.62 C 347.919,3293.06 353.6,3281.62 363.568,3279.08 Z "/>
		<path id="dp_path135" fill="#00b4dc" fill-rule="evenodd" stroke="none" stroke-width="0" d="M 408.475,3267.88 C 421.432,3267.86 431.947,3279.99 431.957,3294.98 C 431.969,3309.97 421.475,3322.14 408.519,3322.16 C 395.561,3322.18 385.048,3310.05 385.036,3295.06 C 385.024,3280.07 395.519,3267.9 408.475,3267.88 Z "/>
		<path id="dp_path136" fill="#00b4dc" fill-rule="evenodd" stroke="none" stroke-width="0" d="M 408.515,3317.38 L 414.769,3326.93 L 402.273,3326.95 Z "/>
		<path id="dp_path137" fill="white" fill-rule="evenodd" fill-opacity="0.498039" stroke="none" stroke-width="0" d="M 408.479,3271.64 C 409.909,3271.64 411.303,3271.82 412.641,3272.17 C 403.804,3274.64 397.171,3285.1 397.18,3297.62 C 397.185,3303.41 398.607,3308.75 401.007,3313.06 C 394.453,3309.72 389.875,3302.13 389.868,3293.29 C 389.859,3281.35 398.191,3271.66 408.479,3271.64 Z "/>
		<path id="dp_path138" fill="none" fill-rule="evenodd" stroke="#444754" stroke-width="1.33333" d="M 357.093,3357.45 L 372.264,3329.24"/>
		<path id="dp_path139" fill="none" fill-rule="evenodd" stroke="#444754" stroke-width="1.33333" d="M 357.093,3357.45 L 360.308,3325.62"/>
		<path id="dp_path140" fill="none" fill-rule="evenodd" stroke="#444754" stroke-width="1.33333" d="M 357.093,3357.45 L 405.324,3322.23"/>
		<path id="dp_path141" fill="none" fill-rule="evenodd" stroke="#444754" stroke-width="1.33333" d="M 357.093,3357.45 L 351.015,3300.31"/>
		<path id="dp_path142" fill="none" fill-rule="evenodd" stroke="#444754" stroke-width="1.33333" d="M 357.093,3357.45 L 358.649,3366.26"/>
		<path id="dp_path143" fill="none" fill-rule="evenodd" stroke="#444754" stroke-width="1.33333" d="M 357.093,3357.45 C 359.079,3359.76 359.399,3362.78 358.649,3366.26"/>
		<path id="dp_path144" fill="none" fill-rule="evenodd" stroke="#444754" stroke-width="1.33333" d="M 358.8,3367.47 C 360.785,3369.78 361.105,3372.8 360.356,3376.28"/>
		<path id="dp_path145" fill="none" fill-rule="evenodd" stroke="#444754" stroke-width="1.33333" d="M 358.28,3366.91 C 360.265,3369.22 358.967,3376.47 358.217,3379.95"/>
		<path id="dp_path146" fill="#38ff16" fill-rule="evenodd" stroke="none" stroke-width="0" d="M 345.816,3245.93 C 358.76,3245.34 369.8,3257 370.476,3271.97 C 371.152,3286.94 361.207,3299.56 348.263,3300.15 C 335.319,3300.74 324.277,3289.09 323.601,3274.11 C 322.925,3259.14 332.872,3246.52 345.816,3245.93 Z "/>
		<path id="dp_path147" fill="white" fill-rule="evenodd" fill-opacity="0.498039" stroke="none" stroke-width="0" d="M 345.985,3249.69 C 347.413,3249.62 348.815,3249.74 350.168,3250.04 C 341.448,3252.89 335.284,3263.63 335.848,3276.14 C 336.109,3281.92 337.765,3287.19 340.355,3291.39 C 333.66,3288.35 328.749,3280.96 328.351,3272.13 C 327.812,3260.2 335.708,3250.16 345.985,3249.69 Z "/>
		<path id="dp_path148" fill="#38ff16" fill-rule="evenodd" stroke="none" stroke-width="0" d="M 348.047,3295.37 L 354.72,3304.64 L 342.236,3305.21 Z "/>
		<g id="dp_dp149" clip-path="url(#clip_dp_003)">
			<g id="clip">
				<path id="dp_path150" fill="black" fill-opacity="0.4" stroke="none" stroke-width="0" d="M 357.951,3277.24 C 357.947,3277.95 358.352,3278.57 358.944,3278.87 L 358.943,3279.12 C 358.777,3279.14 358.608,3279.15 358.435,3279.15 C 357.372,3279.15 356.415,3278.7 355.74,3277.98 C 355.329,3278.09 354.896,3278.15 354.447,3278.14 C 351.961,3278.13 349.953,3276.33 349.963,3274.13 S 351.993,3270.13 354.479,3270.14 C 356.964,3270.15 358.971,3271.95 358.963,3274.16 C 358.959,3275.03 358.647,3275.83 358.12,3276.48 C 358.011,3276.71 357.951,3276.97 357.951,3277.24 Z M 349.007,3263.12 C 353.357,3263.14 356.885,3265.97 356.979,3269.49 C 356.212,3269.14 355.361,3268.96 354.483,3268.95 C 352.989,3268.95 351.579,3269.47 350.507,3270.41 C 349.396,3271.39 348.78,3272.71 348.775,3274.12 C 348.772,3274.82 348.919,3275.49 349.2,3276.12 C 349.117,3276.12 349.036,3276.12 348.953,3276.12 C 348.529,3276.12 348.112,3276.09 347.707,3276.04 C 345.981,3277.75 343.928,3278.05 341.945,3278.09 L 341.947,3277.66 C 343.02,3277.14 343.953,3276.19 343.957,3275.1 C 343.957,3274.95 343.947,3274.8 343.925,3274.65 C 342.121,3273.45 340.971,3271.63 340.979,3269.59 C 340.993,3266 344.588,3263.1 349.005,3263.12 Z "/>
			</g>
		</g>
		<g id="dp_dp151" clip-path="url(#clip_dp_004)">
			<g id="clip">
				<path id="dp_path152" fill="black" fill-opacity="0.4" stroke="none" stroke-width="0" d="M 411.644,3288.37 C 407.232,3288.16 403.6,3289.1 403.533,3290.48 L 403.436,3292.48 C 403.371,3293.86 406.895,3295.15 411.307,3295.36 S 419.352,3294.63 419.417,3293.25 L 419.515,3291.25 C 419.581,3289.87 416.057,3288.58 411.644,3288.37 Z "/>
				<path id="dp_path153" fill="black" fill-opacity="0.4" stroke="none" stroke-width="0" d="M 411.235,3296.86 C 406.823,3296.65 403.297,3295.36 403.364,3293.98 L 403.22,3296.97 C 403.153,3298.35 406.677,3299.64 411.091,3299.86 S 419.135,3299.12 419.201,3297.74 L 419.345,3294.75 C 419.279,3296.13 415.648,3297.07 411.235,3296.86 Z "/>
				<path id="dp_path154" fill="black" fill-opacity="0.4" stroke="none" stroke-width="0" d="M 411.017,3301.35 C 406.605,3301.14 403.081,3299.85 403.148,3298.47 L 403.003,3301.47 C 402.937,3302.85 406.461,3304.14 410.873,3304.35 S 418.919,3303.62 418.984,3302.24 L 419.129,3299.24 C 419.063,3300.62 415.432,3301.57 411.017,3301.35 Z "/>
			</g>
		</g>
		<path id="dp_path155" fill="black" fill-rule="evenodd" fill-opacity="0.4" stroke="none" stroke-width="0" d="M 367.368,3301.23 C 367.413,3301.24 367.459,3301.25 367.504,3301.26 C 368.228,3300.4 369.619,3299.62 371.312,3299.22 C 374.015,3298.57 376.465,3299.14 376.785,3300.48 C 376.937,3301.12 376.575,3301.83 375.86,3302.46 C 378.549,3301.83 380.98,3302.39 381.299,3303.73 C 381.619,3305.07 379.685,3306.68 376.983,3307.33 C 374.961,3307.81 373.08,3307.61 372.128,3306.92 C 372.239,3308.22 370.361,3309.72 367.781,3310.33 C 365.208,3310.94 362.864,3310.46 362.369,3309.25 C 361.836,3309.49 361.241,3309.7 360.603,3309.85 C 357.899,3310.49 355.449,3309.93 355.129,3308.59 C 354.811,3307.24 356.743,3305.63 359.445,3304.99 C 359.56,3304.96 359.675,3304.94 359.788,3304.91 C 359.583,3303.59 361.487,3302.05 364.123,3301.42 C 365.305,3301.14 366.44,3301.09 367.368,3301.23 Z "/>
		<g id="dp_dp156" clip-path="url(#clip_dp_005)">
			<g id="clip">
				<path id="dp_path157" fill="black" fill-opacity="0.4" stroke="none" stroke-width="0" d="M 387.5,3261.26 L 376.913,3259.96 C 375.457,3259.78 374.12,3260.82 373.941,3262.28 L 372.639,3272.87 C 372.46,3274.32 373.505,3275.66 374.96,3275.84 L 385.547,3277.14 C 387.003,3277.32 388.34,3276.27 388.52,3274.82 L 389.821,3264.23 C 390,3262.77 388.956,3261.44 387.5,3261.26 Z M 387.256,3263.24 C 387.38,3263.26 387.492,3263.31 387.585,3263.38 L 381.376,3267.35 L 376.316,3262 C 376.423,3261.95 376.544,3261.93 376.669,3261.94 L 387.255,3263.24 Z M 375.204,3273.85 C 375.176,3273.85 375.145,3273.84 375.116,3273.84 L 379.212,3269.41 L 378.816,3268.9 L 374.751,3272.08 L 375.916,3262.6 L 380.987,3270.53 L 387.827,3264.06 L 386.661,3273.54 L 383.487,3269.48 L 382.979,3269.87 L 385.881,3275.16 C 385.851,3275.16 385.82,3275.16 385.793,3275.15 L 375.205,3273.85 Z "/>
			</g>
		</g>
	</g>
</svg>