<?xml version="1.0" encoding="UTF-8" standalone="no"?>
<svg version="1.1" xmlns="http://www.w3.org/2000/svg" xmlns:xlink="http://www.w3.org/1999/xlink" width="20.2107" height="14.148">
	<path id="dp_path001" transform="matrix(1,0,0,1,-693.757,-3601.04)" fill="#d6d5e1" fill-rule="evenodd" stroke="none" stroke-width="0" d="M 710.837,3601.04 L 697.181,3601.04 C 696.233,3601.04 695.427,3601.27 694.759,3601.73 C 694.091,3602.2 693.757,3602.76 693.757,3603.41 L 693.757,3612.87 C 693.757,3613.52 694.091,3614.08 694.759,3614.54 C 695.427,3615.01 696.233,3615.24 697.181,3615.24 L 710.837,3615.24 C 711.785,3615.24 712.592,3615.01 713.26,3614.54 C 713.928,3614.08 714.261,3613.52 714.261,3612.87 L 714.261,3603.41 C 714.261,3602.76 713.928,3602.2 713.26,3601.73 C 712.592,3601.27 711.785,3601.04 710.837,3601.04 Z M 697.423,3613.34 L 695.86,3612.26 L 700.985,3608.71 L 701.587,3609.12 Z M 696.82,3603.8 L 697.423,3603.38 L 704.009,3607.07 L 710.596,3603.38 L 711.197,3603.8 L 704.009,3609.65 Z M 710.596,3613.34 L 706.433,3609.12 L 707.035,3608.71 L 712.16,3612.26 Z "/>
</svg>