<?xml version="1.0" encoding="UTF-8" standalone="no"?>
<svg version="1.1" xmlns="http://www.w3.org/2000/svg" xmlns:xlink="http://www.w3.org/1999/xlink" width="20.2107" height="20.2107">
	<defs>
		<clipPath id="clip_dp_001" clipPathUnits="userSpaceOnUse" clip-rule="nonzero">
			<path d="M 1209.41,136.815 L 1229.41,136.815 L 1229.41,156.813 L 1209.41,156.813 Z " clip-rule="nonzero"/>
		</clipPath>
	</defs>
	<g id="dp_dp001" transform="matrix(1,0,0,1,-1209.41,-136.815)" clip-path="url(#clip_dp_001)">
		<g id="clip">
			<path id="dp_path002" fill="white" stroke="none" stroke-width="0" d="M 1219.6,145.383 L 1219.6,148.813 L 1225.27,148.813 C 1225.05,150.284 1223.56,153.125 1219.6,153.125 C 1216.19,153.125 1213.41,150.297 1213.41,146.813 S 1216.19,140.503 1219.6,140.503 C 1221.55,140.503 1222.85,141.331 1223.59,142.044 L 1226.3,139.431 C 1224.56,137.797 1222.3,136.812 1219.61,136.812 C 1214.08,136.812 1209.61,141.285 1209.61,146.812 S 1214.08,156.811 1219.61,156.811 C 1225.37,156.811 1229.21,152.753 1229.21,147.041 C 1229.21,146.387 1229.14,145.887 1229.05,145.387 L 1219.61,145.381 Z "/>
		</g>
	</g>
</svg>