<?xml version="1.0" encoding="UTF-8" standalone="no"?>
<svg version="1.1" xmlns="http://www.w3.org/2000/svg" xmlns:xlink="http://www.w3.org/1999/xlink" width="20.2107" height="20.2107">
	<defs>
		<clipPath id="clip_dp_001" clipPathUnits="userSpaceOnUse" clip-rule="nonzero">
			<path d="M 1113,136.815 L 1132.99,136.815 L 1132.99,156.813 L 1113,156.813 Z " clip-rule="nonzero"/>
		</clipPath>
	</defs>
	<g id="dp_dp001" transform="matrix(1,0,0,1,-1113,-136.815)" clip-path="url(#clip_dp_001)">
		<g id="clip">
			<path id="dp_path002" fill="white" stroke="none" stroke-width="0" d="M 1131.12,136.815 L 1114.87,136.815 C 1113.84,136.815 1113,137.657 1113,138.689 L 1113,154.937 C 1113,155.969 1113.84,156.812 1114.87,156.812 L 1131.12,156.812 C 1132.15,156.812 1132.99,155.969 1132.99,154.937 L 1132.99,138.689 C 1132.99,137.657 1132.15,136.815 1131.12,136.815 Z M 1126.74,139.939 C 1126.74,139.596 1127.03,139.313 1127.37,139.313 L 1129.87,139.313 C 1130.21,139.313 1130.49,139.596 1130.49,139.939 L 1130.49,142.439 C 1130.49,142.781 1130.21,143.064 1129.87,143.064 L 1127.37,143.064 C 1127.03,143.064 1126.74,142.781 1126.74,142.439 Z M 1122.99,143.064 C 1125.06,143.064 1126.74,144.744 1126.74,146.813 S 1125.06,150.563 1122.99,150.563 C 1120.93,150.563 1119.25,148.883 1119.25,146.813 S 1120.93,143.064 1122.99,143.064 Z M 1130.49,153.688 L 1130.49,153.688 C 1130.49,154.031 1130.21,154.312 1129.87,154.312 L 1116.12,154.312 C 1115.78,154.312 1115.49,154.031 1115.49,153.688 L 1115.49,153.688 L 1115.49,145.563 L 1116.87,145.563 C 1116.79,145.967 1116.75,146.383 1116.75,146.813 C 1116.75,150.267 1119.54,153.063 1122.99,153.063 S 1129.24,150.267 1129.24,146.813 C 1129.24,146.383 1129.2,145.967 1129.12,145.563 L 1130.49,145.563 Z "/>
		</g>
	</g>
</svg>