<?xml version="1.0" encoding="UTF-8" standalone="no"?>
<svg version="1.1" xmlns="http://www.w3.org/2000/svg" xmlns:xlink="http://www.w3.org/1999/xlink" width="19.2" height="19.2">
	<path id="dp_path001" transform="matrix(1,0,0,1,-694.267,-3767.72)" fill="#d6d5e1" fill-rule="evenodd" stroke="none" stroke-width="0" d="M 711.459,3782.01 C 711.459,3781.69 711.348,3781.42 711.125,3781.2 L 708.641,3778.72 C 708.419,3778.5 708.147,3778.39 707.829,3778.39 C 707.495,3778.39 707.208,3778.52 706.969,3778.77 C 706.995,3778.79 707.069,3778.87 707.196,3778.99 C 707.324,3779.11 707.409,3779.2 707.452,3779.25 C 707.497,3779.29 707.555,3779.37 707.632,3779.47 C 707.708,3779.58 707.759,3779.68 707.788,3779.78 C 707.815,3779.88 707.829,3779.99 707.829,3780.11 C 707.829,3780.42 707.717,3780.69 707.495,3780.91 C 707.273,3781.14 707.001,3781.25 706.683,3781.25 C 706.563,3781.25 706.455,3781.23 706.355,3781.21 C 706.255,3781.18 706.155,3781.13 706.051,3781.05 C 705.948,3780.98 705.871,3780.92 705.823,3780.87 C 705.775,3780.83 705.689,3780.74 705.565,3780.62 C 705.443,3780.49 705.371,3780.41 705.344,3780.39 C 705.084,3780.64 704.951,3780.93 704.951,3781.26 C 704.951,3781.58 705.064,3781.85 705.285,3782.07 L 707.745,3784.53 C 707.96,3784.75 708.231,3784.86 708.557,3784.86 C 708.875,3784.86 709.145,3784.75 709.369,3784.55 L 711.125,3782.81 C 711.348,3782.59 711.459,3782.32 711.459,3782.01 Z M 703.065,3773.62 C 703.065,3773.3 702.955,3773.03 702.732,3772.81 L 700.271,3770.34 C 700.049,3770.12 699.779,3770.01 699.46,3770.01 C 699.151,3770.01 698.879,3770.11 698.648,3770.33 L 696.892,3772.07 C 696.669,3772.29 696.559,3772.56 696.559,3772.87 C 696.559,3773.18 696.669,3773.45 696.892,3773.68 L 699.376,3776.15 C 699.592,3776.37 699.864,3776.47 700.188,3776.47 C 700.523,3776.47 700.809,3776.35 701.048,3776.1 C 701.023,3776.08 700.949,3776.01 700.821,3775.88 C 700.693,3775.76 700.608,3775.68 700.565,3775.63 C 700.521,3775.58 700.46,3775.51 700.385,3775.4 C 700.309,3775.3 700.259,3775.2 700.229,3775.1 C 700.201,3775 700.188,3774.89 700.188,3774.77 C 700.188,3774.45 700.3,3774.18 700.523,3773.96 C 700.745,3773.74 701.016,3773.63 701.333,3773.63 C 701.453,3773.63 701.564,3773.64 701.663,3773.67 C 701.761,3773.7 701.863,3773.75 701.967,3773.82 C 702.069,3773.9 702.147,3773.96 702.195,3774 C 702.241,3774.05 702.327,3774.13 702.452,3774.26 C 702.575,3774.39 702.648,3774.46 702.671,3774.48 C 702.935,3774.24 703.065,3773.95 703.065,3773.62 Z M 712.747,3779.58 C 713.416,3780.25 713.751,3781.06 713.751,3782.01 C 713.751,3782.96 713.413,3783.77 712.737,3784.43 L 710.981,3786.17 C 710.32,3786.82 709.513,3787.15 708.557,3787.15 C 707.595,3787.15 706.783,3786.82 706.121,3786.14 L 703.661,3783.68 C 703.003,3783.02 702.671,3782.21 702.671,3781.26 C 702.671,3780.28 703.023,3779.45 703.723,3778.77 L 702.671,3777.72 C 701.985,3778.42 701.159,3778.77 700.188,3778.77 C 699.233,3778.77 698.423,3778.44 697.753,3777.77 L 695.271,3775.29 C 694.601,3774.63 694.267,3773.82 694.267,3772.87 C 694.267,3771.91 694.605,3771.11 695.281,3770.45 L 697.036,3768.71 C 697.697,3768.05 698.504,3767.72 699.46,3767.72 C 700.423,3767.72 701.236,3768.06 701.896,3768.73 L 704.356,3771.2 C 705.015,3771.86 705.344,3772.66 705.344,3773.62 C 705.344,3774.59 704.995,3775.42 704.295,3776.1 L 705.344,3777.15 C 706.029,3776.45 706.859,3776.1 707.829,3776.1 C 708.784,3776.1 709.595,3776.44 710.264,3777.1 Z "/>
</svg>