<?xml version="1.0" encoding="UTF-8" standalone="no"?>
<svg version="1.1" xmlns="http://www.w3.org/2000/svg" xmlns:xlink="http://www.w3.org/1999/xlink" width="19.2" height="20.2107">
	<path id="dp_path001" transform="matrix(1,0,0,1,-694.633,-3637.75)" fill="#d6d5e1" fill-rule="evenodd" stroke="none" stroke-width="0" d="M 708.092,3637.75 C 709.324,3638.01 710.535,3638.51 711.728,3639.26 C 711.359,3639.9 710.944,3640.47 710.487,3640.97 C 709.697,3641.84 708.639,3642.54 707.309,3643.08 L 707.119,3642.91 C 706.244,3642.11 704.585,3643.06 702.143,3645.74 C 699.621,3648.51 698.801,3650.29 699.681,3651.09 L 699.873,3651.27 C 699.564,3652.66 699.003,3653.81 698.187,3654.71 C 697.709,3655.23 697.133,3655.66 696.461,3655.99 C 695.656,3654.97 695.045,3653.82 694.633,3652.54 C 695.233,3651.03 695.988,3649.57 696.893,3648.15 C 697.8,3646.73 698.857,3645.36 700.067,3644.03 C 701.309,3642.67 702.599,3641.46 703.932,3640.42 C 705.267,3639.37 706.652,3638.48 708.092,3637.75 Z M 712.133,3639.63 L 712.565,3640.02 C 713.115,3640.52 713.388,3640.98 713.385,3641.41 C 713.381,3641.83 713.093,3642.35 712.517,3642.99 C 710.917,3644.75 709.472,3645.04 708.181,3643.87 L 707.772,3643.5 C 709.005,3643.06 710.065,3642.36 710.948,3641.39 C 711.452,3640.83 711.847,3640.25 712.133,3639.63 Z M 700.389,3651.74 L 700.725,3652.04 C 701.445,3652.69 701.783,3653.37 701.731,3654.08 C 701.68,3654.79 701.237,3655.6 700.4,3656.52 C 699.807,3657.17 699.296,3657.52 698.872,3657.55 C 698.445,3657.58 697.925,3657.32 697.313,3656.76 L 696.924,3656.41 C 697.672,3655.99 698.264,3655.54 698.695,3655.07 C 699.539,3654.14 700.103,3653.03 700.389,3651.74 Z "/>
</svg>