<?xml version="1.0" encoding="UTF-8" standalone="no"?>
<svg version="1.1" xmlns="http://www.w3.org/2000/svg" xmlns:xlink="http://www.w3.org/1999/xlink" width="15.1573" height="22.232">
	<path id="dp_path001" transform="matrix(1,0,0,1,-696.644,-3680.07)" fill="#d6d5e1" fill-rule="evenodd" stroke="none" stroke-width="0" d="M 706.615,3690.02 C 707.333,3689.3 707.695,3688.44 707.695,3687.42 C 707.695,3686.41 707.333,3685.54 706.615,3684.82 C 705.896,3684.1 705.028,3683.75 704.011,3683.75 C 702.993,3683.75 702.125,3684.1 701.405,3684.82 C 700.688,3685.54 700.328,3686.41 700.328,3687.42 C 700.328,3688.44 700.688,3689.3 701.405,3690.02 C 702.125,3690.74 702.993,3691.1 704.011,3691.1 C 705.028,3691.1 705.896,3690.74 706.615,3690.02 Z M 711.376,3687.42 C 711.376,3688.47 711.217,3689.32 710.901,3690 L 705.667,3701.11 C 705.512,3701.43 705.283,3701.68 704.981,3701.86 C 704.68,3702.04 704.355,3702.13 704.011,3702.13 C 703.665,3702.13 703.34,3702.04 703.04,3701.86 C 702.737,3701.68 702.513,3701.43 702.369,3701.11 L 697.119,3690 C 696.804,3689.32 696.644,3688.47 696.644,3687.42 C 696.644,3685.39 697.364,3683.66 698.801,3682.22 C 700.241,3680.79 701.977,3680.07 704.011,3680.07 C 706.044,3680.07 707.78,3680.79 709.219,3682.22 C 710.657,3683.66 711.376,3685.39 711.376,3687.42 Z "/>
</svg>