<?xml version="1.0" encoding="UTF-8" standalone="no"?>
<svg version="1.1" xmlns="http://www.w3.org/2000/svg" xmlns:xlink="http://www.w3.org/1999/xlink" width="20.2107" height="20.2107">
	<path id="dp_path001" transform="matrix(1,0,0,1,-693.713,-3724.65)" fill="#d6d5e1" fill-rule="evenodd" stroke="none" stroke-width="0" d="M 709.439,3737.16 C 709.439,3736.71 709.351,3736.31 709.176,3735.94 C 709.001,3735.57 708.785,3735.26 708.528,3735.02 C 708.268,3734.78 707.941,3734.56 707.549,3734.36 C 707.156,3734.17 706.787,3734.02 706.443,3733.91 C 706.099,3733.8 705.708,3733.7 705.269,3733.6 L 703.876,3733.28 C 703.608,3733.22 703.411,3733.17 703.284,3733.14 C 703.161,3733.11 703.004,3733.06 702.817,3732.99 C 702.628,3732.92 702.495,3732.84 702.415,3732.77 C 702.335,3732.7 702.26,3732.61 702.193,3732.49 C 702.127,3732.37 702.092,3732.24 702.092,3732.09 C 702.092,3731.4 702.737,3731.06 704.024,3731.06 C 704.409,3731.06 704.749,3731.11 705.055,3731.22 C 705.359,3731.33 705.599,3731.45 705.78,3731.6 C 705.957,3731.75 706.127,3731.9 706.288,3732.05 C 706.451,3732.2 706.628,3732.33 706.824,3732.44 C 707.021,3732.54 707.236,3732.6 707.468,3732.6 C 707.888,3732.6 708.225,3732.46 708.48,3732.17 C 708.735,3731.88 708.863,3731.54 708.863,3731.14 C 708.863,3730.65 708.613,3730.21 708.112,3729.81 C 707.612,3729.41 706.976,3729.11 706.208,3728.9 C 705.439,3728.7 704.627,3728.6 703.768,3728.6 C 703.161,3728.6 702.571,3728.66 701.999,3728.81 C 701.427,3728.94 700.893,3729.15 700.397,3729.43 C 699.9,3729.71 699.504,3730.1 699.204,3730.6 C 698.904,3731.09 698.756,3731.67 698.756,3732.32 C 698.756,3732.86 698.839,3733.34 699.008,3733.74 C 699.18,3734.15 699.429,3734.48 699.76,3734.75 C 700.089,3735.02 700.448,3735.23 700.833,3735.4 C 701.217,3735.57 701.679,3735.71 702.212,3735.84 L 704.171,3736.32 C 704.975,3736.51 705.476,3736.67 705.671,3736.8 C 705.957,3736.98 706.101,3737.25 706.101,3737.6 C 706.101,3737.95 705.923,3738.24 705.565,3738.46 C 705.207,3738.69 704.739,3738.81 704.157,3738.81 C 703.701,3738.81 703.292,3738.74 702.931,3738.59 C 702.569,3738.45 702.279,3738.28 702.06,3738.08 C 701.84,3737.88 701.639,3737.68 701.449,3737.48 C 701.261,3737.27 701.055,3737.1 700.833,3736.96 C 700.608,3736.82 700.368,3736.75 700.109,3736.75 C 699.661,3736.75 699.324,3736.88 699.096,3737.15 C 698.869,3737.42 698.756,3737.75 698.756,3738.15 C 698.756,3738.97 699.3,3739.67 700.391,3740.26 C 701.48,3740.84 702.78,3741.13 704.291,3741.13 C 704.943,3741.13 705.569,3741.05 706.167,3740.89 C 706.767,3740.72 707.316,3740.48 707.809,3740.17 C 708.305,3739.86 708.703,3739.44 708.997,3738.92 C 709.291,3738.4 709.439,3737.81 709.439,3737.16 Z M 714.307,3740.07 C 714.307,3741.49 713.803,3742.7 712.796,3743.7 C 711.792,3744.7 710.577,3745.2 709.157,3745.2 C 707.996,3745.2 706.951,3744.85 706.02,3744.13 C 705.333,3744.28 704.661,3744.35 704.011,3744.35 C 702.731,3744.35 701.511,3744.1 700.343,3743.6 C 699.177,3743.11 698.172,3742.44 697.327,3741.6 C 696.483,3740.76 695.812,3739.75 695.316,3738.59 C 694.819,3737.42 694.572,3736.2 694.572,3734.93 C 694.572,3734.27 694.643,3733.61 694.787,3732.92 C 694.073,3731.99 693.713,3730.95 693.713,3729.79 C 693.713,3728.37 694.217,3727.16 695.221,3726.15 C 696.228,3725.15 697.443,3724.65 698.861,3724.65 C 700.024,3724.65 701.069,3725.01 701.999,3725.72 C 702.687,3725.58 703.356,3725.51 704.011,3725.51 C 705.287,3725.51 706.511,3725.75 707.676,3726.25 C 708.841,3726.74 709.848,3727.41 710.692,3728.25 C 711.537,3729.1 712.208,3730.1 712.705,3731.27 C 713.197,3732.43 713.447,3733.65 713.447,3734.93 C 713.447,3735.58 713.375,3736.25 713.233,3736.93 C 713.948,3737.86 714.307,3738.9 714.307,3740.07 Z "/>
</svg>