<?xml version="1.0" encoding="UTF-8" standalone="no"?>
<svg version="1.1" xmlns="http://www.w3.org/2000/svg" xmlns:xlink="http://www.w3.org/1999/xlink" width="20.2107" height="20.2107">
	<defs>
		<clipPath id="clip_dp_001" clipPathUnits="userSpaceOnUse" clip-rule="nonzero">
			<path d="M 1161.2,136.815 L 1181.2,136.815 L 1181.2,156.813 L 1161.2,156.813 Z " clip-rule="nonzero"/>
		</clipPath>
	</defs>
	<g id="dp_dp001" transform="matrix(1,0,0,1,-1161.2,-136.815)" clip-path="url(#clip_dp_001)">
		<g id="clip">
			<path id="dp_path002" fill="white" stroke="none" stroke-width="0" d="M 1181.2,141.237 C 1180.46,141.565 1179.67,141.784 1178.84,141.881 C 1179.69,141.373 1180.34,140.569 1180.65,139.612 C 1179.86,140.08 1178.98,140.424 1178.04,140.607 C 1177.29,139.811 1176.23,139.316 1175.05,139.316 C 1172.78,139.316 1170.95,141.152 1170.95,143.417 C 1170.95,143.737 1170.98,144.048 1171.05,144.351 C 1167.64,144.177 1164.62,142.545 1162.6,140.063 C 1162.24,140.667 1162.04,141.373 1162.04,142.124 C 1162.04,143.545 1162.76,144.804 1163.86,145.536 C 1163.19,145.516 1162.56,145.329 1162,145.027 C 1162,145.041 1162,145.06 1162,145.076 C 1162,147.067 1163.42,148.725 1165.3,149.101 C 1164.95,149.195 1164.59,149.247 1164.21,149.247 C 1163.95,149.247 1163.69,149.217 1163.44,149.171 C 1163.96,150.801 1165.48,151.988 1167.27,152.023 C 1165.87,153.124 1164.1,153.781 1162.18,153.781 C 1161.84,153.781 1161.52,153.761 1161.2,153.721 C 1163.02,154.889 1165.17,155.565 1167.49,155.565 C 1175.03,155.565 1179.16,149.311 1179.16,143.891 C 1179.16,143.711 1179.16,143.535 1179.15,143.359 C 1179.95,142.785 1180.65,142.061 1181.2,141.237 Z "/>
		</g>
	</g>
</svg>