<?xml version="1.0" encoding="UTF-8" standalone="no"?>
<svg version="1.1" xmlns="http://www.w3.org/2000/svg" xmlns:xlink="http://www.w3.org/1999/xlink" width="287" height="101">
	<g id="dp_dp001" transform="matrix(1,0,0,1,0.00109795,46.6079)">
		<path id="dp_path002" fill="white" fill-rule="evenodd" stroke="none" stroke-width="0" d="M 30.172,-35.5147 L 30.5813,-29.956 L 29.9267,-30.4107 C 27.184,-32.284 24.3093,-33.2187 21.296,-33.2187 C 18.792,-33.2187 16.6307,-32.3347 14.8027,-30.56 C 12.9787,-28.7827 11.9147,-26.6467 11.6093,-24.1427 C 11.272,-21.3 11.1013,-19.4347 11.1013,-18.5333 C 11.1013,-14.4227 11.8973,-11.08 13.492,-8.50133 C 15.4493,-5.32533 18.3707,-3.73867 22.26,-3.73867 C 25.6107,-3.73867 28.5067,-5.07867 30.94,-7.75333 L 31.8453,-8.756 L 29.976,-2.992 C 26.688,-0.550667 23.02,0.668 18.9627,0.668 C 15.984,0.668 13.496,0.166667 11.5053,-0.838667 C 9.47733,-1.79867 7.56667,-3.468 5.772,-5.84267 C 3.20533,-9.252 1.92,-13.4467 1.92,-18.42 C 1.92,-22.0013 2.95067,-25.444 5.016,-28.7493 C 7.21067,-32.3547 9.98267,-34.5627 13.3293,-35.368 C 16.6467,-36.132 18.9293,-36.516 20.1773,-36.516 C 21.3253,-36.516 22.748,-36.3773 24.4387,-36.0987 L 25.716,-35.9187 L 26.88,-35.7107 L 27.3893,-35.6147 L 28.5533,-35.468 L 29.2587,-35.4187 L 29.4667,-35.4187 Z "/>
		<path id="dp_path003" fill="white" fill-rule="evenodd" stroke="none" stroke-width="0" d="M 56.312,-1.79867 L 56.5707,0 L 48.4667,0 L 48.5173,-2.90933 C 46.756,-0.642667 44.5067,0.492 41.768,0.492 C 41.564,0.525333 41.272,0.542667 40.9,0.542667 C 38.3627,0.542667 36.4813,-0.388 35.2587,-2.25333 C 34.6867,-3.12533 34.4027,-4.11067 34.4027,-5.208 C 34.4027,-7.27867 35.4333,-8.98133 37.5,-10.312 C 38.1,-10.712 39.336,-11.3093 41.2013,-12.1107 L 42.0027,-12.4613 L 45.2613,-14.064 C 47.3987,-15.0987 48.4667,-16.464 48.4667,-18.1667 L 48.4667,-19.8147 C 48.4667,-22.152 47.4853,-23.32 45.52,-23.32 C 44.536,-23.32 43.8213,-23.036 43.384,-22.464 C 43.112,-22.1347 42.7867,-21.4 42.416,-20.2733 L 42.152,-19.5187 C 41.956,-18.5587 41.164,-17.932 39.7733,-17.632 C 39.5027,-17.5653 39.2307,-17.532 38.96,-17.532 C 38.7933,-17.532 38.6227,-17.548 38.4507,-17.5813 C 36.56,-17.5813 35.6173,-18.4827 35.6173,-20.2813 C 35.6173,-22.152 36.9867,-23.616 39.728,-24.684 C 40.9427,-25.156 42.0733,-25.444 43.1253,-25.54 L 45.304,-25.74 C 45.6747,-25.7733 46.0133,-25.7907 46.3173,-25.7907 L 46.9267,-25.7907 C 53.0533,-25.7907 56.116,-23.9413 56.116,-20.24 L 56.116,-19.9307 Z M 48.5173,-13.476 L 47.2987,-12.52 L 46.7387,-12.1653 L 45.52,-11.4173 C 42.9787,-9.844 41.7067,-8.20933 41.7067,-6.50667 C 41.7067,-5.54267 41.9893,-4.728 42.5613,-4.06 C 43.112,-3.39333 43.8547,-3.05867 44.8027,-3.05867 C 45.5453,-3.05867 46.1427,-3.22533 46.5893,-3.56 L 47.3987,-4.156 C 47.912,-4.65333 48.2493,-5.23733 48.416,-5.90533 C 48.484,-6.176 48.5173,-6.72267 48.5173,-7.55733 Z "/>
		<path id="dp_path004" fill="white" fill-rule="evenodd" stroke="none" stroke-width="0" d="M 60.648,0 C 60.9867,-1.13467 61.1693,-2.38667 61.2027,-3.756 L 61.2533,-5.16267 L 61.2027,-21.4427 C 61.2027,-22.2093 61.036,-23.4787 60.6933,-25.248 L 68.848,-25.248 L 68.848,-21.384 L 69.1613,-21.8387 L 69.4707,-22.3387 C 71.6147,-24.948 73.6853,-26.2493 75.688,-26.2493 C 75.9267,-26.216 76.1133,-26.2 76.248,-26.2 L 75.6387,-22.844 C 75.4373,-21.7427 75.3373,-20.4027 75.3373,-18.8293 L 74.716,-19.1347 C 73.7013,-19.6307 72.7667,-19.8813 71.912,-19.8813 C 69.8373,-19.8813 68.7987,-18.4787 68.7987,-15.6747 L 68.848,-3.752 C 68.848,-2.492 69.036,-1.24 69.408,0 Z "/>
		<path id="dp_path005" fill="white" fill-rule="evenodd" stroke="none" stroke-width="0" d="M 77.536,0 C 77.6693,-0.434667 77.7867,-1.03067 77.8947,-1.79867 L 77.9453,-2.19867 L 78.0453,-6.01333 L 78.0453,-32.3507 C 78.0453,-33.7867 77.8733,-35.0213 77.536,-36.056 L 85.6573,-36.056 L 86.216,0 Z "/>
		<path id="dp_path006" fill="white" fill-rule="evenodd" stroke="none" stroke-width="0" d="M 104.448,0 C 104.887,-1.10133 105.153,-1.88667 105.253,-2.35733 C 105.329,-2.588 105.417,-3.372 105.517,-4.708 L 105.713,-7.06533 L 105.713,-7.76267 L 106.072,-27.8893 C 106.072,-28.3947 106.072,-28.8787 106.072,-29.3413 C 106.072,-29.9467 106.055,-30.3973 106.021,-30.6987 C 106.021,-30.8613 106.021,-30.944 106.021,-30.944 C 106.021,-30.944 106.021,-30.8947 106.021,-30.7987 L 106.021,-31.2987 L 105.972,-32.1547 L 105.813,-33.452 C 105.813,-34.388 105.513,-35.26 104.908,-36.056 L 114.903,-36.056 L 124.739,-12.3733 L 133.569,-36.056 L 143.911,-36.056 L 143.76,-35.652 L 143.66,-35.36 C 143.456,-34.788 143.335,-34.1373 143.301,-33.4027 L 143.251,-32.5467 L 143.201,-31.3493 L 143.105,-28.048 L 143.76,-7.00667 C 143.793,-6.444 143.981,-5.17467 144.32,-3.20533 C 144.691,-1.932 145.063,-0.864 145.433,0 L 135.235,0 C 135.443,-1.164 135.548,-2.4 135.548,-3.70533 C 135.548,-4.04 135.548,-4.37333 135.548,-4.708 L 135.497,-6.11333 L 135.435,-7.06933 L 135.435,-7.512 L 135.384,-7.76667 L 134.32,-26.2493 L 124.384,0 L 121.024,0 L 110.012,-26.3373 L 109.665,-4.708 C 109.665,-4.64 109.665,-4.57867 109.665,-4.51067 C 109.665,-3.10933 110.003,-1.60667 110.679,0 Z "/>
		<path id="dp_path007" fill="white" fill-rule="evenodd" stroke="none" stroke-width="0" d="M 169.688,-1.79867 L 169.947,0 L 161.843,0 L 161.893,-2.90933 C 160.132,-0.642667 157.883,0.492 155.144,0.492 C 154.94,0.525333 154.648,0.542667 154.276,0.542667 C 151.739,0.542667 149.857,-0.388 148.635,-2.25333 C 148.063,-3.12533 147.779,-4.11067 147.779,-5.208 C 147.779,-7.27867 148.809,-8.98133 150.876,-10.312 C 151.476,-10.712 152.712,-11.3093 154.577,-12.1107 L 155.379,-12.4613 L 158.637,-14.064 C 160.775,-15.0987 161.843,-16.464 161.843,-18.1667 L 161.843,-19.8147 C 161.843,-22.152 160.861,-23.32 158.896,-23.32 C 157.912,-23.32 157.197,-23.036 156.76,-22.464 C 156.488,-22.1347 156.163,-21.4 155.792,-20.2733 L 155.528,-19.5187 C 155.332,-18.5587 154.54,-17.932 153.149,-17.632 C 152.879,-17.5653 152.607,-17.532 152.336,-17.532 C 152.169,-17.532 151.999,-17.548 151.827,-17.5813 C 149.936,-17.5813 148.993,-18.4827 148.993,-20.2813 C 148.993,-22.152 150.363,-23.616 153.104,-24.684 C 154.319,-25.156 155.449,-25.444 156.501,-25.54 L 158.68,-25.74 C 159.051,-25.7733 159.389,-25.7907 159.693,-25.7907 L 160.303,-25.7907 C 166.429,-25.7907 169.492,-23.9413 169.492,-20.24 L 169.492,-19.9307 Z M 161.893,-13.476 L 160.675,-12.52 L 160.115,-12.1653 L 158.896,-11.4173 C 156.355,-9.844 155.083,-8.20933 155.083,-6.50667 C 155.083,-5.54267 155.365,-4.728 155.937,-4.06 C 156.488,-3.39333 157.231,-3.05867 158.179,-3.05867 C 158.921,-3.05867 159.519,-3.22533 159.965,-3.56 L 160.775,-4.156 C 161.288,-4.65333 161.625,-5.23733 161.792,-5.90533 C 161.86,-6.176 161.893,-6.72267 161.893,-7.55733 Z "/>
		<path id="dp_path008" fill="white" fill-rule="evenodd" stroke="none" stroke-width="0" d="M 174.028,0 C 174.337,-1.03467 174.504,-2.304 174.537,-3.80533 L 174.588,-5.56667 L 174.487,-23.4493 C 174.487,-23.884 174.4,-24.48 174.228,-25.248 L 182.141,-25.248 L 182.141,-22.6693 C 184.273,-24.752 187.015,-25.7907 190.367,-25.7907 C 192.565,-25.7907 194.323,-25.256 195.645,-24.188 C 197.097,-23.0573 197.824,-21.4373 197.824,-19.3347 L 197.824,-19.088 L 197.873,-12.2773 L 197.824,-9.76933 L 197.824,-5.56267 L 197.873,-5.16267 L 197.873,-3.80133 C 197.873,-2.37067 198.045,-1.10133 198.383,0 L 190.237,0 L 190.237,-14.7107 C 190.237,-19.3507 189.052,-21.672 186.681,-21.672 C 183.96,-21.672 182.449,-20.2027 182.141,-17.26 L 182.141,-13.7547 L 182.091,-3.752 C 182.091,-2.416 182.279,-1.164 182.651,0 Z "/>
		<path id="dp_path009" fill="white" fill-rule="evenodd" stroke="none" stroke-width="0" d="M 202.473,0 C 202.783,-1.03467 202.949,-2.304 202.983,-3.80533 L 203.033,-5.56667 L 202.932,-23.4493 C 202.932,-23.884 202.845,-24.48 202.673,-25.248 L 210.587,-25.248 L 210.587,-22.6693 C 212.719,-24.752 215.46,-25.7907 218.812,-25.7907 C 221.011,-25.7907 222.768,-25.256 224.091,-24.188 C 225.543,-23.0573 226.269,-21.4373 226.269,-19.3347 L 226.269,-19.088 L 226.319,-12.2773 L 226.269,-9.76933 L 226.269,-5.56267 L 226.319,-5.16267 L 226.319,-3.80133 C 226.319,-2.37067 226.491,-1.10133 226.828,0 L 218.683,0 L 218.683,-14.7107 C 218.683,-19.3507 217.497,-21.672 215.127,-21.672 C 212.405,-21.672 210.895,-20.2027 210.587,-17.26 L 210.587,-13.7547 L 210.536,-3.752 C 210.536,-2.416 210.724,-1.164 211.096,0 Z "/>
	</g>
	<g id="dp_dp010" transform="matrix(1,0,0,1,4.91351,93.6081)">
		<path id="dp_path011" fill="white" fill-rule="evenodd" stroke="none" stroke-width="0" d="M 13.1347,-4.38667 C 13.1347,-3.77867 13.0093,-3.21067 12.7627,-2.67867 C 12.5147,-2.148 12.1747,-1.68133 11.74,-1.284 C 11.3093,-0.884 10.8,-0.572 10.22,-0.342667 C 9.63733,-0.114667 9.01867,0 8.36,0 L 2.21733,0 L 2.21733,-17.864 L 8.36,-17.864 C 9.01867,-17.864 9.63733,-17.7507 10.22,-17.5213 C 10.8,-17.2933 11.3093,-16.9787 11.74,-16.5813 C 12.1747,-16.1813 12.5147,-15.716 12.7627,-15.18 C 13.0093,-14.644 13.1347,-14.0733 13.1347,-13.4667 Z M 11.3893,-13.4667 C 11.3893,-13.8667 11.3093,-14.236 11.1467,-14.5813 C 10.984,-14.928 10.76,-15.2293 10.4773,-15.4907 C 10.192,-15.752 9.86267,-15.9587 9.48933,-16.108 C 9.11467,-16.2587 8.71067,-16.3333 8.27867,-16.3333 L 3.96267,-16.3333 L 3.96267,-1.53333 L 8.27867,-1.53333 C 8.71067,-1.53333 9.11467,-1.608 9.48933,-1.756 C 9.86267,-1.90667 10.192,-2.10933 10.4773,-2.36667 C 10.76,-2.624 10.984,-2.92533 11.1467,-3.26933 C 11.3093,-3.61467 11.3893,-3.98667 11.3893,-4.38667 Z "/>
		<path id="dp_path012" fill="white" fill-rule="evenodd" stroke="none" stroke-width="0" d="M 25.952,-3.50133 C 25.952,-2.98533 25.8467,-2.5 25.6347,-2.04267 C 25.4227,-1.58667 25.1307,-1.188 24.7613,-0.848 C 24.3933,-0.506667 23.9587,-0.238667 23.464,-0.044 C 22.9667,0.150667 22.4387,0.249333 21.88,0.249333 L 20.772,0.249333 C 20.2133,0.249333 19.684,0.150667 19.188,-0.044 C 18.6933,-0.238667 18.2587,-0.506667 17.8893,-0.848 C 17.5213,-1.188 17.2307,-1.58667 17.0173,-2.04267 C 16.8053,-2.5 16.7013,-2.98533 16.7013,-3.50133 L 16.7013,-9.25733 C 16.7013,-9.772 16.8053,-10.256 17.0173,-10.7133 C 17.2307,-11.1707 17.5213,-11.568 17.8893,-11.9107 C 18.2587,-12.2507 18.6933,-12.5187 19.188,-12.7147 C 19.684,-12.908 20.2133,-13.0053 20.772,-13.0053 L 21.88,-13.0053 C 22.4387,-13.0053 22.9667,-12.908 23.464,-12.7147 C 23.9587,-12.5187 24.3933,-12.2507 24.7613,-11.9107 C 25.1307,-11.568 25.4227,-11.1707 25.6347,-10.7133 C 25.8467,-10.256 25.952,-9.772 25.952,-9.25733 L 25.952,-6.25333 L 18.364,-6.25333 L 18.364,-3.412 C 18.364,-3.10667 18.4267,-2.81733 18.552,-2.54667 C 18.68,-2.27733 18.8507,-2.04267 19.0667,-1.844 C 19.284,-1.644 19.5387,-1.48667 19.8307,-1.372 C 20.124,-1.25467 20.4387,-1.19733 20.772,-1.19733 L 21.88,-1.19733 C 22.2133,-1.19733 22.528,-1.25467 22.82,-1.372 C 23.1133,-1.48667 23.368,-1.644 23.5853,-1.844 C 23.8013,-2.04267 23.972,-2.27733 24.1,-2.54667 C 24.2253,-2.81733 24.2893,-3.10667 24.2893,-3.412 L 24.2893,-4.26133 L 25.952,-4.012 Z M 24.2893,-9.344 C 24.2893,-9.65067 24.2253,-9.94 24.1,-10.2093 C 23.972,-10.48 23.8013,-10.7133 23.5853,-10.9133 C 23.368,-11.1133 23.1133,-11.2707 22.82,-11.3853 C 22.528,-11.5027 22.2133,-11.5613 21.88,-11.5613 L 20.772,-11.5613 C 20.4387,-11.5613 20.124,-11.5027 19.8307,-11.3853 C 19.5387,-11.2707 19.284,-11.1133 19.0667,-10.9133 C 18.8507,-10.7133 18.68,-10.48 18.552,-10.2093 C 18.4267,-9.94 18.364,-9.65067 18.364,-9.344 L 18.364,-7.44933 L 24.2893,-7.44933 Z "/>
		<path id="dp_path013" fill="white" fill-rule="evenodd" stroke="none" stroke-width="0" d="M 33.6307,0 L 32.8053,0 L 27.8947,-12.756 L 29.5587,-12.756 L 33.1707,-3.08933 L 33.224,-2.43067 L 33.2773,-3.08933 L 36.8773,-12.756 L 38.54,-12.756 Z "/>
		<path id="dp_path014" fill="white" fill-rule="evenodd" stroke="none" stroke-width="0" d="M 49.6973,-3.50133 C 49.6973,-2.98533 49.592,-2.5 49.38,-2.04267 C 49.168,-1.58667 48.876,-1.188 48.5067,-0.848 C 48.1387,-0.506667 47.704,-0.238667 47.2093,-0.044 C 46.712,0.150667 46.184,0.249333 45.6253,0.249333 L 44.5173,0.249333 C 43.9587,0.249333 43.4293,0.150667 42.9333,-0.044 C 42.4387,-0.238667 42.004,-0.506667 41.6347,-0.848 C 41.2667,-1.188 40.976,-1.58667 40.7627,-2.04267 C 40.5507,-2.5 40.4467,-2.98533 40.4467,-3.50133 L 40.4467,-9.25733 C 40.4467,-9.772 40.5507,-10.256 40.7627,-10.7133 C 40.976,-11.1707 41.2667,-11.568 41.6347,-11.9107 C 42.004,-12.2507 42.4387,-12.5187 42.9333,-12.7147 C 43.4293,-12.908 43.9587,-13.0053 44.5173,-13.0053 L 45.6253,-13.0053 C 46.184,-13.0053 46.712,-12.908 47.2093,-12.7147 C 47.704,-12.5187 48.1387,-12.2507 48.5067,-11.9107 C 48.876,-11.568 49.168,-11.1707 49.38,-10.7133 C 49.592,-10.256 49.6973,-9.772 49.6973,-9.25733 L 49.6973,-6.25333 L 42.1093,-6.25333 L 42.1093,-3.412 C 42.1093,-3.10667 42.172,-2.81733 42.2973,-2.54667 C 42.4253,-2.27733 42.596,-2.04267 42.812,-1.844 C 43.0293,-1.644 43.284,-1.48667 43.576,-1.372 C 43.8693,-1.25467 44.184,-1.19733 44.5173,-1.19733 L 45.6253,-1.19733 C 45.9587,-1.19733 46.2733,-1.25467 46.5653,-1.372 C 46.8587,-1.48667 47.1133,-1.644 47.3307,-1.844 C 47.5467,-2.04267 47.7173,-2.27733 47.8453,-2.54667 C 47.9707,-2.81733 48.0347,-3.10667 48.0347,-3.412 L 48.0347,-4.26133 L 49.6973,-4.012 Z M 48.0347,-9.344 C 48.0347,-9.65067 47.9707,-9.94 47.8453,-10.2093 C 47.7173,-10.48 47.5467,-10.7133 47.3307,-10.9133 C 47.1133,-11.1133 46.8587,-11.2707 46.5653,-11.3853 C 46.2733,-11.5027 45.9587,-11.5613 45.6253,-11.5613 L 44.5173,-11.5613 C 44.184,-11.5613 43.8693,-11.5027 43.576,-11.3853 C 43.284,-11.2707 43.0293,-11.1133 42.812,-10.9133 C 42.596,-10.7133 42.4253,-10.48 42.2973,-10.2093 C 42.172,-9.94 42.1093,-9.65067 42.1093,-9.344 L 42.1093,-7.44933 L 48.0347,-7.44933 Z "/>
		<path id="dp_path015" fill="white" fill-rule="evenodd" stroke="none" stroke-width="0" d="M 53.5867,0 L 53.5867,-17.864 L 55.252,-17.864 L 55.252,0 Z "/>
		<path id="dp_path016" fill="white" fill-rule="evenodd" stroke="none" stroke-width="0" d="M 68.1373,-3.50133 C 68.1373,-2.98533 68.032,-2.5 67.82,-2.04267 C 67.608,-1.58667 67.316,-1.188 66.9467,-0.848 C 66.5787,-0.506667 66.144,-0.238667 65.6493,-0.044 C 65.152,0.150667 64.624,0.249333 64.0653,0.249333 L 62.9573,0.249333 C 62.3987,0.249333 61.8693,0.150667 61.3733,-0.044 C 60.8787,-0.238667 60.444,-0.506667 60.0747,-0.848 C 59.7067,-1.188 59.416,-1.58667 59.2027,-2.04267 C 58.9907,-2.5 58.8867,-2.98533 58.8867,-3.50133 L 58.8867,-9.25733 C 58.8867,-9.772 58.9907,-10.256 59.2027,-10.7133 C 59.416,-11.1707 59.7067,-11.568 60.0747,-11.9107 C 60.444,-12.2507 60.8787,-12.5187 61.3733,-12.7147 C 61.8693,-12.908 62.3987,-13.0053 62.9573,-13.0053 L 64.0653,-13.0053 C 64.624,-13.0053 65.152,-12.908 65.6493,-12.7147 C 66.144,-12.5187 66.5787,-12.2507 66.9467,-11.9107 C 67.316,-11.568 67.608,-11.1707 67.82,-10.7133 C 68.032,-10.256 68.1373,-9.772 68.1373,-9.25733 Z M 66.4747,-9.344 C 66.4747,-9.65067 66.4107,-9.94 66.2853,-10.2093 C 66.1573,-10.48 65.9867,-10.7133 65.7707,-10.9133 C 65.5533,-11.1133 65.2987,-11.2707 65.0053,-11.3853 C 64.7133,-11.5027 64.3987,-11.5613 64.0653,-11.5613 L 62.9573,-11.5613 C 62.624,-11.5613 62.3093,-11.5027 62.016,-11.3853 C 61.724,-11.2707 61.4693,-11.1133 61.252,-10.9133 C 61.036,-10.7133 60.8653,-10.48 60.7373,-10.2093 C 60.612,-9.94 60.5493,-9.65067 60.5493,-9.344 L 60.5493,-3.412 C 60.5493,-3.10667 60.612,-2.81733 60.7373,-2.54667 C 60.8653,-2.27733 61.036,-2.04267 61.252,-1.844 C 61.4693,-1.644 61.724,-1.48667 62.016,-1.372 C 62.3093,-1.25467 62.624,-1.19733 62.9573,-1.19733 L 64.0653,-1.19733 C 64.3987,-1.19733 64.7133,-1.25467 65.0053,-1.372 C 65.2987,-1.48667 65.5533,-1.644 65.7707,-1.844 C 65.9867,-2.04267 66.1573,-2.27733 66.2853,-2.54667 C 66.4107,-2.81733 66.4747,-3.10667 66.4747,-3.412 Z "/>
		<path id="dp_path017" fill="white" fill-rule="evenodd" stroke="none" stroke-width="0" d="M 80.7253,-3.50133 C 80.7253,-2.98533 80.62,-2.5 80.408,-2.04267 C 80.196,-1.58667 79.904,-1.188 79.5347,-0.848 C 79.1667,-0.506667 78.732,-0.238667 78.2373,-0.044 C 77.74,0.150667 77.212,0.249333 76.6533,0.249333 L 76.2347,0.249333 C 75.612,0.249333 75.0347,0.132 74.504,-0.1 C 73.9707,-0.332 73.5147,-0.657333 73.1373,-1.072 L 73.1373,5.10667 L 71.4747,5.10667 L 71.4747,-12.756 L 72.0267,-12.756 L 72.9347,-11.4613 C 73.3133,-11.9333 73.7893,-12.3107 74.3613,-12.5893 C 74.9333,-12.8667 75.5587,-13.0053 76.2347,-13.0053 L 76.6533,-13.0053 C 77.212,-13.0053 77.74,-12.908 78.2373,-12.7147 C 78.732,-12.5187 79.1667,-12.2507 79.5347,-11.9107 C 79.904,-11.568 80.196,-11.1707 80.408,-10.7133 C 80.62,-10.256 80.7253,-9.772 80.7253,-9.25733 Z M 79.0627,-9.344 C 79.0627,-9.65067 78.9987,-9.94 78.8733,-10.2093 C 78.7453,-10.48 78.5747,-10.7133 78.3587,-10.9133 C 78.1413,-11.1133 77.8867,-11.2707 77.5933,-11.3853 C 77.3013,-11.5027 76.9867,-11.5613 76.6533,-11.5613 L 75.5453,-11.5613 C 75.212,-11.5613 74.8973,-11.5027 74.604,-11.3853 C 74.312,-11.2707 74.0573,-11.1133 73.84,-10.9133 C 73.624,-10.7133 73.4533,-10.48 73.3253,-10.2093 C 73.2,-9.94 73.1373,-9.65067 73.1373,-9.344 L 73.1373,-3.412 C 73.1373,-3.10667 73.2,-2.81733 73.3253,-2.54667 C 73.4533,-2.27733 73.624,-2.04267 73.84,-1.844 C 74.0573,-1.644 74.312,-1.48667 74.604,-1.372 C 74.8973,-1.25467 75.212,-1.19733 75.5453,-1.19733 L 76.6533,-1.19733 C 76.9867,-1.19733 77.3013,-1.25467 77.5933,-1.372 C 77.8867,-1.48667 78.1413,-1.644 78.3587,-1.844 C 78.5747,-2.04267 78.7453,-2.27733 78.8733,-2.54667 C 78.9987,-2.81733 79.0627,-3.10667 79.0627,-3.412 Z "/>
		<path id="dp_path018" fill="white" fill-rule="evenodd" stroke="none" stroke-width="0" d="M 93.3133,-3.50133 C 93.3133,-2.98533 93.208,-2.5 92.996,-2.04267 C 92.784,-1.58667 92.492,-1.188 92.1227,-0.848 C 91.7547,-0.506667 91.32,-0.238667 90.8253,-0.044 C 90.328,0.150667 89.8,0.249333 89.2413,0.249333 L 88.1333,0.249333 C 87.5747,0.249333 87.0453,0.150667 86.5493,-0.044 C 86.0547,-0.238667 85.62,-0.506667 85.2507,-0.848 C 84.8827,-1.188 84.592,-1.58667 84.3787,-2.04267 C 84.1667,-2.5 84.0627,-2.98533 84.0627,-3.50133 L 84.0627,-9.25733 C 84.0627,-9.772 84.1667,-10.256 84.3787,-10.7133 C 84.592,-11.1707 84.8827,-11.568 85.2507,-11.9107 C 85.62,-12.2507 86.0547,-12.5187 86.5493,-12.7147 C 87.0453,-12.908 87.5747,-13.0053 88.1333,-13.0053 L 89.2413,-13.0053 C 89.8,-13.0053 90.328,-12.908 90.8253,-12.7147 C 91.32,-12.5187 91.7547,-12.2507 92.1227,-11.9107 C 92.492,-11.568 92.784,-11.1707 92.996,-10.7133 C 93.208,-10.256 93.3133,-9.772 93.3133,-9.25733 L 93.3133,-6.25333 L 85.7253,-6.25333 L 85.7253,-3.412 C 85.7253,-3.10667 85.788,-2.81733 85.9133,-2.54667 C 86.0413,-2.27733 86.212,-2.04267 86.428,-1.844 C 86.6453,-1.644 86.9,-1.48667 87.192,-1.372 C 87.4853,-1.25467 87.8,-1.19733 88.1333,-1.19733 L 89.2413,-1.19733 C 89.5747,-1.19733 89.8893,-1.25467 90.1813,-1.372 C 90.4747,-1.48667 90.7293,-1.644 90.9467,-1.844 C 91.1627,-2.04267 91.3333,-2.27733 91.4613,-2.54667 C 91.5867,-2.81733 91.6507,-3.10667 91.6507,-3.412 L 91.6507,-4.26133 L 93.3133,-4.012 Z M 91.6507,-9.344 C 91.6507,-9.65067 91.5867,-9.94 91.4613,-10.2093 C 91.3333,-10.48 91.1627,-10.7133 90.9467,-10.9133 C 90.7293,-11.1133 90.4747,-11.2707 90.1813,-11.3853 C 89.8893,-11.5027 89.5747,-11.5613 89.2413,-11.5613 L 88.1333,-11.5613 C 87.8,-11.5613 87.4853,-11.5027 87.192,-11.3853 C 86.9,-11.2707 86.6453,-11.1133 86.428,-10.9133 C 86.212,-10.7133 86.0413,-10.48 85.9133,-10.2093 C 85.788,-9.94 85.7253,-9.65067 85.7253,-9.344 L 85.7253,-7.44933 L 91.6507,-7.44933 Z "/>
		<path id="dp_path019" fill="white" fill-rule="evenodd" stroke="none" stroke-width="0" d="M 100.721,-11.3 C 100.388,-11.3 100.073,-11.2413 99.78,-11.1253 C 99.488,-11.0093 99.2333,-10.852 99.016,-10.652 C 98.8,-10.452 98.6293,-10.2187 98.5013,-9.948 C 98.376,-9.67867 98.3133,-9.38933 98.3133,-9.08267 L 98.3133,0 L 96.6507,0 L 96.6507,-12.756 L 97.2027,-12.756 L 98.1107,-11.4613 C 98.4893,-11.9333 98.9653,-12.3107 99.5373,-12.5893 C 100.109,-12.8667 100.735,-13.0053 101.411,-13.0053 L 102.384,-13.0053 L 102.384,-11.3 Z "/>
		<path id="dp_path020" fill="white" fill-rule="evenodd" stroke="none" stroke-width="0" d="M 124.112,0.249333 C 123.328,0.249333 122.643,0.096 122.063,-0.212 C 121.48,-0.518667 121.019,-0.933333 120.676,-1.45867 C 120.224,-0.933333 119.671,-0.518667 119.012,-0.212 C 118.352,0.096 117.64,0.249333 116.875,0.249333 L 116.051,0.249333 C 115.391,0.249333 114.771,0.133333 114.189,-0.0933333 C 113.607,-0.321333 113.101,-0.636 112.668,-1.03333 C 112.233,-1.43333 111.893,-1.89867 111.647,-2.43067 C 111.399,-2.96133 111.275,-3.52933 111.275,-4.13467 L 111.275,-5.10667 C 111.275,-5.532 111.335,-5.936 111.457,-6.32267 C 111.579,-6.708 111.753,-7.06667 111.979,-7.39867 C 112.204,-7.732 112.469,-8.032 112.776,-8.30267 C 113.081,-8.572 113.424,-8.8 113.805,-8.98267 C 113.424,-9.16533 113.081,-9.39067 112.776,-9.66133 C 112.469,-9.93067 112.204,-10.2333 111.979,-10.564 C 111.753,-10.896 111.579,-11.256 111.457,-11.6427 C 111.335,-12.028 111.275,-12.4333 111.275,-12.856 L 111.275,-13.728 C 111.275,-14.3347 111.399,-14.904 111.647,-15.436 C 111.893,-15.9667 112.233,-16.4333 112.668,-16.8307 C 113.101,-17.2307 113.607,-17.5427 114.189,-17.7707 C 114.771,-18 115.391,-18.1147 116.051,-18.1147 L 116.875,-18.1147 C 117.532,-18.1147 118.151,-18 118.727,-17.7707 C 119.305,-17.5427 119.809,-17.2307 120.243,-16.8307 C 120.676,-16.4333 121.016,-15.9667 121.263,-15.436 C 121.512,-14.904 121.635,-14.3347 121.635,-13.728 L 121.635,-13.6027 L 119.892,-13.3413 L 119.892,-13.728 C 119.892,-14.128 119.809,-14.4973 119.648,-14.8427 C 119.485,-15.1893 119.265,-15.4893 118.984,-15.7453 C 118.705,-16.0027 118.379,-16.208 118.004,-16.356 C 117.629,-16.5067 117.225,-16.5813 116.795,-16.5813 L 116.131,-16.5813 C 115.697,-16.5813 115.293,-16.5067 114.919,-16.356 C 114.545,-16.208 114.217,-16.0027 113.932,-15.7453 C 113.648,-15.4893 113.424,-15.1893 113.263,-14.8427 C 113.101,-14.4973 113.02,-14.128 113.02,-13.728 L 113.02,-12.608 C 113.02,-12.208 113.101,-11.836 113.263,-11.492 C 113.424,-11.1467 113.648,-10.8453 113.932,-10.584 C 114.217,-10.3227 114.545,-10.116 114.919,-9.96667 C 115.293,-9.816 115.697,-9.74133 116.131,-9.74133 L 119.892,-9.74133 L 119.892,-11.3747 L 121.635,-11.636 L 121.635,-9.768 L 124.327,-9.768 L 124.327,-8.24667 L 121.635,-8.24667 L 121.635,-3.95067 C 121.655,-3.576 121.719,-3.228 121.824,-2.90267 C 121.933,-2.57867 122.095,-2.29467 122.305,-2.04933 C 122.517,-1.80533 122.781,-1.61333 123.096,-1.476 C 123.413,-1.34 123.779,-1.272 124.193,-1.272 L 124.599,-1.272 L 124.355,0.249333 Z M 116.795,-1.272 C 117.209,-1.272 117.6,-1.34133 117.969,-1.48133 C 118.34,-1.624 118.663,-1.81733 118.937,-2.06933 C 119.212,-2.31733 119.435,-2.60933 119.607,-2.94 C 119.779,-3.272 119.873,-3.62933 119.892,-4.012 L 119.892,-8.20933 L 116.131,-8.20933 C 115.697,-8.20933 115.293,-8.13467 114.919,-7.98533 C 114.545,-7.83733 114.217,-7.63333 113.932,-7.376 C 113.648,-7.11867 113.424,-6.816 113.263,-6.472 C 113.101,-6.128 113.02,-5.756 113.02,-5.35733 L 113.02,-4.13467 C 113.02,-3.73733 113.101,-3.36533 113.263,-3.02133 C 113.424,-2.67733 113.648,-2.37333 113.932,-2.11067 C 114.217,-1.84933 114.545,-1.644 114.919,-1.49467 C 115.293,-1.34533 115.697,-1.272 116.131,-1.272 Z "/>
		<path id="dp_path021" fill="white" fill-rule="evenodd" stroke="none" stroke-width="0" d="M 145.799,-4.13467 C 145.799,-3.52933 145.667,-2.96133 145.399,-2.43067 C 145.133,-1.89867 144.777,-1.43333 144.331,-1.03333 C 143.885,-0.636 143.365,-0.321333 142.775,-0.0933333 C 142.184,0.133333 141.561,0.249333 140.901,0.249333 L 139.509,0.249333 C 138.851,0.249333 138.225,0.133333 137.636,-0.0933333 C 137.045,-0.321333 136.527,-0.636 136.08,-1.03333 C 135.633,-1.43333 135.276,-1.89867 135.011,-2.43067 C 134.744,-2.96133 134.613,-3.52933 134.613,-4.13467 L 134.613,-4.84533 L 136.356,-5.10667 L 136.356,-4.13467 C 136.356,-3.73733 136.445,-3.36533 136.62,-3.02133 C 136.796,-2.67733 137.032,-2.37333 137.329,-2.11067 C 137.628,-1.84933 137.975,-1.644 138.365,-1.49467 C 138.759,-1.34533 139.171,-1.272 139.603,-1.272 L 140.821,-1.272 C 141.252,-1.272 141.663,-1.34533 142.052,-1.49467 C 142.439,-1.644 142.781,-1.84933 143.079,-2.11067 C 143.376,-2.37333 143.615,-2.67733 143.789,-3.02133 C 143.965,-3.36533 144.053,-3.73733 144.053,-4.13467 L 144.053,-4.67067 C 144.053,-5.28533 143.923,-5.79733 143.661,-6.204 C 143.4,-6.61067 143.053,-6.95867 142.62,-7.244 C 142.185,-7.53067 141.697,-7.77333 141.152,-7.97333 C 140.607,-8.17333 140.045,-8.372 139.469,-8.57067 C 138.891,-8.77067 138.329,-8.99067 137.783,-9.232 C 137.239,-9.472 136.749,-9.77333 136.316,-10.1347 C 135.884,-10.496 135.536,-10.9387 135.273,-11.4613 C 135.012,-11.9853 134.883,-12.6293 134.883,-13.392 L 134.883,-13.728 C 134.883,-14.3347 135.007,-14.904 135.255,-15.436 C 135.501,-15.9667 135.841,-16.4333 136.276,-16.8307 C 136.709,-17.2307 137.215,-17.5427 137.797,-17.7707 C 138.379,-18 138.999,-18.1147 139.659,-18.1147 L 140.901,-18.1147 C 141.561,-18.1147 142.177,-18 142.756,-17.7707 C 143.332,-17.5427 143.837,-17.2307 144.269,-16.8307 C 144.703,-16.4333 145.044,-15.9667 145.292,-15.436 C 145.539,-14.904 145.664,-14.3347 145.664,-13.728 L 145.664,-13.2667 L 143.919,-13.0053 L 143.919,-13.728 C 143.919,-14.128 143.837,-14.4973 143.675,-14.8427 C 143.512,-15.1893 143.292,-15.4893 143.013,-15.7453 C 142.732,-16.0027 142.405,-16.208 142.031,-16.356 C 141.656,-16.5067 141.252,-16.5813 140.821,-16.5813 L 139.739,-16.5813 C 139.305,-16.5813 138.901,-16.5067 138.527,-16.356 C 138.153,-16.208 137.825,-16.0027 137.54,-15.7453 C 137.256,-15.4893 137.032,-15.1893 136.871,-14.8427 C 136.709,-14.4973 136.628,-14.128 136.628,-13.728 L 136.628,-13.392 C 136.628,-12.8187 136.757,-12.3373 137.02,-11.9467 C 137.281,-11.5573 137.628,-11.2213 138.061,-10.9453 C 138.495,-10.6667 138.984,-10.424 139.528,-10.2227 C 140.075,-10.0187 140.636,-9.80933 141.212,-9.6 C 141.791,-9.38667 142.352,-9.15467 142.896,-8.90267 C 143.443,-8.64667 143.932,-8.336 144.365,-7.96667 C 144.797,-7.596 145.145,-7.14533 145.407,-6.61467 C 145.668,-6.08267 145.799,-5.436 145.799,-4.67067 Z "/>
		<path id="dp_path022" fill="white" fill-rule="evenodd" stroke="none" stroke-width="0" d="M 157.667,0 L 156.747,-1.29467 C 156.368,-0.822667 155.893,-0.446667 155.325,-0.168 C 154.759,0.110667 154.135,0.249333 153.459,0.249333 L 153.04,0.249333 C 152.481,0.249333 151.952,0.150667 151.456,-0.044 C 150.961,-0.238667 150.527,-0.506667 150.157,-0.848 C 149.789,-1.188 149.499,-1.58667 149.285,-2.04267 C 149.073,-2.5 148.969,-2.98533 148.969,-3.50133 L 148.969,-12.756 L 150.632,-12.756 L 150.632,-3.412 C 150.632,-3.10667 150.695,-2.81733 150.82,-2.54667 C 150.948,-2.27733 151.119,-2.04267 151.335,-1.844 C 151.552,-1.644 151.807,-1.48667 152.099,-1.372 C 152.392,-1.25467 152.707,-1.19733 153.04,-1.19733 L 154.148,-1.19733 C 154.481,-1.19733 154.796,-1.25467 155.088,-1.372 C 155.381,-1.48667 155.636,-1.644 155.853,-1.844 C 156.069,-2.04267 156.24,-2.27733 156.368,-2.54667 C 156.493,-2.81733 156.557,-3.10667 156.557,-3.412 L 156.557,-12.756 L 158.22,-12.756 L 158.22,0 Z "/>
		<path id="dp_path023" fill="white" fill-rule="evenodd" stroke="none" stroke-width="0" d="M 170.808,-3.50133 C 170.808,-2.98533 170.703,-2.5 170.491,-2.04267 C 170.279,-1.58667 169.987,-1.188 169.617,-0.848 C 169.249,-0.506667 168.815,-0.238667 168.32,-0.044 C 167.823,0.150667 167.295,0.249333 166.736,0.249333 L 166.317,0.249333 C 165.695,0.249333 165.117,0.132 164.587,-0.1 C 164.053,-0.332 163.597,-0.657333 163.22,-1.072 L 163.22,5.10667 L 161.557,5.10667 L 161.557,-12.756 L 162.109,-12.756 L 163.017,-11.4613 C 163.396,-11.9333 163.872,-12.3107 164.444,-12.5893 C 165.016,-12.8667 165.641,-13.0053 166.317,-13.0053 L 166.736,-13.0053 C 167.295,-13.0053 167.823,-12.908 168.32,-12.7147 C 168.815,-12.5187 169.249,-12.2507 169.617,-11.9107 C 169.987,-11.568 170.279,-11.1707 170.491,-10.7133 C 170.703,-10.256 170.808,-9.772 170.808,-9.25733 Z M 169.145,-9.344 C 169.145,-9.65067 169.081,-9.94 168.956,-10.2093 C 168.828,-10.48 168.657,-10.7133 168.441,-10.9133 C 168.224,-11.1133 167.969,-11.2707 167.676,-11.3853 C 167.384,-11.5027 167.069,-11.5613 166.736,-11.5613 L 165.628,-11.5613 C 165.295,-11.5613 164.98,-11.5027 164.687,-11.3853 C 164.395,-11.2707 164.14,-11.1133 163.923,-10.9133 C 163.707,-10.7133 163.536,-10.48 163.408,-10.2093 C 163.283,-9.94 163.22,-9.65067 163.22,-9.344 L 163.22,-3.412 C 163.22,-3.10667 163.283,-2.81733 163.408,-2.54667 C 163.536,-2.27733 163.707,-2.04267 163.923,-1.844 C 164.14,-1.644 164.395,-1.48667 164.687,-1.372 C 164.98,-1.25467 165.295,-1.19733 165.628,-1.19733 L 166.736,-1.19733 C 167.069,-1.19733 167.384,-1.25467 167.676,-1.372 C 167.969,-1.48667 168.224,-1.644 168.441,-1.844 C 168.657,-2.04267 168.828,-2.27733 168.956,-2.54667 C 169.081,-2.81733 169.145,-3.10667 169.145,-3.412 Z "/>
		<path id="dp_path024" fill="white" fill-rule="evenodd" stroke="none" stroke-width="0" d="M 183.396,-3.50133 C 183.396,-2.98533 183.291,-2.5 183.079,-2.04267 C 182.867,-1.58667 182.575,-1.188 182.205,-0.848 C 181.837,-0.506667 181.403,-0.238667 180.908,-0.044 C 180.411,0.150667 179.883,0.249333 179.324,0.249333 L 178.905,0.249333 C 178.283,0.249333 177.705,0.132 177.175,-0.1 C 176.641,-0.332 176.185,-0.657333 175.808,-1.072 L 175.808,5.10667 L 174.145,5.10667 L 174.145,-12.756 L 174.697,-12.756 L 175.605,-11.4613 C 175.984,-11.9333 176.46,-12.3107 177.032,-12.5893 C 177.604,-12.8667 178.229,-13.0053 178.905,-13.0053 L 179.324,-13.0053 C 179.883,-13.0053 180.411,-12.908 180.908,-12.7147 C 181.403,-12.5187 181.837,-12.2507 182.205,-11.9107 C 182.575,-11.568 182.867,-11.1707 183.079,-10.7133 C 183.291,-10.256 183.396,-9.772 183.396,-9.25733 Z M 181.733,-9.344 C 181.733,-9.65067 181.669,-9.94 181.544,-10.2093 C 181.416,-10.48 181.245,-10.7133 181.029,-10.9133 C 180.812,-11.1133 180.557,-11.2707 180.264,-11.3853 C 179.972,-11.5027 179.657,-11.5613 179.324,-11.5613 L 178.216,-11.5613 C 177.883,-11.5613 177.568,-11.5027 177.275,-11.3853 C 176.983,-11.2707 176.728,-11.1133 176.511,-10.9133 C 176.295,-10.7133 176.124,-10.48 175.996,-10.2093 C 175.871,-9.94 175.808,-9.65067 175.808,-9.344 L 175.808,-3.412 C 175.808,-3.10667 175.871,-2.81733 175.996,-2.54667 C 176.124,-2.27733 176.295,-2.04267 176.511,-1.844 C 176.728,-1.644 176.983,-1.48667 177.275,-1.372 C 177.568,-1.25467 177.883,-1.19733 178.216,-1.19733 L 179.324,-1.19733 C 179.657,-1.19733 179.972,-1.25467 180.264,-1.372 C 180.557,-1.48667 180.812,-1.644 181.029,-1.844 C 181.245,-2.04267 181.416,-2.27733 181.544,-2.54667 C 181.669,-2.81733 181.733,-3.10667 181.733,-3.412 Z "/>
		<path id="dp_path025" fill="white" fill-rule="evenodd" stroke="none" stroke-width="0" d="M 195.984,-3.50133 C 195.984,-2.98533 195.879,-2.5 195.667,-2.04267 C 195.455,-1.58667 195.163,-1.188 194.793,-0.848 C 194.425,-0.506667 193.991,-0.238667 193.496,-0.044 C 192.999,0.150667 192.471,0.249333 191.912,0.249333 L 190.804,0.249333 C 190.245,0.249333 189.716,0.150667 189.22,-0.044 C 188.725,-0.238667 188.291,-0.506667 187.921,-0.848 C 187.553,-1.188 187.263,-1.58667 187.049,-2.04267 C 186.837,-2.5 186.733,-2.98533 186.733,-3.50133 L 186.733,-9.25733 C 186.733,-9.772 186.837,-10.256 187.049,-10.7133 C 187.263,-11.1707 187.553,-11.568 187.921,-11.9107 C 188.291,-12.2507 188.725,-12.5187 189.22,-12.7147 C 189.716,-12.908 190.245,-13.0053 190.804,-13.0053 L 191.912,-13.0053 C 192.471,-13.0053 192.999,-12.908 193.496,-12.7147 C 193.991,-12.5187 194.425,-12.2507 194.793,-11.9107 C 195.163,-11.568 195.455,-11.1707 195.667,-10.7133 C 195.879,-10.256 195.984,-9.772 195.984,-9.25733 Z M 194.321,-9.344 C 194.321,-9.65067 194.257,-9.94 194.132,-10.2093 C 194.004,-10.48 193.833,-10.7133 193.617,-10.9133 C 193.4,-11.1133 193.145,-11.2707 192.852,-11.3853 C 192.56,-11.5027 192.245,-11.5613 191.912,-11.5613 L 190.804,-11.5613 C 190.471,-11.5613 190.156,-11.5027 189.863,-11.3853 C 189.571,-11.2707 189.316,-11.1133 189.099,-10.9133 C 188.883,-10.7133 188.712,-10.48 188.584,-10.2093 C 188.459,-9.94 188.396,-9.65067 188.396,-9.344 L 188.396,-3.412 C 188.396,-3.10667 188.459,-2.81733 188.584,-2.54667 C 188.712,-2.27733 188.883,-2.04267 189.099,-1.844 C 189.316,-1.644 189.571,-1.48667 189.863,-1.372 C 190.156,-1.25467 190.471,-1.19733 190.804,-1.19733 L 191.912,-1.19733 C 192.245,-1.19733 192.56,-1.25467 192.852,-1.372 C 193.145,-1.48667 193.4,-1.644 193.617,-1.844 C 193.833,-2.04267 194.004,-2.27733 194.132,-2.54667 C 194.257,-2.81733 194.321,-3.10667 194.321,-3.412 Z "/>
		<path id="dp_path026" fill="white" fill-rule="evenodd" stroke="none" stroke-width="0" d="M 203.392,-11.3 C 203.059,-11.3 202.744,-11.2413 202.451,-11.1253 C 202.159,-11.0093 201.904,-10.852 201.687,-10.652 C 201.471,-10.452 201.3,-10.2187 201.172,-9.948 C 201.047,-9.67867 200.984,-9.38933 200.984,-9.08267 L 200.984,0 L 199.321,0 L 199.321,-12.756 L 199.873,-12.756 L 200.781,-11.4613 C 201.16,-11.9333 201.636,-12.3107 202.208,-12.5893 C 202.78,-12.8667 203.405,-13.0053 204.081,-13.0053 L 205.055,-13.0053 L 205.055,-11.3 Z "/>
		<path id="dp_path027" fill="white" fill-rule="evenodd" stroke="none" stroke-width="0" d="M 212.327,0 C 211.82,0 211.344,-0.0866667 210.897,-0.261333 C 210.453,-0.436 210.064,-0.676 209.735,-0.984 C 209.407,-1.29067 209.145,-1.648 208.949,-2.056 C 208.756,-2.46267 208.66,-2.89733 208.66,-3.364 L 208.66,-11.3 L 206.171,-11.3 L 206.171,-12.756 L 208.66,-12.756 L 208.66,-15.82 L 210.323,-16.0707 L 210.323,-12.756 L 213.84,-12.756 L 213.84,-11.3 L 210.323,-11.3 L 210.323,-3.28933 C 210.323,-3.032 210.375,-2.79333 210.479,-2.572 C 210.583,-2.352 210.725,-2.16 210.905,-1.99467 C 211.084,-1.82667 211.297,-1.696 211.541,-1.60133 C 211.784,-1.50533 212.045,-1.45867 212.327,-1.45867 L 213.84,-1.45867 L 213.84,0 Z "/>
		<path id="dp_path028" fill="white" fill-rule="evenodd" stroke="none" stroke-width="0" d="M 231.099,-4.16133 L 224.959,-4.16133 L 223.688,0 L 221.875,0 L 227.555,-17.864 L 228.476,-17.864 L 234.184,0 L 232.385,0 Z M 225.431,-5.69333 L 230.64,-5.69333 L 228.084,-13.928 L 228.029,-14.5867 L 227.976,-13.928 Z "/>
		<path id="dp_path029" fill="white" fill-rule="evenodd" stroke="none" stroke-width="0" d="M 245.515,1.608 C 245.515,2.12133 245.408,2.596 245.195,3.028 C 244.985,3.45867 244.693,3.82933 244.324,4.13467 C 243.953,4.444 243.523,4.68133 243.024,4.852 C 242.529,5.02133 242.001,5.10667 241.443,5.10667 L 240.752,5.10667 C 240.195,5.10667 239.665,5.02133 239.169,4.852 C 238.675,4.68133 238.241,4.444 237.871,4.13467 C 237.501,3.82933 237.212,3.45867 236.999,3.028 C 236.787,2.596 236.68,2.12133 236.68,1.608 L 236.68,1.556 C 236.68,1.05867 236.78,0.601333 236.977,0.186667 C 237.177,-0.229333 237.448,-0.589333 237.791,-0.897333 C 237.359,-1.13733 237.012,-1.46533 236.755,-1.87467 C 236.497,-2.28533 236.369,-2.74 236.369,-3.23867 C 236.369,-3.68667 236.473,-4.10533 236.68,-4.49067 C 236.888,-4.87733 237.173,-5.18933 237.533,-5.432 C 237.101,-5.78133 236.759,-6.2 236.505,-6.68933 C 236.253,-7.18 236.128,-7.716 236.128,-8.296 L 236.128,-9.25733 C 236.128,-9.772 236.232,-10.256 236.444,-10.7133 C 236.657,-11.1707 236.948,-11.568 237.316,-11.9107 C 237.685,-12.2507 238.12,-12.5187 238.615,-12.7147 C 239.111,-12.908 239.64,-13.0053 240.199,-13.0053 L 240.888,-13.0053 C 241.564,-13.0053 242.189,-12.8667 242.761,-12.5893 C 243.335,-12.3107 243.809,-11.9333 244.189,-11.4613 L 245.096,-12.756 L 245.651,-12.756 L 245.651,-8.296 C 245.651,-7.78133 245.544,-7.29733 245.332,-6.84 C 245.119,-6.38267 244.829,-5.98267 244.46,-5.64267 C 244.089,-5.30267 243.656,-5.03467 243.16,-4.83867 C 242.665,-4.64533 242.137,-4.548 241.579,-4.548 L 239.169,-4.548 C 238.98,-4.548 238.8,-4.512 238.629,-4.44133 C 238.457,-4.37067 238.307,-4.27733 238.175,-4.16133 C 238.045,-4.044 237.943,-3.90533 237.871,-3.744 C 237.799,-3.58267 237.763,-3.41467 237.763,-3.23867 C 237.763,-3.064 237.799,-2.89733 237.871,-2.74 C 237.943,-2.58267 238.045,-2.44267 238.175,-2.324 C 238.307,-2.20267 238.457,-2.10933 238.629,-2.04267 C 238.8,-1.97733 238.98,-1.94267 239.169,-1.94267 L 241.443,-1.94267 C 242.001,-1.94267 242.529,-1.85867 243.024,-1.688 C 243.523,-1.51867 243.953,-1.28 244.324,-0.972 C 244.693,-0.665333 244.985,-0.296 245.195,0.136 C 245.408,0.568 245.515,1.04133 245.515,1.556 Z M 243.999,-9.344 C 243.999,-9.65067 243.936,-9.94 243.809,-10.2093 C 243.684,-10.48 243.509,-10.7133 243.288,-10.9133 C 243.067,-11.1133 242.812,-11.2707 242.519,-11.3853 C 242.225,-11.5027 241.912,-11.5613 241.579,-11.5613 L 240.199,-11.5613 C 239.865,-11.5613 239.551,-11.5027 239.257,-11.3853 C 238.965,-11.2707 238.711,-11.1133 238.493,-10.9133 C 238.277,-10.7133 238.107,-10.48 237.979,-10.2093 C 237.853,-9.94 237.791,-9.65067 237.791,-9.344 L 237.791,-8.20933 C 237.791,-7.90267 237.853,-7.61333 237.979,-7.344 C 238.107,-7.07333 238.277,-6.84 238.493,-6.64 C 238.711,-6.44 238.965,-6.28267 239.257,-6.16533 C 239.551,-6.05067 239.865,-5.992 240.199,-5.992 L 241.579,-5.992 C 241.912,-5.992 242.225,-6.05067 242.519,-6.16533 C 242.812,-6.28267 243.067,-6.44 243.288,-6.64 C 243.509,-6.84 243.684,-7.07333 243.809,-7.344 C 243.936,-7.61333 243.999,-7.90267 243.999,-8.20933 Z M 243.932,1.48133 C 243.932,1.176 243.868,0.9 243.743,0.654667 C 243.616,0.408 243.445,0.204 243.228,0.036 C 243.012,-0.129333 242.756,-0.257333 242.463,-0.349333 C 242.169,-0.44 241.857,-0.486667 241.524,-0.486667 L 240.671,-0.486667 C 240.337,-0.486667 240.024,-0.44 239.731,-0.349333 C 239.437,-0.257333 239.183,-0.129333 238.968,0.036 C 238.751,0.204 238.579,0.408 238.453,0.654667 C 238.328,0.9 238.264,1.176 238.264,1.48133 L 238.264,1.68133 C 238.264,1.99067 238.328,2.26267 238.453,2.504 C 238.579,2.74533 238.751,2.95067 238.968,3.12133 C 239.183,3.29067 239.437,3.42133 239.731,3.512 C 240.024,3.604 240.337,3.65067 240.671,3.65067 L 241.524,3.65067 C 241.857,3.65067 242.169,3.604 242.463,3.512 C 242.756,3.42133 243.012,3.29067 243.228,3.12133 C 243.445,2.95067 243.616,2.74533 243.743,2.504 C 243.868,2.26267 243.932,1.99067 243.932,1.68133 Z "/>
		<path id="dp_path030" fill="white" fill-rule="evenodd" stroke="none" stroke-width="0" d="M 257.967,-3.50133 C 257.967,-2.98533 257.861,-2.5 257.649,-2.04267 C 257.437,-1.58667 257.145,-1.188 256.776,-0.848 C 256.408,-0.506667 255.973,-0.238667 255.479,-0.044 C 254.981,0.150667 254.453,0.249333 253.895,0.249333 L 252.787,0.249333 C 252.228,0.249333 251.699,0.150667 251.203,-0.044 C 250.708,-0.238667 250.273,-0.506667 249.904,-0.848 C 249.536,-1.188 249.245,-1.58667 249.032,-2.04267 C 248.82,-2.5 248.716,-2.98533 248.716,-3.50133 L 248.716,-9.25733 C 248.716,-9.772 248.82,-10.256 249.032,-10.7133 C 249.245,-11.1707 249.536,-11.568 249.904,-11.9107 C 250.273,-12.2507 250.708,-12.5187 251.203,-12.7147 C 251.699,-12.908 252.228,-13.0053 252.787,-13.0053 L 253.895,-13.0053 C 254.453,-13.0053 254.981,-12.908 255.479,-12.7147 C 255.973,-12.5187 256.408,-12.2507 256.776,-11.9107 C 257.145,-11.568 257.437,-11.1707 257.649,-10.7133 C 257.861,-10.256 257.967,-9.772 257.967,-9.25733 L 257.967,-6.25333 L 250.379,-6.25333 L 250.379,-3.412 C 250.379,-3.10667 250.441,-2.81733 250.567,-2.54667 C 250.695,-2.27733 250.865,-2.04267 251.081,-1.844 C 251.299,-1.644 251.553,-1.48667 251.845,-1.372 C 252.139,-1.25467 252.453,-1.19733 252.787,-1.19733 L 253.895,-1.19733 C 254.228,-1.19733 254.543,-1.25467 254.835,-1.372 C 255.128,-1.48667 255.383,-1.644 255.6,-1.844 C 255.816,-2.04267 255.987,-2.27733 256.115,-2.54667 C 256.24,-2.81733 256.304,-3.10667 256.304,-3.412 L 256.304,-4.26133 L 257.967,-4.012 Z M 256.304,-9.344 C 256.304,-9.65067 256.24,-9.94 256.115,-10.2093 C 255.987,-10.48 255.816,-10.7133 255.6,-10.9133 C 255.383,-11.1133 255.128,-11.2707 254.835,-11.3853 C 254.543,-11.5027 254.228,-11.5613 253.895,-11.5613 L 252.787,-11.5613 C 252.453,-11.5613 252.139,-11.5027 251.845,-11.3853 C 251.553,-11.2707 251.299,-11.1133 251.081,-10.9133 C 250.865,-10.7133 250.695,-10.48 250.567,-10.2093 C 250.441,-9.94 250.379,-9.65067 250.379,-9.344 L 250.379,-7.44933 L 256.304,-7.44933 Z "/>
		<path id="dp_path031" fill="white" fill-rule="evenodd" stroke="none" stroke-width="0" d="M 268.892,0 L 268.892,-9.344 C 268.892,-9.65067 268.828,-9.94 268.703,-10.2093 C 268.575,-10.48 268.404,-10.7133 268.188,-10.9133 C 267.971,-11.1133 267.716,-11.2707 267.423,-11.3853 C 267.131,-11.5027 266.816,-11.5613 266.483,-11.5613 L 265.375,-11.5613 C 265.041,-11.5613 264.727,-11.5027 264.433,-11.3853 C 264.141,-11.2707 263.887,-11.1133 263.669,-10.9133 C 263.453,-10.7133 263.283,-10.48 263.155,-10.2093 C 263.029,-9.94 262.967,-9.65067 262.967,-9.344 L 262.967,0 L 261.304,0 L 261.304,-12.756 L 261.856,-12.756 L 262.764,-11.4613 C 263.143,-11.9333 263.619,-12.3107 264.191,-12.5893 C 264.763,-12.8667 265.388,-13.0053 266.064,-13.0053 L 266.483,-13.0053 C 267.041,-13.0053 267.569,-12.908 268.067,-12.7147 C 268.561,-12.5187 268.996,-12.2507 269.364,-11.9107 C 269.733,-11.568 270.025,-11.1707 270.237,-10.7133 C 270.449,-10.256 270.555,-9.772 270.555,-9.25733 L 270.555,0 Z "/>
		<path id="dp_path032" fill="white" fill-rule="evenodd" stroke="none" stroke-width="0" d="M 278.937,0 C 278.431,0 277.955,-0.0866667 277.508,-0.261333 C 277.064,-0.436 276.675,-0.676 276.345,-0.984 C 276.017,-1.29067 275.756,-1.648 275.56,-2.056 C 275.367,-2.46267 275.271,-2.89733 275.271,-3.364 L 275.271,-11.3 L 272.781,-11.3 L 272.781,-12.756 L 275.271,-12.756 L 275.271,-15.82 L 276.933,-16.0707 L 276.933,-12.756 L 280.451,-12.756 L 280.451,-11.3 L 276.933,-11.3 L 276.933,-3.28933 C 276.933,-3.032 276.985,-2.79333 277.089,-2.572 C 277.193,-2.352 277.336,-2.16 277.516,-1.99467 C 277.695,-1.82667 277.908,-1.696 278.152,-1.60133 C 278.395,-1.50533 278.656,-1.45867 278.937,-1.45867 L 280.451,-1.45867 L 280.451,0 Z "/>
	</g>
	<g id="dp_dp033" transform="matrix(1,0,0,1,-87.9893,-75.9213)">
		<path id="dp_path034" fill="none" fill-rule="evenodd" stroke="white" stroke-width="1.33333" stroke-linejoin="round" stroke-linecap="round" d="M 92.9027,135.612 L 320.357,135.612"/>
		<path id="dp_path035" fill="none" fill-rule="evenodd" stroke="white" stroke-width="2" stroke-linejoin="round" stroke-linecap="round" d="M 92.9027,139.749 L 320.357,139.749"/>
	</g>
</svg>