<?xml version="1.0" encoding="UTF-8" standalone="no"?>
<svg version="1.1" xmlns="http://www.w3.org/2000/svg" xmlns:xlink="http://www.w3.org/1999/xlink" width="249.6" height="405.221">
	<defs>
		<radialGradient id="grad_dp_001" gradientUnits="userSpaceOnUse" cx="1097.24" cy="365.902" r="99.7501">
			<stop offset="0" stop-color="#cfcfcf"/>
			<stop offset="1" stop-color="white"/>
		</radialGradient>
		<clipPath id="clip_dp_001" clipPathUnits="userSpaceOnUse" clip-rule="nonzero">
			<path d="M 117.901,165.977 L 133.739,166.54 L 145.829,203.495 L 124.167,228.383 L 106.993,202.116 Z " clip-rule="nonzero"/>
		</clipPath>
		<clipPath id="clip_dp_002" clipPathUnits="userSpaceOnUse" clip-rule="nonzero">
			<path d="M 117.744,159.127 L 117.747,159.051 L 117.752,158.976 L 117.759,158.901 L 117.768,158.828 L 117.791,158.683 L 117.805,158.611 L 117.813,158.575 L 117.817,158.556 L 117.819,158.548 L 117.823,158.54 L 117.839,158.468 L 117.859,158.399 L 117.904,158.263 L 117.928,158.195 L 117.955,158.128 L 117.967,158.095 L 117.981,158.063 L 118.012,157.999 L 118.041,157.933 L 118.057,157.901 L 118.065,157.885 L 118.069,157.877 L 118.071,157.873 L 118.072,157.871 L 118.075,157.871 L 118.107,157.808 L 118.143,157.748 L 118.179,157.687 L 118.217,157.628 L 118.256,157.569 L 118.299,157.513 L 118.339,157.456 L 118.383,157.401 L 118.427,157.347 L 118.475,157.295 L 118.52,157.243 L 118.544,157.216 L 118.569,157.192 L 118.619,157.143 L 118.671,157.096 L 118.721,157.048 L 118.747,157.024 L 118.775,157.001 L 118.827,156.956 L 118.883,156.913 L 118.939,156.871 L 118.996,156.831 L 119.053,156.791 L 119.113,156.755 L 119.141,156.735 L 119.172,156.717 L 119.233,156.681 L 119.293,156.648 L 119.357,156.616 L 119.42,156.584 L 119.485,156.556 L 119.549,156.528 L 119.617,156.504 L 119.751,156.455 L 119.819,156.433 L 119.852,156.423 L 119.888,156.415 L 119.957,156.396 L 120.028,156.38 L 120.099,156.365 L 120.171,156.353 L 120.243,156.341 L 120.315,156.332 L 120.388,156.324 L 120.461,156.319 L 120.535,156.315 L 120.609,156.313 L 120.685,156.313 L 120.761,156.316 L 132.644,156.737 L 132.717,156.74 L 132.792,156.745 L 132.865,156.752 L 132.94,156.761 L 133.084,156.784 L 133.156,156.799 L 133.228,156.816 L 133.297,156.832 L 133.367,156.852 L 133.504,156.897 L 133.571,156.921 L 133.637,156.948 L 133.703,156.975 L 133.769,157.005 L 133.832,157.035 L 133.895,157.068 L 134.019,157.136 L 134.077,157.172 L 134.137,157.211 L 134.195,157.249 L 134.253,157.292 L 134.308,157.332 L 134.364,157.376 L 134.472,157.468 L 134.575,157.563 L 134.624,157.612 L 134.673,157.664 L 134.719,157.715 L 134.764,157.768 L 134.808,157.82 L 134.852,157.876 L 134.893,157.932 L 134.935,157.989 L 134.973,158.047 L 135.012,158.107 L 135.029,158.135 L 135.047,158.165 L 135.083,158.227 L 135.116,158.287 L 135.149,158.351 L 135.18,158.413 L 135.209,158.479 L 135.236,158.543 L 135.264,158.611 L 135.311,158.744 L 135.331,158.812 L 135.351,158.881 L 135.385,159.021 L 135.4,159.092 L 135.413,159.164 L 135.424,159.236 L 135.433,159.308 L 135.447,159.455 L 135.451,159.528 L 135.453,159.603 L 135.453,159.679 L 135.453,159.755 L 135.18,167.417 L 135.175,167.491 L 135.169,167.565 L 135.161,167.639 L 135.153,167.713 L 135.128,167.857 L 135.113,167.929 L 135.099,168.001 L 135.08,168.071 L 135.06,168.14 L 135.039,168.208 L 135.016,168.277 L 134.991,168.344 L 134.965,168.411 L 134.937,168.476 L 134.909,168.543 L 134.877,168.605 L 134.845,168.668 L 134.777,168.792 L 134.74,168.851 L 134.701,168.911 L 134.623,169.027 L 134.536,169.137 L 134.447,169.245 L 134.351,169.348 L 134.252,169.447 L 134.145,169.539 L 134.037,169.627 L 133.923,169.709 L 133.807,169.787 L 133.685,169.857 L 133.56,169.924 L 133.432,169.983 L 133.367,170.011 L 133.303,170.039 L 133.167,170.085 L 133.099,170.105 L 133.031,170.125 L 132.891,170.16 L 132.82,170.175 L 132.749,170.188 L 132.676,170.199 L 132.604,170.208 L 132.459,170.221 L 132.384,170.225 L 132.309,170.228 L 132.235,170.228 L 132.161,170.228 L 120.28,169.805 L 120.204,169.8 L 120.129,169.795 L 120.055,169.787 L 119.981,169.779 L 119.908,169.767 L 119.836,169.755 L 119.693,169.724 L 119.621,169.705 L 119.552,169.685 L 119.416,169.643 L 119.281,169.592 L 119.216,169.564 L 119.152,169.536 L 119.087,169.504 L 119.024,169.472 L 118.961,169.439 L 118.901,169.404 L 118.84,169.367 L 118.781,169.328 L 118.723,169.288 L 118.667,169.249 L 118.609,169.205 L 118.555,169.163 L 118.499,169.117 L 118.447,169.073 L 118.344,168.977 L 118.295,168.928 L 118.248,168.879 L 118.153,168.773 L 118.109,168.719 L 118.067,168.664 L 118.023,168.607 L 117.983,168.551 L 117.907,168.435 L 117.869,168.373 L 117.835,168.313 L 117.8,168.251 L 117.769,168.188 L 117.737,168.124 L 117.709,168.06 L 117.681,167.995 L 117.656,167.931 L 117.607,167.795 L 117.585,167.727 L 117.567,167.659 L 117.548,167.588 L 117.532,167.519 L 117.517,167.448 L 117.507,167.377 L 117.495,167.304 L 117.485,167.232 L 117.477,167.159 L 117.472,167.085 L 117.468,167.011 L 117.467,166.937 L 117.467,166.863 L 117.469,166.788 Z " clip-rule="nonzero"/>
		</clipPath>
	</defs>
	<g id="dp_dp001" transform="matrix(1,0,0,1,-948.137,-178.501)">
		<path id="dp_path002" fill="black" fill-rule="evenodd" stroke="none" stroke-width="0" d="M 1181.88,454.099 C 1182.69,456.411 1181.46,458.933 1179.15,459.736 L 1129.53,476.947 C 1127.22,477.749 1124.7,476.525 1123.89,474.215 L 1113.23,443.471 C 1112.43,441.16 1113.65,438.636 1115.96,437.835 L 1165.58,420.623 C 1167.9,419.821 1170.42,421.044 1171.22,423.356 Z "/>
		<path id="dp_path003" fill="#e8e8e8" fill-rule="evenodd" stroke="none" stroke-width="0" d="M 1178.92,453.375 C 1179.64,455.451 1178.54,457.719 1176.47,458.439 L 1133.26,473.425 C 1131.18,474.145 1128.92,473.047 1128.2,470.971 L 1118.62,443.353 C 1117.9,441.277 1119,439.011 1121.07,438.291 L 1164.28,423.304 C 1166.35,422.584 1168.62,423.683 1169.34,425.759 Z "/>
		<path id="dp_path004" fill="none" fill-rule="evenodd" stroke="#777777" stroke-width="1.33333" stroke-linejoin="round" stroke-linecap="round" d="M 1172.83,446.305 L 1127.03,462.193 L 1120.11,442.248 L 1165.92,426.36 Z "/>
		<path id="dp_path005" fill="none" fill-rule="evenodd" stroke="#efefef" stroke-width="1.33333" stroke-linejoin="round" stroke-linecap="round" d="M 1165.33,444.181 L 1149.84,449.552"/>
		<path id="dp_path006" fill="none" fill-rule="evenodd" stroke="#efefef" stroke-width="1.33333" stroke-linejoin="round" stroke-linecap="round" d="M 1164.37,441.415 L 1148.88,446.785"/>
		<path id="dp_path007" fill="none" fill-rule="evenodd" stroke="#efefef" stroke-width="1.33333" stroke-linejoin="round" stroke-linecap="round" d="M 1163.41,438.648 L 1147.92,444.019"/>
		<path id="dp_path008" fill="none" fill-rule="evenodd" stroke="#efefef" stroke-width="1.33333" stroke-linejoin="round" stroke-linecap="round" d="M 1162.45,435.881 L 1146.97,441.252"/>
		<path id="dp_path009" fill="#e5e6fe" fill-rule="evenodd" stroke="#c4c4c4" stroke-width="0.666667" stroke-linejoin="round" stroke-linecap="round" d="M 1144.71,443.112 C 1144.79,443.345 1144.67,443.6 1144.43,443.68 L 1127.8,449.451 C 1127.57,449.531 1127.31,449.408 1127.23,449.175 L 1126.35,446.641 C 1126.27,446.408 1126.39,446.155 1126.63,446.073 L 1143.26,440.303 C 1143.49,440.223 1143.75,440.345 1143.83,440.579 Z "/>
		<path id="dp_path010" fill="#fff5d1" fill-rule="evenodd" stroke="#c4c4c4" stroke-width="0.666667" stroke-linejoin="round" stroke-linecap="round" d="M 1146.15,447.255 C 1146.23,447.488 1146.1,447.743 1145.87,447.823 L 1129.24,453.593 C 1129,453.673 1128.75,453.551 1128.67,453.317 L 1127.79,450.784 C 1127.71,450.551 1127.83,450.296 1128.06,450.216 L 1144.7,444.445 C 1144.93,444.365 1145.19,444.488 1145.27,444.721 Z "/>
		<path id="dp_path011" fill="#cbffd2" fill-rule="evenodd" stroke="#c4c4c4" stroke-width="0.666667" stroke-linejoin="round" stroke-linecap="round" d="M 1147.59,451.425 C 1147.67,451.659 1147.55,451.913 1147.32,451.993 L 1130.68,457.764 C 1130.45,457.845 1130.19,457.721 1130.11,457.488 L 1129.23,454.955 C 1129.15,454.721 1129.28,454.468 1129.51,454.387 L 1146.15,448.616 C 1146.38,448.536 1146.63,448.659 1146.71,448.892 Z "/>
		<path id="dp_path012" fill="#6063ff" fill-rule="evenodd" stroke="none" stroke-width="0" d="M 1141.84,444.005 C 1142.8,443.92 1143.39,442.62 1142.54,441.789 C 1142.49,441.745 1142.43,441.72 1142.38,441.683 C 1142.19,441.536 1141.94,441.431 1141.64,441.453 C 1139.86,441.584 1140.1,444.148 1141.84,444.005 Z "/>
		<path id="dp_path013" fill="white" fill-rule="evenodd" stroke="none" stroke-width="0" d="M 1141.45,442.315 L 1141.57,442.649 L 1141.57,442.649 C 1141.3,442.965 1141.2,443.203 1141.25,443.363 C 1141.29,443.479 1141.39,443.547 1141.56,443.568 C 1141.73,443.589 1141.94,443.561 1142.22,443.487 L 1142.27,443.205 C 1141.87,443.337 1141.65,443.329 1141.6,443.183 C 1141.56,443.075 1141.64,442.92 1141.84,442.719 L 1141.83,442.719 L 1141.84,442.716 L 1141.83,442.687 L 1141.74,442.421 L 1141.68,442.237 Z "/>
		<path id="dp_path014" fill="white" fill-rule="evenodd" stroke="none" stroke-width="0" d="M 1141.63,441.92 C 1141.65,441.976 1141.64,442.033 1141.62,442.089 C 1141.59,442.144 1141.55,442.181 1141.5,442.2 C 1141.44,442.219 1141.4,442.219 1141.36,442.199 C 1141.32,442.177 1141.29,442.139 1141.27,442.081 C 1141.25,442.023 1141.25,441.965 1141.28,441.909 C 1141.3,441.852 1141.34,441.815 1141.39,441.796 C 1141.44,441.777 1141.49,441.779 1141.53,441.801 C 1141.57,441.823 1141.61,441.863 1141.63,441.92 Z "/>
	</g>
	<text id="dp_text015" transform="matrix(-0.930407,0.322727,-0.327713,-0.944777,193.992,272.272)" xml:space="preserve" fill="black" font-family="Abel" font-size="3" font-weight="400" x="0" y="0">1,200</text>
	<text id="dp_text016" transform="matrix(-0.929761,0.322503,-0.327713,-0.944777,190.182,264.576)" xml:space="preserve" fill="black" font-family="Abel" font-size="2" font-weight="400" x="0" y="0">MORE INFO</text>
	<g id="dp_dp017" transform="matrix(1,0,0,1,-948.137,-178.501)">
		<path id="dp_path018" fill="#00a717" fill-rule="evenodd" stroke="none" stroke-width="0" d="M 1144.67,452.408 C 1145.63,452.321 1146.22,451.021 1145.36,450.191 C 1145.32,450.147 1145.26,450.121 1145.21,450.084 C 1145.02,449.937 1144.77,449.832 1144.47,449.855 C 1142.69,449.987 1142.93,452.549 1144.67,452.408 Z "/>
		<path id="dp_path019" fill="white" fill-rule="evenodd" stroke="none" stroke-width="0" d="M 1143.81,450.685 C 1143.79,450.613 1143.86,450.548 1144.03,450.491 C 1144.05,450.484 1144.07,450.475 1144.11,450.464 C 1144.14,450.453 1144.17,450.445 1144.18,450.441 L 1144.14,450.317 L 1144.33,450.249 L 1144.38,450.372 C 1144.39,450.368 1144.41,450.36 1144.44,450.348 C 1144.48,450.336 1144.5,450.328 1144.52,450.321 C 1144.69,450.263 1144.78,450.271 1144.81,450.341 L 1144.93,450.697 L 1144.71,450.775 L 1144.58,450.423 L 1144.41,450.481 L 1144.62,451.079 L 1145.02,451.193 C 1145.08,451.211 1145.12,451.239 1145.13,451.277 L 1145.23,451.56 C 1145.26,451.633 1145.18,451.699 1145.02,451.757 C 1145,451.763 1144.97,451.772 1144.94,451.781 C 1144.91,451.792 1144.89,451.8 1144.87,451.804 L 1144.92,451.929 L 1144.72,451.997 L 1144.68,451.872 C 1144.66,451.877 1144.64,451.885 1144.61,451.899 C 1144.57,451.911 1144.55,451.92 1144.53,451.927 C 1144.36,451.984 1144.26,451.977 1144.24,451.904 L 1144.13,451.581 L 1144.35,451.503 L 1144.46,451.825 L 1144.64,451.765 L 1144.44,451.204 L 1144.04,451.093 C 1143.98,451.076 1143.94,451.049 1143.93,451.011 Z M 1144.69,451.267 L 1144.84,451.696 L 1145.01,451.637 L 1144.9,451.332 Z M 1144.04,450.611 L 1144.16,450.959 L 1144.38,451.017 L 1144.22,450.549 Z "/>
		<path id="dp_path020" fill="#e0af00" fill-rule="evenodd" stroke="none" stroke-width="0" d="M 1143.33,448.129 C 1144.29,448.043 1144.89,446.743 1144.03,445.913 C 1143.98,445.868 1143.92,445.844 1143.87,445.805 C 1143.69,445.659 1143.43,445.553 1143.13,445.576 C 1141.36,445.708 1141.59,448.271 1143.33,448.129 Z "/>
		<path id="dp_path021" fill="white" fill-rule="evenodd" stroke="none" stroke-width="0" d="M 1143.59,447.684 C 1143.6,447.727 1143.62,447.771 1143.63,447.813 C 1143.69,447.792 1143.76,447.771 1143.82,447.749 C 1143.79,447.651 1143.75,447.552 1143.72,447.453 C 1143.84,447.409 1143.96,447.367 1144.09,447.324 C 1144.06,447.256 1144.04,447.188 1144.02,447.121 C 1143.93,447.151 1143.86,447.196 1143.79,447.151 C 1143.72,447.104 1143.72,447.027 1143.71,446.985 C 1143.66,446.857 1143.45,446.321 1143.47,446.245 C 1143.5,446.181 1143.59,446.189 1143.63,446.163 C 1143.64,446.159 1143.65,446.149 1143.64,446.137 C 1143.64,446.132 1143.64,446.125 1143.64,446.12 C 1143.63,446.089 1143.63,445.953 1143.59,445.928 C 1143.58,445.917 1143.31,446.017 1143.23,446.045 C 1143.19,445.947 1143.16,445.848 1143.13,445.748 C 1143.06,445.769 1143,445.791 1142.94,445.812 C 1142.97,445.912 1143.01,446.011 1143.04,446.109 C 1143,446.125 1142.95,446.141 1142.9,446.159 C 1142.87,446.059 1142.83,445.96 1142.8,445.861 C 1142.74,445.883 1142.68,445.904 1142.61,445.925 C 1142.64,446.003 1142.73,446.156 1142.7,446.223 C 1142.69,446.252 1142.63,446.257 1142.61,446.265 C 1142.41,446.367 1142.24,446.567 1142.3,446.805 C 1142.32,446.899 1142.37,447.005 1142.45,447.056 C 1142.52,447.099 1142.57,447.105 1142.69,447.107 C 1142.53,447.34 1142.65,447.587 1142.84,447.648 C 1142.94,447.683 1143.1,447.651 1143.21,447.635 C 1143.24,447.732 1143.28,447.829 1143.31,447.927 C 1143.37,447.905 1143.43,447.883 1143.49,447.861 C 1143.46,447.768 1143.43,447.675 1143.4,447.581 C 1143.5,447.528 1143.53,447.509 1143.56,447.593 C 1143.57,447.611 1143.58,447.661 1143.59,447.684 Z M 1142.91,446.837 C 1142.94,446.835 1143.22,446.785 1143.25,446.733 C 1143.25,446.732 1143.25,446.723 1143.25,446.72 C 1143.24,446.675 1143.22,446.627 1143.21,446.58 C 1143.18,446.501 1143.15,446.423 1143.12,446.344 C 1142.92,446.416 1142.8,446.46 1142.72,446.54 C 1142.64,446.627 1142.67,446.773 1142.78,446.823 C 1142.82,446.843 1142.87,446.841 1142.91,446.837 Z M 1143.13,447.38 C 1143.16,447.381 1143.19,447.373 1143.22,447.367 C 1143.28,447.353 1143.36,447.328 1143.45,447.297 C 1143.41,447.179 1143.37,447.059 1143.33,446.939 C 1143.12,447.011 1142.89,447.085 1142.98,447.287 C 1143.01,447.355 1143.07,447.375 1143.13,447.38 Z "/>
	</g>
	<text id="dp_text022" transform="matrix(-0.930407,0.322727,-0.327713,-0.944777,192.545,268.101)" xml:space="preserve" fill="black" font-family="Abel" font-size="3" font-weight="400" x="0" y="0">0.123</text>
	<text id="dp_text023" transform="matrix(-0.929874,0.322542,-0.327713,-0.944777,183.247,273.07)" xml:space="preserve" fill="black" font-family="Abel" font-size="1" font-weight="400" x="0" y="0">SAVE</text>
	<text id="dp_text024" transform="matrix(-0.929925,0.32256,-0.327713,-0.944777,184.512,270.823)" xml:space="preserve" fill="black" font-family="Abel" font-size="2" font-weight="400" x="0" y="0">~$430</text>
	<g id="dp_dp025" transform="matrix(1,0,0,1,-948.137,-178.501)">
		<path id="dp_path026" fill="none" fill-rule="evenodd" stroke="#a3a3a3" stroke-width="1.33333" stroke-linejoin="round" stroke-linecap="round" d="M 1166.04,445.467 L 1161.78,433.172 L 1145.62,438.776"/>
		<path id="dp_path027" fill="#e5e6fe" fill-rule="evenodd" stroke="#c4c4c4" stroke-width="0.666667" stroke-linejoin="round" stroke-linecap="round" d="M 1164.03,443.171 L 1160.22,444.492 L 1157.01,435.245 L 1160.82,433.924 Z "/>
		<path id="dp_path028" fill="#e5e6fe" fill-rule="evenodd" stroke="#c4c4c4" stroke-width="0.666667" stroke-linejoin="round" stroke-linecap="round" d="M 1156.92,439.025 L 1153.11,440.347 L 1151.95,436.999 L 1155.76,435.677 Z "/>
		<path id="dp_path029" fill="#e5e6fe" fill-rule="evenodd" stroke="#c4c4c4" stroke-width="0.666667" stroke-linejoin="round" stroke-linecap="round" d="M 1152.9,443.779 L 1149.09,445.1 L 1146.89,438.755 L 1150.7,437.433 Z "/>
		<path id="dp_path030" fill="#898989" fill-rule="evenodd" stroke="none" stroke-width="0" d="M 1157.03,432.383 C 1157.21,432.903 1157.77,433.18 1158.29,433.003 C 1158.8,432.825 1159.07,432.259 1158.89,431.739 C 1158.71,431.219 1158.14,430.94 1157.63,431.119 C 1157.12,431.296 1156.85,431.863 1157.03,432.383 Z M 1157.15,432.343 C 1157.3,432.799 1157.8,433.041 1158.24,432.885 C 1158.69,432.731 1158.93,432.235 1158.77,431.779 C 1158.61,431.323 1158.12,431.08 1157.67,431.236 C 1157.22,431.391 1156.99,431.887 1157.15,432.343 Z M 1158.26,432.852 C 1158.25,432.859 1158.23,432.865 1158.21,432.872 L 1158.17,432.777 C 1158.19,432.771 1158.21,432.764 1158.23,432.757 Z M 1157.83,432.896 C 1157.81,432.893 1157.79,432.888 1157.77,432.884 L 1157.79,432.785 C 1157.81,432.791 1157.83,432.795 1157.85,432.797 Z M 1157.43,432.715 C 1157.42,432.701 1157.4,432.688 1157.39,432.675 L 1157.45,432.6 C 1157.47,432.613 1157.48,432.627 1157.5,432.64 Z M 1157.18,432.363 C 1157.17,432.344 1157.17,432.325 1157.16,432.307 L 1157.25,432.275 C 1157.26,432.293 1157.27,432.311 1157.27,432.329 Z M 1157.13,431.932 C 1157.13,431.912 1157.14,431.892 1157.14,431.873 L 1157.24,431.892 C 1157.23,431.911 1157.23,431.931 1157.23,431.951 Z M 1157.3,431.531 C 1157.31,431.515 1157.33,431.5 1157.34,431.485 L 1157.41,431.551 C 1157.4,431.565 1157.39,431.581 1157.38,431.596 Z M 1157.65,431.269 C 1157.67,431.263 1157.69,431.256 1157.71,431.249 L 1157.74,431.344 C 1157.72,431.351 1157.7,431.357 1157.68,431.364 Z M 1158.09,431.225 C 1158.11,431.228 1158.13,431.233 1158.15,431.237 L 1158.13,431.335 C 1158.11,431.331 1158.09,431.327 1158.07,431.324 Z M 1158.49,431.407 C 1158.5,431.42 1158.51,431.433 1158.53,431.447 L 1158.46,431.521 C 1158.45,431.508 1158.43,431.495 1158.42,431.481 Z M 1158.74,431.759 C 1158.75,431.777 1158.75,431.796 1158.76,431.815 L 1158.66,431.847 C 1158.66,431.828 1158.65,431.811 1158.65,431.791 Z M 1158.79,432.189 C 1158.78,432.208 1158.78,432.228 1158.78,432.248 L 1158.68,432.229 C 1158.68,432.209 1158.69,432.191 1158.69,432.171 Z M 1158.62,432.591 C 1158.6,432.605 1158.59,432.621 1158.58,432.636 L 1158.5,432.571 C 1158.52,432.556 1158.53,432.54 1158.54,432.524 Z M 1158.57,431.595 L 1158.03,432.037 C 1158.03,432.015 1158.01,431.996 1157.99,431.988 C 1157.97,431.979 1157.94,431.98 1157.92,431.992 C 1157.9,432.001 1157.89,432.023 1157.88,432.045 C 1157.88,432.068 1157.88,432.092 1157.9,432.109 L 1157.44,432.24 L 1157.88,432.06 C 1157.88,432.031 1157.89,432.005 1157.92,431.992 C 1157.95,431.977 1157.97,431.979 1158,431.992 C 1158.02,432.008 1158.04,432.035 1158.04,432.063 C 1158.04,432.091 1158.02,432.117 1157.99,432.129 C 1157.97,432.144 1157.94,432.141 1157.92,432.127 C 1157.89,432.112 1157.88,432.085 1157.88,432.057 C 1157.88,432.029 1157.9,432.004 1157.92,431.991 C 1157.95,431.979 1157.98,431.98 1158,431.995 Z "/>
		<path id="dp_path031" fill="#7f7f7f" fill-rule="evenodd" stroke="none" stroke-width="0" d="M 1147.79,434.569 L 1147.86,434.788 C 1147.91,434.773 1147.95,434.767 1148,434.771 C 1148.05,434.775 1148.09,434.787 1148.13,434.807 C 1148.17,434.827 1148.21,434.855 1148.24,434.889 C 1148.27,434.925 1148.29,434.967 1148.31,435.013 L 1148.33,435.068 L 1148.21,435.131 L 1148.19,435.056 C 1148.18,435.025 1148.16,434.999 1148.14,434.976 C 1148.12,434.953 1148.1,434.936 1148.07,434.923 C 1148.05,434.909 1148.02,434.9 1147.99,434.897 C 1147.96,434.895 1147.93,434.897 1147.9,434.905 L 1148.1,435.468 C 1148.14,435.469 1148.19,435.472 1148.24,435.476 C 1148.28,435.481 1148.33,435.492 1148.37,435.509 C 1148.41,435.528 1148.44,435.553 1148.48,435.588 C 1148.51,435.623 1148.54,435.671 1148.56,435.731 L 1148.57,435.757 C 1148.58,435.804 1148.59,435.851 1148.59,435.897 C 1148.58,435.944 1148.57,435.988 1148.55,436.029 C 1148.53,436.071 1148.51,436.107 1148.47,436.139 C 1148.44,436.171 1148.4,436.195 1148.35,436.212 L 1148.42,436.389 L 1148.32,436.423 L 1148.26,436.245 C 1148.21,436.26 1148.17,436.265 1148.12,436.26 C 1148.07,436.256 1148.03,436.244 1147.99,436.223 C 1147.95,436.203 1147.92,436.175 1147.88,436.14 C 1147.85,436.105 1147.83,436.065 1147.81,436.019 L 1147.8,435.983 L 1147.92,435.92 L 1147.93,435.976 C 1147.95,436.005 1147.96,436.032 1147.98,436.055 C 1148,436.077 1148.02,436.096 1148.05,436.108 C 1148.07,436.121 1148.1,436.131 1148.13,436.133 C 1148.16,436.137 1148.19,436.135 1148.22,436.127 L 1148.03,435.591 C 1147.98,435.588 1147.94,435.584 1147.89,435.58 C 1147.84,435.575 1147.8,435.563 1147.76,435.544 C 1147.71,435.527 1147.68,435.5 1147.64,435.464 C 1147.61,435.429 1147.58,435.381 1147.56,435.32 L 1147.55,435.279 C 1147.53,435.231 1147.52,435.184 1147.53,435.137 C 1147.53,435.089 1147.54,435.045 1147.56,435.004 C 1147.58,434.963 1147.61,434.925 1147.64,434.895 C 1147.67,434.863 1147.71,434.839 1147.76,434.823 L 1147.76,434.821 L 1147.69,434.603 Z M 1147.68,435.277 C 1147.69,435.315 1147.71,435.344 1147.73,435.368 C 1147.75,435.391 1147.78,435.409 1147.8,435.423 C 1147.83,435.437 1147.86,435.447 1147.89,435.452 C 1147.92,435.457 1147.95,435.461 1147.99,435.464 L 1147.81,434.939 C 1147.78,434.949 1147.75,434.965 1147.73,434.985 C 1147.71,435.007 1147.69,435.031 1147.68,435.057 C 1147.66,435.084 1147.66,435.113 1147.65,435.144 C 1147.65,435.173 1147.66,435.205 1147.67,435.236 Z M 1148.44,435.773 C 1148.42,435.739 1148.41,435.711 1148.39,435.689 C 1148.37,435.668 1148.35,435.651 1148.32,435.637 C 1148.3,435.625 1148.27,435.616 1148.24,435.609 C 1148.21,435.604 1148.17,435.599 1148.14,435.596 L 1148.31,436.093 C 1148.34,436.081 1148.37,436.065 1148.39,436.044 C 1148.41,436.023 1148.43,436 1148.44,435.973 C 1148.45,435.948 1148.46,435.919 1148.46,435.889 C 1148.46,435.859 1148.45,435.829 1148.45,435.8 Z "/>
		<path id="dp_path032" fill="#b2b2b2" fill-rule="evenodd" stroke="#7f7f7f" stroke-width="0.666667" stroke-linejoin="round" stroke-linecap="round" d="M 1154.01,433.392 L 1153.15,433.689"/>
		<path id="dp_path033" fill="#b2b2b2" fill-rule="evenodd" stroke="#7f7f7f" stroke-width="0.666667" stroke-linejoin="round" stroke-linecap="round" d="M 1154.17,433.873 L 1153.84,432.911"/>
		<path id="dp_path034" fill="#b2b2b2" fill-rule="evenodd" stroke="#7f7f7f" stroke-width="0.666667" stroke-linejoin="round" stroke-linecap="round" d="M 1151.43,434.287 L 1152.29,433.988"/>
		<path id="dp_path035" fill="#b2b2b2" fill-rule="evenodd" stroke="#7f7f7f" stroke-width="0.666667" stroke-linejoin="round" stroke-linecap="round" d="M 1151.59,434.768 L 1151.26,433.805"/>
		<path id="dp_path036" fill="#7f7f7f" fill-rule="evenodd" stroke="none" stroke-width="0" d="M 1152.35,433.763 L 1152.3,433.697 C 1152.29,433.435 1152.32,433.272 1152.39,433.211 C 1152.43,433.177 1152.49,433.173 1152.55,433.2 C 1152.61,433.227 1152.67,433.277 1152.73,433.352 C 1152.77,433.412 1152.82,433.495 1152.86,433.601 C 1152.9,433.707 1152.93,433.823 1152.95,433.945 C 1152.97,434.069 1152.98,434.184 1152.99,434.288 C 1152.99,434.393 1152.98,434.476 1152.95,434.536 C 1152.95,434.561 1152.94,434.577 1152.93,434.585 C 1152.91,434.596 1152.9,434.597 1152.89,434.589 C 1152.88,434.581 1152.86,434.565 1152.84,434.539 C 1152.77,434.456 1152.72,434.328 1152.69,434.153 C 1152.66,433.98 1152.65,433.783 1152.67,433.561 C 1152.65,433.525 1152.63,433.5 1152.62,433.483 C 1152.59,433.445 1152.56,433.421 1152.52,433.411 C 1152.49,433.4 1152.46,433.407 1152.43,433.429 C 1152.41,433.441 1152.4,433.46 1152.39,433.485 C 1152.39,433.511 1152.38,433.54 1152.38,433.572 C 1152.37,433.604 1152.36,433.668 1152.35,433.763 Z M 1152.74,433.709 C 1152.73,433.764 1152.73,433.823 1152.73,433.884 C 1152.74,433.945 1152.74,434.008 1152.75,434.073 C 1152.76,434.137 1152.78,434.192 1152.79,434.239 C 1152.8,434.285 1152.82,434.317 1152.83,434.336 C 1152.84,434.349 1152.85,434.352 1152.86,434.344 C 1152.87,434.341 1152.87,434.333 1152.87,434.319 C 1152.89,434.26 1152.88,434.169 1152.85,434.047 C 1152.83,433.924 1152.79,433.812 1152.74,433.709 Z "/>
		<path id="dp_path037" fill="#003147" fill-rule="evenodd" stroke="none" stroke-width="0" d="M 1170.34,452.045 C 1170.46,451.788 1170.59,451.531 1170.71,451.273 C 1170.8,451.1 1170.87,450.891 1170.99,450.771 C 1171.09,450.667 1171.23,450.6 1171.37,450.592 C 1171.64,450.576 1172.31,450.965 1172.62,451.113 C 1172.75,451.175 1172.84,451.22 1172.92,451.321 C 1172.94,451.356 1172.97,451.395 1172.99,451.435 L 1173.01,451.493 C 1173.01,451.507 1173.02,451.52 1173.02,451.533 C 1173.03,451.56 1173.04,451.588 1173.04,451.616 C 1173.05,451.701 1173.04,451.787 1173.02,451.864 C 1172.92,452.148 1172.73,452.465 1172.59,452.751 C 1172.32,453.303 1172.06,453.855 1171.79,454.407 C 1171.67,454.657 1171.52,455.061 1171.36,455.237 C 1171.23,455.369 1171.05,455.439 1170.86,455.419 C 1170.62,455.392 1169.91,454.993 1169.62,454.855 C 1169.45,455.204 1169.28,455.555 1169.11,455.905 C 1170.33,456.493 1170.75,456.763 1171.51,456.491 C 1171.83,456.377 1172.11,456.172 1172.31,455.913 C 1172.5,455.676 1172.89,454.817 1173.18,454.217 C 1173.54,453.476 1174.1,452.423 1174.17,452.041 C 1174.25,451.685 1174.21,451.296 1174.05,450.955 C 1173.94,450.709 1173.77,450.493 1173.57,450.328 C 1173.42,450.203 1172.31,449.629 1171.97,449.513 C 1171.81,449.461 1171.65,449.431 1171.48,449.424 C 1171.05,449.407 1170.61,449.555 1170.29,449.829 C 1170.14,449.947 1170.02,450.085 1169.93,450.235 C 1169.69,450.613 1169.27,451.573 1168.97,452.188 C 1169.41,452.005 1169.89,451.959 1170.34,452.045 Z "/>
		<path id="dp_path038" fill="#7b929c" fill-rule="evenodd" stroke="none" stroke-width="0" d="M 1166.77,456.717 C 1167.12,455.993 1167.48,455.269 1167.83,454.545 C 1168.1,453.976 1168.39,453.373 1168.55,453.185 C 1168.95,452.717 1169.61,452.489 1170.21,452.608 C 1170.47,452.657 1171.11,452.979 1171.69,453.261 C 1171.53,453.612 1171.35,453.963 1171.19,454.313 C 1170.93,454.191 1170.68,454.069 1170.43,453.948 C 1170.3,453.881 1170.14,453.792 1170.02,453.761 C 1169.92,453.737 1169.81,453.739 1169.71,453.768 C 1169.59,453.805 1169.48,453.887 1169.4,453.991 C 1169.31,454.123 1169.23,454.327 1169.15,454.491 C 1168.99,454.817 1168.83,455.144 1168.68,455.472 C 1168.48,455.873 1168.29,456.273 1168.09,456.675 C 1168,456.873 1167.87,457.089 1167.8,457.283 C 1167.77,457.38 1167.76,457.492 1167.78,457.599 C 1167.85,457.973 1168.26,458.085 1168.6,458.253 C 1168.91,458.404 1169.24,458.64 1169.55,458.556 C 1169.67,458.525 1169.77,458.459 1169.85,458.371 C 1169.93,458.267 1170,458.101 1170.07,457.959 C 1170.18,457.723 1170.29,457.487 1170.41,457.251 C 1170.42,457.229 1170.45,457.129 1170.47,457.121 C 1170.48,457.119 1170.87,457.167 1170.93,457.167 C 1171.24,457.165 1171.55,457.1 1171.84,456.979 C 1171.54,457.592 1171.13,458.536 1170.89,458.924 C 1170.79,459.073 1170.67,459.212 1170.53,459.331 C 1170.07,459.72 1169.42,459.84 1168.86,459.66 C 1168.74,459.621 1168.41,459.461 1168.11,459.312 C 1167.7,459.115 1167.42,458.979 1167.27,458.86 C 1166.62,458.351 1166.43,457.427 1166.77,456.717 Z "/>
		<path id="dp_path039" fill="#707070" fill-rule="evenodd" stroke="none" stroke-width="0" d="M 1121.49,459.669 C 1120.58,459.985 1119.59,459.504 1119.27,458.597 C 1118.96,457.691 1119.44,456.7 1120.35,456.384 C 1121.25,456.069 1122.24,456.551 1122.56,457.457 C 1122.87,458.364 1122.39,459.355 1121.49,459.669 Z "/>
		<path id="dp_path040" fill="#3a3a3a" fill-rule="evenodd" fill-opacity="0.45098" stroke="none" stroke-width="0" d="M 1179.51,453.632 C 1180.23,455.708 1179.13,457.975 1177.05,458.695 L 1133.84,473.683 C 1131.77,474.403 1129.5,473.303 1128.78,471.228 L 1164.87,423.561 C 1166.94,422.841 1169.21,423.94 1169.93,426.016 Z "/>
		<path id="dp_path041" fill="#666666" fill-rule="evenodd" stroke="none" stroke-width="0" d="M 1147.97,441.567 C 1153.03,441.081 1157.04,439.555 1157.04,438.131 L 1157.04,438.131 L 1156.16,414.079 C 1156.16,413.999 1156.16,413.92 1156.15,413.84 C 1156.14,413.788 1156.14,413.736 1156.13,413.685 L 1134.49,415.76 C 1134.49,415.811 1134.49,415.863 1134.5,415.915 C 1134.51,416.048 1134.54,416.177 1134.58,416.305 L 1138.38,439.823 C 1138.39,439.829 1138.39,439.836 1138.39,439.843 C 1138.53,441.288 1142.82,442.06 1147.97,441.567 Z "/>
		<path id="dp_path042" fill="black" fill-rule="evenodd" fill-opacity="0.286275" stroke="none" stroke-width="0" d="M 1072.72,551.927 C 1141.05,551.927 1196.44,558.94 1196.44,567.591 C 1196.44,576.241 1141.05,583.255 1072.72,583.255 C 1004.4,583.255 949.012,576.241 949.012,567.591 C 949.012,558.94 1004.4,551.927 1072.72,551.927 Z "/>
		<path id="dp_path043" fill="#f8a269" fill-rule="evenodd" stroke="none" stroke-width="0" d="M 1070.76,449.972 C 1046.13,449.097 1026.37,440.051 1026.06,429.633 L 1026.04,429.633 L 1025.1,253.253 C 1025.07,252.669 1025.07,252.085 1025.09,251.497 C 1025.75,233.04 1049.88,218.915 1078.99,219.948 C 1107.08,220.945 1129.54,235.703 1130.47,253.331 L 1130.56,253.332 L 1130.5,254.095 C 1130.51,254.475 1130.5,254.855 1130.49,255.239 C 1130.45,256.215 1130.35,257.18 1130.19,258.133 L 1116.85,432.151 L 1116.85,432.151 C 1116.85,432.2 1116.85,432.251 1116.85,432.301 C 1116.47,442.951 1095.83,450.861 1070.76,449.972 Z "/>
		<path id="dp_path044" fill="url(#grad_dp_001)" fill-rule="evenodd" stroke="none" stroke-width="0" d="M 1070.76,449.972 C 1046.13,449.099 1026.34,440.948 1025.99,431.652 L 1025.97,431.652 L 1024.79,317.569 L 1074.64,341.587 L 1126,321.161 L 1116.78,434.244 L 1116.77,434.244 C 1116.77,434.289 1116.77,434.335 1116.77,434.38 C 1116.43,443.881 1095.83,450.863 1070.76,449.972 Z "/>
		<path id="dp_path045" fill="#1000a1" fill-rule="evenodd" stroke="none" stroke-width="0" d="M 1066.04,344.479 L 1081.88,345.041 L 1093.97,381.996 L 1072.3,406.884 L 1055.13,380.617 Z "/>
		<path id="dp_path046" fill="#1000a1" fill-rule="evenodd" stroke="none" stroke-width="0" d="M 1065.88,337.628 C 1065.94,336.019 1067.29,334.76 1068.9,334.817 L 1080.78,335.239 C 1082.39,335.296 1083.65,336.647 1083.59,338.256 L 1083.32,345.919 C 1083.26,347.528 1081.91,348.787 1080.3,348.729 L 1068.42,348.307 C 1066.81,348.251 1065.55,346.9 1065.61,345.289 Z "/>
		<path id="dp_path047" fill="#5e2c10" fill-rule="evenodd" stroke="none" stroke-width="0" d="M 1025.06,258.836 C 1032.43,227.289 1044.34,220.676 1059.02,229.22 C 1082,242.599 1092.57,247.904 1118.85,236.344 C 1127.67,241.676 1128.21,251.844 1127.77,262.583 C 1134.73,251.301 1137.24,238.013 1129.83,222.8 C 1137.25,210.489 1138.02,200.32 1128.54,190.581 C 1129.88,198.26 1124.6,202.995 1115.99,206.236 C 1119.13,193.457 1115.54,185.116 1108.49,179.049 C 1114.41,191.344 1112.98,200.723 1091.68,202.217 C 1066.3,203.999 1043.78,195.251 1043.16,212.997 C 1013.98,203.684 1022.72,234.688 1025.06,258.836 Z "/>
		<path id="dp_path048" fill="white" fill-rule="evenodd" fill-opacity="0.2" stroke="none" stroke-width="0" d="M 1091.77,207.291 C 1082.13,211.349 1067.43,206.236 1059.72,209.751 C 1074.7,206.356 1085.09,215.289 1099.27,213.627 C 1064.98,226.921 1060.36,206.168 1046.07,212.949 C 1060.07,198.965 1080.39,209.607 1091.77,207.291 Z "/>
		<path id="dp_path049" fill="white" fill-rule="evenodd" fill-opacity="0.2" stroke="none" stroke-width="0" d="M 1038.18,217.732 C 1033.47,218.619 1030.67,221.827 1028.34,225.619 C 1026.69,221.573 1026.34,217.668 1030.02,214.191 C 1036.02,211.853 1038.37,213.427 1038.18,217.732 Z "/>
		<path id="dp_path050" fill="#3d1c0a" fill-rule="evenodd" stroke="none" stroke-width="0" d="M 1067.64,228.003 C 1083.76,236.504 1099.35,237.039 1117.33,232.211 C 1127.99,229.349 1142.98,207.907 1129.64,191.763 C 1142.33,206.359 1137.31,216.667 1131.83,227.495 C 1129.99,231.14 1123.82,233.865 1125.47,237.965 C 1130.29,249.883 1131.62,249.499 1127.77,262.584 C 1125.59,250.613 1125.89,237.313 1116.57,240.799 C 1070.32,258.08 1039.51,197.659 1025.08,259.964 C 1025.73,224.613 1043.92,221.265 1067.64,228.003 Z "/>
		<path id="dp_path051" fill="#f8a269" fill-rule="evenodd" stroke="none" stroke-width="0" d="M 994.431,277.192 C 993.111,275.764 991.699,275.063 991.24,275.597 L 991.239,275.596 L 983.712,284.927 C 983.685,284.956 983.66,284.987 983.636,285.019 C 982.888,286.041 983.547,288.237 985.107,289.925 C 986.612,291.555 988.408,292.113 989.204,291.232 L 989.208,291.236 L 989.237,291.192 C 989.253,291.172 989.269,291.152 989.285,291.131 C 989.325,291.077 989.36,291.02 989.392,290.959 L 996.076,280.9 L 996.076,280.9 C 996.077,280.897 996.08,280.895 996.083,280.892 C 996.513,280.303 995.775,278.645 994.431,277.192 Z "/>
		<path id="dp_path052" fill="#f8a269" fill-rule="evenodd" stroke="none" stroke-width="0" d="M 978.171,267.136 C 973.081,267.263 968.964,268.501 968.853,269.92 L 968.849,269.92 L 967.871,293.949 C 967.863,294.029 967.86,294.108 967.861,294.188 C 967.863,294.241 967.865,294.293 967.872,294.344 L 989.629,293.803 C 989.632,293.751 989.633,293.699 989.632,293.647 C 989.629,293.513 989.613,293.381 989.584,293.252 L 987.604,269.549 C 987.604,269.543 987.604,269.536 987.604,269.528 C 987.572,268.079 983.349,267.007 978.171,267.136 Z "/>
		<path id="dp_path053" fill="#bb672e" fill-rule="evenodd" stroke="none" stroke-width="0" d="M 967.905,296.24 L 989.677,295.697 L 989.637,293.801 L 967.865,294.344 Z "/>
		<path id="dp_path054" fill="#3d1c0a" fill-rule="evenodd" stroke="none" stroke-width="0" d="M 1040.31,252.808 L 1069.85,252.196 L 1070.72,259.817 L 1040.27,257.975 Z "/>
		<path id="dp_path055" fill="#3d1c0a" fill-rule="evenodd" stroke="none" stroke-width="0" d="M 1115.05,260.041 L 1086.08,254.308 L 1083.88,261.66 L 1114.19,265.137 Z "/>
		<path id="dp_path056" fill="black" fill-rule="evenodd" stroke="none" stroke-width="0" d="M 1060.46,267.071 C 1061.92,267.123 1062.99,270.273 1062.85,274.108 C 1062.72,277.943 1061.42,281.009 1059.96,280.957 C 1058.5,280.905 1057.43,277.755 1057.57,273.92 C 1057.7,270.085 1059,267.019 1060.46,267.071 Z "/>
		<path id="dp_path057" fill="black" fill-rule="evenodd" stroke="none" stroke-width="0" d="M 1094.1,268.264 C 1095.56,268.316 1096.64,271.467 1096.5,275.303 C 1096.36,279.137 1095.07,282.204 1093.61,282.152 C 1092.15,282.1 1091.07,278.949 1091.21,275.115 C 1091.35,271.28 1092.64,268.213 1094.1,268.264 Z "/>
		<path id="dp_path058" fill="#0f0045" fill-rule="evenodd" stroke="#00004b" stroke-width="1.62339" d="M 1070.57,455.24 C 1045.94,454.365 1026.22,444.221 1025.96,432.439 L 1025.94,432.439 L 1025.92,408.271 L 1118.43,411.553 L 1116.75,434.863 L 1116.75,434.863 C 1116.75,434.92 1116.75,434.976 1116.75,435.033 C 1116.32,447.084 1095.65,456.131 1070.57,455.24 Z "/>
		<path id="dp_path059" fill="#0f0045" fill-rule="evenodd" stroke="#00004b" stroke-width="21.9158" d="M 1096.48,441.451 C 1103.42,475.412 1104.13,510.524 1097.43,547"/>
		<path id="dp_path060" fill="#0f0045" fill-rule="evenodd" stroke="#00004b" stroke-width="21.9158" d="M 1041.25,441.451 C 1032.43,478.193 1029.77,514.637 1040.05,548.117"/>
		<path id="dp_path061" fill="#f9f9f9" fill-rule="evenodd" stroke="none" stroke-width="0" d="M 1109.13,297.301 C 1107.28,337.555 1040.76,334.424 1041.36,294.207 C 1041.51,308.056 1108.19,314.697 1109.13,297.301 Z "/>
		<path id="dp_path062" fill="black" fill-rule="evenodd" fill-opacity="0.309804" stroke="none" stroke-width="0" d="M 1109.13,297.301 C 1109.81,312.725 1062.95,311.38 1046.02,303.279 C 1043.42,302.032 1046.16,311.597 1044.89,309.26 C 1042.18,304.277 1041.49,299.687 1041.36,294.207 C 1041.51,308.056 1108.19,314.697 1109.13,297.301 Z "/>
		<path id="dp_path063" fill="none" fill-rule="evenodd" stroke="#acacac" stroke-width="1.62339" d="M 1051.14,309.831 C 1061.72,314.867 1071.18,316.461 1079.98,316.067"/>
		<path id="dp_path064" fill="none" fill-rule="evenodd" stroke="#f4f4f4" stroke-width="21.9158" d="M 1031.25,337.925 C 1004.68,336.828 978.253,332.133 977.893,296.009"/>
		<path id="dp_path065" fill="black" fill-rule="evenodd" stroke="none" stroke-width="0" d="M 1010.96,555.853 C 1019.81,553.987 1027.27,551.385 1033.49,548.117 L 1047.89,547.392 L 1048.93,567.957 L 988.872,570.979 C 987.316,562.26 992.828,556.865 1010.96,555.853 Z "/>
		<path id="dp_path066" fill="black" fill-rule="evenodd" stroke="none" stroke-width="0" d="M 1128.1,553.592 C 1119.17,552.173 1111.58,549.949 1105.21,546.997 L 1090.79,546.997 L 1090.79,567.589 L 1150.92,567.589 C 1152.04,558.803 1146.26,553.693 1128.1,553.592 Z "/>
		<path id="dp_path067" fill="none" fill-rule="evenodd" stroke="#e8e8e8" stroke-width="21.9158" d="M 1122.3,336.552 C 1142.12,339.573 1141.27,373.103 1146.73,410.945"/>
	</g>
	<g id="clip">
		<g id="dp_dp068" clip-path="url(#clip_dp_001)">
			<g id="dp_dp069" transform="matrix(1.00001,0,0,1.00001,-948.15,-178.505)">
				<path id="dp_path070" fill="#69006e" fill-rule="evenodd" stroke="none" stroke-width="0" d="M 1038.32,322.993 L 1026.75,334.564 L 1026.75,327.023 L 1030.78,322.993 Z "/>
				<path id="dp_path071" fill="#69006e" fill-rule="evenodd" stroke="none" stroke-width="0" d="M 1052.03,322.993 L 1026.75,348.277 L 1026.75,340.736 L 1044.49,322.993 Z "/>
				<path id="dp_path072" fill="#69006e" fill-rule="evenodd" stroke="none" stroke-width="0" d="M 1065.75,322.993 L 1026.75,361.992 L 1026.75,354.451 L 1058.21,322.993 Z "/>
				<path id="dp_path073" fill="#69006e" fill-rule="evenodd" stroke="none" stroke-width="0" d="M 1079.46,322.993 L 1026.75,375.707 L 1026.75,368.165 L 1071.92,322.993 Z "/>
				<path id="dp_path074" fill="#69006e" fill-rule="evenodd" stroke="none" stroke-width="0" d="M 1093.18,322.993 L 1026.75,389.421 L 1026.75,381.88 L 1085.64,322.993 Z "/>
				<path id="dp_path075" fill="#69006e" fill-rule="evenodd" stroke="none" stroke-width="0" d="M 1106.89,322.993 L 1026.75,403.135 L 1026.75,395.593 L 1099.35,322.993 Z "/>
				<path id="dp_path076" fill="#69006e" fill-rule="evenodd" stroke="none" stroke-width="0" d="M 1120.61,322.993 L 1026.75,416.849 L 1026.75,409.308 L 1113.07,322.993 Z "/>
				<path id="dp_path077" fill="#69006e" fill-rule="evenodd" stroke="none" stroke-width="0" d="M 1122.75,334.564 L 1038.32,418.993 L 1030.78,418.993 L 1122.75,327.023 Z "/>
				<path id="dp_path078" fill="#69006e" fill-rule="evenodd" stroke="none" stroke-width="0" d="M 1122.75,348.277 L 1052.03,418.993 L 1044.49,418.993 L 1122.75,340.736 Z "/>
				<path id="dp_path079" fill="#69006e" fill-rule="evenodd" stroke="none" stroke-width="0" d="M 1122.75,361.992 L 1065.75,418.993 L 1058.21,418.993 L 1122.75,354.451 Z "/>
				<path id="dp_path080" fill="#69006e" fill-rule="evenodd" stroke="none" stroke-width="0" d="M 1122.75,375.707 L 1079.46,418.993 L 1071.92,418.993 L 1122.75,368.165 Z "/>
				<path id="dp_path081" fill="#69006e" fill-rule="evenodd" stroke="none" stroke-width="0" d="M 1122.75,389.421 L 1093.18,418.993 L 1085.64,418.993 L 1122.75,381.88 Z "/>
				<path id="dp_path082" fill="#69006e" fill-rule="evenodd" stroke="none" stroke-width="0" d="M 1122.75,403.135 L 1106.89,418.993 L 1099.35,418.993 L 1122.75,395.593 Z "/>
				<path id="dp_path083" fill="#69006e" fill-rule="evenodd" stroke="none" stroke-width="0" d="M 1122.75,416.849 L 1120.61,418.993 L 1113.07,418.993 L 1122.75,409.308 Z "/>
			</g>
		</g>
	</g>
	<g id="clip">
		<g id="dp_dp084" clip-path="url(#clip_dp_002)">
			<g id="dp_dp085" transform="matrix(1.00002,0,0,1.00005,-948.164,-178.518)">
				<path id="dp_path086" fill="#69006e" fill-rule="evenodd" stroke="none" stroke-width="0" d="M 1039.53,322.973 L 1027.96,334.544 L 1027.96,327.003 L 1031.99,322.973 Z "/>
				<path id="dp_path087" fill="#69006e" fill-rule="evenodd" stroke="none" stroke-width="0" d="M 1053.25,322.973 L 1027.96,348.257 L 1027.96,340.716 L 1045.7,322.973 Z "/>
				<path id="dp_path088" fill="#69006e" fill-rule="evenodd" stroke="none" stroke-width="0" d="M 1066.96,322.973 L 1027.96,361.972 L 1027.96,354.431 L 1059.42,322.973 Z "/>
				<path id="dp_path089" fill="#69006e" fill-rule="evenodd" stroke="none" stroke-width="0" d="M 1080.67,322.973 L 1027.96,375.687 L 1027.96,368.145 L 1073.13,322.973 Z "/>
				<path id="dp_path090" fill="#69006e" fill-rule="evenodd" stroke="none" stroke-width="0" d="M 1094.39,322.973 L 1027.96,389.401 L 1027.96,381.86 L 1086.85,322.973 Z "/>
				<path id="dp_path091" fill="#69006e" fill-rule="evenodd" stroke="none" stroke-width="0" d="M 1108.1,322.973 L 1027.96,403.115 L 1027.96,395.573 L 1100.56,322.973 Z "/>
				<path id="dp_path092" fill="#69006e" fill-rule="evenodd" stroke="none" stroke-width="0" d="M 1121.82,322.973 L 1027.96,416.829 L 1027.96,409.288 L 1114.28,322.973 Z "/>
				<path id="dp_path093" fill="#69006e" fill-rule="evenodd" stroke="none" stroke-width="0" d="M 1123.96,334.544 L 1039.53,418.973 L 1031.99,418.973 L 1123.96,327.003 Z "/>
				<path id="dp_path094" fill="#69006e" fill-rule="evenodd" stroke="none" stroke-width="0" d="M 1123.96,348.257 L 1053.25,418.973 L 1045.7,418.973 L 1123.96,340.716 Z "/>
				<path id="dp_path095" fill="#69006e" fill-rule="evenodd" stroke="none" stroke-width="0" d="M 1123.96,361.972 L 1066.96,418.973 L 1059.42,418.973 L 1123.96,354.431 Z "/>
				<path id="dp_path096" fill="#69006e" fill-rule="evenodd" stroke="none" stroke-width="0" d="M 1123.96,375.687 L 1080.67,418.973 L 1073.13,418.973 L 1123.96,368.145 Z "/>
				<path id="dp_path097" fill="#69006e" fill-rule="evenodd" stroke="none" stroke-width="0" d="M 1123.96,389.401 L 1094.39,418.973 L 1086.85,418.973 L 1123.96,381.86 Z "/>
				<path id="dp_path098" fill="#69006e" fill-rule="evenodd" stroke="none" stroke-width="0" d="M 1123.96,403.115 L 1108.1,418.973 L 1100.56,418.973 L 1123.96,395.573 Z "/>
				<path id="dp_path099" fill="#69006e" fill-rule="evenodd" stroke="none" stroke-width="0" d="M 1123.96,416.829 L 1121.82,418.973 L 1114.28,418.973 L 1123.96,409.288 Z "/>
			</g>
		</g>
	</g>
	<g id="dp_dp100" transform="matrix(1,0,0,1,-948.137,-178.501)">
		<path id="dp_path101" fill="#faa724" fill-rule="evenodd" stroke="none" stroke-width="0" d="M 1058.02,359.177 C 1058.04,358.565 1058.55,358.087 1059.17,358.108 L 1076.36,358.719 C 1076.98,358.741 1077.45,359.255 1077.43,359.867 L 1077.33,362.852 C 1077.3,363.465 1076.79,363.943 1076.18,363.921 L 1058.98,363.311 C 1058.37,363.289 1057.89,362.776 1057.91,362.163 Z "/>
		<path id="dp_path102" fill="white" fill-rule="evenodd" stroke="none" stroke-width="0" d="M 1059.74,359.553 C 1059.74,359.377 1059.89,359.24 1060.07,359.247 L 1065.19,359.428 C 1065.36,359.435 1065.5,359.581 1065.49,359.757 L 1065.46,360.619 C 1065.46,360.795 1065.31,360.932 1065.13,360.925 L 1060.01,360.744 C 1059.84,360.737 1059.7,360.591 1059.71,360.415 Z "/>
		<path id="dp_path103" fill="#8b4217" fill-rule="evenodd" stroke="none" stroke-width="0" d="M 1038.97,251.616 L 1068.5,251.004 L 1069.38,258.625 L 1038.92,256.783 Z "/>
		<path id="dp_path104" fill="#8b4217" fill-rule="evenodd" stroke="none" stroke-width="0" d="M 1113.71,258.849 L 1084.73,253.116 L 1082.54,260.468 L 1112.85,263.944 Z "/>
		<path id="dp_path105" fill="red" fill-rule="evenodd" stroke="none" stroke-width="0" d="M 1091.64,342.475 C 1091.68,341.809 1092.26,341.307 1092.92,341.351 L 1109.87,342.495 C 1110.54,342.54 1111.04,343.116 1111,343.781 L 1110.18,355.897 C 1110.14,356.563 1109.56,357.067 1108.89,357.021 L 1091.94,355.879 C 1091.28,355.833 1090.77,355.257 1090.82,354.592 Z "/>
		<path id="dp_path106" fill="#e0e0e0" fill-rule="evenodd" stroke="none" stroke-width="0" d="M 1092.94,346.824 L 1109.51,347.943 L 1108.98,355.816 L 1092.41,354.699 Z "/>
	</g>
	<text id="dp_text107" transform="matrix(0.997732,0.0673189,-0.0673186,0.997732,148.02,174.868)" xml:space="preserve" fill="black" font-family="Mouse Memoirs" font-size="8" font-weight="400" x="0" y="0">Carl</text>
	<text id="dp_text108" transform="matrix(0.999065,0.0674089,-0.0673186,0.997732,145.262,166.469)" xml:space="preserve" fill="white" font-family="Indy Pimp" font-size="3" font-weight="400" x="0" y="0">Hi! My Name Is..</text>
	<g id="dp_dp109" transform="matrix(1,0,0,1,-948.137,-178.501)">
		<path id="dp_path110" fill="#939393" fill-rule="evenodd" stroke="none" stroke-width="0" d="M 1020.42,290.848 C 1019.75,290.005 1019.9,288.779 1020.74,288.111 L 1020.74,288.111 C 1021.58,287.443 1022.81,287.585 1023.48,288.429 L 1035.37,303.444 C 1036.04,304.287 1035.89,305.513 1035.05,306.181 L 1035.05,306.181 C 1034.21,306.849 1032.98,306.707 1032.31,305.863 Z "/>
		<path id="dp_path111" fill="#383838" fill-rule="evenodd" stroke="none" stroke-width="0" d="M 1016.21,272.147 C 1016.21,268.829 1018.9,266.14 1022.21,266.14 C 1025.53,266.14 1028.22,268.829 1028.22,272.147 L 1028.22,283.185 C 1028.22,286.503 1025.53,289.192 1022.21,289.192 C 1018.9,289.192 1016.21,286.503 1016.21,283.185 Z "/>
		<path id="dp_path112" fill="#383838" fill-rule="evenodd" stroke="none" stroke-width="0" d="M 1029.84,305.588 C 1029.84,302.271 1032.53,299.581 1035.85,299.581 C 1039.17,299.581 1041.86,302.271 1041.86,305.588 L 1041.86,307.861 C 1041.86,311.179 1039.17,313.868 1035.85,313.868 C 1032.53,313.868 1029.84,311.179 1029.84,307.861 Z "/>
		<path id="dp_path113" fill="#f8a269" fill-rule="evenodd" stroke="none" stroke-width="0" d="M 1132.07,431.113 C 1133.49,432.447 1134.95,433.047 1135.37,432.48 L 1135.37,432.481 L 1142.15,422.639 C 1142.17,422.608 1142.19,422.576 1142.22,422.541 C 1142.88,421.469 1142.06,419.323 1140.37,417.748 C 1138.75,416.229 1136.91,415.797 1136.19,416.733 L 1136.18,416.729 L 1136.16,416.775 C 1136.14,416.796 1136.13,416.817 1136.11,416.84 C 1136.08,416.896 1136.05,416.956 1136.02,417.019 L 1130.14,427.529 L 1130.14,427.529 C 1130.14,427.532 1130.14,427.535 1130.13,427.537 C 1129.75,428.156 1130.61,429.757 1132.07,431.113 Z "/>
		<path id="dp_path114" fill="#f8a269" fill-rule="evenodd" stroke="none" stroke-width="0" d="M 1149.05,440.004 C 1154.11,439.52 1158.12,437.993 1158.12,436.569 L 1158.12,436.569 L 1157.23,412.517 C 1157.24,412.437 1157.23,412.359 1157.23,412.279 C 1157.22,412.225 1157.21,412.175 1157.2,412.124 L 1135.57,414.197 C 1135.57,414.249 1135.57,414.301 1135.57,414.353 C 1135.59,414.487 1135.61,414.616 1135.65,414.744 L 1139.46,438.261 C 1139.46,438.267 1139.46,438.275 1139.46,438.281 C 1139.61,439.727 1143.9,440.499 1149.05,440.004 Z "/>
		<path id="dp_path115" fill="#bb672e" fill-rule="evenodd" stroke="none" stroke-width="0" d="M 1157.02,410.235 L 1135.37,412.309 L 1135.56,414.199 L 1157.21,412.123 Z "/>
	</g>
</svg>