<?xml version="1.0" encoding="UTF-8" standalone="no"?>
<svg version="1.1" xmlns="http://www.w3.org/2000/svg" xmlns:xlink="http://www.w3.org/1999/xlink" width="341" height="441">
	<defs>
		<radialGradient id="grad_dp_001" gradientUnits="userSpaceOnUse" cx="987.881" cy="367.597" r="81.9275">
			<stop offset="0" stop-color="#cfcfcf"/>
			<stop offset="1" stop-color="white"/>
		</radialGradient>
		<clipPath id="clip_dp_001" clipPathUnits="userSpaceOnUse" clip-rule="nonzero">
			<path d="M 115.745,243.693 L 128.753,244.155 L 138.683,274.507 L 120.891,294.948 L 106.785,273.375 Z " clip-rule="nonzero"/>
		</clipPath>
		<clipPath id="clip_dp_002" clipPathUnits="userSpaceOnUse" clip-rule="nonzero">
			<path d="M 115.615,238.065 L 115.616,238.003 L 115.621,237.941 L 115.627,237.88 L 115.635,237.82 L 115.653,237.7 L 115.68,237.584 L 115.709,237.468 L 115.747,237.356 L 115.765,237.3 L 115.788,237.245 L 115.792,237.231 L 115.799,237.217 L 115.811,237.192 L 115.836,237.14 L 115.86,237.087 L 115.887,237.035 L 115.913,236.983 L 115.943,236.933 L 115.972,236.883 L 116.004,236.835 L 116.071,236.74 L 116.104,236.692 L 116.14,236.648 L 116.176,236.603 L 116.215,236.56 L 116.252,236.517 L 116.293,236.476 L 116.376,236.397 L 116.417,236.357 L 116.461,236.32 L 116.481,236.3 L 116.504,236.283 L 116.551,236.248 L 116.595,236.212 L 116.643,236.18 L 116.691,236.147 L 116.74,236.117 L 116.788,236.085 L 116.839,236.057 L 116.889,236.029 L 116.941,236.004 L 116.993,235.977 L 117.045,235.955 L 117.099,235.931 L 117.155,235.911 L 117.208,235.889 L 117.264,235.871 L 117.32,235.852 L 117.348,235.844 L 117.361,235.84 L 117.369,235.837 L 117.377,235.837 L 117.433,235.821 L 117.491,235.809 L 117.548,235.797 L 117.608,235.788 L 117.667,235.777 L 117.727,235.771 L 117.787,235.764 L 117.847,235.76 L 117.907,235.756 L 117.969,235.755 L 118.031,235.755 L 118.093,235.757 L 127.855,236.104 L 127.915,236.105 L 127.976,236.111 L 128.036,236.116 L 128.097,236.124 L 128.156,236.132 L 128.216,236.143 L 128.275,236.153 L 128.333,236.168 L 128.391,236.181 L 128.448,236.199 L 128.504,236.215 L 128.56,236.235 L 128.671,236.276 L 128.724,236.299 L 128.779,236.324 L 128.829,236.348 L 128.881,236.375 L 128.932,236.401 L 128.983,236.431 L 129.08,236.492 L 129.176,236.559 L 129.268,236.628 L 129.356,236.703 L 129.397,236.74 L 129.44,236.781 L 129.521,236.864 L 129.559,236.905 L 129.596,236.949 L 129.632,236.992 L 129.668,237.039 L 129.736,237.131 L 129.8,237.228 L 129.828,237.276 L 129.857,237.327 L 129.912,237.429 L 129.961,237.533 L 130.007,237.643 L 130.044,237.752 L 130.077,237.865 L 130.092,237.921 L 130.105,237.979 L 130.117,238.036 L 130.129,238.096 L 130.137,238.155 L 130.145,238.215 L 130.152,238.275 L 130.157,238.335 L 130.16,238.395 L 130.161,238.457 L 130.161,238.519 L 130.161,238.581 L 129.936,244.875 L 129.927,244.997 L 129.92,245.057 L 129.913,245.119 L 129.904,245.177 L 129.893,245.237 L 129.881,245.296 L 129.869,245.355 L 129.853,245.411 L 129.837,245.468 L 129.82,245.524 L 129.801,245.581 L 129.759,245.691 L 129.713,245.799 L 129.661,245.903 L 129.605,246.004 L 129.544,246.101 L 129.479,246.197 L 129.408,246.289 L 129.335,246.377 L 129.256,246.461 L 129.175,246.543 L 129.088,246.617 L 129.043,246.653 L 128.999,246.689 L 128.905,246.757 L 128.809,246.821 L 128.709,246.879 L 128.659,246.905 L 128.608,246.933 L 128.503,246.983 L 128.396,247.028 L 128.284,247.065 L 128.172,247.099 L 128.115,247.113 L 128.057,247.127 L 127.999,247.139 L 127.941,247.151 L 127.881,247.159 L 127.821,247.167 L 127.761,247.173 L 127.701,247.179 L 127.64,247.181 L 127.58,247.183 L 127.519,247.183 L 127.457,247.183 L 117.697,246.837 L 117.573,246.828 L 117.512,246.821 L 117.452,246.815 L 117.392,246.805 L 117.332,246.795 L 117.273,246.783 L 117.216,246.771 L 117.157,246.755 L 117.1,246.739 L 117.044,246.721 L 116.988,246.703 L 116.877,246.66 L 116.772,246.615 L 116.667,246.561 L 116.615,246.533 L 116.565,246.505 L 116.515,246.475 L 116.467,246.444 L 116.419,246.411 L 116.372,246.379 L 116.324,246.343 L 116.28,246.308 L 116.256,246.289 L 116.235,246.271 L 116.192,246.235 L 116.108,246.156 L 116.068,246.115 L 116.029,246.075 L 115.989,246.031 L 115.969,246.009 L 115.952,245.988 L 115.932,245.965 L 115.915,245.943 L 115.88,245.899 L 115.844,245.852 L 115.812,245.805 L 115.779,245.757 L 115.749,245.709 L 115.689,245.609 L 115.636,245.508 L 115.609,245.455 L 115.587,245.403 L 115.563,245.349 L 115.543,245.296 L 115.521,245.24 L 115.503,245.184 L 115.484,245.128 L 115.469,245.072 L 115.453,245.015 L 115.441,244.957 L 115.429,244.899 L 115.42,244.841 L 115.409,244.781 L 115.403,244.721 L 115.396,244.661 L 115.392,244.601 L 115.388,244.54 L 115.387,244.48 L 115.387,244.419 L 115.389,244.359 Z " clip-rule="nonzero"/>
		</clipPath>
	</defs>
	<g id="dp_dp001" transform="matrix(1,0,0,1,-846.513,-106.308)">
		<path id="dp_path002" fill="#c1c1c1" fill-rule="evenodd" stroke="none" stroke-width="0" d="M 968.304,521 C 1035.16,521 1089.36,526.76 1089.36,533.865 C 1089.36,540.971 1035.16,546.731 968.304,546.731 C 901.449,546.731 847.252,540.971 847.252,533.865 C 847.252,526.76 901.449,521 968.304,521 Z "/>
		<path id="dp_path003" fill="#f8a269" fill-rule="evenodd" stroke="none" stroke-width="0" d="M 966.139,436.645 C 945.905,435.927 929.68,428.496 929.421,419.94 L 929.405,419.94 L 928.636,275.075 C 928.612,274.596 928.611,274.116 928.628,273.633 C 929.171,258.473 948.988,246.872 972.892,247.72 C 995.968,248.539 1014.42,260.66 1015.18,275.139 L 1015.25,275.14 L 1015.2,275.767 C 1015.21,276.077 1015.21,276.391 1015.19,276.705 C 1015.17,277.508 1015.08,278.3 1014.95,279.083 L 1003.99,422.008 L 1003.99,422.008 C 1003.99,422.048 1003.99,422.089 1003.99,422.132 C 1003.68,430.879 986.729,437.376 966.139,436.645 Z "/>
		<path id="dp_path004" fill="url(#grad_dp_001)" fill-rule="evenodd" stroke="none" stroke-width="0" d="M 966.139,436.645 C 945.905,435.927 929.653,429.233 929.361,421.599 L 929.345,421.599 L 928.384,327.899 L 969.32,347.625 L 1011.51,330.849 L 1003.93,423.728 L 1003.93,423.728 C 1003.93,423.765 1003.93,423.801 1003.93,423.839 C 1003.65,431.643 986.729,437.376 966.139,436.645 Z "/>
		<path id="dp_path005" fill="#1000a1" fill-rule="evenodd" stroke="none" stroke-width="0" d="M 962.259,350.001 L 975.267,350.463 L 985.196,380.815 L 967.404,401.256 L 953.299,379.683 Z "/>
		<path id="dp_path006" fill="#1000a1" fill-rule="evenodd" stroke="none" stroke-width="0" d="M 962.128,344.373 C 962.176,343.052 963.285,342.019 964.607,342.065 L 974.368,342.412 C 975.689,342.459 976.723,343.568 976.675,344.889 L 976.449,351.183 C 976.403,352.505 975.293,353.539 973.971,353.491 L 964.211,353.145 C 962.889,353.097 961.856,351.988 961.903,350.667 Z "/>
		<path id="dp_path007" fill="#5e2c10" fill-rule="evenodd" stroke="none" stroke-width="0" d="M 928.605,279.66 C 934.652,253.749 944.435,248.319 956.491,255.336 C 975.367,266.324 984.049,270.681 1005.63,261.187 C 1012.87,265.567 1013.32,273.917 1012.96,282.737 C 1018.67,273.472 1020.74,262.559 1014.66,250.063 C 1020.75,239.952 1021.38,231.6 1013.59,223.601 C 1014.69,229.908 1010.36,233.796 1003.28,236.459 C 1005.86,225.963 1002.91,219.112 997.129,214.129 C 1001.99,224.228 1000.81,231.931 983.321,233.159 C 962.476,234.621 943.979,227.436 943.465,242.012 C 919.497,234.363 926.683,259.827 928.605,279.66 Z "/>
		<path id="dp_path008" fill="white" fill-rule="evenodd" fill-opacity="0.2" stroke="none" stroke-width="0" d="M 983.392,237.324 C 975.471,240.659 963.405,236.459 957.068,239.345 C 969.371,236.557 977.904,243.895 989.555,242.528 C 961.387,253.448 957.595,236.403 945.856,241.972 C 957.36,230.487 974.044,239.227 983.392,237.324 Z "/>
		<path id="dp_path009" fill="white" fill-rule="evenodd" fill-opacity="0.2" stroke="none" stroke-width="0" d="M 939.373,245.9 C 935.511,246.628 933.208,249.264 931.297,252.379 C 929.937,249.056 929.656,245.848 932.675,242.992 C 937.605,241.072 939.536,242.365 939.373,245.9 Z "/>
		<path id="dp_path010" fill="#3d1c0a" fill-rule="evenodd" stroke="none" stroke-width="0" d="M 963.569,254.336 C 976.815,261.319 989.616,261.757 1004.38,257.792 C 1013.14,255.441 1025.45,237.831 1014.5,224.571 C 1024.92,236.559 1020.8,245.025 1016.3,253.919 C 1014.78,256.913 1009.71,259.151 1011.07,262.519 C 1015.03,272.307 1016.12,271.992 1012.96,282.739 C 1011.17,272.907 1011.42,261.983 1003.76,264.845 C 965.776,279.039 940.469,229.413 928.62,280.587 C 929.151,251.552 944.091,248.803 963.569,254.336 Z "/>
		<path id="dp_path011" fill="#f8a269" fill-rule="evenodd" stroke="none" stroke-width="0" d="M 926.917,413.663 C 926.769,415.253 926.197,416.416 925.631,416.295 L 925.631,416.296 L 916.065,413.965 C 916.033,413.96 916.001,413.952 915.969,413.943 C 914.972,413.649 914.305,411.888 914.48,410.009 C 914.649,408.195 915.543,406.933 916.501,407.112 L 916.503,407.107 L 916.544,407.12 C 916.564,407.125 916.584,407.131 916.605,407.137 C 916.659,407.152 916.711,407.172 916.761,407.196 L 926.14,410.423 L 926.14,410.423 C 926.143,410.424 926.145,410.424 926.148,410.425 C 926.724,410.595 927.068,412.044 926.917,413.663 Z "/>
		<path id="dp_path012" fill="#f8a269" fill-rule="evenodd" stroke="none" stroke-width="0" d="M 921.327,428.336 C 917.944,430.793 914.64,432.04 913.859,431.169 L 913.856,431.171 L 901.228,415.983 C 901.184,415.935 901.141,415.885 901.103,415.832 C 901.077,415.797 901.053,415.761 901.032,415.725 L 915.497,405.223 C 915.524,405.255 915.551,405.288 915.577,405.323 C 915.641,405.411 915.696,405.504 915.741,405.604 L 926.277,422.056 C 926.28,422.06 926.284,422.064 926.287,422.069 C 926.991,423.031 924.769,425.837 921.327,428.336 Z "/>
		<path id="dp_path013" fill="#bb672e" fill-rule="evenodd" stroke="none" stroke-width="0" d="M 900.108,414.472 L 914.583,403.961 L 915.501,405.219 L 901.028,415.728 Z "/>
		<path id="dp_path014" fill="#3d1c0a" fill-rule="evenodd" stroke="none" stroke-width="0" d="M 941.124,274.709 L 965.385,274.207 L 966.105,280.467 L 941.091,278.953 Z "/>
		<path id="dp_path015" fill="#3d1c0a" fill-rule="evenodd" stroke="none" stroke-width="0" d="M 1002.52,280.649 L 978.715,275.941 L 976.911,281.98 L 1001.81,284.835 Z "/>
		<path id="dp_path016" fill="black" fill-rule="evenodd" stroke="none" stroke-width="0" d="M 957.675,286.424 C 958.873,286.465 959.753,289.053 959.641,292.204 C 959.528,295.353 958.465,297.872 957.267,297.829 C 956.067,297.787 955.187,295.199 955.3,292.049 C 955.412,288.899 956.475,286.381 957.675,286.424 Z "/>
		<path id="dp_path017" fill="black" fill-rule="evenodd" stroke="none" stroke-width="0" d="M 985.308,287.404 C 986.508,287.447 987.388,290.035 987.275,293.184 C 987.163,296.335 986.1,298.853 984.9,298.811 C 983.701,298.768 982.821,296.18 982.933,293.031 C 983.047,289.88 984.109,287.361 985.308,287.404 Z "/>
		<path id="dp_path018" fill="#0f0045" fill-rule="evenodd" stroke="#00004b" stroke-width="1.33333" d="M 965.984,440.972 C 945.751,440.253 929.557,431.921 929.339,422.245 L 929.323,422.244 L 929.312,402.395 L 1005.29,405.091 L 1003.91,424.235 L 1003.91,424.235 C 1003.91,424.283 1003.91,424.328 1003.91,424.376 C 1003.55,434.273 986.575,441.703 965.984,440.972 Z "/>
		<path id="dp_path019" fill="#0f0045" fill-rule="evenodd" stroke="#00004b" stroke-width="18" d="M 987.261,429.647 C 992.963,457.54 993.544,486.377 988.044,516.336"/>
		<path id="dp_path020" fill="#0f0045" fill-rule="evenodd" stroke="#00004b" stroke-width="18" d="M 941.895,429.647 C 934.657,459.824 932.468,489.756 940.915,517.255"/>
		<path id="dp_path021" fill="#f9f9f9" fill-rule="evenodd" stroke="none" stroke-width="0" d="M 997.652,311.252 C 996.129,344.315 941.496,341.743 941.992,308.711 C 942.112,320.087 996.879,325.54 997.652,311.252 Z "/>
		<path id="dp_path022" fill="black" fill-rule="evenodd" fill-opacity="0.309804" stroke="none" stroke-width="0" d="M 997.652,311.252 C 998.207,323.92 959.721,322.816 945.817,316.163 C 943.677,315.139 945.929,322.995 944.887,321.075 C 942.665,316.983 942.099,313.212 941.992,308.711 C 942.112,320.087 996.879,325.54 997.652,311.252 Z "/>
		<path id="dp_path023" fill="none" fill-rule="evenodd" stroke="#acacac" stroke-width="1.33333" d="M 950.021,321.543 C 958.713,325.68 966.479,326.989 973.709,326.665"/>
		<path id="dp_path024" fill="none" fill-rule="evenodd" stroke="#f4f4f4" stroke-width="18" d="M 933.688,344.619 C 911.861,343.717 878.767,370.448 907.805,409.845"/>
		<path id="dp_path025" fill="black" fill-rule="evenodd" stroke="none" stroke-width="0" d="M 917.017,523.608 C 924.288,522.076 930.419,519.939 935.523,517.253 L 947.352,516.659 L 948.207,533.549 L 898.879,536.031 C 897.601,528.869 902.128,524.44 917.017,523.608 Z "/>
		<path id="dp_path026" fill="black" fill-rule="evenodd" stroke="none" stroke-width="0" d="M 1013.23,521.751 C 1005.89,520.585 999.663,518.76 994.431,516.335 L 982.587,516.335 L 982.587,533.247 L 1031.98,533.247 C 1032.89,526.031 1028.15,521.833 1013.23,521.751 Z "/>
		<path id="dp_path027" fill="#f8a269" fill-rule="evenodd" stroke="none" stroke-width="0" d="M 1068.67,332.608 C 1070.26,332.805 1071.41,333.411 1071.27,333.971 L 1071.27,333.971 L 1068.64,343.427 C 1068.63,343.457 1068.62,343.489 1068.61,343.52 C 1068.29,344.505 1066.5,345.115 1064.62,344.883 C 1062.81,344.657 1061.57,343.729 1061.78,342.78 L 1061.77,342.779 L 1061.79,342.739 C 1061.79,342.719 1061.8,342.697 1061.81,342.677 C 1061.82,342.625 1061.84,342.575 1061.87,342.524 L 1065.4,333.283 L 1065.4,333.283 C 1065.4,333.28 1065.4,333.277 1065.4,333.275 C 1065.59,332.705 1067.05,332.408 1068.67,332.608 Z "/>
		<path id="dp_path028" fill="#f8a269" fill-rule="evenodd" stroke="none" stroke-width="0" d="M 1083.22,338.631 C 1085.58,342.075 1086.72,345.404 1085.83,346.155 L 1085.83,346.157 L 1070.2,358.265 C 1070.15,358.308 1070.1,358.348 1070.05,358.385 C 1070.01,358.409 1069.98,358.432 1069.94,358.453 L 1059.85,343.723 C 1059.88,343.696 1059.92,343.671 1059.95,343.645 C 1060.04,343.584 1060.14,343.532 1060.24,343.491 L 1077.07,333.505 C 1077.07,333.503 1077.08,333.499 1077.08,333.496 C 1078.07,332.825 1080.82,335.124 1083.22,338.631 Z "/>
		<path id="dp_path029" fill="#bb672e" fill-rule="evenodd" stroke="none" stroke-width="0" d="M 1068.65,359.335 L 1058.56,344.593 L 1059.85,343.717 L 1069.94,358.457 Z "/>
		<path id="dp_path030" fill="none" fill-rule="evenodd" stroke="#e8e8e8" stroke-width="18" d="M 1008.47,343.491 C 1024.75,345.972 1020.66,381.263 1063.55,352.344"/>
	</g>
	<g id="clip">
		<g id="dp_dp031" clip-path="url(#clip_dp_001)">
			<g id="dp_dp032" transform="matrix(1.00001,0,0,1.00001,-846.525,-106.311)">
				<path id="dp_path033" fill="#69006e" fill-rule="evenodd" stroke="none" stroke-width="0" d="M 932.984,323.779 L 921.413,335.349 L 921.413,327.808 L 925.443,323.779 Z "/>
				<path id="dp_path034" fill="#69006e" fill-rule="evenodd" stroke="none" stroke-width="0" d="M 946.697,323.779 L 921.413,349.063 L 921.413,341.521 L 939.156,323.779 Z "/>
				<path id="dp_path035" fill="#69006e" fill-rule="evenodd" stroke="none" stroke-width="0" d="M 960.412,323.779 L 921.413,362.777 L 921.413,355.236 L 952.871,323.779 Z "/>
				<path id="dp_path036" fill="#69006e" fill-rule="evenodd" stroke="none" stroke-width="0" d="M 974.127,323.779 L 921.413,376.492 L 921.413,368.951 L 966.585,323.779 Z "/>
				<path id="dp_path037" fill="#69006e" fill-rule="evenodd" stroke="none" stroke-width="0" d="M 987.841,323.779 L 921.413,390.207 L 921.413,382.665 L 980.3,323.779 Z "/>
				<path id="dp_path038" fill="#69006e" fill-rule="evenodd" stroke="none" stroke-width="0" d="M 1001.55,323.779 L 921.413,403.92 L 921.413,396.379 L 994.013,323.779 Z "/>
				<path id="dp_path039" fill="#69006e" fill-rule="evenodd" stroke="none" stroke-width="0" d="M 1015.27,323.779 L 921.413,417.635 L 921.413,410.093 L 1007.73,323.779 Z "/>
				<path id="dp_path040" fill="#69006e" fill-rule="evenodd" stroke="none" stroke-width="0" d="M 1017.41,335.349 L 932.984,419.779 L 925.443,419.779 L 1017.41,327.808 Z "/>
				<path id="dp_path041" fill="#69006e" fill-rule="evenodd" stroke="none" stroke-width="0" d="M 1017.41,349.063 L 946.697,419.779 L 939.156,419.779 L 1017.41,341.521 Z "/>
				<path id="dp_path042" fill="#69006e" fill-rule="evenodd" stroke="none" stroke-width="0" d="M 1017.41,362.777 L 960.412,419.779 L 952.871,419.779 L 1017.41,355.236 Z "/>
				<path id="dp_path043" fill="#69006e" fill-rule="evenodd" stroke="none" stroke-width="0" d="M 1017.41,376.492 L 974.127,419.779 L 966.585,419.779 L 1017.41,368.951 Z "/>
				<path id="dp_path044" fill="#69006e" fill-rule="evenodd" stroke="none" stroke-width="0" d="M 1017.41,390.207 L 987.841,419.779 L 980.3,419.779 L 1017.41,382.665 Z "/>
				<path id="dp_path045" fill="#69006e" fill-rule="evenodd" stroke="none" stroke-width="0" d="M 1017.41,403.92 L 1001.55,419.779 L 994.013,419.779 L 1017.41,396.379 Z "/>
				<path id="dp_path046" fill="#69006e" fill-rule="evenodd" stroke="none" stroke-width="0" d="M 1017.41,417.635 L 1015.27,419.779 L 1007.73,419.779 L 1017.41,410.093 Z "/>
			</g>
		</g>
	</g>
	<g id="clip">
		<g id="dp_dp047" clip-path="url(#clip_dp_002)">
			<g id="dp_dp048" transform="matrix(1.00003,0,0,1.00004,-846.538,-106.323)">
				<path id="dp_path049" fill="#69006e" fill-rule="evenodd" stroke="none" stroke-width="0" d="M 933.979,323.763 L 922.408,335.333 L 922.408,327.792 L 926.437,323.763 Z "/>
				<path id="dp_path050" fill="#69006e" fill-rule="evenodd" stroke="none" stroke-width="0" d="M 947.692,323.763 L 922.408,349.047 L 922.408,341.505 L 940.151,323.763 Z "/>
				<path id="dp_path051" fill="#69006e" fill-rule="evenodd" stroke="none" stroke-width="0" d="M 961.407,323.763 L 922.408,362.761 L 922.408,355.22 L 953.865,323.763 Z "/>
				<path id="dp_path052" fill="#69006e" fill-rule="evenodd" stroke="none" stroke-width="0" d="M 975.121,323.763 L 922.408,376.476 L 922.408,368.935 L 967.58,323.763 Z "/>
				<path id="dp_path053" fill="#69006e" fill-rule="evenodd" stroke="none" stroke-width="0" d="M 988.836,323.763 L 922.408,390.191 L 922.408,382.649 L 981.295,323.763 Z "/>
				<path id="dp_path054" fill="#69006e" fill-rule="evenodd" stroke="none" stroke-width="0" d="M 1002.55,323.763 L 922.408,403.904 L 922.408,396.363 L 995.008,323.763 Z "/>
				<path id="dp_path055" fill="#69006e" fill-rule="evenodd" stroke="none" stroke-width="0" d="M 1016.26,323.763 L 922.408,417.619 L 922.408,410.077 L 1008.72,323.763 Z "/>
				<path id="dp_path056" fill="#69006e" fill-rule="evenodd" stroke="none" stroke-width="0" d="M 1018.41,335.333 L 933.979,419.763 L 926.437,419.763 L 1018.41,327.792 Z "/>
				<path id="dp_path057" fill="#69006e" fill-rule="evenodd" stroke="none" stroke-width="0" d="M 1018.41,349.047 L 947.692,419.763 L 940.151,419.763 L 1018.41,341.505 Z "/>
				<path id="dp_path058" fill="#69006e" fill-rule="evenodd" stroke="none" stroke-width="0" d="M 1018.41,362.761 L 961.407,419.763 L 953.865,419.763 L 1018.41,355.22 Z "/>
				<path id="dp_path059" fill="#69006e" fill-rule="evenodd" stroke="none" stroke-width="0" d="M 1018.41,376.476 L 975.121,419.763 L 967.58,419.763 L 1018.41,368.935 Z "/>
				<path id="dp_path060" fill="#69006e" fill-rule="evenodd" stroke="none" stroke-width="0" d="M 1018.41,390.191 L 988.836,419.763 L 981.295,419.763 L 1018.41,382.649 Z "/>
				<path id="dp_path061" fill="#69006e" fill-rule="evenodd" stroke="none" stroke-width="0" d="M 1018.41,403.904 L 1002.55,419.763 L 995.008,419.763 L 1018.41,396.363 Z "/>
				<path id="dp_path062" fill="#69006e" fill-rule="evenodd" stroke="none" stroke-width="0" d="M 1018.41,417.619 L 1016.26,419.763 L 1008.72,419.763 L 1018.41,410.077 Z "/>
			</g>
		</g>
	</g>
	<g id="dp_dp063" transform="matrix(1,0,0,1,-846.513,-106.308)">
		<path id="dp_path064" fill="#faa724" fill-rule="evenodd" stroke="none" stroke-width="0" d="M 955.669,362.073 C 955.688,361.571 956.109,361.177 956.612,361.195 L 970.74,361.696 C 971.241,361.715 971.635,362.136 971.617,362.639 L 971.529,365.092 C 971.511,365.595 971.089,365.988 970.587,365.969 L 956.46,365.468 C 955.957,365.451 955.564,365.028 955.581,364.525 Z "/>
		<path id="dp_path065" fill="white" fill-rule="evenodd" stroke="none" stroke-width="0" d="M 957.083,362.383 C 957.088,362.237 957.209,362.125 957.355,362.129 L 961.559,362.279 C 961.704,362.284 961.816,362.405 961.811,362.551 L 961.787,363.256 C 961.781,363.401 961.66,363.515 961.515,363.509 L 957.311,363.36 C 957.165,363.355 957.052,363.233 957.057,363.088 Z "/>
		<path id="dp_path066" fill="#8b4217" fill-rule="evenodd" stroke="none" stroke-width="0" d="M 940.023,273.729 L 964.283,273.228 L 965.004,279.487 L 939.989,277.975 Z "/>
		<path id="dp_path067" fill="#8b4217" fill-rule="evenodd" stroke="none" stroke-width="0" d="M 1001.41,279.671 L 977.613,274.961 L 975.809,281 L 1000.71,283.856 Z "/>
		<path id="dp_path068" fill="#89a1ff" fill-rule="evenodd" stroke="none" stroke-width="0" d="M 1148.89,111.895 C 1175.08,117.087 1191.42,145.86 1185.37,176.163 C 1179.32,206.465 1153.18,226.82 1126.98,221.628 C 1100.78,216.436 1084.45,187.661 1090.5,157.36 C 1096.55,127.056 1122.69,106.703 1148.89,111.895 Z "/>
		<path id="dp_path069" fill="white" fill-rule="evenodd" fill-opacity="0.498039" stroke="none" stroke-width="0" d="M 1147.37,119.493 C 1150.26,120.067 1153,121.003 1155.57,122.257 C 1136.71,123.661 1119.06,142.131 1114.01,167.449 C 1111.67,179.144 1112.38,190.513 1115.49,200.2 C 1103.59,190.803 1097.41,173.603 1100.98,155.732 C 1105.8,131.595 1126.57,115.371 1147.37,119.493 Z "/>
		<path id="dp_path070" fill="black" fill-rule="evenodd" stroke="none" stroke-width="0" d="M 1121.48,162.996 C 1122.09,163.115 1122.54,163.449 1122.84,163.999 C 1123.14,164.551 1123.22,165.171 1123.08,165.864 C 1122.95,166.521 1122.63,167.069 1122.12,167.504 C 1121.61,167.943 1121.06,168.101 1120.49,167.987 C 1119.92,167.876 1119.5,167.552 1119.22,167.019 C 1118.94,166.485 1118.87,165.875 1119.01,165.183 C 1119.15,164.499 1119.44,163.933 1119.9,163.487 C 1120.35,163.039 1120.88,162.876 1121.48,162.996 Z "/>
		<path id="dp_path071" fill="black" fill-rule="evenodd" stroke="none" stroke-width="0" d="M 1133.22,152.868 C 1134.75,153.172 1135.9,154.111 1136.65,155.68 C 1137.41,157.252 1137.52,159.384 1136.98,162.08 C 1136.4,164.985 1135.44,167.081 1134.1,168.363 C 1132.76,169.645 1131.31,170.132 1129.75,169.821 C 1128.67,169.608 1127.8,169.083 1127.15,168.244 C 1126.49,167.405 1126.06,166.373 1125.86,165.155 C 1125.66,163.933 1125.75,162.336 1126.15,160.364 C 1126.71,157.547 1127.63,155.515 1128.9,154.265 C 1130.17,153.013 1131.61,152.548 1133.22,152.868 Z M 1133.49,156.092 C 1133.69,155.084 1133.5,154.523 1132.91,154.405 C 1132.27,154.28 1131.83,154.835 1131.58,156.068 L 1129.56,166.188 C 1129.32,167.413 1129.49,168.085 1130.07,168.199 C 1130.71,168.328 1131.16,167.777 1131.4,166.552 Z "/>
		<path id="dp_path072" fill="black" fill-rule="evenodd" stroke="none" stroke-width="0" d="M 1143.47,158.468 C 1143.61,158.292 1143.8,157.972 1144.03,157.509 C 1144.56,156.507 1144.99,155.901 1145.35,155.691 C 1145.7,155.481 1146.05,155.412 1146.41,155.483 C 1146.9,155.58 1147.23,155.887 1147.38,156.4 C 1147.54,156.912 1147.55,157.517 1147.41,158.217 C 1147.11,159.724 1146.53,160.392 1145.68,160.224 C 1145.26,160.141 1144.98,159.828 1144.85,159.289 C 1144.77,158.979 1144.65,158.809 1144.5,158.78 C 1144.14,158.708 1143.87,159.072 1143.71,159.873 L 1141.77,169.581 C 1141.71,169.891 1141.81,170.144 1142.07,170.347 C 1142.33,170.543 1142.42,170.796 1142.36,171.105 L 1142.25,171.657 C 1142.21,171.852 1142.16,171.972 1142.11,172.019 C 1142.05,172.061 1141.92,172.063 1141.71,172.021 L 1137.09,171.104 C 1136.77,171.041 1136.64,170.857 1136.7,170.556 L 1136.83,169.881 C 1136.88,169.653 1136.98,169.515 1137.13,169.471 C 1137.44,169.388 1137.62,169.204 1137.68,168.92 L 1140.12,156.672 C 1140.18,156.396 1140.12,156.176 1139.95,156.017 C 1139.76,155.853 1139.66,155.733 1139.64,155.655 C 1139.62,155.581 1139.64,155.367 1139.71,155.016 C 1139.77,154.723 1139.85,154.545 1139.95,154.489 C 1140.05,154.433 1140.21,154.425 1140.41,154.465 L 1143.72,155.121 C 1143.88,155.153 1143.97,155.217 1144.01,155.315 C 1144.05,155.411 1144.04,155.624 1143.98,155.951 Z "/>
		<path id="dp_path073" fill="black" fill-rule="evenodd" stroke="none" stroke-width="0" d="M 1155.66,157.473 C 1155.98,157.261 1156.16,157.077 1156.19,156.923 C 1156.23,156.705 1156.11,156.471 1155.82,156.219 C 1155.43,155.873 1155.28,155.513 1155.35,155.141 C 1155.5,154.389 1156.1,154.116 1157.14,154.323 C 1157.78,154.449 1158.22,154.669 1158.46,154.988 C 1158.7,155.304 1158.78,155.649 1158.71,156.021 C 1158.57,156.735 1157.87,157.465 1156.62,158.217 C 1158.16,159.851 1158.71,161.771 1158.27,163.98 C 1157.89,165.871 1157.08,167.265 1155.82,168.164 C 1154.56,169.06 1153.25,169.376 1151.89,169.108 C 1151.46,169.024 1151.01,168.863 1150.53,168.625 C 1150.27,168.505 1150.07,168.431 1149.93,168.403 C 1149.67,168.351 1149.38,168.395 1149.05,168.533 C 1148.72,168.673 1148.53,168.856 1148.49,169.085 C 1148.41,169.487 1148.81,169.775 1149.7,169.951 L 1153.04,170.612 C 1154.22,170.849 1155.15,171.285 1155.81,171.925 C 1156.47,172.561 1156.69,173.421 1156.47,174.504 C 1156.02,176.797 1153.83,177.557 1149.92,176.784 C 1148.41,176.485 1147.23,176.096 1146.38,175.611 C 1145.52,175.128 1145.16,174.563 1145.29,173.911 C 1145.36,173.559 1145.51,173.304 1145.73,173.14 C 1145.96,172.979 1146.33,172.828 1146.85,172.684 C 1146.93,172.665 1147.03,172.635 1147.18,172.596 C 1146.16,171.885 1145.77,170.964 1145.99,169.832 C 1146.25,168.551 1147.23,167.751 1148.95,167.431 C 1147.68,165.945 1147.25,164.192 1147.65,162.163 C 1148.01,160.355 1148.83,158.964 1150.08,157.996 C 1151.34,157.027 1152.7,156.685 1154.16,156.975 C 1154.57,157.057 1155.07,157.223 1155.66,157.473 Z M 1154.43,160.403 C 1154.64,159.348 1154.45,158.763 1153.86,158.647 C 1153.57,158.588 1153.3,158.709 1153.06,159.013 C 1152.83,159.316 1152.67,159.656 1152.59,160.039 L 1151.38,166.085 C 1151.32,166.419 1151.35,166.713 1151.47,166.969 C 1151.59,167.225 1151.78,167.38 1152.04,167.432 C 1152.32,167.487 1152.57,167.411 1152.8,167.207 C 1153.02,167.001 1153.17,166.713 1153.24,166.341 Z M 1148.69,173.34 C 1148.12,173.447 1147.8,173.655 1147.74,173.961 C 1147.68,174.271 1147.83,174.541 1148.17,174.769 C 1148.52,174.999 1149.29,175.231 1150.48,175.467 C 1152.53,175.873 1153.63,175.72 1153.77,175.005 C 1153.85,174.599 1153.55,174.328 1152.85,174.191 L 1149.47,173.52 C 1149.2,173.467 1148.94,173.407 1148.69,173.34 Z "/>
		<path id="dp_path074" fill="#ff1019" fill-rule="evenodd" stroke="none" stroke-width="0" d="M 1102.73,171.745 C 1129.23,168.419 1153.86,190.569 1157.73,221.225 C 1161.61,251.879 1143.27,279.424 1116.77,282.751 C 1090.27,286.077 1065.64,263.924 1061.77,233.271 C 1057.89,202.617 1076.23,175.071 1102.73,171.745 Z "/>
		<path id="dp_path075" fill="#ff1019" fill-rule="evenodd" stroke="none" stroke-width="0" d="M 1115.53,272.968 L 1130.78,290.924 L 1105.22,294.132 Z "/>
		<path id="dp_path076" fill="white" fill-rule="evenodd" fill-opacity="0.498039" stroke="none" stroke-width="0" d="M 1103.7,179.432 C 1106.63,179.065 1109.53,179.089 1112.36,179.472 C 1094.91,186.745 1084.03,209.827 1087.27,235.439 C 1088.76,247.268 1093.04,257.832 1099.06,266.043 C 1084.8,260.875 1073.48,246.503 1071.19,228.424 C 1068.11,204.008 1082.66,182.073 1103.7,179.432 Z "/>
		<path id="dp_path077" fill="none" fill-rule="evenodd" stroke="#444754" stroke-width="1.33333" d="M 1070.35,338.068 L 1108.62,284.255"/>
		<path id="dp_path078" fill="none" fill-rule="evenodd" stroke="#444754" stroke-width="1.33333" d="M 1070.35,338.068 L 1085.1,273.789"/>
		<path id="dp_path079" fill="none" fill-rule="evenodd" stroke="#444754" stroke-width="1.33333" d="M 1070.35,338.068 L 1072.58,219.645"/>
		<path id="dp_path080" fill="none" fill-rule="evenodd" stroke="#444754" stroke-width="1.33333" d="M 1070.35,338.068 L 1071.27,356.493"/>
		<path id="dp_path081" fill="none" fill-rule="evenodd" stroke="#444754" stroke-width="1.33333" d="M 1070.35,338.068 C 1073.82,343.304 1073.7,349.568 1071.27,356.493"/>
		<path id="dp_path082" fill="none" fill-rule="evenodd" stroke="#444754" stroke-width="1.33333" d="M 1071.27,358.999 C 1074.74,364.235 1074.62,370.499 1072.19,377.424"/>
		<path id="dp_path083" fill="none" fill-rule="evenodd" stroke="#444754" stroke-width="1.33333" d="M 1070.35,357.713 C 1073.82,362.949 1069.31,377.445 1066.88,384.371"/>
		<path id="dp_path084" fill="#38ff16" fill-rule="evenodd" stroke="none" stroke-width="0" d="M 1075.9,107.077 C 1102.53,109.189 1122.12,135.868 1119.66,166.667 C 1117.2,197.465 1093.62,220.72 1066.99,218.609 C 1040.37,216.497 1020.77,189.82 1023.23,159.021 C 1025.69,128.223 1049.27,104.967 1075.9,107.077 Z "/>
		<path id="dp_path085" fill="white" fill-rule="evenodd" fill-opacity="0.498039" stroke="none" stroke-width="0" d="M 1075.28,114.803 C 1078.22,115.035 1081.05,115.647 1083.75,116.593 C 1065.18,120.181 1049.82,140.576 1047.76,166.309 C 1046.81,178.195 1048.85,189.405 1053.07,198.664 C 1040.15,190.713 1032,174.349 1033.45,156.185 C 1035.41,131.653 1054.14,113.125 1075.28,114.803 Z "/>
		<path id="dp_path086" fill="#38ff16" fill-rule="evenodd" stroke="none" stroke-width="0" d="M 1067.78,208.781 L 1079.05,229.451 L 1053.37,227.415 Z "/>
		<path id="dp_path087" fill="red" fill-rule="evenodd" stroke="none" stroke-width="0" d="M 983.283,348.355 C 983.32,347.808 983.792,347.395 984.34,347.432 L 998.263,348.371 C 998.809,348.408 999.223,348.881 999.185,349.428 L 998.513,359.38 C 998.477,359.927 998.004,360.34 997.457,360.303 L 983.535,359.364 C 982.988,359.327 982.575,358.853 982.612,358.307 Z "/>
		<path id="dp_path088" fill="#e0e0e0" fill-rule="evenodd" stroke="none" stroke-width="0" d="M 984.353,351.928 L 997.96,352.845 L 997.524,359.312 L 983.917,358.395 Z "/>
	</g>
	<text id="dp_text089" transform="matrix(0.997732,0.0673188,-0.0673188,0.997732,140.482,250.995)" xml:space="preserve" fill="black" font-family="Mouse Memoirs" font-size="6" font-weight="400" x="0" y="0">Carl</text>
	<text id="dp_text090" transform="matrix(0.997732,0.0673188,-0.0673188,0.997732,138.217,244.097)" xml:space="preserve" fill="white" font-family="Indy Pimp" font-size="2" font-weight="400" x="0" y="0">Hi! My Name Is..</text>
	<text id="dp_text091" transform="matrix(0.990268,-0.139173,0.139173,0.990268,240.586,130.752)" xml:space="preserve" fill="black" font-family="Berlin Sans FB" font-size="32" font-weight="400" x="0" y="0">.net</text>
	<text id="dp_text092" transform="matrix(0.983159,0.18275,-0.18275,0.983159,197.422,59.4351)" xml:space="preserve" fill="black" font-family="Bangers" font-size="27" font-weight="400" x="0" y="0">.com</text>
</svg>