<?xml version="1.0" encoding="UTF-8" standalone="no"?>
<svg version="1.1" xmlns="http://www.w3.org/2000/svg" xmlns:xlink="http://www.w3.org/1999/xlink" xmlns:i="http://ns.adobe.com/AdobeIllustrator/10.0/" width="1099.93" height="453.967">
	<defs>
		<clipPath id="clip_dp_001" clipPathUnits="userSpaceOnUse" clip-rule="nonzero">
			<path d="M 0,0 L 1100,0 L 1100,454 L 0,454 Z " clip-rule="nonzero"/>
		</clipPath>
		<linearGradient id="grad_dp_001" gradientUnits="userSpaceOnUse" x1="385.869" y1="410.581" x2="990.013" y2="53.3533">
			<stop offset="0" stop-color="#0094b2"/>
			<stop offset="1" stop-color="#3f3fbf"/>
		</linearGradient>
	</defs>
	<g id="dp_dp001" clip-path="url(#clip_dp_001)">
		<g id="clip" i:layer="yes">
			<path id="dp_path002" fill="url(#grad_dp_001)" fill-rule="evenodd" stroke="none" stroke-width="0" d="M 0,0 L 1100,0 L 1100,453.997 L 0,453.997 Z "/>
			<path id="dp_path003" fill="#b5b5b5" fill-rule="evenodd" stroke="none" stroke-width="0" d="M 310.781,429.524 C 400.785,419.843 398.108,423.545 599.9,361.881 S 957.369,291.317 1099.99,300 L 1099.99,454 L 310.781,454 Z "/>
			<path id="dp_path004" fill="#e2e2e2" fill-rule="evenodd" stroke="none" stroke-width="0" d="M 0,376.72 C 191.716,427.669 393.4,439.789 595.193,380.708 S 957.371,318.348 1100,326.667 L 1100,454 L 0,454 Z "/>
			<path id="dp_path005" fill="white" fill-rule="evenodd" stroke="none" stroke-width="0" d="M 0,385.293 C 191.716,430.591 385.844,461.511 587.639,408.984 S 959.255,346.568 1100,385.293 L 1100,454 L 0,454 Z "/>
			<path id="dp_path006" fill="white" fill-rule="evenodd" fill-opacity="0.27451" stroke="none" stroke-width="0" d="M 0,236.437 C 144.096,298.573 280.111,267.963 508.571,199.429 S 959.255,200.24 1100,291.711 L 1100,453.999 L 0,453.999 Z "/>
			<path id="dp_path007" fill="white" fill-rule="evenodd" fill-opacity="0.27451" stroke="none" stroke-width="0" d="M 0,125.659 C 144.096,219.433 164.875,286.285 425.715,320.952 S 951.635,219.097 1100,293.333 L 1100,453.997 L 0,453.997 Z "/>
			<path id="dp_path008" fill="white" fill-rule="evenodd" fill-opacity="0.129412" stroke="none" stroke-width="0" d="M 0,0 L 1017.64,0 C 686.924,89.344 298.112,195.96 0,0 Z "/>
		</g>
	</g>
</svg>