<?xml version="1.0" encoding="UTF-8" standalone="no"?>
<svg version="1.1" xmlns="http://www.w3.org/2000/svg" xmlns:xlink="http://www.w3.org/1999/xlink" xmlns:i="http://ns.adobe.com/AdobeIllustrator/10.0/" width="203.389" height="65.0853">
	<g id="dp_dp001" transform="matrix(1,0,0,1,-31.9773,50.7847)">
		<path id="dp_path002" fill="#f8ffc8" fill-rule="evenodd" stroke="#0d00a5" stroke-width="0.666667" d="M 46.1933,-18.8533 L 48.2867,-18.8533 C 50.6293,-18.8533 52.4493,-19.2933 53.756,-20.176 C 55.0613,-21.0547 55.7147,-22.4 55.7147,-24.208 C 55.7147,-25.4787 55.2907,-26.428 54.44,-27.0613 C 53.5893,-27.6947 52.256,-28.012 50.432,-28.012 L 48.4453,-28.012 Z M 44.772,-13.008 L 41.5787,0 L 33.3987,0 L 41.6853,-33.9 L 51.3133,-33.9 C 55.552,-33.9 58.7387,-33.1133 60.864,-31.5373 C 62.9933,-29.9587 64.0573,-27.648 64.0573,-24.604 C 64.0573,-22.1627 63.3133,-20.0613 61.8293,-18.308 C 60.3453,-16.5547 58.208,-15.252 55.4173,-14.4013 L 62.4187,0 L 53.5147,0 L 47.9613,-13.008 Z "/>
		<path id="dp_path003" fill="#f8ffc8" fill-rule="evenodd" stroke="#0d00a5" stroke-width="0.666667" d="M 84.0787,-21.3787 C 82.504,-21.3787 81.0187,-20.7613 79.6267,-19.5267 C 78.2333,-18.288 77.3187,-16.78 76.892,-15.0027 L 78.0987,-15.0027 C 80.8693,-15.0027 83.0293,-15.3787 84.5733,-16.1267 C 86.12,-16.8787 86.896,-17.896 86.896,-19.1787 C 86.896,-20.6467 85.9547,-21.3787 84.0787,-21.3787 Z M 79.6813,0.462667 C 75.9253,0.462667 73.0093,-0.412 70.936,-2.15733 C 68.8613,-3.90267 67.8253,-6.368 67.8253,-9.55333 C 67.8253,-12.7547 68.5613,-15.672 70.0373,-18.308 C 71.5133,-20.944 73.512,-22.9533 76.0333,-24.3347 C 78.5533,-25.72 81.4067,-26.4133 84.5893,-26.4133 C 87.7547,-26.4133 90.22,-25.784 91.9893,-24.5213 C 93.7627,-23.2627 94.6453,-21.5333 94.6453,-19.34 C 94.6453,-16.448 93.1533,-14.22 90.1693,-12.648 C 87.1813,-11.0813 82.9147,-10.2973 77.3747,-10.2973 L 76.0053,-10.2973 L 75.9493,-9.81067 L 75.9493,-9.344 C 75.9493,-7.93867 76.4133,-6.83067 77.3347,-6.02 C 78.2533,-5.204 79.5707,-4.8 81.288,-4.8 C 82.844,-4.8 84.256,-4.94667 85.5267,-5.24 C 86.7973,-5.536 88.3333,-6.05067 90.1413,-6.79467 L 90.1413,-1.532 C 87.0667,-0.201333 83.58,0.462667 79.6813,0.462667 Z M 79.5907,-29.3573 C 81.004,-30.7187 82.9907,-33.0613 85.5467,-36.3813 L 94.5307,-36.3813 L 94.5307,-35.9907 C 93.7107,-35.1227 92.3333,-33.944 90.4027,-32.452 C 88.472,-30.96 86.7373,-29.7373 85.1987,-28.78 L 79.5907,-28.78 Z "/>
		<path id="dp_path004" fill="#f8ffc8" fill-rule="evenodd" stroke="#0d00a5" stroke-width="0.666667" d="M 118.165,-8.556 C 118.165,-5.652 117.053,-3.41867 114.829,-1.868 C 112.601,-0.312 109.503,0.462667 105.533,0.462667 C 103.621,0.462667 101.956,0.348 100.531,0.114667 C 99.1093,-0.114667 97.784,-0.502667 96.5493,-1.04533 L 96.5493,-6.79467 C 99.3547,-5.40267 102.209,-4.70933 105.105,-4.70933 C 106.535,-4.70933 107.705,-4.95867 108.62,-5.46133 C 109.531,-5.964 109.985,-6.64933 109.985,-7.512 C 109.985,-8.176 109.657,-8.77333 108.996,-9.3 C 108.331,-9.82667 107.164,-10.488 105.481,-11.2947 C 103.317,-12.344 101.805,-13.392 100.947,-14.4373 C 100.088,-15.4787 99.66,-16.7133 99.66,-18.1333 C 99.66,-20.7613 100.649,-22.8 102.624,-24.244 C 104.599,-25.688 107.421,-26.4133 111.085,-26.4133 C 114.679,-26.4133 117.924,-25.676 120.821,-24.208 L 118.165,-19.2253 C 115.664,-20.524 113.357,-21.1733 111.248,-21.1733 C 110.227,-21.1733 109.408,-20.9747 108.779,-20.5787 C 108.153,-20.188 107.84,-19.6573 107.84,-18.992 C 107.84,-18.3907 108.129,-17.86 108.699,-17.4053 C 109.273,-16.9467 110.345,-16.372 111.916,-15.676 C 114.117,-14.7027 115.708,-13.6413 116.693,-12.4973 C 117.675,-11.3547 118.165,-10.04 118.165,-8.556 Z "/>
		<path id="dp_path005" fill="#f8ffc8" fill-rule="evenodd" stroke="#0d00a5" stroke-width="0.666667" d="M 128.921,-25.9253 L 136.996,-25.9253 L 133.319,-10.784 C 133.033,-9.732 132.892,-8.81333 132.892,-8.02133 C 132.892,-6.12267 133.857,-5.172 135.788,-5.172 C 137.431,-5.172 138.927,-6.05067 140.268,-7.816 C 141.605,-9.57733 142.663,-12.0347 143.431,-15.1893 L 146.059,-25.9253 L 154.132,-25.9253 L 147.776,0 L 141.605,0 L 142.172,-4.8 L 142.009,-4.8 C 139.417,-1.29067 136.244,0.462667 132.488,0.462667 C 130.019,0.462667 128.135,-0.174667 126.828,-1.448 C 125.523,-2.72667 124.869,-4.56667 124.869,-6.98133 C 124.869,-8.41733 125.087,-10.064 125.515,-11.92 Z "/>
		<path id="dp_path006" fill="#f8ffc8" fill-rule="evenodd" stroke="#0d00a5" stroke-width="0.666667" d="M 177.712,-26.4133 C 181.629,-26.4133 183.973,-24.652 184.74,-21.1253 L 184.899,-21.1253 C 186.117,-22.8267 187.551,-24.1333 189.204,-25.044 C 190.859,-25.9573 192.624,-26.4133 194.504,-26.4133 C 196.933,-26.4133 198.789,-25.756 200.068,-24.4413 C 201.347,-23.128 201.988,-21.296 201.988,-18.9453 C 201.988,-17.7693 201.781,-16.38 201.371,-14.7733 L 197.8,0 L 189.727,0 L 193.431,-15.1413 C 193.716,-16.1947 193.859,-17.112 193.859,-17.9 C 193.859,-19.804 192.984,-20.7533 191.231,-20.7533 C 189.584,-20.7533 188.096,-19.8867 186.763,-18.1573 C 185.433,-16.424 184.372,-13.9667 183.585,-10.784 L 181.012,0 L 172.939,0 L 176.612,-15.1413 C 176.896,-16.1947 177.043,-17.112 177.043,-17.9 C 177.043,-19.804 176.164,-20.7533 174.411,-20.7533 C 172.769,-20.7533 171.277,-19.8747 169.935,-18.1093 C 168.593,-16.348 167.537,-13.8907 166.769,-10.7373 L 164.141,0 L 156.068,0 L 162.424,-25.9253 L 168.593,-25.9253 L 168.028,-21.1253 L 168.191,-21.1253 C 170.801,-24.652 173.976,-26.4133 177.712,-26.4133 Z "/>
		<path id="dp_path007" fill="#f8ffc8" fill-rule="evenodd" stroke="#0d00a5" stroke-width="0.666667" d="M 223.387,-21.3787 C 221.812,-21.3787 220.327,-20.7613 218.935,-19.5267 C 217.541,-18.288 216.627,-16.78 216.2,-15.0027 L 217.407,-15.0027 C 220.177,-15.0027 222.337,-15.3787 223.881,-16.1267 C 225.428,-16.8787 226.204,-17.896 226.204,-19.1787 C 226.204,-20.6467 225.263,-21.3787 223.387,-21.3787 Z M 218.989,0.462667 C 215.233,0.462667 212.317,-0.412 210.244,-2.15733 C 208.169,-3.90267 207.133,-6.368 207.133,-9.55333 C 207.133,-12.7547 207.869,-15.672 209.345,-18.308 C 210.821,-20.944 212.82,-22.9533 215.341,-24.3347 C 217.861,-25.72 220.715,-26.4133 223.897,-26.4133 C 227.063,-26.4133 229.528,-25.784 231.297,-24.5213 C 233.071,-23.2627 233.953,-21.5333 233.953,-19.34 C 233.953,-16.448 232.461,-14.22 229.477,-12.648 C 226.489,-11.0813 222.223,-10.2973 216.683,-10.2973 L 215.313,-10.2973 L 215.257,-9.81067 L 215.257,-9.344 C 215.257,-7.93867 215.721,-6.83067 216.643,-6.02 C 217.561,-5.204 218.879,-4.8 220.596,-4.8 C 222.152,-4.8 223.564,-4.94667 224.835,-5.24 C 226.105,-5.536 227.641,-6.05067 229.449,-6.79467 L 229.449,-1.532 C 226.375,-0.201333 222.888,0.462667 218.989,0.462667 Z M 218.899,-29.3573 C 220.312,-30.7187 222.299,-33.0613 224.855,-36.3813 L 233.839,-36.3813 L 233.839,-35.9907 C 233.019,-35.1227 231.641,-33.944 229.711,-32.452 C 227.78,-30.96 226.045,-29.7373 224.507,-28.78 L 218.899,-28.78 Z "/>
	</g>
</svg>