<?xml version="1.0" encoding="UTF-8" standalone="no"?>
<svg version="1.1" xmlns="http://www.w3.org/2000/svg" xmlns:xlink="http://www.w3.org/1999/xlink" xmlns:i="http://ns.adobe.com/AdobeIllustrator/10.0/" width="110.644" height="105.763">
	<g id="dp_dp001" transform="matrix(1,0,0,1,-824.408,-135.085)">
		<path id="dp_path002" fill="black" fill-rule="evenodd" stroke="none" stroke-width="0" d="M 929.475,135.085 C 929.253,135.18 928.575,135.259 927.968,135.259 C 926.181,135.259 924.4,135.511 922.648,135.855 C 921.837,136.012 921.051,136.131 920.228,136.2 C 918.685,136.329 917.211,136.915 915.752,137.4 C 915.039,137.639 914.321,137.823 913.592,138.005 C 912.9,138.236 912.209,138.467 911.517,138.697 C 910.2,139.013 908.943,139.457 907.68,139.943 C 905.732,141.095 903.685,142.053 901.648,143.036 C 901.245,143.267 900.841,143.497 900.439,143.727 L 899.911,143.996 C 899.515,144.197 899.28,144.348 898.969,144.6 C 898.664,144.849 898.367,145.001 898,145.128 C 897.724,145.404 897.448,145.68 897.172,145.956 C 896.561,146.276 895.988,146.677 895.435,147.088 C 895.205,147.259 894.995,147.348 894.717,147.375 L 894.389,147.703 C 894.021,148.069 893.593,148.343 893.179,148.653 C 892.265,149.339 891.377,150.063 890.509,150.804 C 887.971,152.975 885.669,155.385 883.309,157.745 L 882.619,158.523 C 880.36,161.063 878.376,163.775 876.323,166.472 L 876.261,166.472 C 876.008,166.472 875.689,166.247 875.459,166.145 C 874.987,165.937 874.597,165.803 874.088,165.739 C 873.637,165.683 873.208,165.6 872.767,165.496 C 872.324,165.391 871.608,165.395 870.779,165.504 C 869.563,165.667 868.119,165.865 867.063,166.551 C 866.525,166.9 865.937,167.151 865.352,167.405 C 865.116,167.527 864.88,167.648 864.644,167.769 C 864.367,168.045 864.091,168.321 863.815,168.597 C 863.259,168.889 862.764,169.26 862.26,169.635 C 861.545,169.992 860.953,170.583 860.359,171.104 C 858.58,172.66 856.881,174.385 855.311,176.152 C 853.923,177.713 852.643,179.351 851.344,180.983 C 850.807,181.657 850.272,182.343 849.788,183.056 C 849.628,183.292 849.456,183.515 849.279,183.739 C 849.099,183.967 848.904,184.239 848.847,184.344 C 848.548,184.891 848.113,185.381 847.741,185.881 C 847.603,186.136 847.456,186.367 847.283,186.6 C 846.951,187.045 846.649,187.511 846.341,187.973 C 846.161,188.243 845.983,188.511 845.797,188.775 C 845.636,189.005 845.692,189.148 846.097,189.539 C 846.532,189.959 846.633,189.991 846.891,189.784 C 847.719,189.121 848.5,188.395 849.297,187.696 C 850.32,186.8 851.356,185.919 852.391,185.035 C 852.856,184.66 853.321,184.285 853.781,183.903 C 854.349,183.431 854.921,182.965 855.511,182.52 C 855.916,182.213 856.313,181.895 856.711,181.579 C 856.941,181.405 857.172,181.233 857.403,181.06 C 857.728,180.839 858.044,180.613 858.353,180.368 C 858.607,180.168 858.865,179.987 859.148,179.832 L 859.485,179.581 C 860.097,179.127 860.743,178.717 861.377,178.295 C 861.765,178.025 862.164,177.815 862.587,177.603 C 863.573,176.952 864.632,176.492 865.716,176.029 C 866.236,175.749 866.755,175.485 867.333,175.34 C 867.989,175.177 869.016,175.013 869.653,175.341 C 870.127,175.585 870.387,176.253 870.087,176.705 C 869.955,176.904 869.656,177.456 869.423,177.933 C 869.156,178.477 868.912,178.769 868.765,178.719 C 868.627,178.669 868.461,178.833 868.356,179.123 C 868.14,179.719 867.876,180.291 867.617,180.869 C 867.421,181.597 867.164,182.273 866.831,182.952 C 866.693,183.232 866.533,183.664 866.476,183.912 C 866.315,184.608 865.935,185.252 865.621,185.891 C 865.349,186.444 865.105,187.009 864.86,187.576 C 865.837,188.579 866.813,189.581 867.791,190.584 L 868.04,190.92 C 868.119,191.084 868.291,191.257 868.291,191.257 L 868.809,191.776 L 869.501,192.467 L 869.847,192.813 L 870.019,192.813 L 870.019,192.985 L 871.748,194.715 L 870.019,196.269 L 870.019,196.443 L 869.847,196.443 L 869.155,197.133 C 864.835,201.455 864.835,201.455 864.661,201.455 L 862.587,203.529 L 860.859,205.429 L 861.204,205.948 L 863.279,208.023 C 863.797,207.849 863.797,207.849 865.352,206.295 L 865.352,206.121 L 865.525,206.121 C 871.92,199.727 871.92,199.727 872.093,199.727 L 874.167,197.652 L 874.513,197.307 L 875.377,198.344 L 876.587,199.553 L 877.797,200.936 L 877.988,200.955 L 879.603,202.608 C 880.923,203.96 881.287,204.243 881.591,204.155 C 882.077,204.015 882.511,203.773 882.964,203.547 C 883.425,203.363 883.885,203.181 884.356,203.019 C 885.015,202.792 885.623,202.472 886.248,202.164 C 887.632,201.535 889.005,200.888 890.376,200.229 C 891.727,199.58 892.74,199.192 892.951,199.245 C 894.104,199.528 893.905,201.276 893.623,202.083 C 893.155,203.42 892.612,204.819 891.883,206.035 C 891.659,206.408 891.459,206.789 891.26,207.176 C 890.984,207.452 890.708,207.728 890.432,208.004 C 890.205,208.436 889.936,208.832 889.645,209.224 C 889.508,209.408 889.356,209.672 889.309,209.808 C 889.143,210.295 888.671,210.72 888.357,211.116 C 887.776,211.96 887.097,212.735 886.456,213.535 C 884.048,216.695 881.268,219.571 878.624,222.532 L 878.979,222.959 L 879.335,223.387 C 879.607,223.697 880.037,223.237 880.303,223.059 C 880.541,222.9 880.776,222.739 881.012,222.576 C 881.213,222.5 881.415,222.425 881.617,222.349 C 881.893,222.073 882.169,221.797 882.445,221.521 C 883.411,221.015 884.345,220.348 885.22,219.697 C 885.449,219.527 885.66,219.439 885.939,219.412 C 886.215,219.136 886.491,218.86 886.767,218.584 C 887.116,218.551 887.215,218.48 887.476,218.22 C 887.843,217.852 888.271,217.58 888.685,217.269 C 889.089,216.967 889.483,216.651 889.877,216.336 C 890.647,215.755 891.384,215.139 892.124,214.521 C 894.224,212.772 896.104,210.801 898.036,208.869 L 898.555,208.264 C 898.963,207.788 899.357,207.303 899.747,206.812 C 900.025,206.401 900.315,206.001 900.611,205.603 C 900.841,205.257 901.072,204.912 901.303,204.565 C 901.849,203.779 902.161,202.836 902.531,201.955 C 902.708,201.624 902.887,201.293 903.065,200.963 C 903.469,199.339 903.855,197.671 903.549,195.992 C 903.459,195.493 903.369,195.02 903.204,194.541 C 903.095,194.225 902.973,193.987 902.875,193.893 C 902.465,193.505 902.633,193.263 903.031,192.985 C 903.437,192.715 903.831,192.431 904.223,192.14 C 904.505,191.985 904.765,191.804 905.019,191.603 C 905.328,191.359 905.643,191.132 905.969,190.912 C 906.488,190.523 906.999,190.124 907.507,189.72 C 908.213,189.185 908.907,188.636 909.589,188.069 C 912.353,185.773 914.855,183.236 917.395,180.696 L 918.085,179.919 C 919.401,178.439 920.637,176.905 921.869,175.356 C 922.091,175.031 922.316,174.715 922.561,174.405 C 922.761,174.152 922.943,173.893 923.097,173.609 C 923.264,173.385 923.432,173.161 923.599,172.936 C 924.059,172.245 924.52,171.553 924.981,170.863 C 925.251,170.475 925.461,170.076 925.672,169.653 C 927.125,167.231 928.452,164.765 929.716,162.239 C 930.048,161.573 930.329,160.943 930.339,160.839 C 930.409,160.087 930.856,159.297 931.116,158.591 C 931.969,156.285 932.713,153.967 933.277,151.573 C 933.7,149.772 934.052,147.96 934.313,146.129 C 934.527,144.636 934.591,143.14 934.677,141.635 L 934.841,141.039 C 934.832,140.961 935.005,140.616 935.005,140.443 L 935.005,136.295 L 934.832,135.621 C 934.704,135.273 934.157,135.321 933.841,135.305 L 932.949,135.259 L 932.853,135.172 C 932.759,135.085 932.759,135.085 932.759,135.085 Z M 907.352,142.172 C 906.645,142.172 905.948,142.585 905.296,142.845 C 903.684,143.572 902.147,144.405 900.611,145.283 C 900.213,145.487 899.837,145.7 899.488,145.983 C 899.183,146.232 898.885,146.384 898.519,146.511 C 898.243,146.787 897.967,147.063 897.691,147.339 L 897.509,147.435 C 897.141,147.627 896.805,147.879 896.472,148.125 C 896.243,148.296 896.032,148.385 895.753,148.412 C 895.477,148.688 895.201,148.964 894.925,149.24 C 894.799,149.252 894.671,149.264 894.544,149.276 C 894.236,149.584 893.928,149.892 893.62,150.2 C 893.525,150.295 893.352,150.468 893.352,150.468 C 892.607,150.823 892.027,151.448 891.451,152.024 C 890.932,152.196 890.932,152.196 890.241,153.06 L 890.068,153.06 L 890.068,153.233 C 889.549,153.407 889.549,153.407 888.34,154.789 L 885.747,157.381 C 884.019,159.109 884.019,159.109 884.019,159.283 L 883.847,159.283 L 883.847,159.455 C 882.809,160.492 882.809,160.492 882.809,160.665 C 881.857,161.617 881.063,162.651 880.208,163.681 C 879.951,163.991 879.871,164.112 879.871,164.191 C 879.871,164.295 879.871,164.295 879.871,164.295 C 879.592,164.573 879.324,164.844 879.084,165.157 C 878.947,165.336 878.833,165.527 878.833,165.58 C 878.833,165.677 878.833,165.677 878.833,165.677 C 878.315,166.196 878.315,166.196 878.315,166.369 C 877.921,166.763 877.596,167.196 877.279,167.655 C 877.184,167.791 877.105,167.947 877.105,168 C 877.105,168.097 877.105,168.097 877.105,168.097 C 876.628,168.575 876.28,169.176 875.896,169.728 C 875.801,169.865 875.723,170.02 875.723,170.073 C 875.723,170.171 875.723,170.171 875.723,170.171 C 875.413,170.481 875.108,170.855 874.953,171.269 C 874.865,171.504 874.765,171.665 874.504,171.987 C 874.241,172.308 874.147,172.461 874.072,172.677 C 873.911,173.145 873.573,173.564 873.303,173.973 C 872.164,175.967 871.089,177.991 870.019,180.023 L 870.192,180.109 C 870.192,180.196 870.365,180.196 870.365,180.196 L 872.093,181.924 C 872.148,182.127 873.555,183.648 875.217,185.308 L 878.24,188.323 C 879.187,187.343 880.117,186.345 881.081,185.381 L 883.155,183.307 C 883.673,183.133 883.673,183.133 887.821,178.813 L 888.372,178.429 L 889.297,179.389 C 889.823,179.935 890.345,180.481 890.863,181.033 C 890.828,181.048 890.795,181.063 890.76,181.077 L 888.08,183.835 C 887.476,184.517 886.093,185.9 885.401,186.591 L 883.328,188.665 L 881.772,190.22 C 881.539,190.288 880.616,190.796 881.053,191.112 C 881.081,191.084 881.253,191.257 881.253,191.257 L 881.599,191.603 C 881.772,192.121 881.772,192.121 882.809,192.985 C 882.981,193.504 882.981,193.504 886.093,196.443 L 887.821,198.171 C 888.233,198.583 888.673,198.957 889.115,199.339 C 890.239,198.777 891.363,198.215 892.488,197.652 C 893.237,197.249 893.985,196.845 894.735,196.443 L 894.735,196.356 C 894.735,196.269 894.735,196.269 894.735,196.269 L 895.944,195.751 L 895.944,195.579 L 897,195.215 C 897.339,194.991 897.679,194.765 898.019,194.541 C 898.416,194.337 898.793,194.124 899.141,193.841 C 899.447,193.592 899.744,193.44 900.111,193.313 C 900.387,193.037 900.663,192.761 900.939,192.485 C 901.727,192.072 902.48,191.537 903.195,191.007 C 903.424,190.836 903.635,190.747 903.913,190.721 C 904.192,190.441 904.471,190.163 904.751,189.884 C 904.759,189.875 904.759,189.875 904.759,189.875 C 905.199,189.665 905.616,189.364 905.96,189.02 C 905.969,189.011 906.141,188.837 906.141,188.837 C 906.624,188.608 907.053,188.272 907.429,187.896 C 907.524,187.8 907.697,187.628 907.697,187.628 C 908.503,187.245 909.148,186.523 909.772,185.9 C 910.289,185.727 910.289,185.727 911.155,184.689 L 911.327,184.689 L 911.327,184.517 C 911.845,184.344 911.845,184.344 914.265,181.751 L 915.648,180.368 C 916.685,179.332 916.685,179.332 916.685,179.159 L 917.031,178.813 C 918.068,177.776 918.068,177.776 918.068,177.603 C 919.183,176.488 920.116,175.228 921.092,173.991 C 921.245,173.796 921.352,173.62 921.352,173.559 C 921.352,173.455 921.352,173.455 921.352,173.455 C 921.745,173.061 922.071,172.628 922.388,172.169 C 922.483,172.033 922.561,171.877 922.561,171.824 C 922.561,171.727 922.561,171.727 922.561,171.727 C 922.7,171.588 922.82,171.448 923.003,171.211 C 923.14,171.031 923.252,170.84 923.252,170.787 C 923.252,170.689 923.252,170.689 923.252,170.689 C 923.9,170.043 924.579,169.053 924.885,168.192 C 924.981,168.097 924.981,167.924 924.981,167.924 L 925.153,167.924 C 925.153,167.837 925.153,167.752 925.153,167.665 C 925.153,167.579 925.153,167.579 925.153,167.579 C 925.624,167.319 925.816,166.66 926.017,166.196 C 926.595,165.101 927.171,164.007 927.747,162.912 L 927.573,162.825 C 927.573,162.739 927.4,162.739 927.4,162.739 L 926.017,161.356 C 925.845,160.839 925.845,160.839 921.179,156.344 L 919.796,154.961 C 919.623,154.443 919.623,154.443 914.956,149.949 L 913.401,148.393 C 913.228,147.875 913.228,147.875 908.561,143.381 Z M 932.413,136.641 L 931.531,136.641 C 930.772,136.451 929.985,136.52 929.209,136.567 C 927.033,136.699 924.867,136.887 922.716,137.245 C 921.092,137.516 919.487,137.857 917.876,138.196 C 917.255,138.421 916.633,138.645 916.012,138.869 C 914.796,139.173 913.596,139.513 912.401,139.892 C 911.932,140.041 911.46,140.157 910.981,140.273 L 910.981,140.359 C 910.981,140.443 910.981,140.443 910.981,140.443 C 910.023,140.744 909.205,141.059 909.164,141.14 C 909.089,141.289 909.179,141.393 909.271,141.499 L 914.179,146.492 C 918.968,151.367 923.777,156.219 928.588,161.072 C 928.791,160.487 928.993,159.915 929.245,159.349 C 929.753,158.217 929.999,156.932 930.339,155.74 C 930.972,153.521 931.607,151.303 932.24,149.085 C 932.623,147.916 932.561,146.735 932.672,145.524 C 932.813,143.975 932.928,142.423 932.94,140.867 C 932.951,139.621 933.119,138.412 933.277,137.177 C 933.411,136.851 933.327,136.739 932.932,136.696 C 932.759,136.641 932.585,136.641 932.413,136.641 Z M 901.519,194.445 L 901.389,194.196 C 901.091,194.196 901.013,194.312 900.793,194.532 C 900.459,194.865 900.453,194.871 900.197,195.041 C 899.948,195.208 899.671,195.232 899.383,195.251 L 898.969,195.587 C 898.647,195.849 898.493,195.945 898.277,196.019 C 898.125,196.072 897.693,196.305 897.319,196.537 C 896.515,197.036 895.691,197.499 894.872,197.972 C 894.337,198.281 894.328,198.305 894.613,198.648 C 895.535,199.753 895.371,201.496 894.908,202.769 C 894.339,204.332 893.584,205.859 892.824,207.34 C 892.581,207.816 892.191,208.147 891.815,208.523 C 891.588,208.955 891.319,209.349 891.028,209.741 C 890.857,209.972 890.768,210.183 890.741,210.46 C 890.465,210.736 890.189,211.012 889.913,211.288 L 889.828,211.536 C 889.636,212.095 889.069,212.575 888.704,213.017 C 887.145,215.077 885.463,217.059 883.733,218.976 C 883.892,218.897 884.051,218.817 884.209,218.739 C 884.48,218.589 884.727,218.412 884.969,218.22 C 885.197,218.04 885.469,217.845 885.575,217.788 C 885.943,217.587 886.265,217.288 886.593,217.028 C 888.101,216.005 889.523,214.812 890.923,213.649 C 893.148,211.801 895.129,209.703 897.172,207.659 C 897.46,207.313 897.748,206.968 898.036,206.621 C 898.261,206.34 898.485,206.057 898.709,205.776 C 898.909,205.48 899.111,205.188 899.324,204.903 C 900.891,202.793 901.897,200.341 902.095,197.699 C 902.179,196.58 902.039,195.451 901.519,194.445 Z M 874.556,167.349 C 873.928,167.049 873.392,166.955 872.143,166.925 C 871.26,166.904 870.408,166.933 870.249,166.989 C 869.113,167.389 867.995,167.797 866.891,168.279 C 866.107,168.62 865.449,169.037 864.852,169.635 C 864.296,169.927 863.801,170.297 863.296,170.672 C 862.849,170.896 862.473,171.221 862.087,171.536 C 860.227,173.085 858.577,174.873 856.865,176.584 C 856.463,177.045 856.059,177.505 855.656,177.967 L 855.147,178.563 C 853.883,180.04 852.692,181.579 851.525,183.133 C 851.153,183.629 850.775,184.117 850.388,184.603 C 850.808,184.603 851.199,184.1 851.508,183.843 C 852.103,183.391 852.679,182.92 853.255,182.443 C 853.664,182.133 854.068,181.82 854.464,181.492 C 854.804,181.211 855.156,180.947 855.519,180.696 C 855.801,180.472 856.083,180.248 856.365,180.023 C 856.691,179.801 857.007,179.576 857.316,179.332 C 857.569,179.131 857.829,178.949 858.112,178.795 L 858.448,178.545 C 859.143,178.028 859.879,177.565 860.6,177.085 C 860.837,176.925 861.073,176.764 861.308,176.601 C 861.805,176.352 862.279,176.091 862.751,175.797 C 863.415,175.387 864.129,175.103 864.852,174.82 C 865.872,174.263 866.976,173.859 868.136,173.715 C 869.108,173.593 870.101,173.815 870.869,174.407 C 871.316,174.749 871.72,174.132 871.748,173.715 C 871.779,173.228 872.173,172.82 872.439,172.419 C 872.612,172.131 872.784,171.841 872.957,171.553 C 873.161,171.156 873.375,170.78 873.657,170.431 C 873.92,170.108 874.016,169.955 874.089,169.739 C 874.248,169.281 874.673,168.973 875.013,168.633 C 875.077,168.461 875.141,168.288 875.204,168.115 C 875.379,167.697 874.907,167.516 874.556,167.349 Z M 879.903,192.303 C 879.78,192.164 879.701,192.121 879.525,192.121 L 877.5,194.195 L 875.476,196.268 C 876.589,197.415 877.703,198.561 878.816,199.708 L 880.191,201.121 C 881.305,202.267 881.635,202.513 881.936,202.427 C 882.537,202.253 883.099,201.924 883.655,201.645 C 884.232,201.415 884.808,201.184 885.384,200.955 C 885.903,200.724 886.42,200.493 886.939,200.263 L 887.235,200.155 L 887.529,200.045 C 885.04,197.525 882.551,195.005 880.061,192.485 Z M 870.884,183.307 C 870.82,183.083 870.431,182.576 870.017,182.181 L 869.265,181.464 L 869.211,181.693 C 869.155,181.751 869.155,181.924 869.155,181.924 L 868.636,182.961 C 867.945,184.344 867.945,184.344 867.945,184.517 C 867.253,185.9 867.253,185.9 867.253,186.072 L 866.563,187.283 L 866.908,187.455 L 867.427,187.973 C 867.499,188.224 867.715,188.559 867.907,188.719 C 868.157,188.928 868.285,189.011 868.36,189.011 C 868.464,189.011 868.464,189.011 868.464,189.011 L 872.957,193.504 L 872.957,193.332 C 874.389,192.044 875.78,190.723 877.167,189.387 L 876.963,189.285 C 876.932,189.183 876.76,189.183 876.76,189.183 Z M 888.681,180.804 C 888.457,180.605 888.359,180.541 888.276,180.541 L 888.167,180.541 C 883.873,184.835 879.543,189.091 875.179,193.312 C 873.843,194.603 873.8,194.668 874.117,194.932 C 874.431,195.193 874.571,195.088 876.805,192.896 C 880.656,189.117 884.507,185.339 888.357,181.56 L 888.668,181.313 C 888.96,181.08 888.96,181.051 888.681,180.804 Z M 873.117,196.005 C 872.955,195.861 872.828,195.751 872.612,195.751 C 870.763,197.6 868.912,199.451 867.063,201.3 L 864.948,203.371 C 862.929,205.347 862.847,205.453 863.152,205.724 C 863.456,205.992 863.623,205.859 866.409,203.117 C 868.063,201.489 869.716,199.864 871.375,198.243 C 873.223,196.436 873.379,196.236 873.117,196.005 Z "/>
		<path id="dp_path003" fill="#fe0000" fill-rule="evenodd" stroke="none" stroke-width="0" d="M 932.413,136.641 C 932.705,136.835 932.927,137.064 932.903,137.149 L 932.86,137.304 C 931.345,138.003 929.631,138.232 927.997,138.493 C 926.241,138.775 924.487,138.925 922.716,139.079 C 919.276,139.575 915.833,140.015 912.381,140.425 L 911.681,140.435 C 911.5,140.443 911.155,140.443 910.981,140.443 C 910.023,140.744 909.205,141.059 909.164,141.14 C 909.089,141.289 909.179,141.393 909.271,141.499 L 914.179,146.492 C 918.968,151.367 923.777,156.219 928.588,161.072 C 928.791,160.487 928.993,159.915 929.245,159.349 C 929.753,158.217 929.999,156.932 930.339,155.74 C 930.972,153.521 931.607,151.303 932.24,149.085 C 932.623,147.916 932.561,146.735 932.672,145.524 C 932.813,143.975 932.928,142.423 932.94,140.867 C 932.951,139.621 933.119,138.412 933.277,137.177 C 933.411,136.851 933.327,136.739 932.932,136.696 C 932.759,136.641 932.585,136.641 932.413,136.641 Z "/>
		<path id="dp_path004" fill="#fe0000" fill-rule="evenodd" stroke="none" stroke-width="0" d="M 901.519,194.445 L 901.389,194.196 C 901.091,194.196 901.013,194.312 900.793,194.532 C 900.459,194.865 900.453,194.871 900.197,195.041 C 899.948,195.208 899.671,195.232 899.383,195.251 L 898.969,195.587 C 898.647,195.849 898.493,195.945 898.277,196.019 C 898.125,196.072 897.693,196.305 897.319,196.537 C 896.515,197.036 895.691,197.499 894.872,197.972 C 894.337,198.281 894.328,198.305 894.613,198.648 C 895.535,199.753 895.371,201.496 894.908,202.769 C 894.339,204.332 893.584,205.859 892.824,207.34 C 892.581,207.816 892.191,208.147 891.815,208.523 C 891.588,208.955 891.319,209.349 891.028,209.741 C 890.857,209.972 890.768,210.183 890.741,210.46 C 890.465,210.736 890.189,211.012 889.913,211.288 L 889.828,211.536 C 889.636,212.095 889.069,212.575 888.704,213.017 C 887.145,215.077 885.463,217.059 883.733,218.976 C 883.892,218.897 884.051,218.817 884.209,218.739 C 884.48,218.589 884.727,218.412 884.969,218.22 C 885.197,218.04 885.469,217.845 885.575,217.788 C 885.943,217.587 886.265,217.288 886.593,217.028 C 888.101,216.005 889.523,214.812 890.923,213.649 C 893.148,211.801 895.129,209.703 897.172,207.659 C 897.46,207.313 897.748,206.968 898.036,206.621 C 898.261,206.34 898.485,206.057 898.709,205.776 C 898.909,205.48 899.111,205.188 899.324,204.903 C 900.891,202.793 901.897,200.341 902.095,197.699 C 902.179,196.58 902.039,195.451 901.519,194.445 Z "/>
		<path id="dp_path005" fill="#fe0000" fill-rule="evenodd" stroke="none" stroke-width="0" d="M 874.556,167.349 C 873.928,167.049 873.392,166.955 872.143,166.925 C 871.26,166.904 870.408,166.933 870.249,166.989 C 869.113,167.389 867.995,167.797 866.891,168.279 C 866.107,168.62 865.449,169.037 864.852,169.635 C 864.296,169.927 863.801,170.297 863.296,170.672 C 862.849,170.896 862.473,171.221 862.087,171.536 C 860.227,173.085 858.577,174.873 856.865,176.584 C 856.463,177.045 856.059,177.505 855.656,177.967 L 855.147,178.563 C 853.883,180.04 852.692,181.579 851.525,183.133 C 851.153,183.629 850.775,184.117 850.388,184.603 C 850.808,184.603 851.199,184.1 851.508,183.843 C 852.103,183.391 852.679,182.92 853.255,182.443 C 853.664,182.133 854.068,181.82 854.464,181.492 C 854.804,181.211 855.156,180.947 855.519,180.696 C 855.801,180.472 856.083,180.248 856.365,180.023 C 856.691,179.801 857.007,179.576 857.316,179.332 C 857.569,179.131 857.829,178.949 858.112,178.795 L 858.448,178.545 C 859.143,178.028 859.879,177.565 860.6,177.085 C 860.837,176.925 861.073,176.764 861.308,176.601 C 861.805,176.352 862.279,176.091 862.751,175.797 C 863.415,175.387 864.129,175.103 864.852,174.82 C 865.872,174.263 866.976,173.859 868.136,173.715 C 869.108,173.593 870.101,173.815 870.869,174.407 C 871.316,174.749 871.72,174.132 871.748,173.715 C 871.779,173.228 872.173,172.82 872.439,172.419 C 872.612,172.131 872.784,171.841 872.957,171.553 C 873.161,171.156 873.375,170.78 873.657,170.431 C 873.92,170.108 874.016,169.955 874.089,169.739 C 874.248,169.281 874.673,168.973 875.013,168.633 C 875.077,168.461 875.141,168.288 875.204,168.115 C 875.379,167.697 874.907,167.516 874.556,167.349 Z "/>
		<path id="dp_path006" fill="#fe0000" fill-rule="evenodd" stroke="none" stroke-width="0" d="M 888.681,180.804 C 888.457,180.605 888.359,180.541 888.276,180.541 L 888.167,180.541 C 883.873,184.835 879.543,189.091 875.179,193.312 C 873.843,194.603 873.8,194.668 874.117,194.932 C 874.431,195.193 874.571,195.088 876.805,192.896 C 880.656,189.117 884.507,185.339 888.357,181.56 L 888.668,181.313 C 888.96,181.08 888.96,181.051 888.681,180.804 Z "/>
		<path id="dp_path007" fill="#fe0000" fill-rule="evenodd" stroke="none" stroke-width="0" d="M 873.117,196.005 C 872.955,195.861 872.828,195.751 872.612,195.751 C 870.763,197.6 868.912,199.451 867.063,201.3 L 864.948,203.371 C 862.929,205.347 862.847,205.453 863.152,205.724 C 863.456,205.992 863.623,205.859 866.409,203.117 C 868.063,201.489 869.716,199.864 871.375,198.243 C 873.223,196.436 873.379,196.236 873.117,196.005 Z "/>
		<path id="dp_path008" fill="#e63900" fill-rule="evenodd" stroke="none" stroke-width="0" d="M 868.291,191.257 C 867.711,191.363 867.003,191.6 866.717,191.785 C 865.863,192.34 864.892,192.729 863.969,193.159 C 863.529,193.384 863.2,193.583 862.847,193.936 C 862.629,194.153 862.428,194.353 862.173,194.523 C 861.971,194.659 861.768,194.709 861.532,194.732 C 861.256,195.008 860.98,195.284 860.704,195.56 C 860.063,195.881 859.524,196.4 858.976,196.856 C 857.825,197.815 856.732,198.841 855.673,199.899 C 853.841,201.732 852.103,203.7 850.661,205.863 C 850.449,206.181 850.217,206.487 849.988,206.795 C 849.783,207.172 849.536,207.504 849.279,207.849 C 849.008,208.256 848.724,208.649 848.433,209.041 C 848.193,209.479 847.877,209.861 847.568,210.252 C 847.387,210.52 847.205,210.788 847.023,211.056 C 846.765,211.437 846.472,211.792 846.185,212.152 C 845.604,212.921 844.988,213.659 844.371,214.4 C 842.725,216.375 840.881,218.148 839.064,219.967 C 838.66,220.312 838.257,220.657 837.853,221.003 L 837.336,221.435 C 835.961,222.58 834.519,223.624 833.032,224.615 C 832.644,224.884 832.245,225.095 831.823,225.307 C 830.577,226.053 829.351,226.78 828.02,227.38 C 826.968,227.855 825.94,228.365 824.927,228.917 C 824.755,228.981 824.581,229.045 824.408,229.108 C 825.388,228.936 826.368,228.763 827.347,228.591 C 828.447,228.315 829.543,228.036 830.631,227.717 C 831.296,227.521 832.144,227.176 832.513,226.948 C 832.932,226.692 833.449,226.436 833.879,226.275 C 836.157,225.42 838.296,224.223 840.377,222.973 C 840.751,222.749 841.132,222.548 841.52,222.349 C 841.796,222.073 842.072,221.797 842.348,221.521 C 842.747,221.312 843.113,221.063 843.489,220.812 C 843.843,220.577 844.223,220.376 844.615,220.213 C 844.721,220.169 844.775,220.228 844.735,220.345 C 844.592,220.756 844.176,221.095 843.912,221.427 C 843.576,221.849 843.239,222.272 842.903,222.696 C 842.652,223.059 842.388,223.411 842.107,223.751 C 841.873,224.032 841.644,224.315 841.424,224.605 C 841.201,224.9 840.969,225.185 840.732,225.471 C 840.471,225.785 840.212,226.101 839.955,226.42 C 836.301,230.964 832.296,235.301 828.003,239.237 C 827.307,239.875 826.631,240.523 825.964,241.189 C 826.639,240.919 827.241,240.571 827.848,240.171 C 828.084,240.049 828.32,239.928 828.557,239.807 C 828.833,239.531 829.109,239.255 829.385,238.979 C 829.636,238.847 829.857,238.707 830.085,238.537 C 830.315,238.367 830.525,238.277 830.804,238.251 C 831.08,237.975 831.356,237.699 831.632,237.423 L 831.891,237.249 C 832.033,237.155 832.236,237.069 832.341,237.059 C 832.739,237.021 833.084,236.489 833.36,236.213 C 833.709,236.18 833.809,236.109 834.069,235.849 C 834.645,235.273 835.384,234.756 836.057,234.293 C 836.741,233.823 837.376,233.273 838.027,232.756 C 839.497,231.644 840.929,230.477 842.348,229.3 C 843,228.803 843.625,228.276 844.249,227.744 C 845.652,226.616 847.028,225.457 848.397,224.287 C 849.16,223.671 849.904,223.031 850.644,222.385 C 851.843,221.384 853.023,220.364 854.184,219.317 L 854.084,219.605 C 853.957,219.973 853.664,220.253 853.427,220.553 C 853.247,220.781 853.052,221.053 852.995,221.159 C 852.937,221.263 852.743,221.535 852.563,221.763 C 852.383,221.991 852.188,222.263 852.131,222.368 C 852.073,222.473 851.879,222.745 851.699,222.973 C 851.499,223.227 851.317,223.485 851.163,223.768 C 850.912,224.105 850.661,224.441 850.412,224.779 C 850.237,225.012 850.092,225.243 849.952,225.497 C 849.785,225.721 849.619,225.945 849.452,226.171 C 849.259,226.46 849.064,226.745 848.856,227.025 C 848.728,227.199 848.604,227.364 848.501,227.553 C 848.332,227.861 848.107,228.135 847.896,228.417 C 847.436,229.108 846.975,229.8 846.513,230.491 C 846.341,230.74 846.196,230.959 846.089,231.244 C 845.973,231.555 845.8,231.724 845.563,231.96 C 845.347,232.177 845.145,232.379 844.976,232.633 C 844.811,232.883 844.785,233.16 844.767,233.448 L 844.431,233.861 C 844.168,234.184 844.073,234.337 843.999,234.553 C 843.837,235.02 843.5,235.44 843.229,235.849 C 842.867,236.485 842.501,237.119 842.115,237.741 C 841.643,238.504 841.255,239.315 840.859,240.12 C 841.291,239.691 841.696,239.236 842.107,238.788 C 845.635,234.932 849.312,231.248 853.255,227.812 C 854.717,226.537 856.232,225.309 857.748,224.096 C 858.157,223.787 858.561,223.473 858.957,223.145 C 859.233,222.919 859.583,222.645 859.736,222.541 C 859.888,222.436 860.239,222.164 860.513,221.936 C 860.909,221.608 861.313,221.295 861.723,220.985 C 862.532,220.339 863.329,219.679 864.125,219.016 C 866.039,217.421 867.757,215.641 869.519,213.881 L 870.037,213.276 C 872.004,210.981 873.628,208.493 875.343,206.017 C 875.86,204.981 876.477,204.012 877.088,203.028 L 877.26,202.683 C 877.515,202.173 877.797,201.497 877.797,200.936 L 876.587,199.553 C 876.437,199.985 876.264,200.385 876.06,200.793 C 875.628,201.663 875.249,202.555 874.859,203.443 C 874.373,204.545 873.86,205.643 873.717,205.88 C 873.423,206.372 873.035,206.736 872.629,207.14 C 871.995,208.349 871.068,209.393 870.105,210.356 C 868.249,212.212 866.037,213.643 863.988,215.264 C 860.055,217.929 856.784,221.431 853.445,224.769 C 853.185,225.047 852.927,225.323 852.667,225.6 C 852.821,225.289 852.984,224.995 853.168,224.701 C 853.36,224.393 853.5,224.073 853.617,223.732 C 853.893,223.456 854.169,223.18 854.447,222.904 C 855.083,221.692 855.951,220.569 856.711,219.429 C 856.981,219.023 857.265,218.631 857.557,218.237 C 857.597,217.625 858.005,217.271 858.421,216.855 C 858.741,216.244 859.143,215.671 859.553,215.117 C 859.708,214.911 859.811,214.708 859.821,214.591 C 859.86,214.193 860.392,213.848 860.668,213.571 C 860.8,213.321 860.94,213.099 861.109,212.871 C 861.28,212.641 861.369,212.431 861.396,212.152 C 861.672,211.876 861.948,211.6 862.224,211.324 L 862.255,211.119 L 862.284,210.913 C 861.404,211.587 860.565,212.3 859.736,213.035 C 859.132,213.569 858.52,214.091 857.903,214.608 C 857.453,215 857.005,215.391 856.556,215.783 C 855.797,216.417 855.043,217.057 854.291,217.701 C 853.739,218.163 853.188,218.625 852.64,219.093 C 851.416,220.14 850.171,221.164 848.933,222.195 C 848.439,222.593 847.948,222.993 847.464,223.405 C 847.141,223.68 846.713,224.031 846.513,224.183 C 846.313,224.335 845.885,224.685 845.563,224.96 C 845.135,225.325 844.696,225.675 844.249,226.016 C 843.909,226.297 843.569,226.58 843.229,226.861 C 842.365,227.553 841.501,228.244 840.637,228.936 C 840.228,229.245 839.823,229.559 839.428,229.887 C 839.152,230.115 838.803,230.387 838.649,230.491 C 838.201,230.8 837.791,231.164 837.371,231.511 C 837.181,231.66 836.992,231.811 836.803,231.96 C 836.704,231.932 836.605,231.903 836.507,231.873 C 839.796,228.885 842.871,225.665 846.013,222.523 L 846.877,221.572 C 848.707,219.56 850.349,217.449 851.967,215.272 C 852.903,214.013 853.585,212.548 854.291,211.152 C 854.5,210.917 854.076,211.285 853.997,211.344 C 853.699,211.573 853.393,211.787 853.081,211.997 C 852.16,212.689 851.237,213.38 850.316,214.072 C 849.989,214.293 849.675,214.519 849.365,214.763 C 849.137,214.944 848.865,215.137 848.76,215.195 C 848.213,215.495 847.723,215.929 847.223,216.301 C 846.969,216.44 846.739,216.587 846.504,216.76 C 846.079,217.076 845.636,217.365 845.2,217.667 C 844.645,217.873 844.224,218.193 843.767,218.565 C 843.095,218.837 842.457,219.164 841.829,219.525 C 841.259,219.853 840.723,220.083 840.637,220.035 L 840.483,219.948 L 840.896,219.612 C 841.124,219.427 841.396,219.232 841.501,219.18 C 842.06,218.9 842.561,218.377 843.039,217.979 C 843.912,217.251 844.777,216.5 845.581,215.696 C 848.379,212.897 850.827,209.851 853.34,206.812 C 853.623,206.472 853.887,206.121 854.136,205.757 L 854.473,205.335 C 855.123,204.517 855.739,203.673 856.365,202.837 C 856.755,202.319 857.153,201.808 857.557,201.3 C 859.256,198.832 861.539,196.8 863.643,194.696 L 864.075,194.351 C 864.977,193.628 865.865,192.981 866.912,192.469 C 867.503,192.18 868.171,191.907 868.397,191.86 C 868.464,191.776 868.636,191.776 868.809,191.776 Z "/>
		<path id="dp_path009" fill="#e78a00" fill-rule="evenodd" stroke="none" stroke-width="0" d="M 868.809,191.776 C 868.636,191.776 868.464,191.776 868.397,191.86 C 868.171,191.907 867.503,192.18 866.912,192.469 C 865.865,192.981 864.977,193.628 864.075,194.351 L 863.643,194.696 C 861.539,196.8 859.256,198.832 857.557,201.3 C 857.153,201.808 856.755,202.319 856.365,202.837 C 855.739,203.673 855.123,204.517 854.473,205.335 L 854.136,205.757 C 853.887,206.121 853.623,206.472 853.34,206.812 C 850.827,209.851 848.379,212.897 845.581,215.696 C 844.777,216.5 843.912,217.251 843.039,217.979 C 842.561,218.377 842.06,218.9 841.501,219.18 C 841.396,219.232 841.124,219.427 840.896,219.612 L 840.483,219.948 L 840.637,220.035 C 840.723,220.083 841.259,219.853 841.829,219.525 C 842.457,219.164 843.095,218.837 843.767,218.565 C 844.224,218.193 844.645,217.873 845.2,217.667 C 845.636,217.365 846.079,217.076 846.504,216.76 C 846.739,216.587 846.969,216.44 847.223,216.301 C 847.723,215.929 848.213,215.495 848.76,215.195 C 848.865,215.137 849.137,214.944 849.365,214.763 C 849.675,214.519 849.989,214.293 850.316,214.072 C 851.237,213.38 852.16,212.689 853.081,211.997 C 853.393,211.787 853.699,211.573 853.997,211.344 C 854.076,211.285 854.5,210.917 854.291,211.152 C 853.585,212.548 852.903,214.013 851.967,215.272 C 850.349,217.449 848.707,219.56 846.877,221.572 L 846.013,222.523 C 842.871,225.665 839.796,228.885 836.507,231.873 C 836.605,231.903 836.704,231.932 836.803,231.96 C 836.992,231.811 837.181,231.66 837.371,231.511 C 837.791,231.164 838.201,230.8 838.649,230.491 C 838.803,230.387 839.152,230.115 839.428,229.887 C 839.823,229.559 840.228,229.245 840.637,228.936 C 841.501,228.244 842.365,227.553 843.229,226.861 C 843.569,226.58 843.909,226.297 844.249,226.016 C 844.696,225.675 845.135,225.325 845.563,224.96 C 845.885,224.685 846.313,224.335 846.513,224.183 C 846.713,224.031 847.141,223.68 847.464,223.405 C 847.948,222.993 848.439,222.593 848.933,222.195 C 850.171,221.164 851.416,220.14 852.64,219.093 C 853.188,218.625 853.739,218.163 854.291,217.701 C 855.043,217.057 855.797,216.417 856.556,215.783 C 857.005,215.391 857.453,215 857.903,214.608 C 858.52,214.091 859.132,213.569 859.736,213.035 C 860.565,212.3 861.404,211.587 862.284,210.913 L 862.255,211.119 L 862.224,211.324 C 861.948,211.6 861.672,211.876 861.396,212.152 C 861.369,212.431 861.28,212.641 861.109,212.871 C 860.94,213.099 860.8,213.321 860.668,213.571 C 860.392,213.848 859.86,214.193 859.821,214.591 C 859.811,214.708 859.708,214.911 859.553,215.117 C 859.143,215.671 858.741,216.244 858.421,216.855 C 858.005,217.271 857.597,217.625 857.557,218.237 C 857.265,218.631 856.981,219.023 856.711,219.429 C 855.951,220.569 855.083,221.692 854.447,222.904 C 854.169,223.18 853.893,223.456 853.617,223.732 C 853.5,224.073 853.36,224.393 853.168,224.701 C 852.984,224.995 852.821,225.289 852.667,225.6 C 852.927,225.323 853.185,225.047 853.445,224.769 C 856.784,221.431 860.055,217.929 863.988,215.264 C 866.037,213.643 868.249,212.212 870.105,210.356 C 871.068,209.393 871.995,208.349 872.629,207.14 C 873.035,206.736 873.423,206.372 873.717,205.88 C 873.86,205.643 874.373,204.545 874.859,203.443 C 875.249,202.555 875.628,201.663 876.06,200.793 C 876.264,200.385 876.437,199.985 876.587,199.553 L 875.377,198.344 L 875.204,198.344 L 875.204,198.516 C 874.988,199.608 874.68,200.62 874.185,201.609 C 873.833,202.364 873.481,203.12 873.131,203.875 C 872.964,204.149 872.799,204.423 872.632,204.699 L 872.527,204.813 C 872.255,205.112 872.016,205.441 871.765,205.757 C 870.151,207.776 868.197,209.484 866.217,211.133 C 864.045,212.88 861.953,214.719 859.921,216.627 L 860.025,216.327 C 860.144,215.985 860.396,215.731 860.609,215.445 C 860.94,215 861.243,214.535 861.551,214.072 C 862.74,212.353 863.488,210.339 864.333,208.436 C 864.552,207.945 864.777,207.459 865.016,206.976 C 865.18,206.812 865.352,206.467 865.352,206.295 C 863.797,207.849 863.797,207.849 863.279,208.023 L 863.105,208.023 C 863.105,208.08 863.105,208.137 863.105,208.195 L 863.02,208.195 C 862.933,208.195 862.933,208.195 862.933,208.195 C 859.872,211.256 856.641,214.141 853.255,216.837 C 852.959,217.037 852.667,217.239 852.381,217.451 C 852.207,217.58 852.033,217.708 851.856,217.831 C 851.692,217.943 851.545,217.925 851.371,217.875 L 851.889,217.433 C 852.58,216.845 853.18,216.195 853.791,215.523 C 855.395,213.759 856.793,211.872 858.267,210.011 C 858.467,209.757 858.648,209.497 858.803,209.215 C 858.969,208.989 859.136,208.765 859.304,208.541 C 859.575,208.135 859.859,207.741 860.149,207.349 C 860.327,207.101 860.5,206.853 860.664,206.596 C 860.687,206.467 860.859,206.295 860.859,206.295 L 861.204,205.948 L 860.859,205.429 L 862.587,203.529 C 862.447,203.472 862.121,203.6 861.864,203.813 C 861.535,204.087 861.193,204.341 860.841,204.584 L 860.417,204.92 C 858.889,206.137 857.299,207.285 855.673,208.368 C 854.675,209.06 853.607,209.673 852.408,209.924 C 852.732,209.687 853.071,209.528 853.445,209.387 C 853.983,208.849 854.559,208.361 855.137,207.868 C 857.264,205.741 859.059,203.336 860.859,200.936 C 861.08,200.611 861.305,200.295 861.551,199.985 C 861.731,199.757 861.925,199.485 861.983,199.38 C 862.184,199.013 862.483,198.689 862.743,198.361 C 863.476,197.28 864.255,196.157 865.18,195.232 C 866.212,194.2 867.553,193.319 868.887,192.736 C 868.983,192.64 869.328,192.467 869.501,192.467 Z "/>
		<path id="dp_path010" fill="#e7e100" fill-rule="evenodd" stroke="none" stroke-width="0" d="M 874.167,197.652 L 872.093,199.727 L 865.525,206.295 L 865.525,206.121 L 865.352,206.121 L 865.352,206.295 C 865.352,206.467 865.18,206.812 865.016,206.976 C 864.777,207.459 864.552,207.945 864.333,208.436 C 863.488,210.339 862.74,212.353 861.551,214.072 C 861.243,214.535 860.94,215 860.609,215.445 C 860.396,215.731 860.144,215.985 860.025,216.327 L 859.921,216.627 C 861.953,214.719 864.045,212.88 866.217,211.133 C 868.197,209.484 870.151,207.776 871.765,205.757 C 872.016,205.441 872.255,205.112 872.527,204.813 L 872.632,204.699 C 872.799,204.423 872.964,204.149 873.131,203.875 C 873.481,203.12 873.833,202.364 874.185,201.609 C 874.68,200.62 874.988,199.608 875.204,198.516 L 874.783,197.976 L 874.577,197.815 C 874.464,197.725 874.325,197.652 874.269,197.652 C 874.167,197.652 874.167,197.652 874.167,197.652 Z "/>
		<path id="dp_path011" fill="#e7e100" fill-rule="evenodd" stroke="none" stroke-width="0" d="M 869.501,192.467 C 869.328,192.467 868.983,192.64 868.887,192.736 C 867.553,193.319 866.212,194.2 865.18,195.232 C 864.255,196.157 863.476,197.28 862.743,198.361 C 862.483,198.689 862.184,199.013 861.983,199.38 C 861.925,199.485 861.731,199.757 861.551,199.985 C 861.305,200.295 861.08,200.611 860.859,200.936 C 859.059,203.336 857.264,205.741 855.137,207.868 C 854.559,208.361 853.983,208.849 853.445,209.387 C 853.071,209.528 852.732,209.687 852.408,209.924 C 853.607,209.673 854.675,209.06 855.673,208.368 C 857.299,207.285 858.889,206.137 860.417,204.92 L 860.841,204.584 C 861.193,204.341 861.535,204.087 861.864,203.813 C 862.121,203.6 862.447,203.472 862.587,203.529 L 864.661,201.455 L 867.945,197.997 L 867.772,197.997 C 866.809,198.797 865.831,199.593 864.825,200.34 C 864.223,200.788 863.62,201.116 862.94,201.451 C 862.356,201.739 861.808,201.935 861.723,201.887 C 861.481,201.752 861.713,201.723 861.905,201.619 C 862.337,201.384 862.612,201.025 862.941,200.659 C 864.455,198.979 865.829,197.192 867.236,195.424 C 867.897,194.596 868.592,193.812 869.423,193.149 C 869.501,192.985 869.673,192.813 869.847,192.813 Z "/>
		<path id="dp_path012" fill="#e7e100" fill-rule="evenodd" stroke="none" stroke-width="0" d="M 862.933,208.195 C 859.872,211.256 856.641,214.141 853.255,216.837 C 852.959,217.037 852.667,217.239 852.381,217.451 C 852.207,217.58 852.033,217.708 851.856,217.831 C 851.692,217.943 851.545,217.925 851.371,217.875 L 851.889,217.433 C 852.58,216.845 853.18,216.195 853.791,215.523 C 855.395,213.759 856.793,211.872 858.267,210.011 C 858.467,209.757 858.648,209.497 858.803,209.215 C 858.969,208.989 859.136,208.765 859.304,208.541 C 859.575,208.135 859.859,207.741 860.149,207.349 C 860.327,207.101 860.5,206.853 860.664,206.596 C 860.687,206.467 860.859,206.295 860.859,206.295 C 860.859,206.295 860.859,206.295 860.859,206.38 L 860.859,206.467 L 861.052,206.371 C 861.157,206.317 861.599,206.616 862.032,207.033 C 862.465,207.452 862.871,207.975 862.933,208.195 Z "/>
		<path id="dp_path013" fill="#e7e100" fill-rule="evenodd" stroke="none" stroke-width="0" d="M 869.847,196.443 C 869.501,196.443 869.501,196.443 868.809,197.133 C 868.983,197.133 868.983,197.133 869.155,197.133 Z "/>
		<path id="dp_path014" fill="#fefe00" fill-rule="evenodd" stroke="none" stroke-width="0" d="M 865.525,206.121 C 871.92,199.727 871.92,199.727 872.093,199.727 L 865.525,206.295 Z "/>
		<path id="dp_path015" fill="#fefe00" fill-rule="evenodd" stroke="none" stroke-width="0" d="M 868.809,197.133 C 868.119,197.48 868.119,197.48 867.772,197.997 L 867.945,197.997 L 864.661,201.455 C 864.835,201.455 864.835,201.455 869.155,197.133 C 868.983,197.133 868.983,197.133 868.809,197.133 Z "/>
		<path id="dp_path016" fill="#fefe00" fill-rule="evenodd" stroke="none" stroke-width="0" d="M 861.204,205.948 L 860.859,206.295 C 860.859,206.295 860.859,206.295 860.859,206.38 L 860.859,206.467 L 861.052,206.371 C 861.157,206.317 861.599,206.616 862.032,207.033 C 862.465,207.452 862.871,207.975 862.933,208.195 C 862.933,208.195 862.933,208.195 863.02,208.195 L 863.105,208.195 C 863.105,208.137 863.105,208.08 863.105,208.023 L 863.279,208.023 Z "/>
		<path id="dp_path017" fill="#fefe00" fill-rule="evenodd" stroke="none" stroke-width="0" d="M 875.377,198.344 L 874.513,197.307 L 874.167,197.652 C 874.167,197.652 874.167,197.652 874.269,197.652 C 874.325,197.652 874.464,197.725 874.577,197.815 L 874.783,197.976 L 875.204,198.516 L 875.204,198.344 Z "/>
		<path id="dp_path018" fill="#47704c" fill-rule="evenodd" stroke="none" stroke-width="0" d="M 935.005,136.295 L 934.832,135.621 C 934.704,135.273 934.157,135.321 933.841,135.305 L 932.949,135.259 L 932.853,135.172 C 932.759,135.085 932.759,135.085 932.759,135.085 L 935.005,135.085 Z "/>
		<path id="dp_path019" fill="#cbcbcb" fill-rule="evenodd" stroke="none" stroke-width="0" d="M 888.34,198.171 C 888.415,197.648 888.461,197.6 888.715,197.783 C 889.124,198.081 889.66,197.683 890.051,197.497 C 891.157,197.024 892.264,196.552 893.369,196.079 C 893.647,195.855 893.923,195.629 894.199,195.405 L 894.631,195.255 C 895.032,195.113 895.337,194.875 895.659,194.607 C 896.343,194.487 896.919,194.037 897.5,193.677 C 897.941,193.451 898.269,193.253 898.624,192.899 C 898.985,192.537 899.337,192.215 899.833,192.044 C 900.049,191.969 900.203,191.873 900.525,191.612 C 901.123,191.125 901.824,190.728 902.512,190.384 C 903.159,190.061 903.671,189.525 904.24,189.097 C 904.701,188.751 905.163,188.405 905.623,188.06 C 906.004,187.775 906.408,187.536 906.815,187.291 C 906.843,187.191 906.869,187.091 906.897,186.991 C 907.157,186.86 907.419,186.731 907.679,186.6 C 907.792,186.188 908.211,185.997 908.544,185.744 C 909.037,185.368 909.488,184.973 909.927,184.535 C 910.12,184.34 910.333,184.169 910.549,183.999 C 910.92,183.705 911.253,183.381 911.587,183.048 C 912.109,182.524 912.693,182.052 913.247,181.56 C 913.889,180.917 914.512,180.26 915.129,179.591 C 915.808,178.853 916.205,178.428 916.321,178.312 C 916.812,177.821 917.253,177.285 917.704,176.757 C 918.072,176.561 918.2,176.252 918.413,175.893 C 918.471,175.809 918.545,175.74 918.617,175.669 C 919.08,175.211 919.513,174.708 919.813,174.128 C 920.089,173.852 920.365,173.576 920.643,173.3 C 920.779,172.939 920.94,172.636 921.188,172.332 C 921.392,172.081 921.571,171.824 921.715,171.536 C 921.991,171.26 922.267,170.984 922.543,170.708 C 922.607,170.535 922.671,170.363 922.735,170.189 C 922.768,169.796 923.065,169.348 923.328,169.067 C 923.611,168.765 923.925,168.392 924.051,167.996 C 924.285,167.259 924.747,166.703 925.181,166.083 C 925.316,165.891 925.324,165.749 925.207,165.657 C 925.104,165.576 924.597,165.976 923.979,166.627 C 922.961,167.695 921.916,168.689 920.815,169.671 C 920.481,170.004 920.148,170.339 919.813,170.672 C 919.561,170.924 919.296,171.156 919.019,171.381 C 918.499,171.801 918.039,172.273 917.567,172.745 C 917.372,172.94 917.16,173.112 916.944,173.283 C 916.287,173.803 915.636,174.332 915.043,174.924 C 914.653,175.315 914.277,175.631 913.769,175.847 C 913.625,176.377 912.881,176.788 912.451,177.085 C 912.004,177.392 911.64,177.808 911.259,178.191 C 911.028,178.42 910.988,178.451 910.895,178.468 C 910.58,178.521 910.221,178.917 909.969,179.109 C 909.821,179.405 909.369,179.608 909.105,179.801 C 909.009,179.991 908.904,180.011 908.696,180.089 C 908.412,180.197 908.259,180.325 908.043,180.541 C 907.58,181.004 907.011,181.359 906.488,181.751 C 906.161,181.972 905.847,182.197 905.537,182.443 C 905.309,182.623 905.037,182.817 904.932,182.875 C 904.56,183.079 904.028,183.387 903.832,183.78 C 903.341,183.884 903.052,184.323 902.703,184.672 L 902.444,184.767 L 902.184,184.863 C 901.735,184.901 901.249,185.403 900.871,185.64 C 900.643,185.783 900.332,185.943 900.179,185.995 C 899.712,186.156 899.292,186.493 898.883,186.764 C 897.792,187.387 896.704,188.016 895.617,188.647 C 895.071,188.92 894.525,189.189 893.965,189.433 C 893.585,189.6 893.283,189.768 893.171,189.875 C 892.912,190.12 892.467,190.128 892.129,190.205 C 892.333,189.163 892.528,188.145 892.613,187.085 C 892.681,186.221 892.545,185.428 892.323,184.603 C 892.411,184.603 892.169,184.019 892.132,183.912 C 892.133,183.912 892.133,183.912 892.133,183.912 C 892.019,183.487 891.904,183.06 891.789,182.635 C 891.453,182.251 891.096,181.885 890.745,181.515 C 889.047,183.207 887.349,184.899 885.652,186.591 L 885.527,186.591 C 885.575,186.591 885.401,186.591 885.401,186.591 L 883.328,188.665 L 883.145,189.269 C 883.148,189.299 883.152,189.327 883.155,189.356 C 883.343,189.565 883.273,189.964 883.295,190.232 C 883.329,190.667 883.275,191.328 883.173,191.701 C 883.073,192.075 883.023,192.4 883.064,192.424 C 883.179,192.492 883.065,192.504 882.973,192.553 C 882.981,192.64 882.809,192.64 882.809,192.64 C 882.809,192.813 882.809,192.813 882.809,192.985 C 886.093,196.269 886.093,196.269 886.093,196.443 L 887.821,198.171 L 888.167,197.997 Z "/>
		<path id="dp_path020" fill="#cbcbcb" fill-rule="evenodd" stroke="none" stroke-width="0" d="M 905.692,158.591 C 905.349,158.591 905.004,158.536 904.664,158.505 C 904.145,158.457 903.631,158.457 903.52,158.505 C 903.311,158.595 903.136,158.591 902.907,158.591 C 902.301,158.591 901.732,158.787 901.148,158.937 C 900.681,158.937 900.165,159.388 899.765,159.611 C 899.368,159.889 898.955,160.099 898.528,160.328 C 898.063,160.58 897.76,160.984 897.404,161.375 C 896.685,162.165 896.105,162.919 895.599,163.863 C 895.171,164.661 894.865,165.495 894.58,166.351 L 894.565,166.576 L 894.552,166.801 C 894.555,166.801 894.559,166.801 894.561,166.801 L 894.561,168.149 C 894.561,169.527 894.972,170.752 895.512,171.995 C 895.963,173.031 896.836,173.729 897.655,174.475 C 897.851,174.784 898.385,175.032 898.719,175.113 C 898.999,175.183 899.125,175.252 899.333,175.452 C 899.547,175.659 899.607,175.701 899.679,175.701 C 899.832,175.701 899.975,175.807 900.111,175.875 C 900.573,175.875 901.036,175.983 901.493,176.048 C 902.875,176.245 904.336,176.105 905.641,175.616 C 906.116,175.437 906.563,175.24 907.015,175.011 C 907.469,174.78 907.755,174.608 907.871,174.492 C 908.156,174.205 908.544,174.017 908.889,173.809 C 908.945,173.501 909.201,173.253 909.388,173.012 C 909.929,172.721 910.173,172.307 910.443,171.767 C 910.771,171.56 910.877,171.397 911.059,171.036 C 911.231,170.692 911.32,170.359 911.345,169.98 C 911.512,169.532 911.679,169.083 911.845,168.633 C 911.917,168.541 911.989,168.449 912.061,168.356 C 911.872,168.356 912.053,168.005 912.083,167.872 C 912.143,167.605 912.151,167.253 912.101,167.089 C 912.001,166.756 912.14,166.421 912.248,166.109 C 912.239,166.109 912.229,166.109 912.22,166.109 L 912.033,165.107 C 911.929,164.555 911.693,163.84 911.509,163.517 C 911.243,163.053 911.083,162.571 910.956,162.057 L 910.823,162.02 C 910.551,161.947 910.421,161.448 910.299,161.201 C 909.931,161.135 909.499,160.8 909.379,160.455 C 909.209,159.963 908.472,159.607 908.061,159.3 C 907.315,159.108 906.567,158.933 905.815,158.764 L 905.796,158.677 C 905.779,158.595 905.777,158.591 905.692,158.591 Z M 903.531,159.541 C 903.341,159.589 903.112,159.589 903.021,159.541 C 902.932,159.495 902.589,159.533 902.263,159.628 C 901.463,159.86 900.635,160.104 899.997,160.647 C 899.545,161.033 899.047,161.284 898.519,161.548 C 898.099,161.968 897.679,162.388 897.259,162.808 C 896.408,163.659 896.003,164.963 895.744,166.109 C 895.733,166.109 895.724,166.109 895.713,166.109 C 895.675,166.881 895.637,167.653 895.599,168.425 C 895.408,168.845 895.647,169.303 895.759,169.739 C 895.716,169.739 895.835,170.237 895.849,170.309 C 895.932,170.727 896.04,171.008 896.261,171.371 L 896.56,171.861 L 896.607,171.889 C 896.792,172 896.932,172.253 897.068,172.419 C 897.296,172.693 897.529,172.965 897.587,173.023 C 897.731,173.167 897.875,173.311 898.019,173.455 C 898.391,173.827 898.775,174.115 899.276,174.291 C 899.627,174.412 899.889,174.623 900.204,174.795 C 900.549,174.983 901.105,174.956 901.493,175.011 C 902.793,175.196 904.108,175.024 905.383,174.743 C 906.392,174.519 907.141,173.839 907.852,173.128 L 908.079,173.053 C 908.619,172.875 909.052,172.111 909.413,171.675 C 909.808,171.199 910.201,170.619 910.367,170.016 C 910.439,169.757 910.56,169.581 910.752,169.407 C 910.887,168.676 911.02,167.945 911.155,167.215 C 911.155,166.616 911.155,166.017 911.155,165.419 C 911.168,165.419 911.183,165.419 911.197,165.419 C 911.053,165.131 910.909,164.843 910.765,164.555 C 910.937,164.555 910.844,164.388 910.827,164.243 C 910.724,163.372 909.964,162.555 909.425,161.893 L 909.417,161.875 C 909.201,161.445 908.604,161.137 908.233,160.856 C 907.259,160.152 906.133,159.835 904.987,159.521 C 904.691,159.597 904.525,159.617 904.223,159.541 C 904.032,159.495 903.721,159.495 903.531,159.541 Z "/>
		<path id="dp_path021" fill="#cbcbcb" fill-rule="evenodd" stroke="none" stroke-width="0" d="M 879.903,192.303 C 879.78,192.164 879.701,192.121 879.525,192.121 L 877.5,194.195 L 875.476,196.268 C 876.589,197.415 877.703,198.561 878.816,199.708 L 880.191,201.121 C 881.305,202.267 881.635,202.513 881.936,202.427 C 882.537,202.253 883.099,201.924 883.655,201.645 C 884.232,201.415 884.808,201.184 885.384,200.955 C 885.903,200.724 886.42,200.493 886.939,200.263 L 887.235,200.155 L 887.529,200.045 C 885.04,197.525 882.551,195.005 880.061,192.485 Z M 882.927,195.828 L 879.78,192.64 C 879.695,192.64 879.609,192.64 879.525,192.64 C 878.328,193.837 877.104,195.008 875.888,196.185 C 876.819,197.141 877.749,198.097 878.679,199.053 L 880.044,200.504 C 881.073,201.599 881.443,201.995 881.547,202.119 C 881.631,202.217 881.935,202.157 882.324,201.964 C 882.763,201.745 883.197,201.559 883.655,201.387 C 884.78,200.964 885.869,200.449 886.975,199.976 L 886.525,199.497 C 885.353,198.248 884.131,197.047 882.927,195.828 Z "/>
		<path id="dp_path022" fill="#cbcbcb" fill-rule="evenodd" stroke="none" stroke-width="0" d="M 869.155,181.924 L 868.636,182.961 C 868.291,184.171 868.291,184.171 867.945,184.517 C 867.253,185.9 867.253,185.9 867.253,186.072 L 866.908,187.455 L 867.427,187.973 L 868.464,189.011 L 872.957,193.504 L 872.957,193.332 L 868.713,188.992 L 868.593,188.751 C 868.447,188.459 868.827,188.22 869.044,188.103 C 869.2,188.019 869.339,187.904 869.483,187.8 C 869.217,187.684 869.448,187.388 869.544,187.196 C 869.645,187.167 869.745,187.139 869.847,187.109 C 869.672,186.915 869.715,186.92 869.941,186.764 C 870.108,186.648 870.276,186.533 870.443,186.417 L 870.692,186.245 C 870.427,186.129 870.657,185.832 870.753,185.64 C 870.855,185.611 870.956,185.583 871.056,185.553 C 870.912,185.396 871.373,184.924 871.48,184.776 C 871.564,184.805 871.647,184.833 871.729,184.863 L 871.868,184.777 C 871.944,184.731 873.076,185.76 874.384,187.064 L 876.76,189.436 L 876.76,189.309 C 876.76,189.356 876.76,189.183 876.76,189.183 L 870.884,183.307 C 869.328,181.924 869.328,181.924 869.155,181.924 Z "/>
		<path id="dp_path023" fill="#ebebeb" fill-rule="evenodd" stroke="none" stroke-width="0" d="M 907.352,142.172 L 905.123,143.191 C 903.472,143.912 901.897,144.788 900.352,145.715 C 900.093,145.871 899.833,146.019 899.565,146.156 C 899.089,146.4 898.759,146.789 898.383,147.165 C 897.595,147.58 896.84,148.113 896.127,148.644 C 895.896,148.815 895.687,148.904 895.408,148.931 L 895.08,149.257 C 894.716,149.623 894.291,149.891 893.888,150.208 C 893.693,150.363 893.517,150.468 893.456,150.468 C 893.352,150.468 893.352,150.468 893.352,150.468 C 892.607,150.823 892.027,151.448 891.451,152.024 C 890.413,153.06 890.413,153.06 890.241,153.06 L 890.068,153.06 L 890.068,153.233 C 888.512,154.789 888.512,154.789 888.34,154.789 L 885.747,157.381 C 885.575,157.9 885.575,157.9 884.019,159.283 L 883.847,159.283 L 883.847,159.455 C 883.673,159.973 883.673,159.973 882.809,160.665 C 881.857,161.617 881.063,162.651 880.208,163.681 C 879.951,163.991 879.871,164.112 879.871,164.191 C 879.871,164.295 879.871,164.295 879.871,164.295 C 879.735,164.767 879.509,165.003 879.171,165.341 C 879.007,165.504 878.833,165.677 878.833,165.677 C 878.315,166.196 878.315,166.196 878.315,166.369 C 878.189,166.633 878.051,166.847 877.805,167.147 C 877.592,167.409 877.453,167.633 877.383,167.959 L 877.244,168.028 C 877.279,168.097 877.105,168.097 877.105,168.097 C 876.628,168.575 876.28,169.176 875.896,169.728 C 875.801,169.865 875.723,170.02 875.723,170.073 C 875.723,170.171 875.723,170.171 875.723,170.171 C 875.617,170.561 875.38,171.067 875.195,171.295 C 874.933,171.617 874.837,171.771 874.763,171.987 C 874.551,172.603 874.071,173.156 873.735,173.715 C 873.409,174.257 873.099,174.807 872.784,175.356 C 872.192,176.311 871.655,177.291 871.152,178.296 C 870.719,179.163 870.365,179.944 870.365,180.033 C 870.365,180.023 870.365,180.196 870.365,180.196 L 872.093,181.924 L 878.229,187.967 C 879.097,187.105 879.964,186.243 880.832,185.381 L 880.956,185.381 C 880.908,185.381 881.081,185.381 881.081,185.381 L 883.155,183.307 L 887.821,178.64 L 887.821,178.813 L 888.372,178.429 L 889.297,179.389 C 889.823,179.935 890.345,180.481 890.863,181.033 C 890.828,181.048 890.795,181.063 890.76,181.077 L 888.08,183.835 C 887.476,184.517 886.093,185.9 885.401,186.591 C 885.401,186.591 885.575,186.591 885.527,186.591 L 885.652,186.591 C 887.349,184.899 889.047,183.207 890.745,181.515 C 891.096,181.885 891.453,182.251 891.789,182.635 C 891.904,183.06 892.019,183.487 892.133,183.912 C 892.133,183.912 892.133,183.912 892.132,183.912 C 892.169,184.019 892.411,184.603 892.323,184.603 C 892.545,185.428 892.681,186.221 892.613,187.085 C 892.528,188.145 892.333,189.163 892.129,190.205 C 892.467,190.128 892.912,190.12 893.171,189.875 C 893.283,189.768 893.585,189.6 893.965,189.433 C 894.525,189.189 895.071,188.92 895.617,188.647 C 896.704,188.016 897.792,187.387 898.883,186.764 C 899.292,186.493 899.712,186.156 900.179,185.995 C 900.332,185.943 900.643,185.783 900.871,185.64 C 901.249,185.403 901.735,184.901 902.184,184.863 L 902.444,184.767 L 902.703,184.672 C 903.052,184.323 903.341,183.884 903.832,183.78 C 904.028,183.387 904.56,183.079 904.932,182.875 C 905.037,182.817 905.309,182.623 905.537,182.443 C 905.847,182.197 906.161,181.972 906.488,181.751 C 907.011,181.359 907.58,181.004 908.043,180.541 C 908.259,180.325 908.412,180.197 908.696,180.089 C 908.904,180.011 909.009,179.991 909.105,179.801 C 909.369,179.608 909.821,179.405 909.969,179.109 C 910.221,178.917 910.58,178.521 910.895,178.468 C 910.988,178.451 911.028,178.42 911.259,178.191 C 911.64,177.808 912.004,177.392 912.451,177.085 C 912.881,176.788 913.625,176.377 913.769,175.847 C 914.277,175.631 914.653,175.315 915.043,174.924 C 915.636,174.332 916.287,173.803 916.944,173.283 C 917.16,173.112 917.372,172.94 917.567,172.745 C 918.039,172.273 918.499,171.801 919.019,171.381 C 919.296,171.156 919.561,170.924 919.813,170.672 C 920.148,170.339 920.481,170.004 920.815,169.671 C 921.916,168.689 922.961,167.695 923.979,166.627 C 924.597,165.976 925.104,165.576 925.207,165.657 C 925.324,165.749 925.316,165.891 925.181,166.083 C 924.747,166.703 924.285,167.259 924.051,167.996 C 923.925,168.392 923.611,168.765 923.328,169.067 C 923.065,169.348 922.768,169.796 922.735,170.189 C 922.671,170.363 922.607,170.535 922.543,170.708 C 922.267,170.984 921.991,171.26 921.715,171.536 C 921.571,171.824 921.392,172.081 921.188,172.332 C 920.94,172.636 920.779,172.939 920.643,173.3 C 920.365,173.576 920.089,173.852 919.813,174.128 C 919.513,174.708 919.08,175.211 918.617,175.669 C 918.545,175.74 918.471,175.809 918.413,175.893 C 918.2,176.252 918.072,176.561 917.704,176.757 C 917.253,177.285 916.812,177.821 916.321,178.312 C 916.205,178.428 915.808,178.853 915.129,179.591 C 914.512,180.26 913.889,180.917 913.247,181.56 C 912.693,182.052 912.109,182.524 911.587,183.048 C 911.253,183.381 910.92,183.705 910.549,183.999 C 910.333,184.169 910.12,184.34 909.927,184.535 C 909.488,184.973 909.037,185.368 908.544,185.744 C 908.211,185.997 907.792,186.188 907.679,186.6 C 907.419,186.731 907.157,186.86 906.897,186.991 C 906.869,187.091 906.843,187.191 906.815,187.291 C 906.408,187.536 906.004,187.775 905.623,188.06 C 905.163,188.405 904.701,188.751 904.24,189.097 C 903.671,189.525 903.159,190.061 902.512,190.384 C 901.824,190.728 901.123,191.125 900.525,191.612 C 900.203,191.873 900.049,191.969 899.833,192.044 C 899.337,192.215 898.985,192.537 898.624,192.899 C 898.269,193.253 897.941,193.451 897.5,193.677 C 896.919,194.037 896.343,194.487 895.659,194.607 C 895.337,194.875 895.032,195.113 894.631,195.255 L 894.199,195.405 C 893.923,195.629 893.647,195.855 893.369,196.079 C 892.264,196.552 891.157,197.024 890.051,197.497 C 889.66,197.683 889.124,198.081 888.715,197.783 C 888.461,197.6 888.415,197.648 888.34,198.171 L 889.165,199.055 C 890.267,198.477 891.368,197.901 892.469,197.324 L 893.603,196.797 C 893.871,196.615 894.389,196.443 894.735,196.269 L 895.944,195.751 L 895.944,195.579 C 896.148,195.341 896.313,195.221 896.593,195.081 C 897.173,194.791 897.721,194.443 898.277,194.109 C 898.651,193.885 899.032,193.684 899.419,193.487 C 899.695,193.211 899.972,192.935 900.248,192.657 C 901.389,192.059 902.505,191.259 903.54,190.488 C 903.86,190.251 904.213,190.071 904.568,189.892 L 904.664,189.884 C 904.759,189.875 904.759,189.875 904.759,189.875 C 905.199,189.665 905.616,189.364 905.96,189.02 C 905.969,189.011 906.141,188.837 906.141,188.837 C 906.447,188.532 906.752,188.24 907.084,187.964 C 907.393,187.708 907.515,187.628 907.593,187.628 C 907.697,187.628 907.697,187.628 907.697,187.628 C 908.503,187.245 909.148,186.523 909.772,185.9 C 910.981,184.689 910.981,184.689 911.155,184.689 L 911.327,184.689 L 911.327,184.517 C 914.092,181.751 914.092,181.751 914.265,181.751 L 915.648,180.368 C 915.648,180.196 915.648,180.196 916.685,179.159 L 917.031,178.813 C 917.203,178.295 917.203,178.295 918.068,177.603 C 919.183,176.488 920.116,175.228 921.092,173.991 C 921.245,173.796 921.352,173.62 921.352,173.559 C 921.352,173.455 921.352,173.455 921.352,173.455 C 921.477,173.191 921.616,172.977 921.861,172.677 C 922.075,172.415 922.213,172.191 922.284,171.865 L 922.423,171.796 C 922.388,171.727 922.561,171.727 922.561,171.727 C 922.7,171.588 922.82,171.448 923.003,171.211 C 923.14,171.031 923.252,170.84 923.252,170.787 C 923.252,170.689 923.252,170.689 923.252,170.689 C 923.357,170.3 923.595,169.793 923.78,169.567 C 924.043,169.244 924.137,169.091 924.212,168.875 C 924.372,168.412 924.709,168 924.981,167.596 L 924.981,167.76 C 924.981,167.752 924.981,167.924 924.981,167.924 L 925.153,167.924 C 925.153,167.837 925.153,167.752 925.153,167.665 C 925.153,167.579 925.153,167.579 925.153,167.579 C 925.551,166.541 926.011,165.595 926.545,164.62 C 927.069,163.667 927.4,163 927.4,162.9 C 927.4,162.912 927.4,162.739 927.4,162.739 L 926.017,161.356 C 921.179,156.517 921.179,156.517 921.179,156.344 L 919.796,154.961 C 914.956,150.123 914.956,150.123 914.956,149.949 L 913.401,148.393 L 912.019,147.029 L 912.277,147.745 C 912.42,148.14 912.537,148.716 912.537,149.025 C 912.537,149.799 911.801,150.095 911.24,150.468 C 910.981,150.64 910.721,150.813 910.463,150.987 C 910.313,151.091 910.163,151.193 910.013,151.297 C 909.633,151.439 909.313,151.6 908.993,151.86 C 908.671,152.121 908.519,152.217 908.303,152.292 C 907.835,152.452 907.416,152.789 907.005,153.06 C 905.997,153.636 904.989,154.212 903.981,154.789 C 902.587,155.587 901.165,156.341 899.756,157.113 C 897.864,158.149 895.956,159.157 893.957,159.973 C 892.873,160.416 891.807,160.891 890.741,161.375 C 890.339,161.548 889.935,161.72 889.532,161.893 C 889.192,162.06 888.852,162.227 888.512,162.393 C 888.224,162.509 887.936,162.624 887.648,162.739 C 886.84,163.108 886.009,163.372 885.163,163.649 C 883.989,164.035 882.836,164.255 881.612,164.325 L 881.328,164.228 C 880.821,164.052 881.423,163.377 881.591,163.171 C 881.843,162.861 881.945,162.701 881.999,162.535 C 882.061,162.344 882.112,162.268 882.363,161.999 C 882.92,161.397 883.457,160.777 884.001,160.164 C 886.968,156.868 890.145,153.759 893.611,150.987 C 894.648,150.157 895.725,149.377 896.791,148.584 C 897.035,148.451 897.253,148.313 897.475,148.143 C 897.64,148.015 897.913,147.859 898.08,147.797 C 898.315,147.709 898.475,147.609 898.796,147.348 C 899.119,147.085 899.272,146.989 899.488,146.916 C 899.64,146.863 900.184,146.556 900.697,146.233 C 901.521,145.715 902.355,145.224 903.291,144.937 C 903.633,144.832 904.193,144.595 904.537,144.408 C 905.356,143.965 906.179,143.693 907.111,143.9 C 907.643,144.019 908.075,144.167 908.561,144.409 C 908.933,144.596 909.301,144.757 909.711,144.829 C 909.328,144.423 908.945,144.016 908.561,143.608 L 908.561,143.495 C 908.561,143.381 908.561,143.381 908.561,143.381 Z M 905.692,158.591 C 905.349,158.591 905.004,158.536 904.664,158.505 C 904.145,158.457 903.631,158.457 903.52,158.505 C 903.311,158.595 903.136,158.591 902.907,158.591 C 902.301,158.591 901.732,158.787 901.148,158.937 C 900.681,158.937 900.165,159.388 899.765,159.611 C 899.368,159.889 898.955,160.099 898.528,160.328 C 898.063,160.58 897.76,160.984 897.404,161.375 C 896.685,162.165 896.105,162.919 895.599,163.863 C 895.171,164.661 894.865,165.495 894.58,166.351 L 894.565,166.576 L 894.552,166.801 C 894.555,166.801 894.559,166.801 894.561,166.801 L 894.561,168.149 C 894.561,169.527 894.972,170.752 895.512,171.995 C 895.963,173.031 896.836,173.729 897.655,174.475 C 897.851,174.784 898.385,175.032 898.719,175.113 C 898.999,175.183 899.125,175.252 899.333,175.452 C 899.547,175.659 899.607,175.701 899.679,175.701 C 899.832,175.701 899.975,175.807 900.111,175.875 C 900.573,175.875 901.036,175.983 901.493,176.048 C 902.875,176.245 904.336,176.105 905.641,175.616 C 906.116,175.437 906.563,175.24 907.015,175.011 C 907.469,174.78 907.755,174.608 907.871,174.492 C 908.156,174.205 908.544,174.017 908.889,173.809 C 908.945,173.501 909.201,173.253 909.388,173.012 C 909.929,172.721 910.173,172.307 910.443,171.767 C 910.771,171.56 910.877,171.397 911.059,171.036 C 911.231,170.692 911.32,170.359 911.345,169.98 C 911.512,169.532 911.679,169.083 911.845,168.633 C 911.917,168.541 911.989,168.449 912.061,168.356 C 911.872,168.356 912.053,168.005 912.083,167.872 C 912.143,167.605 912.151,167.253 912.101,167.089 C 912.001,166.756 912.14,166.421 912.248,166.109 C 912.239,166.109 912.229,166.109 912.22,166.109 L 912.033,165.107 C 911.929,164.555 911.693,163.84 911.509,163.517 C 911.243,163.053 911.083,162.571 910.956,162.057 L 910.823,162.02 C 910.551,161.947 910.421,161.448 910.299,161.201 C 909.931,161.135 909.499,160.8 909.379,160.455 C 909.209,159.963 908.472,159.607 908.061,159.3 C 907.315,159.108 906.567,158.933 905.815,158.764 L 905.796,158.677 C 905.779,158.595 905.777,158.591 905.692,158.591 Z "/>
		<path id="dp_path024" fill="#ebebeb" fill-rule="evenodd" stroke="none" stroke-width="0" d="M 903.531,159.541 C 903.341,159.589 903.112,159.589 903.021,159.541 C 902.932,159.495 902.589,159.533 902.263,159.628 C 901.463,159.86 900.635,160.104 899.997,160.647 C 899.545,161.033 899.047,161.284 898.519,161.548 C 898.099,161.968 897.679,162.388 897.259,162.808 C 896.408,163.659 896.003,164.963 895.744,166.109 C 895.733,166.109 895.724,166.109 895.713,166.109 C 895.675,166.881 895.637,167.653 895.599,168.425 C 895.408,168.845 895.647,169.303 895.759,169.739 C 895.716,169.739 895.835,170.237 895.849,170.309 C 895.932,170.727 896.04,171.008 896.261,171.371 L 896.56,171.861 L 896.607,171.889 C 896.792,172 896.932,172.253 897.068,172.419 C 897.296,172.693 897.529,172.965 897.587,173.023 C 897.731,173.167 897.875,173.311 898.019,173.455 C 898.391,173.827 898.775,174.115 899.276,174.291 C 899.627,174.412 899.889,174.623 900.204,174.795 C 900.549,174.983 901.105,174.956 901.493,175.011 C 902.793,175.196 904.108,175.024 905.383,174.743 C 906.392,174.519 907.141,173.839 907.852,173.128 L 908.079,173.053 C 908.619,172.875 909.052,172.111 909.413,171.675 C 909.808,171.199 910.201,170.619 910.367,170.016 C 910.439,169.757 910.56,169.581 910.752,169.407 C 910.887,168.676 911.02,167.945 911.155,167.215 C 911.155,166.616 911.155,166.017 911.155,165.419 C 911.168,165.419 911.183,165.419 911.197,165.419 C 911.053,165.131 910.909,164.843 910.765,164.555 C 910.937,164.555 910.844,164.388 910.827,164.243 C 910.724,163.372 909.964,162.555 909.425,161.893 L 909.417,161.875 C 909.201,161.445 908.604,161.137 908.233,160.856 C 907.259,160.152 906.133,159.835 904.987,159.521 C 904.691,159.597 904.525,159.617 904.223,159.541 C 904.032,159.495 903.721,159.495 903.531,159.541 Z M 908.892,163.815 L 908.677,163.776 C 907.371,163.776 906.065,163.776 904.759,163.776 L 904.557,163.863 L 904.356,163.949 L 902.301,163.949 C 900.887,163.949 899.512,164.015 898.105,164.141 L 898.061,164.832 C 898.029,165.352 898.019,165.867 898.019,166.387 C 898.019,166.903 897.997,167.385 897.919,167.895 C 897.855,168.305 897.841,168.544 898.249,168.616 C 900.028,168.616 901.791,168.541 903.567,168.443 C 905.172,168.443 906.768,168.355 908.371,168.271 L 908.639,168.203 C 908.853,168.148 908.907,167.855 908.907,166.724 C 908.907,166 908.909,165.3 909.007,164.583 C 909.076,164.072 909.041,163.84 908.892,163.815 Z "/>
		<path id="dp_path025" fill="#ebebeb" fill-rule="evenodd" stroke="none" stroke-width="0" d="M 882.927,195.828 L 879.78,192.64 C 879.695,192.64 879.609,192.64 879.525,192.64 C 878.328,193.837 877.104,195.008 875.888,196.185 C 876.819,197.141 877.749,198.097 878.679,199.053 L 880.044,200.504 C 881.073,201.599 881.443,201.995 881.547,202.119 C 881.631,202.217 881.935,202.157 882.324,201.964 C 882.763,201.745 883.197,201.559 883.655,201.387 C 884.78,200.964 885.869,200.449 886.975,199.976 L 886.525,199.497 C 885.353,198.248 884.131,197.047 882.927,195.828 Z "/>
		<path id="dp_path026" fill="#ebebeb" fill-rule="evenodd" stroke="none" stroke-width="0" d="M 872.957,193.332 L 868.713,188.992 L 868.593,188.751 C 868.447,188.459 868.827,188.22 869.044,188.103 C 869.2,188.019 869.339,187.904 869.483,187.8 C 869.217,187.684 869.448,187.388 869.544,187.196 C 869.645,187.167 869.745,187.139 869.847,187.109 C 869.672,186.915 869.715,186.92 869.941,186.764 C 870.108,186.648 870.276,186.533 870.443,186.417 L 870.692,186.245 C 870.427,186.129 870.657,185.832 870.753,185.64 C 870.855,185.611 870.956,185.583 871.056,185.553 C 870.912,185.396 871.373,184.924 871.48,184.776 C 871.564,184.805 871.647,184.833 871.729,184.863 L 871.868,184.777 C 871.944,184.731 873.076,185.76 874.384,187.064 L 876.76,189.436 L 876.76,189.309 C 876.76,189.356 876.76,189.183 876.76,189.183 C 876.76,189.183 876.932,189.183 876.963,189.285 L 877.167,189.387 C 875.78,190.723 874.389,192.044 872.957,193.332 Z "/>
		<path id="dp_path027" fill="#ebebeb" fill-rule="evenodd" stroke="none" stroke-width="0" d="M 869.847,192.813 C 869.673,192.813 869.501,192.985 869.423,193.149 C 868.592,193.812 867.897,194.596 867.236,195.424 C 865.829,197.192 864.455,198.979 862.941,200.659 C 862.612,201.025 862.337,201.384 861.905,201.619 C 861.713,201.723 861.481,201.752 861.723,201.887 C 861.808,201.935 862.356,201.739 862.94,201.451 C 863.62,201.116 864.223,200.788 864.825,200.34 C 865.831,199.593 866.809,198.797 867.772,197.997 C 868.119,197.48 868.119,197.48 868.809,197.133 C 869.501,196.443 869.501,196.443 869.847,196.443 L 870.019,196.443 L 870.019,196.269 C 869.512,196.085 869.427,196.115 868.805,196.68 C 867.472,197.892 866.1,199.092 864.652,200.168 C 864.061,200.607 863.484,200.881 862.779,201.109 L 863.296,200.581 C 864.803,199.048 866.072,197.276 867.409,195.596 C 868.071,194.769 868.764,193.984 869.596,193.323 C 869.673,193.159 869.847,192.985 870.019,192.985 L 870.019,192.813 Z "/>
		<path id="dp_path028" fill="#ebebeb" fill-rule="evenodd" stroke="none" stroke-width="0" d="M 883.328,188.665 L 881.772,190.22 C 881.253,190.912 881.253,190.912 881.253,191.257 L 881.599,191.603 L 882.809,192.64 C 882.809,192.64 882.981,192.64 882.973,192.553 C 883.065,192.504 883.179,192.492 883.064,192.424 C 883.023,192.4 883.073,192.075 883.173,191.701 C 883.275,191.328 883.329,190.667 883.295,190.232 C 883.273,189.964 883.343,189.565 883.155,189.356 C 883.152,189.327 883.148,189.299 883.145,189.269 Z "/>
		<path id="dp_path029" fill="#ebebeb" fill-rule="evenodd" stroke="none" stroke-width="0" d="M 882.809,192.985 C 882.981,193.504 882.981,193.504 886.093,196.443 C 886.093,196.269 886.093,196.269 882.809,192.985 Z "/>
		<path id="dp_path030" fill="#ebebeb" fill-rule="evenodd" stroke="none" stroke-width="0" d="M 870.884,183.307 C 870.82,183.083 870.431,182.576 870.017,182.181 L 869.265,181.464 L 869.211,181.693 C 869.155,181.751 869.155,181.924 869.155,181.924 C 869.328,181.924 869.328,181.924 870.884,183.307 Z "/>
		<path id="dp_path031" fill="#ebebeb" fill-rule="evenodd" stroke="none" stroke-width="0" d="M 868.636,182.961 C 867.945,184.344 867.945,184.344 867.945,184.517 C 868.291,184.171 868.291,184.171 868.636,182.961 Z "/>
		<path id="dp_path032" fill="#ebebeb" fill-rule="evenodd" stroke="none" stroke-width="0" d="M 867.253,186.072 L 866.563,187.283 L 866.908,187.455 Z "/>
		<path id="dp_path033" fill="#ebebeb" fill-rule="evenodd" stroke="none" stroke-width="0" d="M 867.427,187.973 C 867.499,188.224 867.715,188.559 867.907,188.719 C 868.157,188.928 868.285,189.011 868.36,189.011 C 868.464,189.011 868.464,189.011 868.464,189.011 Z "/>
		<path id="dp_path034" fill="#fefefe" fill-rule="evenodd" stroke="none" stroke-width="0" d="M 913.401,148.393 L 912.019,147.029 L 912.277,147.745 C 912.42,148.14 912.537,148.716 912.537,149.025 C 912.537,149.799 911.801,150.095 911.24,150.468 C 910.981,150.64 910.721,150.813 910.463,150.987 C 910.313,151.091 910.163,151.193 910.013,151.297 C 909.633,151.439 909.313,151.6 908.993,151.86 C 908.671,152.121 908.519,152.217 908.303,152.292 C 907.835,152.452 907.416,152.789 907.005,153.06 C 905.997,153.636 904.989,154.212 903.981,154.789 C 902.587,155.587 901.165,156.341 899.756,157.113 C 897.864,158.149 895.956,159.157 893.957,159.973 C 892.873,160.416 891.807,160.891 890.741,161.375 C 890.339,161.548 889.935,161.72 889.532,161.893 C 889.192,162.06 888.852,162.227 888.512,162.393 C 888.224,162.509 887.936,162.624 887.648,162.739 C 886.84,163.108 886.009,163.372 885.163,163.649 C 883.989,164.035 882.836,164.255 881.612,164.325 L 881.328,164.228 C 880.821,164.052 881.423,163.377 881.591,163.171 C 881.843,162.861 881.945,162.701 881.999,162.535 C 882.061,162.344 882.112,162.268 882.363,161.999 C 882.92,161.397 883.457,160.777 884.001,160.164 C 886.968,156.868 890.145,153.759 893.611,150.987 C 894.648,150.157 895.725,149.377 896.791,148.584 C 897.035,148.451 897.253,148.313 897.475,148.143 C 897.64,148.015 897.913,147.859 898.08,147.797 C 898.315,147.709 898.475,147.609 898.796,147.348 C 899.119,147.085 899.272,146.989 899.488,146.916 C 899.64,146.863 900.184,146.556 900.697,146.233 C 901.521,145.715 902.355,145.224 903.291,144.937 C 903.633,144.832 904.193,144.595 904.537,144.408 C 905.356,143.965 906.179,143.693 907.111,143.9 C 907.643,144.019 908.075,144.167 908.561,144.409 C 908.933,144.596 909.301,144.757 909.711,144.829 C 909.328,144.423 908.945,144.016 908.561,143.608 L 908.561,143.495 C 908.561,143.381 908.561,143.381 908.561,143.381 C 913.228,147.875 913.228,147.875 913.401,148.393 Z "/>
		<path id="dp_path035" fill="#fefefe" fill-rule="evenodd" stroke="none" stroke-width="0" d="M 908.892,163.815 L 908.677,163.776 C 907.371,163.776 906.065,163.776 904.759,163.776 L 904.557,163.863 L 904.356,163.949 L 902.301,163.949 C 900.887,163.949 899.512,164.015 898.105,164.141 L 898.061,164.832 C 898.029,165.352 898.019,165.867 898.019,166.387 C 898.019,166.903 897.997,167.385 897.919,167.895 C 897.855,168.305 897.841,168.544 898.249,168.616 C 900.028,168.616 901.791,168.541 903.567,168.443 C 905.172,168.443 906.768,168.355 908.371,168.271 L 908.639,168.203 C 908.853,168.148 908.907,167.855 908.907,166.724 C 908.907,166 908.909,165.3 909.007,164.583 C 909.076,164.072 909.041,163.84 908.892,163.815 Z "/>
		<path id="dp_path036" fill="#fefefe" fill-rule="evenodd" stroke="none" stroke-width="0" d="M 932.413,136.641 L 931.531,136.641 C 930.772,136.451 929.985,136.52 929.209,136.567 C 927.033,136.699 924.867,136.887 922.716,137.245 C 921.092,137.516 919.487,137.857 917.876,138.196 C 917.255,138.421 916.633,138.645 916.012,138.869 C 914.796,139.173 913.596,139.513 912.401,139.892 C 911.932,140.041 911.46,140.157 910.981,140.273 L 910.981,140.359 C 910.981,140.443 910.981,140.443 910.981,140.443 C 911.155,140.443 911.5,140.443 911.681,140.435 L 912.381,140.425 C 915.833,140.015 919.276,139.575 922.716,139.079 C 924.487,138.925 926.241,138.775 927.997,138.493 C 929.631,138.232 931.345,138.003 932.86,137.304 L 932.903,137.149 C 932.927,137.064 932.705,136.835 932.413,136.641 Z "/>
		<path id="dp_path037" fill="#fefefe" fill-rule="evenodd" stroke="none" stroke-width="0" d="M 870.019,196.269 C 869.512,196.085 869.427,196.115 868.805,196.68 C 867.472,197.892 866.1,199.092 864.652,200.168 C 864.061,200.607 863.484,200.881 862.779,201.109 L 863.296,200.581 C 864.803,199.048 866.072,197.276 867.409,195.596 C 868.071,194.769 868.764,193.984 869.596,193.323 C 869.673,193.159 869.847,192.985 870.019,192.985 L 871.748,194.715 Z "/>
		<path id="dp_path038" fill="#fefefe" fill-rule="evenodd" stroke="none" stroke-width="0" d="M 907.352,142.172 C 906.645,142.172 905.948,142.585 905.296,142.845 C 903.684,143.572 902.147,144.405 900.611,145.283 C 900.213,145.487 899.837,145.7 899.488,145.983 C 899.183,146.232 898.885,146.384 898.519,146.511 C 898.243,146.787 897.967,147.063 897.691,147.339 L 897.509,147.435 C 897.141,147.627 896.805,147.879 896.472,148.125 C 896.243,148.296 896.032,148.385 895.753,148.412 C 895.477,148.688 895.201,148.964 894.925,149.24 C 894.799,149.252 894.671,149.264 894.544,149.276 C 894.236,149.584 893.928,149.892 893.62,150.2 C 893.525,150.295 893.352,150.468 893.352,150.468 C 893.352,150.468 893.352,150.468 893.456,150.468 C 893.517,150.468 893.693,150.363 893.888,150.208 C 894.291,149.891 894.716,149.623 895.08,149.257 L 895.408,148.931 C 895.687,148.904 895.896,148.815 896.127,148.644 C 896.84,148.113 897.595,147.58 898.383,147.165 C 898.759,146.789 899.089,146.4 899.565,146.156 C 899.833,146.019 900.093,145.871 900.352,145.715 C 901.897,144.788 903.472,143.912 905.123,143.191 Z "/>
		<path id="dp_path039" fill="#fefefe" fill-rule="evenodd" stroke="none" stroke-width="0" d="M 872.093,181.924 C 872.148,182.127 873.555,183.648 875.217,185.308 L 878.24,188.323 C 879.187,187.343 880.117,186.345 881.081,185.381 C 881.081,185.381 880.908,185.381 880.956,185.381 L 880.832,185.381 C 879.964,186.243 879.097,187.105 878.229,187.967 Z "/>
		<path id="dp_path040" fill="#fefefe" fill-rule="evenodd" stroke="none" stroke-width="0" d="M 875.723,170.171 C 875.413,170.481 875.108,170.855 874.953,171.269 C 874.865,171.504 874.765,171.665 874.504,171.987 C 874.241,172.308 874.147,172.461 874.072,172.677 C 873.911,173.145 873.573,173.564 873.303,173.973 C 872.164,175.967 871.089,177.991 870.019,180.023 L 870.192,180.109 C 870.192,180.196 870.365,180.196 870.365,180.196 C 870.365,180.196 870.365,180.023 870.365,180.033 C 870.365,179.944 870.719,179.163 871.152,178.296 C 871.655,177.291 872.192,176.311 872.784,175.356 C 873.099,174.807 873.409,174.257 873.735,173.715 C 874.071,173.156 874.551,172.603 874.763,171.987 C 874.837,171.771 874.933,171.617 875.195,171.295 C 875.38,171.067 875.617,170.561 875.723,170.171 Z "/>
		<path id="dp_path041" fill="#fefefe" fill-rule="evenodd" stroke="none" stroke-width="0" d="M 895.944,195.579 C 896.148,195.341 896.313,195.221 896.593,195.081 C 897.173,194.791 897.721,194.443 898.277,194.109 C 898.651,193.885 899.032,193.684 899.419,193.487 C 899.695,193.211 899.972,192.935 900.248,192.657 C 901.389,192.059 902.505,191.259 903.54,190.488 C 903.86,190.251 904.213,190.071 904.568,189.892 L 904.664,189.884 C 904.759,189.875 904.759,189.875 904.759,189.875 C 904.759,189.875 904.759,189.875 904.751,189.884 C 904.471,190.163 904.192,190.441 903.913,190.721 C 903.635,190.747 903.424,190.836 903.195,191.007 C 902.48,191.537 901.727,192.072 900.939,192.485 C 900.663,192.761 900.387,193.037 900.111,193.313 C 899.744,193.44 899.447,193.592 899.141,193.841 C 898.793,194.124 898.416,194.337 898.019,194.541 C 897.679,194.765 897.339,194.991 897,195.215 Z "/>
		<path id="dp_path042" fill="#fefefe" fill-rule="evenodd" stroke="none" stroke-width="0" d="M 894.735,196.269 C 894.389,196.443 893.871,196.615 893.603,196.797 L 892.469,197.324 C 891.368,197.901 890.267,198.477 889.165,199.055 L 888.34,198.171 L 888.167,197.997 L 887.821,198.171 C 888.233,198.583 888.673,198.957 889.115,199.339 C 890.239,198.777 891.363,198.215 892.488,197.652 C 893.237,197.249 893.985,196.845 894.735,196.443 L 894.735,196.356 C 894.735,196.269 894.735,196.269 894.735,196.269 Z "/>
		<path id="dp_path043" fill="#fefefe" fill-rule="evenodd" stroke="none" stroke-width="0" d="M 926.017,161.356 C 921.179,156.517 921.179,156.517 921.179,156.344 C 925.845,160.839 925.845,160.839 926.017,161.356 Z "/>
		<path id="dp_path044" fill="#fefefe" fill-rule="evenodd" stroke="none" stroke-width="0" d="M 919.796,154.961 C 914.956,150.123 914.956,150.123 914.956,149.949 C 919.623,154.443 919.623,154.443 919.796,154.961 Z "/>
		<path id="dp_path045" fill="#fefefe" fill-rule="evenodd" stroke="none" stroke-width="0" d="M 883.155,183.307 L 887.821,178.64 L 887.821,178.813 C 883.673,183.133 883.673,183.133 883.155,183.307 Z "/>
		<path id="dp_path046" fill="#fefefe" fill-rule="evenodd" stroke="none" stroke-width="0" d="M 925.153,167.579 C 925.551,166.541 926.011,165.595 926.545,164.62 C 927.069,163.667 927.4,163 927.4,162.9 C 927.4,162.912 927.4,162.739 927.4,162.739 C 927.4,162.739 927.573,162.739 927.573,162.825 L 927.747,162.912 C 927.171,164.007 926.595,165.101 926.017,166.196 C 925.816,166.66 925.624,167.319 925.153,167.579 Z "/>
		<path id="dp_path047" fill="#fefefe" fill-rule="evenodd" stroke="none" stroke-width="0" d="M 911.327,184.517 C 914.092,181.751 914.092,181.751 914.265,181.751 C 911.845,184.344 911.845,184.344 911.327,184.517 Z "/>
		<path id="dp_path048" fill="#fefefe" fill-rule="evenodd" stroke="none" stroke-width="0" d="M 923.252,170.689 C 923.357,170.3 923.595,169.793 923.78,169.567 C 924.043,169.244 924.137,169.091 924.212,168.875 C 924.372,168.412 924.709,168 924.981,167.596 L 924.981,167.76 C 924.981,167.752 924.981,167.924 924.981,167.924 C 924.981,167.924 924.981,168.097 924.885,168.192 C 924.579,169.053 923.9,170.043 923.252,170.689 Z "/>
		<path id="dp_path049" fill="#fefefe" fill-rule="evenodd" stroke="none" stroke-width="0" d="M 885.747,157.381 C 884.019,159.109 884.019,159.109 884.019,159.283 C 885.575,157.9 885.575,157.9 885.747,157.381 Z "/>
		<path id="dp_path050" fill="#fefefe" fill-rule="evenodd" stroke="none" stroke-width="0" d="M 890.068,153.233 C 889.549,153.407 889.549,153.407 888.34,154.789 C 888.512,154.789 888.512,154.789 890.068,153.233 Z "/>
		<path id="dp_path051" fill="#fefefe" fill-rule="evenodd" stroke="none" stroke-width="0" d="M 878.315,166.369 C 877.921,166.763 877.596,167.196 877.279,167.655 C 877.184,167.791 877.105,167.947 877.105,168 C 877.105,168.097 877.105,168.097 877.105,168.097 C 877.105,168.097 877.279,168.097 877.244,168.028 L 877.383,167.959 C 877.453,167.633 877.592,167.409 877.805,167.147 C 878.051,166.847 878.189,166.633 878.315,166.369 Z "/>
		<path id="dp_path052" fill="#fefefe" fill-rule="evenodd" stroke="none" stroke-width="0" d="M 921.352,173.455 C 921.477,173.191 921.616,172.977 921.861,172.677 C 922.075,172.415 922.213,172.191 922.284,171.865 L 922.423,171.796 C 922.388,171.727 922.561,171.727 922.561,171.727 C 922.561,171.727 922.561,171.727 922.561,171.824 C 922.561,171.877 922.483,172.033 922.388,172.169 C 922.071,172.628 921.745,173.061 921.352,173.455 Z "/>
		<path id="dp_path053" fill="#fefefe" fill-rule="evenodd" stroke="none" stroke-width="0" d="M 906.141,188.837 C 906.447,188.532 906.752,188.24 907.084,187.964 C 907.393,187.708 907.515,187.628 907.593,187.628 C 907.697,187.628 907.697,187.628 907.697,187.628 C 907.697,187.628 907.524,187.8 907.429,187.896 C 907.053,188.272 906.624,188.608 906.141,188.837 Z "/>
		<path id="dp_path054" fill="#fefefe" fill-rule="evenodd" stroke="none" stroke-width="0" d="M 909.772,185.9 C 910.981,184.689 910.981,184.689 911.155,184.689 C 910.289,185.727 910.289,185.727 909.772,185.9 Z "/>
		<path id="dp_path055" fill="#fefefe" fill-rule="evenodd" stroke="none" stroke-width="0" d="M 881.599,191.603 C 881.772,192.121 881.772,192.121 882.809,192.985 C 882.809,192.813 882.809,192.813 882.809,192.64 Z "/>
		<path id="dp_path056" fill="#fefefe" fill-rule="evenodd" stroke="none" stroke-width="0" d="M 879.871,164.295 C 879.592,164.573 879.324,164.844 879.084,165.157 C 878.947,165.336 878.833,165.527 878.833,165.58 C 878.833,165.677 878.833,165.677 878.833,165.677 C 878.833,165.677 879.007,165.504 879.171,165.341 C 879.509,165.003 879.735,164.767 879.871,164.295 Z "/>
		<path id="dp_path057" fill="#fefefe" fill-rule="evenodd" stroke="none" stroke-width="0" d="M 915.648,180.368 C 915.648,180.196 915.648,180.196 916.685,179.159 C 916.685,179.332 916.685,179.332 915.648,180.368 Z "/>
		<path id="dp_path058" fill="#fefefe" fill-rule="evenodd" stroke="none" stroke-width="0" d="M 883.847,159.455 C 882.809,160.492 882.809,160.492 882.809,160.665 C 883.673,159.973 883.673,159.973 883.847,159.455 Z "/>
		<path id="dp_path059" fill="#fefefe" fill-rule="evenodd" stroke="none" stroke-width="0" d="M 891.451,152.024 C 890.932,152.196 890.932,152.196 890.241,153.06 C 890.413,153.06 890.413,153.06 891.451,152.024 Z "/>
		<path id="dp_path060" fill="#fefefe" fill-rule="evenodd" stroke="none" stroke-width="0" d="M 917.031,178.813 C 917.203,178.295 917.203,178.295 918.068,177.603 C 918.068,177.776 918.068,177.776 917.031,178.813 Z "/>
		<path id="dp_path061" fill="#fefefe" fill-rule="evenodd" stroke="none" stroke-width="0" d="M 881.772,190.22 C 881.539,190.288 880.616,190.796 881.053,191.112 C 881.081,191.084 881.253,191.257 881.253,191.257 C 881.253,190.912 881.253,190.912 881.772,190.22 Z "/>
	</g>
</svg>